<?xml version="1.0" encoding="utf-8"?>
<!-- Generator: Adobe Illustrator 23.0.0, SVG Export Plug-In . SVG Version: 6.00 Build 0)  -->
<svg version="1.1" id="Layer_1" xmlns="http://www.w3.org/2000/svg" xmlns:xlink="http://www.w3.org/1999/xlink" x="0px" y="0px"
	 viewBox="0 0 200 54" style="enable-background:new 0 0 200 54;" xml:space="preserve">
<style type="text/css">
	.st0{fill:#FFFFFF;}
	.st1{font-family:'GalanoGrotesque-Medium';}
	.st2{font-size:57.7471px;}
	.st3{fill-rule:evenodd;clip-rule:evenodd;fill:#FFFFFF;}
</style>
<rect x="7" y="66" width="200" height="54"/>
<text transform="matrix(1 0 0 1 83.5078 44.9102)" class="st0 st1 st2">+</text>
<g>
	<g>
		<polyline class="st0" points="149.49,7.17 129.92,7.17 129.92,47 169.32,47 169.32,27.08 159.32,27.08 159.32,37.17 139.75,37.17 
			139.75,17.17 149.62,17.17 149.62,7.17 		"/>
		<rect x="149.62" y="16.91" class="st0" width="9.7" height="10.18"/>
		<rect x="167.14" y="16.21" class="st0" width="8" height="8"/>
		<rect x="154.97" y="3.77" class="st0" width="10" height="10.09"/>
		<rect x="169.32" y="2.9" class="st0" width="8.61" height="7.83"/>
	</g>
	<g>
		<polygon class="st0" points="139.75,36.66 139.75,17.17 149.62,17.17 149.62,7.17 129.92,7.17 129.92,46.49 		"/>
		<polygon class="st0" points="159.32,17.09 159.32,16.91 149.62,16.91 149.62,26.79 		"/>
		<rect x="167.14" y="16.21" class="st0" width="8" height="8"/>
		<polyline class="st0" points="164.97,11.44 164.97,3.77 154.97,3.77 154.97,13.86 162.55,13.86 		"/>
		<polygon class="st0" points="173.51,2.9 169.32,2.9 169.32,7.09 		"/>
	</g>
</g>
<g>
	<path class="st0" d="M32.73,22.27c0,0.86,0.09,1.56,0.26,2.07c0.19,0.51,0.42,1.07,0.74,1.68c0.12,0.19,0.16,0.37,0.16,0.54
		c0,0.23-0.14,0.47-0.44,0.7l-1.47,0.98c-0.21,0.14-0.42,0.21-0.61,0.21c-0.23,0-0.47-0.12-0.7-0.33c-0.33-0.35-0.61-0.72-0.84-1.09
		c-0.23-0.4-0.47-0.84-0.72-1.37c-1.82,2.14-4.1,3.21-6.84,3.21c-1.96,0-3.52-0.56-4.66-1.68c-1.14-1.12-1.72-2.61-1.72-4.47
		c0-1.98,0.7-3.58,2.12-4.8c1.42-1.21,3.31-1.82,5.7-1.82c0.79,0,1.61,0.07,2.47,0.19c0.86,0.12,1.75,0.3,2.68,0.51v-1.7
		c0-1.77-0.37-3-1.09-3.72c-0.74-0.72-2-1.07-3.79-1.07c-0.81,0-1.65,0.09-2.51,0.3c-0.86,0.21-1.7,0.47-2.51,0.79
		c-0.37,0.16-0.65,0.26-0.81,0.3c-0.16,0.05-0.28,0.07-0.37,0.07c-0.33,0-0.49-0.23-0.49-0.72V9.91c0-0.37,0.05-0.65,0.16-0.81
		c0.12-0.16,0.33-0.33,0.65-0.49c0.81-0.42,1.79-0.77,2.93-1.05c1.14-0.3,2.35-0.44,3.63-0.44c2.77,0,4.8,0.63,6.1,1.89
		c1.28,1.26,1.93,3.17,1.93,5.73v7.54H32.73z M23.28,25.81c0.77,0,1.56-0.14,2.4-0.42c0.84-0.28,1.58-0.79,2.21-1.49
		c0.37-0.44,0.65-0.93,0.79-1.49s0.23-1.23,0.23-2.03v-0.98c-0.68-0.16-1.4-0.3-2.14-0.4c-0.74-0.09-1.47-0.14-2.19-0.14
		c-1.56,0-2.7,0.3-3.47,0.93s-1.14,1.51-1.14,2.68c0,1.09,0.28,1.91,0.86,2.47C21.39,25.53,22.21,25.81,23.28,25.81z M41.97,28.33
		c-0.42,0-0.7-0.07-0.88-0.23c-0.19-0.14-0.35-0.47-0.49-0.91L35.13,9.19c-0.14-0.47-0.21-0.77-0.21-0.93
		c0-0.37,0.19-0.58,0.56-0.58h2.28c0.44,0,0.74,0.07,0.91,0.23c0.19,0.14,0.33,0.47,0.47,0.91l3.91,15.41l3.63-15.41
		c0.12-0.47,0.26-0.77,0.44-0.91c0.19-0.14,0.51-0.23,0.93-0.23h1.86c0.44,0,0.74,0.07,0.93,0.23c0.19,0.14,0.35,0.47,0.44,0.91
		l3.68,15.6l4.03-15.6c0.14-0.47,0.3-0.77,0.47-0.91c0.19-0.14,0.49-0.23,0.91-0.23h2.16c0.37,0,0.58,0.19,0.58,0.58
		c0,0.12-0.02,0.23-0.05,0.37c-0.02,0.14-0.07,0.33-0.16,0.58l-5.61,17.99c-0.14,0.47-0.3,0.77-0.49,0.91
		c-0.19,0.14-0.49,0.23-0.88,0.23h-2c-0.44,0-0.74-0.07-0.93-0.23s-0.35-0.47-0.44-0.93l-3.61-15.01l-3.58,14.99
		c-0.12,0.47-0.26,0.77-0.44,0.93c-0.19,0.16-0.51,0.23-0.93,0.23H41.97z M71.89,28.95c-1.21,0-2.42-0.14-3.58-0.42
		c-1.16-0.28-2.07-0.58-2.68-0.93c-0.37-0.21-0.63-0.44-0.72-0.65c-0.09-0.21-0.14-0.44-0.14-0.65v-1.19c0-0.49,0.19-0.72,0.54-0.72
		c0.14,0,0.28,0.02,0.42,0.07c0.14,0.05,0.35,0.14,0.58,0.23c0.79,0.35,1.65,0.63,2.56,0.81c0.93,0.19,1.84,0.28,2.77,0.28
		c1.47,0,2.61-0.26,3.4-0.77c0.79-0.51,1.21-1.26,1.21-2.21c0-0.65-0.21-1.19-0.63-1.63c-0.42-0.44-1.21-0.84-2.35-1.21l-3.38-1.05
		c-1.7-0.54-2.96-1.33-3.72-2.37C65.39,15.52,65,14.38,65,13.17c0-0.98,0.21-1.84,0.63-2.58s0.98-1.4,1.68-1.91
		c0.7-0.54,1.49-0.93,2.42-1.21s1.91-0.4,2.93-0.4c0.51,0,1.05,0.02,1.56,0.09c0.54,0.07,1.02,0.16,1.51,0.26
		c0.47,0.12,0.91,0.23,1.33,0.37c0.42,0.14,0.74,0.28,0.98,0.42c0.33,0.19,0.56,0.37,0.7,0.58c0.14,0.19,0.21,0.44,0.21,0.77v1.09
		c0,0.49-0.19,0.74-0.54,0.74c-0.19,0-0.49-0.09-0.88-0.28c-1.33-0.61-2.82-0.91-4.47-0.91c-1.33,0-2.37,0.21-3.1,0.65
		s-1.09,1.12-1.09,2.07c0,0.65,0.23,1.21,0.7,1.65c0.47,0.44,1.33,0.88,2.56,1.28l3.31,1.05c1.68,0.54,2.89,1.28,3.61,2.23
		s1.07,2.05,1.07,3.26c0,1-0.21,1.91-0.61,2.7c-0.42,0.79-0.98,1.49-1.7,2.05c-0.72,0.58-1.58,1-2.58,1.3
		C74.17,28.79,73.07,28.95,71.89,28.95z"/>
	<g>
		<path class="st3" d="M76.29,40.27c-7.66,5.66-18.79,8.66-28.35,8.66c-13.41,0-25.49-4.96-34.62-13.2
			c-0.72-0.65-0.07-1.54,0.79-1.02c9.87,5.73,22.05,9.2,34.64,9.2c8.5,0,17.83-1.77,26.42-5.4C76.45,37.92,77.54,39.34,76.29,40.27z
			"/>
		<path class="st3" d="M79.48,36.64c-0.98-1.26-6.47-0.61-8.96-0.3c-0.74,0.09-0.86-0.56-0.19-1.05c4.38-3.07,11.57-2.19,12.41-1.16
			c0.84,1.05-0.23,8.24-4.33,11.69c-0.63,0.54-1.23,0.26-0.95-0.44C78.38,43.06,80.45,37.87,79.48,36.64z"/>
	</g>
</g>
</svg>
