<?xml version="1.0" encoding="utf-8"?>
<!-- Generator: Adobe Illustrator 23.0.0, SVG Export Plug-In . SVG Version: 6.00 Build 0)  -->
<svg version="1.1" id="Layer_1" xmlns="http://www.w3.org/2000/svg" xmlns:xlink="http://www.w3.org/1999/xlink" x="0px" y="0px"
	 viewBox="0 0 40 40" style="enable-background:new 0 0 40 40;" xml:space="preserve">
<style type="text/css">
	.st0{fill:#FFFFFF;}
	.st1{fill-rule:evenodd;clip-rule:evenodd;fill:#FFFFFF;}
</style>
<g>
	<path class="st0" d="M11.71,16.89c0,0.47,0.05,0.85,0.14,1.12c0.1,0.28,0.23,0.58,0.4,0.91c0.06,0.1,0.09,0.2,0.09,0.29
		c0,0.13-0.08,0.25-0.24,0.38l-0.8,0.53c-0.11,0.08-0.23,0.11-0.33,0.11c-0.13,0-0.25-0.06-0.38-0.18
		c-0.18-0.19-0.33-0.39-0.45-0.59c-0.13-0.21-0.25-0.45-0.39-0.75c-0.99,1.16-2.22,1.74-3.72,1.74c-1.06,0-1.91-0.3-2.53-0.91
		c-0.62-0.61-0.94-1.42-0.94-2.43c0-1.07,0.38-1.95,1.15-2.6s1.79-0.99,3.1-0.99c0.43,0,0.87,0.04,1.34,0.1
		c0.47,0.06,0.95,0.16,1.45,0.28V13c0-0.96-0.2-1.63-0.59-2.02c-0.4-0.39-1.09-0.58-2.06-0.58c-0.44,0-0.9,0.05-1.36,0.16
		c-0.47,0.11-0.92,0.25-1.36,0.43c-0.2,0.09-0.35,0.14-0.44,0.16s-0.15,0.04-0.2,0.04c-0.18,0-0.27-0.13-0.27-0.39v-0.62
		c0-0.2,0.03-0.35,0.09-0.44c0.06-0.09,0.18-0.18,0.35-0.27c0.44-0.23,0.97-0.42,1.59-0.57c0.62-0.16,1.28-0.24,1.97-0.24
		c1.5,0,2.6,0.34,3.31,1.02c0.69,0.68,1.05,1.72,1.05,3.11v4.09H11.71z M6.58,18.81c0.42,0,0.85-0.08,1.3-0.23
		c0.45-0.15,0.86-0.43,1.2-0.81c0.2-0.24,0.35-0.51,0.43-0.81c0.08-0.3,0.13-0.67,0.13-1.1v-0.53c-0.37-0.09-0.76-0.16-1.16-0.21
		s-0.8-0.08-1.19-0.08c-0.85,0-1.47,0.16-1.88,0.51c-0.42,0.34-0.62,0.82-0.62,1.45c0,0.59,0.15,1.04,0.47,1.34
		C5.56,18.66,6,18.81,6.58,18.81z M16.73,20.18c-0.23,0-0.38-0.04-0.48-0.13c-0.1-0.08-0.19-0.25-0.27-0.49l-2.97-9.77
		c-0.08-0.25-0.11-0.42-0.11-0.51c0-0.2,0.1-0.32,0.3-0.32h1.24c0.24,0,0.4,0.04,0.49,0.13c0.1,0.08,0.18,0.25,0.25,0.49l2.12,8.37
		l1.97-8.37c0.06-0.25,0.14-0.42,0.24-0.49c0.1-0.08,0.28-0.13,0.51-0.13h1.01c0.24,0,0.4,0.04,0.51,0.13
		c0.1,0.08,0.19,0.25,0.24,0.49l2,8.47l2.19-8.47c0.08-0.25,0.16-0.42,0.25-0.49c0.1-0.08,0.27-0.13,0.49-0.13h1.18
		c0.2,0,0.32,0.1,0.32,0.32c0,0.06-0.01,0.13-0.03,0.2c-0.01,0.08-0.04,0.18-0.09,0.32l-3.05,9.77c-0.08,0.25-0.16,0.42-0.27,0.49
		c-0.1,0.08-0.27,0.13-0.48,0.13h-1.09c-0.24,0-0.4-0.04-0.51-0.13c-0.1-0.09-0.19-0.25-0.24-0.51l-1.96-8.15l-1.95,8.14
		c-0.06,0.25-0.14,0.42-0.24,0.51c-0.1,0.09-0.28,0.13-0.51,0.13H16.73z M32.97,20.52c-0.66,0-1.31-0.08-1.95-0.23
		c-0.63-0.15-1.12-0.32-1.45-0.51c-0.2-0.11-0.34-0.24-0.39-0.35c-0.05-0.11-0.08-0.24-0.08-0.35v-0.64c0-0.27,0.1-0.39,0.29-0.39
		c0.08,0,0.15,0.01,0.23,0.04c0.08,0.03,0.19,0.08,0.32,0.13c0.43,0.19,0.9,0.34,1.39,0.44c0.51,0.1,1,0.15,1.5,0.15
		c0.8,0,1.42-0.14,1.84-0.42s0.66-0.68,0.66-1.2c0-0.35-0.11-0.64-0.34-0.88c-0.23-0.24-0.66-0.45-1.28-0.66l-1.83-0.57
		c-0.92-0.29-1.6-0.72-2.02-1.29c-0.42-0.56-0.63-1.18-0.63-1.83c0-0.53,0.11-1,0.34-1.4s0.53-0.76,0.91-1.04
		c0.38-0.29,0.81-0.51,1.31-0.66s1.04-0.21,1.59-0.21c0.28,0,0.57,0.01,0.85,0.05c0.29,0.04,0.56,0.09,0.82,0.14
		c0.25,0.06,0.49,0.13,0.72,0.2c0.23,0.08,0.4,0.15,0.53,0.23c0.18,0.1,0.3,0.2,0.38,0.32c0.08,0.1,0.11,0.24,0.11,0.42v0.59
		c0,0.27-0.1,0.4-0.29,0.4c-0.1,0-0.27-0.05-0.48-0.15c-0.72-0.33-1.53-0.49-2.43-0.49c-0.72,0-1.29,0.11-1.68,0.35
		c-0.39,0.24-0.59,0.61-0.59,1.12c0,0.35,0.13,0.66,0.38,0.9s0.72,0.48,1.39,0.69l1.79,0.57c0.91,0.29,1.57,0.69,1.96,1.21
		s0.58,1.11,0.58,1.77c0,0.54-0.11,1.04-0.33,1.47c-0.23,0.43-0.53,0.81-0.92,1.11c-0.39,0.32-0.86,0.54-1.4,0.71
		C34.21,20.43,33.61,20.52,32.97,20.52z"/>
	<g>
		<path class="st1" d="M35.36,26.66c-4.16,3.07-10.2,4.7-15.39,4.7c-7.28,0-13.84-2.69-18.79-7.16c-0.39-0.35-0.04-0.83,0.43-0.56
			c5.36,3.11,11.97,4.99,18.8,4.99c4.61,0,9.68-0.96,14.34-2.93C35.44,25.38,36.04,26.15,35.36,26.66z"/>
		<path class="st1" d="M37.09,24.69c-0.53-0.68-3.51-0.33-4.86-0.16c-0.4,0.05-0.47-0.3-0.1-0.57c2.38-1.67,6.28-1.19,6.74-0.63
			c0.45,0.57-0.13,4.47-2.35,6.34c-0.34,0.29-0.67,0.14-0.52-0.24C36.49,28.18,37.62,25.36,37.09,24.69z"/>
	</g>
</g>
</svg>
