<svg width="550" height="500" viewBox="0 0 394 358" fill="none" id="Supported_Apps" data-name="Supported-Apps" xmlns="http://www.w3.org/2000/svg" xmlns:xlink="http://www.w3.org/1999/xlink" >
<g filter="url(#filter0_d)" class='app1'>
<rect x="262.977" y="84.2207" width="59.6256" height="59.6256" rx="8" fill="#9B5C8F"/>
</g>
<g clip-path="url(#clip0)" class='app1'>
<path d="M277.226 103.332H308.338C310.306 103.332 311.9 104.985 311.9 107.027V119.347C311.9 121.39 310.306 123.043 308.338 123.043H297.18L298.712 126.934L291.977 123.043H277.242C275.273 123.043 273.679 121.39 273.679 119.347V107.027C273.663 105.001 275.257 103.332 277.226 103.332Z" fill="white"/>
<path d="M275.855 106.7C276.073 106.394 276.399 106.233 276.834 106.2C277.626 106.136 278.077 106.523 278.186 107.361C278.667 110.73 279.196 113.583 279.755 115.92L283.158 109.198C283.468 108.586 283.857 108.264 284.323 108.231C285.007 108.183 285.426 108.634 285.597 109.585C285.985 111.729 286.483 113.55 287.073 115.098C287.477 111.004 288.161 108.054 289.124 106.233C289.357 105.781 289.699 105.556 290.149 105.523C290.507 105.491 290.833 105.604 291.128 105.846C291.423 106.088 291.579 106.394 291.61 106.765C291.625 107.055 291.579 107.296 291.455 107.538C290.849 108.699 290.351 110.649 289.947 113.357C289.559 115.984 289.419 118.031 289.512 119.498C289.543 119.901 289.481 120.255 289.326 120.562C289.139 120.916 288.86 121.11 288.502 121.142C288.098 121.174 287.679 120.981 287.275 120.546C285.83 119.014 284.68 116.726 283.841 113.679C282.831 115.742 282.086 117.29 281.604 118.321C280.687 120.143 279.91 121.077 279.258 121.126C278.838 121.158 278.481 120.787 278.17 120.014C277.378 117.902 276.523 113.824 275.607 107.78C275.544 107.361 275.638 106.99 275.855 106.7ZM309.245 109.231C308.685 108.215 307.862 107.603 306.759 107.361C306.463 107.296 306.184 107.264 305.92 107.264C304.428 107.264 303.216 108.07 302.268 109.682C301.46 111.052 301.057 112.567 301.057 114.227C301.057 115.468 301.305 116.532 301.802 117.419C302.362 118.434 303.185 119.047 304.288 119.288C304.583 119.353 304.863 119.385 305.127 119.385C306.634 119.385 307.846 118.579 308.779 116.967C309.586 115.581 309.99 114.066 309.99 112.406C310.006 111.149 309.742 110.101 309.245 109.231ZM307.287 113.695C307.069 114.759 306.681 115.549 306.106 116.081C305.656 116.5 305.236 116.677 304.848 116.597C304.475 116.516 304.164 116.178 303.931 115.549C303.744 115.049 303.651 114.55 303.651 114.082C303.651 113.679 303.682 113.276 303.76 112.906C303.9 112.245 304.164 111.6 304.583 110.987C305.096 110.198 305.64 109.875 306.199 109.988C306.572 110.069 306.883 110.407 307.116 111.036C307.302 111.536 307.396 112.035 307.396 112.503C307.396 112.922 307.365 113.325 307.287 113.695ZM299.518 109.231C298.959 108.215 298.12 107.603 297.032 107.361C296.737 107.296 296.458 107.264 296.193 107.264C294.702 107.264 293.49 108.07 292.542 109.682C291.734 111.052 291.33 112.567 291.33 114.227C291.33 115.468 291.579 116.532 292.076 117.419C292.635 118.434 293.459 119.047 294.562 119.288C294.857 119.353 295.137 119.385 295.401 119.385C296.908 119.385 298.12 118.579 299.052 116.967C299.86 115.581 300.264 114.066 300.264 112.406C300.264 111.149 300.016 110.101 299.518 109.231ZM297.545 113.695C297.328 114.759 296.939 115.549 296.364 116.081C295.914 116.5 295.494 116.677 295.106 116.597C294.733 116.516 294.422 116.178 294.189 115.549C294.003 115.049 293.909 114.55 293.909 114.082C293.909 113.679 293.94 113.276 294.018 112.906C294.158 112.245 294.422 111.6 294.842 110.987C295.354 110.198 295.898 109.875 296.458 109.988C296.83 110.069 297.141 110.407 297.374 111.036C297.561 111.536 297.654 112.035 297.654 112.503C297.669 112.922 297.623 113.325 297.545 113.695Z" fill="#9B5C8F"/>
</g>
<g filter="url(#filter2_d)" class='app3'>
<rect x="40.2925" y="36" width="78.4066" height="78.4066" rx="8" fill="#EC6737"/>
</g>
<g clip-path="url(#clip1)" class='app3'>
<path d="M82.5252 63.9981V94.5104L79.4812 96.3443L76.4348 94.5007V64.0216L68.5468 68.8089V94.9024L79.4812 101.497L90.5081 94.8554V68.7922L82.5252 63.9981ZM79.4812 47.9314L56.4851 61.6647V87.7616L62.4576 91.2297V65.1304L79.4858 54.9244L96.5299 65.1155L96.6002 65.155L96.5926 91.1908L102.506 87.7616V61.6647L79.4812 47.9314Z" fill="white"/>
</g>
<g filter="url(#filter3_d)" class='app4'>
<rect x="107.887" y="255.065" width="47.3947" height="47.3947" rx="8" fill="#FF2D20"/>
</g>
<g clip-path="url(#clip2)" class='app4'>
<path fill-rule="evenodd" clip-rule="evenodd" d="M143.256 270.955C143.264 270.988 143.269 271.022 143.269 271.057V276.39C143.269 276.459 143.251 276.526 143.218 276.585C143.184 276.644 143.136 276.694 143.078 276.728L138.714 279.305V284.413C138.714 284.552 138.642 284.681 138.524 284.751L129.414 290.13C129.393 290.142 129.37 290.15 129.347 290.158C129.339 290.161 129.331 290.166 129.322 290.169C129.258 290.186 129.191 290.186 129.127 290.169C129.117 290.166 129.107 290.16 129.097 290.156C129.077 290.148 129.055 290.142 129.035 290.13L119.926 284.751C119.868 284.717 119.82 284.667 119.787 284.608C119.753 284.549 119.736 284.482 119.736 284.413V268.413C119.736 268.378 119.74 268.344 119.749 268.311C119.752 268.3 119.758 268.289 119.762 268.278C119.769 268.258 119.776 268.237 119.786 268.218C119.793 268.205 119.804 268.195 119.812 268.183C119.823 268.168 119.833 268.152 119.846 268.138C119.857 268.127 119.871 268.119 119.883 268.109C119.897 268.097 119.91 268.085 119.925 268.076H119.926L124.48 265.386C124.538 265.352 124.603 265.334 124.67 265.334C124.736 265.334 124.802 265.352 124.859 265.386L129.414 268.076H129.415C129.43 268.085 129.443 268.097 129.457 268.109C129.469 268.118 129.483 268.127 129.494 268.138C129.507 268.152 129.516 268.168 129.528 268.183C129.536 268.195 129.547 268.205 129.553 268.218C129.564 268.237 129.57 268.258 129.578 268.278C129.582 268.289 129.588 268.3 129.591 268.311C129.6 268.344 129.605 268.379 129.605 268.413V278.407L133.4 276.165V271.056C133.4 271.022 133.405 270.988 133.413 270.955C133.417 270.944 133.423 270.933 133.427 270.922C133.434 270.902 133.441 270.881 133.451 270.862C133.458 270.849 133.469 270.839 133.477 270.827C133.488 270.812 133.498 270.796 133.511 270.782C133.522 270.771 133.536 270.763 133.548 270.753C133.562 270.741 133.574 270.729 133.59 270.719H133.59L138.145 268.03C138.203 267.996 138.268 267.978 138.335 267.978C138.401 267.978 138.467 267.996 138.524 268.03L143.079 270.719C143.095 270.729 143.107 270.741 143.122 270.752C143.133 270.762 143.147 270.771 143.158 270.782C143.171 270.796 143.181 270.812 143.192 270.827C143.201 270.839 143.211 270.849 143.218 270.862C143.229 270.881 143.235 270.902 143.242 270.922C143.247 270.933 143.253 270.944 143.256 270.955ZM142.51 276.165V271.73L140.916 272.671L138.714 273.971V278.407L142.51 276.165H142.51ZM137.955 284.188V279.75L135.789 281.019L129.604 284.639V289.119L137.955 284.188ZM120.495 269.086V284.188L128.845 289.119V284.64L124.483 282.108L124.481 282.107L124.479 282.106C124.465 282.097 124.452 282.084 124.439 282.074C124.427 282.064 124.413 282.056 124.403 282.046L124.402 282.044C124.389 282.032 124.381 282.017 124.37 282.003C124.361 281.99 124.349 281.979 124.342 281.965L124.341 281.964C124.333 281.949 124.328 281.932 124.322 281.915C124.315 281.901 124.307 281.887 124.304 281.872V281.871C124.299 281.853 124.298 281.833 124.296 281.814C124.294 281.8 124.29 281.785 124.29 281.77V281.769V271.328L122.089 270.027L120.495 269.087V269.086ZM124.67 266.172L120.875 268.413L124.669 270.653L128.464 268.412L124.669 266.172H124.67ZM126.644 280.155L128.845 278.855V269.086L127.251 270.027L125.049 271.328V281.096L126.644 280.155ZM138.335 268.816L134.54 271.057L138.335 273.297L142.129 271.056L138.335 268.816ZM137.955 273.971L135.753 272.671L134.159 271.73V276.165L136.361 277.465L137.955 278.407V273.971ZM129.224 283.966L134.79 280.707L137.572 279.079L133.78 276.84L129.415 279.418L125.436 281.767L129.224 283.966Z" fill="white"/>
</g>
<g filter="url(#filter4_d)" class='app5'>
<rect x="48.3716" y="196.77" width="70.3277" height="70.3277" rx="8" fill="white"/>
</g>
<g clip-path="url(#clip3)" class='app5'>
<path d="M62.7444 231.934C62.7444 237.937 72.2243 242.803 83.918 242.803C95.6116 242.803 105.092 237.937 105.092 231.934C105.092 225.932 95.6116 221.065 83.918 221.065C72.2243 221.065 62.7444 225.932 62.7444 231.934Z" fill="url(#paint0_radial)"/>
<path d="M83.918 241.996C95.155 241.996 104.265 237.491 104.265 231.934C104.265 226.377 95.155 221.872 83.918 221.872C72.6811 221.872 63.5715 226.377 63.5715 231.934C63.5715 237.491 72.6811 241.996 83.918 241.996Z" fill="#777BB3"/>
<path d="M74.2482 233.182C75.1722 233.182 75.8619 233.015 76.2984 232.688C76.7302 232.363 77.0284 231.801 77.1847 231.017C77.3304 230.284 77.2749 229.773 77.0197 229.497C76.7588 229.215 76.1947 229.072 75.3431 229.072H73.8665L73.0479 233.182H74.2482ZM69.4187 238.245C69.3501 238.245 69.285 238.215 69.2414 238.163C69.1978 238.111 69.1801 238.043 69.1932 237.978L71.3626 227.086C71.3836 226.98 71.4782 226.904 71.5882 226.904H76.2638C77.7333 226.904 78.8271 227.294 79.5146 228.062C80.2057 228.834 80.4191 229.913 80.1489 231.269C80.0389 231.822 79.8498 232.335 79.5867 232.794C79.3233 233.254 78.9753 233.68 78.552 234.06C78.0453 234.522 77.4719 234.858 76.8491 235.055C76.2362 235.25 75.4491 235.349 74.5096 235.349H72.6164L72.0757 238.063C72.0547 238.169 71.9602 238.245 71.8502 238.245H69.4187Z" fill="black"/>
<path d="M74.0559 229.296H75.3431C76.3709 229.296 76.728 229.516 76.8493 229.647C77.0505 229.865 77.0885 230.324 76.9592 230.975C76.8138 231.703 76.5444 232.22 76.1583 232.51C75.7629 232.807 75.1203 232.957 74.2482 232.957H73.3266L74.0559 229.296ZM76.2639 226.68H71.5881C71.3682 226.68 71.1791 226.832 71.1371 227.043L68.9677 237.935C68.9415 238.066 68.9769 238.202 69.0641 238.306C69.1514 238.409 69.2814 238.469 69.4187 238.469H71.8502C72.0702 238.469 72.2593 238.317 72.3012 238.106L72.8058 235.573H74.5097C75.4732 235.573 76.2844 235.47 76.9204 235.268C77.5745 235.061 78.1763 234.709 78.7089 234.223C79.1494 233.828 79.5123 233.384 79.7872 232.904C80.0622 232.423 80.2598 231.888 80.3744 231.312C80.6589 229.884 80.4278 228.741 79.6876 227.914C78.9545 227.095 77.8026 226.68 76.2639 226.68ZM72.7692 233.406H74.2482C75.2285 233.406 75.9588 233.226 76.4385 232.865C76.9184 232.505 77.2421 231.903 77.4102 231.06C77.5711 230.25 77.4978 229.679 77.1904 229.346C76.8825 229.014 76.2669 228.847 75.3431 228.847H73.6771L72.7692 233.406ZM76.2639 227.129C77.6705 227.129 78.6966 227.489 79.3416 228.209C79.9865 228.93 80.1807 229.935 79.9234 231.226C79.8175 231.758 79.6383 232.245 79.3861 232.685C79.1336 233.126 78.804 233.529 78.3965 233.894C77.911 234.338 77.3716 234.654 76.7781 234.842C76.1846 235.031 75.4287 235.125 74.5097 235.125H72.4269L71.8502 238.02H69.4187L71.5881 227.129H76.2639Z" fill="white"/>
<path d="M85.7241 235.349C85.6555 235.349 85.5905 235.319 85.5469 235.268C85.5032 235.216 85.4855 235.148 85.4986 235.082L86.4582 230.263C86.5495 229.805 86.527 229.476 86.3949 229.337C86.314 229.252 86.0711 229.109 85.3528 229.109H83.6143L82.4077 235.168C82.3867 235.273 82.2921 235.349 82.1822 235.349H79.7698C79.7012 235.349 79.6362 235.319 79.5925 235.268C79.5489 235.216 79.5312 235.148 79.5443 235.082L81.7137 224.19C81.7347 224.085 81.8293 224.009 81.9392 224.009H84.3516C84.4202 224.009 84.4852 224.039 84.5289 224.09C84.5725 224.142 84.5902 224.21 84.5771 224.276L84.0536 226.905H85.9239C87.3487 226.905 88.3149 227.15 88.8776 227.654C89.4512 228.168 89.6302 228.991 89.4097 230.099L88.4003 235.168C88.3793 235.273 88.2848 235.349 88.1748 235.349H85.7241Z" fill="black"/>
<path d="M84.3516 223.785H81.9393C81.7192 223.785 81.5302 223.937 81.4882 224.147L79.3188 235.039C79.2926 235.171 79.3279 235.307 79.4152 235.41C79.5026 235.513 79.6326 235.573 79.7698 235.573H82.1822C82.4021 235.573 82.5913 235.421 82.6333 235.21L83.8037 229.333H85.3529C86.0699 229.333 86.2204 229.483 86.2264 229.489C86.2699 229.535 86.3271 229.746 86.2327 230.22L85.2731 235.039C85.2469 235.171 85.2823 235.307 85.3696 235.41C85.4569 235.513 85.5869 235.573 85.7241 235.573H88.1748C88.3947 235.573 88.5839 235.421 88.6259 235.21L89.6351 230.142C89.872 228.952 89.6694 228.06 89.0331 227.489C88.426 226.945 87.409 226.68 85.9239 226.68H84.3322L84.8027 224.319C84.8288 224.187 84.7935 224.051 84.7062 223.948C84.6189 223.844 84.4889 223.785 84.3516 223.785ZM84.3516 224.233L83.7749 227.129H85.9239C87.2762 227.129 88.2089 227.359 88.7222 227.819C89.2355 228.279 89.3893 229.025 89.1841 230.056L88.1748 235.125H85.7241L86.6838 230.306C86.793 229.757 86.7529 229.384 86.5633 229.184C86.3736 228.985 85.97 228.885 85.3529 228.885H83.4248L82.1822 235.125H79.7698L81.9393 224.233H84.3516Z" fill="white"/>
<path d="M93.2267 233.182C94.1507 233.182 94.8404 233.015 95.2769 232.688C95.7087 232.363 96.0069 231.801 96.1633 231.017C96.309 230.284 96.2535 229.773 95.9982 229.497C95.7373 229.215 95.1732 229.072 94.3216 229.072H92.845L92.0264 233.182H93.2267ZM88.3972 238.245C88.3287 238.245 88.2636 238.215 88.22 238.163C88.1764 238.111 88.1586 238.043 88.1717 237.978L90.3411 227.086C90.3622 226.98 90.4567 226.904 90.5667 226.904H95.2423C96.7119 226.904 97.8056 227.294 98.4931 228.062C99.1843 228.834 99.3976 229.913 99.1275 231.269C99.0173 231.822 98.8283 232.335 98.5652 232.794C98.3018 233.254 97.9538 233.68 97.5305 234.06C97.0238 234.522 96.4504 234.858 95.8276 235.055C95.2147 235.25 94.4276 235.349 93.4881 235.349H91.5948L91.0543 238.063C91.0333 238.169 90.9388 238.245 90.8287 238.245H88.3972Z" fill="black"/>
<path d="M93.0343 229.296H94.3216C95.3494 229.296 95.7064 229.516 95.8277 229.647C96.029 229.865 96.067 230.324 95.9376 230.975C95.7922 231.703 95.5227 232.22 95.1367 232.51C94.7414 232.807 94.0987 232.957 93.2266 232.957H92.3051L93.0343 229.296ZM95.2423 226.68H90.5666C90.3467 226.68 90.1576 226.832 90.1156 227.043L87.9462 237.935C87.92 238.066 87.9554 238.202 88.0426 238.306C88.1299 238.409 88.26 238.469 88.3972 238.469H90.8287C91.0486 238.469 91.2378 238.317 91.2798 238.106L91.7842 235.573H93.4881C94.4517 235.573 95.2628 235.47 95.8988 235.268C96.5529 235.061 97.1549 234.709 97.6875 234.223C98.128 233.828 98.4907 233.384 98.7656 232.904C99.0407 232.423 99.2382 231.888 99.3529 231.312C99.6374 229.884 99.4063 228.741 98.666 227.914C97.933 227.095 96.7811 226.68 95.2423 226.68ZM91.7477 233.406H93.2266C94.207 233.406 94.9372 233.226 95.417 232.865C95.8969 232.505 96.2205 231.903 96.3887 231.06C96.5496 230.25 96.4764 229.679 96.1688 229.346C95.8609 229.014 95.2453 228.847 94.3216 228.847H92.6556L91.7477 233.406ZM95.2423 227.128C96.6489 227.128 97.675 227.489 98.32 228.209C98.965 228.93 99.1591 229.935 98.9018 231.226C98.7959 231.758 98.6168 232.245 98.3646 232.685C98.1121 233.126 97.7824 233.529 97.375 233.894C96.8894 234.338 96.3501 234.654 95.7566 234.842C95.163 235.031 94.4071 235.125 93.4881 235.125H91.4054L90.8287 238.02H88.3972L90.5666 227.128H95.2423Z" fill="white"/>
</g>
<g filter="url(#filter5_d)" class='app6'>
<rect x="306.55" y="169.837" width="47.3947" height="47.3947" rx="8" fill="white"/>
</g>
<g clip-path="url(#clip4)" class='app6'>
<path d="M324.6 202.114C324.857 202 325.116 201.895 325.379 201.797C325.675 201.686 325.973 201.581 326.275 201.49C326.652 201.377 327.031 201.274 327.416 201.192C327.934 201.082 328.459 201.001 328.988 200.949C328.691 201.882 328.364 202.809 328.009 203.73C328.024 203.908 328.032 204.087 328.037 204.267C328.752 204.126 329.49 204.051 330.247 204.051C331.003 204.051 331.742 204.126 332.457 204.267C332.461 204.087 332.47 203.908 332.485 203.73C332.13 202.809 331.802 201.882 331.506 200.949C332.034 201.001 332.559 201.082 333.078 201.192C333.462 201.274 333.842 201.377 334.218 201.49C334.52 201.581 334.819 201.686 335.115 201.797C335.377 201.895 335.637 202 335.893 202.114C337.712 202.925 339.37 204.126 340.73 205.685C344.139 202.742 346.3 198.391 346.3 193.534C346.3 184.668 339.112 177.481 330.247 177.481C321.381 177.481 314.194 184.668 314.194 193.534C314.194 198.391 316.354 202.741 319.763 205.685C321.123 204.126 322.781 202.924 324.6 202.114Z" fill="#A5DBE8"/>
<path d="M335.893 202.115L336.89 205.541L337.173 205.555C337.356 205.555 337.485 205.603 337.485 205.787C337.485 206.092 337.501 206.434 337.53 206.734C337.778 206.944 338.081 207.182 338.31 207.413C339.171 206.912 339.981 206.333 340.731 205.685C339.371 204.126 337.712 202.925 335.893 202.115Z" fill="#525353"/>
<path d="M333.945 202.08L335.115 201.797C334.819 201.685 334.52 201.581 334.218 201.49C333.842 201.376 333.462 201.274 333.078 201.192C332.559 201.082 332.034 201.001 331.506 200.949C331.802 201.881 332.13 202.808 332.485 203.729C332.47 203.908 332.462 204.087 332.457 204.267C333.286 204.431 334.101 204.715 334.855 205.048L333.945 202.08Z" fill="#525353"/>
<path d="M322.183 207.413C322.37 207.522 322.558 207.628 322.749 207.729C322.816 207.407 322.923 206.961 322.956 206.63C322.707 206.841 322.413 207.182 322.183 207.413Z" fill="black"/>
<path d="M334.835 205.019C334.082 204.686 333.286 204.431 332.457 204.267C331.742 204.126 331.003 204.051 330.247 204.051C329.49 204.051 328.752 204.126 328.037 204.267C327.208 204.431 326.343 204.679 325.589 205.012L325.509 205.511H334.985L334.835 205.019Z" fill="black"/>
<path d="M322.927 206.725C322.956 206.426 322.977 206.159 322.977 205.854C322.977 205.671 323.103 205.553 323.286 205.553L323.587 205.543L324.6 202.114C322.781 202.924 321.123 204.126 319.763 205.685C320.513 206.332 321.322 206.911 322.183 207.413C322.413 207.182 322.651 206.96 322.9 206.749" fill="#525353"/>
<path d="M337.652 207.335C337.717 207.661 337.732 207.726 337.744 207.729C337.935 207.628 338.123 207.522 338.31 207.413C338.081 207.182 337.834 206.953 337.586 206.742L337.652 207.335Z" fill="black"/>
<path d="M334.835 205.019L334.985 205.511H336.923L335.893 202.115C335.637 202 335.377 201.895 335.115 201.797L333.945 202.08L334.835 205.019Z" fill="#AA9678"/>
<path d="M323.604 206.198C323.615 206.191 323.626 206.183 323.636 206.176H323.606C323.606 206.183 323.605 206.191 323.604 206.198Z" fill="#C4B6A1"/>
<path d="M336.888 206.176H336.858C336.869 206.183 336.879 206.191 336.89 206.198C336.889 206.191 336.889 206.183 336.888 206.176Z" fill="#AA9678"/>
<path d="M336.854 206.126L330.233 206.134L330.247 209.587C332.711 209.587 335.045 209.031 337.131 208.038C336.995 207.44 336.981 206.795 336.959 206.168C336.949 206.161 336.854 206.126 336.854 206.126Z" fill="#AA9678"/>
<path d="M330.236 206.148C330.236 206.148 323.578 206.14 323.568 206.147C323.546 206.774 323.417 207.519 323.362 208.038C325.449 209.031 327.783 209.587 330.247 209.587L330.25 206.159L330.236 206.148Z" fill="#C4B6A1"/>
<path d="M330.247 205.844H330.247V206.176H330.247V205.844Z" fill="#786453"/>
<path d="M334.843 203.221C334.795 203.165 334.745 203.105 334.693 203.038C334.745 203.105 334.795 203.165 334.843 203.221Z" fill="#525353"/>
<path d="M335.212 203.587C335.212 203.587 335.213 203.591 335.216 203.598C335.213 203.591 335.212 203.587 335.212 203.587C335.212 203.587 335.05 203.458 334.843 203.221C335.05 203.458 335.212 203.587 335.212 203.587Z" fill="#AA9678"/>
<path d="M340.764 193.685C340.764 193.683 340.764 193.681 340.764 193.68C340.764 193.681 340.764 193.683 340.764 193.685Z" fill="white"/>
<path d="M340.764 193.68C340.764 193.678 340.764 193.677 340.764 193.675C340.764 193.677 340.764 193.678 340.764 193.68Z" fill="#BBBCBD"/>
<path d="M340.746 193.43C340.746 193.434 340.747 193.438 340.748 193.442C340.748 193.445 340.749 193.447 340.749 193.449V193.45C340.757 193.512 340.76 193.576 340.761 193.64C340.762 193.652 340.764 193.664 340.764 193.675C340.764 193.677 340.764 193.678 340.764 193.68C340.764 193.681 340.764 193.683 340.764 193.684C340.764 193.697 340.761 193.709 340.761 193.722C340.76 193.785 340.757 193.848 340.75 193.908V193.909C340.749 193.912 340.748 193.915 340.748 193.918C340.747 193.923 340.746 193.928 340.745 193.932C340.736 193.998 340.725 194.062 340.709 194.122C340.709 194.123 340.709 194.123 340.709 194.123V194.123L340.711 194.121C340.711 194.12 340.712 194.119 340.712 194.118V194.118L341.132 193.678L340.709 193.235C340.709 193.235 340.709 193.235 340.709 193.236C340.725 193.298 340.737 193.363 340.746 193.43Z" fill="#676A6A"/>
<path d="M340.745 193.932C340.746 193.924 340.748 193.917 340.75 193.908C340.757 193.848 340.76 193.785 340.761 193.722C340.761 193.708 340.764 193.694 340.764 193.68C340.764 193.666 340.762 193.654 340.761 193.641C340.76 193.576 340.757 193.512 340.749 193.451C340.748 193.443 340.747 193.437 340.746 193.43C340.737 193.363 340.725 193.298 340.709 193.236C340.703 193.214 340.696 193.195 340.689 193.174C340.651 193.049 340.599 192.938 340.538 192.845C340.53 192.833 340.521 192.821 340.513 192.81C340.496 192.787 340.479 192.765 340.461 192.745C340.434 192.716 340.407 192.69 340.378 192.668C340.367 192.66 340.355 192.654 340.344 192.646C340.319 192.63 340.293 192.616 340.267 192.605C340.256 192.601 340.244 192.596 340.233 192.593C340.195 192.581 340.157 192.573 340.118 192.573C340.078 192.573 340.04 192.581 340.003 192.593C339.991 192.596 339.98 192.601 339.968 192.605C339.942 192.616 339.916 192.63 339.891 192.646C339.88 192.654 339.868 192.659 339.857 192.668C339.828 192.69 339.801 192.716 339.774 192.745C339.756 192.765 339.739 192.787 339.723 192.809C339.714 192.821 339.705 192.833 339.697 192.846C339.636 192.938 339.584 193.049 339.546 193.174C339.544 193.179 339.543 193.184 339.541 193.189C339.524 193.247 339.511 193.308 339.5 193.37C339.497 193.389 339.493 193.408 339.49 193.427C339.48 193.497 339.475 193.57 339.474 193.644C339.474 193.654 339.472 193.664 339.472 193.674H339.474C339.474 194.286 339.764 194.782 340.121 194.782C340.182 194.782 340.241 194.765 340.297 194.738C340.306 194.734 340.315 194.729 340.324 194.724C340.348 194.71 340.371 194.696 340.392 194.678C340.405 194.668 340.416 194.656 340.428 194.645C340.456 194.619 340.483 194.589 340.509 194.555C340.527 194.532 340.544 194.508 340.561 194.482C340.571 194.465 340.581 194.447 340.59 194.43C340.608 194.396 340.625 194.361 340.641 194.325C340.647 194.311 340.652 194.298 340.658 194.285C340.677 194.233 340.695 194.179 340.709 194.122C340.725 194.062 340.736 193.998 340.745 193.932ZM340.141 193.532C340.007 193.532 339.898 193.346 339.898 193.117C339.898 192.888 340.007 192.702 340.141 192.702C340.275 192.702 340.383 192.888 340.383 193.117C340.383 193.346 340.275 193.532 340.141 193.532Z" fill="black"/>
<path d="M340.141 192.702C340.007 192.702 339.898 192.888 339.898 193.117C339.898 193.347 340.007 193.533 340.141 193.533C340.275 193.533 340.383 193.347 340.383 193.117C340.383 192.888 340.275 192.702 340.141 192.702Z" fill="white"/>
<path d="M339.546 193.174C339.584 193.049 339.636 192.938 339.697 192.845C339.706 192.833 339.714 192.821 339.723 192.809C339.739 192.787 339.756 192.765 339.774 192.745C339.801 192.716 339.828 192.69 339.857 192.668C339.868 192.659 339.88 192.654 339.891 192.646C339.916 192.63 339.942 192.616 339.968 192.605C339.98 192.601 339.991 192.596 340.003 192.593C340.04 192.581 340.078 192.573 340.118 192.573C340.157 192.573 340.195 192.581 340.233 192.593C340.244 192.596 340.256 192.601 340.267 192.605C340.293 192.616 340.319 192.63 340.344 192.646C340.355 192.654 340.367 192.659 340.378 192.668C340.407 192.69 340.434 192.716 340.461 192.745C340.479 192.765 340.496 192.787 340.513 192.81C340.521 192.821 340.53 192.833 340.538 192.845C340.6 192.938 340.651 193.049 340.689 193.174V193.174L340.118 190.556L339.546 193.174H339.546Z" fill="#909393"/>
<path d="M332.542 193.655C332.541 193.603 332.537 193.551 332.532 193.499C332.531 193.499 332.531 193.498 332.531 193.497C332.525 193.447 332.517 193.397 332.506 193.348C332.506 193.347 332.505 193.346 332.505 193.344C332.494 193.296 332.481 193.249 332.466 193.202C332.465 193.201 332.465 193.2 332.464 193.199C332.449 193.153 332.431 193.107 332.412 193.063C332.411 193.062 332.411 193.061 332.41 193.06C332.39 193.015 332.368 192.972 332.344 192.93C332.271 192.801 332.179 192.684 332.072 192.583C331.937 192.454 331.778 192.35 331.602 192.277C331.601 192.277 331.599 192.276 331.598 192.276C331.512 192.24 331.421 192.213 331.327 192.194C331.325 192.194 331.323 192.194 331.32 192.193C331.226 192.175 331.13 192.165 331.03 192.165C330.933 192.165 330.838 192.175 330.745 192.192C330.742 192.193 330.739 192.193 330.735 192.194C330.644 192.212 330.555 192.239 330.47 192.273C330.468 192.274 330.465 192.275 330.463 192.276C330.377 192.311 330.294 192.354 330.217 192.403C330.217 192.404 330.216 192.404 330.216 192.404C330.138 192.454 330.065 192.511 329.997 192.575L329.995 192.58L329.99 192.581C329.882 192.684 329.789 192.802 329.715 192.932C329.714 192.933 329.713 192.935 329.712 192.936C329.69 192.976 329.669 193.017 329.651 193.06C329.649 193.064 329.646 193.068 329.644 193.073C329.627 193.112 329.612 193.152 329.598 193.193C329.596 193.201 329.592 193.208 329.59 193.216C329.578 193.254 329.568 193.293 329.559 193.332C329.556 193.344 329.553 193.354 329.55 193.366C329.542 193.404 329.537 193.444 329.532 193.483C329.53 193.495 329.527 193.507 329.526 193.519C329.521 193.571 329.518 193.624 329.518 193.677C329.518 193.777 329.528 193.875 329.547 193.969C329.547 193.971 329.547 193.973 329.548 193.975C329.567 194.07 329.594 194.161 329.63 194.248C329.631 194.249 329.631 194.25 329.632 194.252C329.704 194.428 329.81 194.588 329.94 194.723C330.042 194.83 330.161 194.922 330.291 194.996C330.292 194.996 330.292 194.997 330.293 194.997C330.334 195.02 330.376 195.04 330.418 195.059C330.422 195.061 330.425 195.063 330.429 195.064C330.468 195.082 330.509 195.097 330.551 195.111C330.558 195.113 330.565 195.116 330.572 195.118C330.61 195.13 330.649 195.14 330.688 195.149C330.699 195.152 330.709 195.155 330.72 195.157C330.758 195.165 330.798 195.171 330.837 195.176C330.849 195.177 330.861 195.18 330.873 195.181C330.925 195.187 330.977 195.19 331.03 195.19C331.239 195.19 331.438 195.147 331.619 195.071C331.709 195.032 331.795 194.986 331.876 194.931C332.037 194.822 332.176 194.683 332.284 194.523C332.339 194.442 332.386 194.356 332.424 194.266C332.5 194.085 332.543 193.886 332.543 193.677C332.543 193.673 332.542 193.67 332.542 193.667C332.542 193.663 332.542 193.659 332.542 193.655ZM331.03 193.478C330.717 193.478 330.462 193.224 330.462 192.91C330.462 192.596 330.717 192.342 331.03 192.342C331.344 192.342 331.598 192.596 331.598 192.91C331.598 193.224 331.344 193.478 331.03 193.478Z" fill="black"/>
<path d="M331.03 192.342C330.716 192.342 330.462 192.596 330.462 192.91C330.462 193.224 330.716 193.478 331.03 193.478C331.344 193.478 331.598 193.224 331.598 192.91C331.598 192.596 331.344 192.342 331.03 192.342Z" fill="white"/>
<path d="M329.99 192.581L329.995 192.58L329.997 192.575L331.039 189.389V188.643C331.039 188.638 331.039 188.635 331.039 188.635C330.458 188.516 329.862 188.451 329.251 188.451C329.048 188.451 328.845 188.459 328.645 188.473C328.615 188.475 328.586 188.477 328.557 188.479C327.511 188.558 326.481 188.831 325.528 189.266C324.71 189.639 323.951 190.131 323.268 190.714V190.714C323.268 190.715 323.267 190.715 323.267 190.715C323.083 190.871 322.908 191.036 322.736 191.204C322.704 191.236 322.671 191.267 322.64 191.298C322.478 191.461 322.322 191.629 322.171 191.803C322.138 191.84 322.106 191.879 322.074 191.917C321.922 192.096 321.775 192.278 321.634 192.467C321.623 192.482 321.612 192.499 321.6 192.515C321.467 192.696 321.34 192.883 321.217 193.073C321.193 193.11 321.169 193.146 321.145 193.183C321.046 193.341 320.954 193.502 320.862 193.664H325.608L329.99 192.581Z" fill="#BBBCBD"/>
<path d="M333.996 192.223C334.006 192.099 334.014 191.975 334.02 191.85C334.029 191.682 334.034 191.513 334.038 191.345C334.04 191.214 334.04 191.083 334.039 190.952C334.039 190.915 334.04 190.877 334.04 190.839C334.036 190.502 334.023 190.164 334.002 189.826C334.001 189.826 334.001 189.825 334 189.825C333.999 189.824 333.999 189.823 333.998 189.822C333.997 189.821 333.992 189.819 333.988 189.816C333.984 189.814 333.98 189.812 333.973 189.807C333.911 189.772 333.758 189.685 333.622 189.607C333.619 189.605 333.616 189.604 333.613 189.602C333.578 189.582 333.545 189.563 333.515 189.546C333.514 189.546 333.513 189.546 333.513 189.545C333.487 189.531 333.465 189.519 333.445 189.507C333.441 189.505 333.435 189.502 333.431 189.5C333.409 189.487 333.392 189.478 333.382 189.473C333.164 189.36 332.941 189.255 332.715 189.159C332.175 188.931 331.448 188.732 331.039 188.635V189.389L332.071 192.58L332.072 192.583C332.179 192.684 332.271 192.801 332.344 192.93V192.93C332.368 192.972 332.39 193.016 332.41 193.06C332.411 193.061 332.411 193.062 332.412 193.063C332.432 193.107 332.449 193.153 332.465 193.199C332.465 193.2 332.465 193.201 332.466 193.202C332.481 193.249 332.494 193.296 332.505 193.345C332.505 193.346 332.506 193.347 332.506 193.348C332.517 193.397 332.525 193.447 332.531 193.497C332.531 193.498 332.532 193.499 332.532 193.5C332.538 193.551 332.541 193.603 332.542 193.655L332.546 193.664H333.81C333.895 193.201 333.955 192.733 333.993 192.262C333.993 192.249 333.995 192.236 333.996 192.223Z" fill="#E3DDDB"/>
<path d="M335.65 191.095C335.649 191.096 335.648 191.098 335.647 191.099C335.648 191.098 335.649 191.096 335.65 191.095" fill="#FCB03F"/>
<path d="M329.997 192.575C330.065 192.512 330.138 192.454 330.216 192.404C330.216 192.404 330.217 192.404 330.217 192.404C330.294 192.354 330.377 192.311 330.463 192.276C330.465 192.275 330.468 192.274 330.47 192.273C330.555 192.239 330.644 192.212 330.736 192.194C330.739 192.193 330.742 192.193 330.745 192.192C330.838 192.175 330.933 192.165 331.03 192.165C331.13 192.165 331.227 192.175 331.32 192.193C331.323 192.194 331.325 192.194 331.327 192.194C331.421 192.213 331.512 192.241 331.598 192.276C331.599 192.276 331.601 192.277 331.602 192.277C331.778 192.35 331.937 192.454 332.072 192.583L332.071 192.58L331.039 189.389L329.997 192.575Z" fill="#909393"/>
<path d="M329.63 194.248C329.595 194.161 329.567 194.07 329.548 193.976C329.547 193.974 329.547 193.972 329.547 193.97C329.528 193.875 329.518 193.777 329.518 193.677C329.518 193.624 329.521 193.571 329.526 193.52C329.528 193.507 329.53 193.496 329.532 193.484C329.537 193.444 329.542 193.405 329.55 193.366C329.553 193.355 329.556 193.344 329.559 193.333C329.568 193.294 329.578 193.255 329.59 193.217C329.593 193.209 329.596 193.201 329.599 193.193C329.612 193.153 329.627 193.112 329.644 193.073C329.646 193.069 329.649 193.064 329.651 193.06C329.67 193.018 329.69 192.976 329.713 192.937C329.714 192.935 329.715 192.933 329.715 192.932C329.789 192.802 329.882 192.684 329.99 192.582L325.608 193.664H325.599L329.94 194.723C329.81 194.588 329.704 194.428 329.632 194.252C329.631 194.251 329.631 194.25 329.63 194.248Z" fill="#676A6A"/>
<path d="M339.49 193.427C339.493 193.408 339.497 193.389 339.5 193.37C339.511 193.308 339.524 193.247 339.541 193.19C339.543 193.183 339.544 193.176 339.546 193.169L340.118 190.551L340.117 189.058C339.65 188.672 339.15 188.461 338.629 188.461C337.971 188.461 337.357 188.825 336.898 189.274C336.396 189.765 336.008 190.383 335.694 191.007C335.68 191.035 335.665 191.063 335.651 191.092C335.748 191.176 335.843 191.261 335.938 191.347C336.151 191.542 336.36 191.743 336.567 191.947C336.663 192.041 336.757 192.138 336.852 192.235C336.952 192.337 337.053 192.439 337.151 192.543C337.278 192.676 337.404 192.811 337.529 192.947C337.582 193.004 337.634 193.062 337.686 193.119C337.836 193.286 337.986 193.453 338.133 193.622L338.133 193.623C338.158 193.648 338.175 193.667 338.182 193.675H339.471C339.471 193.664 339.474 193.655 339.474 193.644C339.475 193.57 339.48 193.497 339.49 193.427Z" fill="#E3DDDB"/>
<path d="M335.651 191.098C335.65 191.097 335.65 191.096 335.649 191.095C335.649 191.096 335.648 191.098 335.647 191.099C335.648 191.1 335.652 191.103 335.653 191.104C335.652 191.102 335.651 191.1 335.651 191.098Z" fill="#E3DDDB"/>
<path d="M320.085 195.312C320.089 195.302 320.093 195.292 320.096 195.283C320.179 195.066 320.27 194.852 320.366 194.639C320.393 194.58 320.42 194.522 320.448 194.463C320.526 194.296 320.609 194.132 320.694 193.969C320.729 193.903 320.763 193.837 320.799 193.771C320.819 193.735 320.842 193.7 320.862 193.664C320.954 193.502 321.046 193.341 321.145 193.184C321.169 193.146 321.193 193.11 321.217 193.073C321.34 192.883 321.467 192.697 321.6 192.515C321.612 192.499 321.623 192.483 321.634 192.467C321.775 192.279 321.922 192.096 322.074 191.917C322.106 191.879 322.138 191.841 322.171 191.803C322.322 191.63 322.478 191.462 322.64 191.299C322.672 191.267 322.704 191.236 322.736 191.204C322.908 191.036 323.083 190.871 323.267 190.716C323.267 190.715 323.268 190.715 323.268 190.715C323.989 188.299 326.318 186.814 328.929 186.814C329.98 186.814 331.026 187.117 331.921 187.665C332.84 188.227 333.466 188.776 333.953 189.736C333.955 189.741 333.958 189.745 333.96 189.75C333.972 189.774 333.986 189.798 333.998 189.822C333.999 189.823 333.999 189.824 333.999 189.825C334 189.825 334.001 189.826 334.002 189.827C334.409 190.077 334.797 190.361 335.166 190.672C335.289 190.776 335.41 190.883 335.529 190.993C335.568 191.029 335.608 191.063 335.647 191.099C335.648 191.098 335.648 191.096 335.649 191.095C335.65 191.094 335.65 191.093 335.651 191.092C335.664 191.065 335.677 191.037 335.69 191.01C336.058 188.688 337.228 187.421 338.436 187.421C339.347 187.421 340.009 187.965 340.509 189.426L340.514 189.442C340.514 189.443 340.515 189.443 340.515 189.444C340.656 189.597 340.794 189.766 340.927 189.951L340.927 189.951C340.93 189.955 340.932 189.958 340.935 189.962L340.935 189.962L340.935 189.962C340.942 189.983 340.948 190.005 340.955 190.026V190.026L340.936 189.95C339.433 185.5 335.224 182.296 330.267 182.296C324.049 182.296 319.008 187.337 319.008 193.555C319.008 194.78 319.204 195.961 319.568 197.059C319.568 197.057 319.569 197.055 319.569 197.052C319.641 196.721 319.727 196.392 319.826 196.066C319.904 195.812 319.99 195.56 320.085 195.312Z" fill="#525353"/>
<path d="M341.105 193.679L340.712 194.118V194.118C340.712 194.119 340.711 194.12 340.711 194.121C340.696 194.179 340.678 194.233 340.658 194.285C340.652 194.298 340.647 194.311 340.641 194.325C340.625 194.361 340.608 194.396 340.59 194.43C340.581 194.447 340.571 194.465 340.561 194.482C340.544 194.508 340.527 194.532 340.509 194.555C340.483 194.589 340.456 194.619 340.428 194.645C340.416 194.656 340.405 194.668 340.392 194.678C340.37 194.696 340.348 194.71 340.324 194.724C340.315 194.729 340.306 194.734 340.297 194.738C340.241 194.766 340.182 194.782 340.121 194.782C339.764 194.782 339.474 194.286 339.474 193.674H338.178C338.178 193.675 338.178 193.675 338.179 193.675C338.42 193.953 338.656 194.235 338.889 194.519C338.892 194.523 338.895 194.526 338.898 194.53C339.125 194.807 339.348 195.086 339.569 195.367C339.58 195.381 339.591 195.395 339.602 195.409C339.812 195.676 340.019 195.945 340.224 196.215C340.244 196.241 340.264 196.267 340.284 196.293C340.502 196.579 340.717 196.866 340.931 197.153C340.932 197.155 340.934 197.157 340.935 197.159C341.306 196.063 341.513 194.892 341.526 193.674L341.161 193.661L341.105 193.679Z" fill="white"/>
<path d="M328.557 188.479C328.586 188.477 328.615 188.475 328.645 188.473C328.846 188.459 329.048 188.451 329.252 188.451C329.862 188.451 330.459 188.516 331.039 188.635H331.039C331.448 188.732 332.175 188.931 332.715 189.159C332.941 189.255 333.164 189.359 333.382 189.473C333.392 189.478 333.409 189.487 333.432 189.5C333.435 189.502 333.441 189.505 333.445 189.507C333.465 189.518 333.487 189.531 333.513 189.545C333.514 189.546 333.514 189.546 333.515 189.546C333.545 189.563 333.578 189.582 333.613 189.602C333.616 189.603 333.619 189.605 333.622 189.607C333.76 189.685 333.914 189.774 333.973 189.807C333.98 189.811 333.984 189.813 333.988 189.816C333.991 189.818 333.997 189.821 333.998 189.822C333.986 189.797 333.973 189.774 333.96 189.75C333.958 189.745 333.955 189.74 333.953 189.735C333.467 188.776 332.718 187.952 331.799 187.39C330.903 186.842 329.858 186.54 328.807 186.54C326.196 186.54 323.989 188.298 323.268 190.714C323.951 190.131 324.711 189.64 325.528 189.266C326.482 188.831 327.511 188.558 328.557 188.479Z" fill="black"/>
<path d="M340.935 189.961L340.935 189.961L340.935 189.961C340.932 189.958 340.93 189.954 340.927 189.951L340.927 189.951C340.794 189.766 340.656 189.597 340.515 189.443C340.515 189.443 340.514 189.442 340.514 189.442C340.514 189.442 340.515 189.443 340.515 189.443C340.514 189.442 340.513 189.44 340.511 189.439C340.447 189.37 340.383 189.303 340.317 189.24C340.292 189.217 340.267 189.196 340.242 189.173C340.2 189.136 340.159 189.097 340.117 189.062V190.556L340.689 193.174V193.174C340.695 193.195 340.703 193.214 340.709 193.235L341.105 193.679L341.108 193.674H341.523C341.523 193.636 341.526 193.598 341.526 193.559V193.559C341.526 192.324 341.323 191.137 340.955 190.025V190.026C340.948 190.004 340.942 189.983 340.935 189.961Z" fill="#BBBCBD"/>
<path d="M336.898 189.274C337.357 188.825 337.971 188.461 338.629 188.461C339.15 188.461 339.65 188.672 340.117 189.058C340.117 189.058 340.117 189.062 340.117 189.063V189.064V189.063C340.159 189.097 340.2 189.136 340.242 189.173C340.267 189.196 340.292 189.217 340.317 189.241C340.383 189.303 340.447 189.37 340.511 189.439C340.513 189.441 340.514 189.442 340.515 189.444C340.515 189.443 340.514 189.443 340.514 189.442L340.514 189.442L340.509 189.426C340.009 187.964 339.202 187.015 338.291 187.015C337.083 187.015 336.058 188.688 335.69 191.01L335.694 191.007C336.008 190.383 336.396 189.765 336.898 189.274Z" fill="black"/>
<path d="M335.266 203.547C335.266 203.547 335.103 203.418 334.896 203.18C334.848 203.125 334.798 203.065 334.746 202.997C334.707 202.946 334.668 202.892 334.628 202.834C334.602 202.796 334.576 202.756 334.55 202.715C334.472 202.592 334.409 202.441 334.341 202.293C334.261 202.12 334.261 202.006 334.215 201.846C334.183 201.731 334.156 201.611 334.135 201.487C334.105 201.3 334.091 201.102 334.097 200.894C334.101 200.779 334.113 200.661 334.13 200.54C334.146 200.424 334.169 200.305 334.2 200.184C334.291 199.82 334.448 199.432 334.694 199.023C334.694 199.022 334.756 198.884 334.756 198.883C334.836 198.749 334.854 198.755 334.93 198.626C336.005 196.813 336.584 195.443 336.301 193.332C336.28 193.182 336.225 192.844 336.195 192.686C336.179 192.795 336.118 193.144 336.116 193.152C336.106 193.2 336.076 193.252 336.065 193.285C335.599 194.666 334.864 195.682 333.808 196.829C333.664 196.984 333.514 197.142 333.361 197.301C333.103 197.569 332.832 197.842 332.545 198.127C332.431 198.241 332.314 198.356 332.195 198.474C332.086 198.582 331.951 198.813 331.789 198.982C331.689 199.262 331.576 199.577 331.48 199.909C331.437 199.892 331.395 199.878 331.351 199.861C329.298 199.067 327.924 198.006 327.924 198.006C327.924 198.006 328.982 199.383 330.763 200.675C330.936 200.801 331.106 200.909 331.272 201.005C331.199 202.168 331.712 203.285 334.028 203.618C334.42 203.675 334.821 203.672 335.225 203.626C335.221 203.614 335.248 203.615 335.246 203.608C335.243 203.601 335.267 203.583 335.267 203.583" fill="black"/>
<path d="M334.026 200.552C336.083 200.884 339.127 200.829 342.286 199.35C342.362 199.314 342.446 199.408 342.523 199.371C342.523 199.371 340.363 201.577 337.784 202.824C337.709 202.86 337.634 202.899 337.558 202.933C337.309 203.047 337.055 203.146 336.801 203.238C336.302 203.417 335.796 203.553 335.294 203.616C335.271 203.619 335.248 203.624 335.225 203.626C335.221 203.614 335.218 203.604 335.216 203.598C335.213 203.591 335.212 203.587 335.212 203.587C335.212 203.587 335.049 203.458 334.843 203.22C334.794 203.165 334.745 203.105 334.693 203.037C334.654 202.987 334.614 202.932 334.575 202.875C334.548 202.836 334.522 202.796 334.496 202.755C334.418 202.632 334.342 202.495 334.274 202.347C334.205 202.198 334.144 202.038 334.095 201.865C334.062 201.751 334.035 201.631 334.015 201.506C333.984 201.319 333.97 201.122 333.977 200.913C333.98 200.799 333.992 200.68 334.009 200.56L334.026 200.552Z" fill="#9F2254"/>
<path d="M332.553 198.211C332.839 197.925 333.11 197.652 333.369 197.384C333.522 197.225 333.672 197.067 333.815 196.912C334.872 195.765 335.648 194.692 336.114 193.311C336.125 193.278 336.136 193.235 336.147 193.186C336.149 193.179 336.15 193.172 336.152 193.164C336.163 193.112 336.173 193.055 336.184 192.991C336.188 192.946 336.328 192.856 336.332 192.814C336.215 192.213 335.945 191.581 335.651 191.099C335.652 191.101 335.652 191.102 335.653 191.104C335.652 191.103 335.648 191.1 335.647 191.099C335.609 191.062 335.568 191.028 335.529 190.992C335.41 190.883 335.29 190.776 335.166 190.672C334.797 190.361 334.409 190.077 334.003 189.826C334.023 190.164 334.036 190.502 334.04 190.839C334.04 190.877 334.039 190.914 334.039 190.952C334.04 191.083 334.04 191.214 334.038 191.345C334.034 191.513 334.029 191.682 334.02 191.85C334.014 191.974 334.006 192.098 333.996 192.223C333.995 192.236 333.993 192.249 333.993 192.261C333.955 192.732 333.895 193.201 333.81 193.664L333.661 194.366C333.351 195.623 332.721 196.764 332.203 197.941C332.066 198.254 331.936 198.57 331.821 198.891C331.811 198.921 331.8 198.952 331.789 198.982C331.951 198.812 332.094 198.665 332.203 198.557C332.322 198.44 332.438 198.324 332.553 198.211Z" fill="#FCB03F"/>
<path d="M325.756 204.973C326.51 204.64 327.207 204.431 328.036 204.267C328.032 204.087 328.024 203.908 328.008 203.729C328.363 202.808 328.691 201.881 328.988 200.949C328.459 201.001 327.934 201.082 327.416 201.192C327.031 201.274 326.652 201.376 326.275 201.49C325.973 201.581 325.674 201.685 325.378 201.797L326.549 202.08L325.607 205.036L325.756 204.973Z" fill="#525353"/>
<path d="M340.225 196.215C340.019 195.945 339.812 195.676 339.602 195.409C339.591 195.395 339.58 195.381 339.569 195.368C339.348 195.086 339.125 194.807 338.898 194.53C338.895 194.527 338.892 194.523 338.89 194.52C338.656 194.235 338.42 193.954 338.179 193.676C338.164 193.658 338.148 193.64 338.133 193.622C337.986 193.453 337.836 193.286 337.686 193.119C337.634 193.062 337.582 193.004 337.529 192.947C337.404 192.811 337.278 192.676 337.151 192.543C337.052 192.439 336.952 192.337 336.852 192.235C336.757 192.138 336.663 192.041 336.567 191.947C336.36 191.743 336.151 191.543 335.938 191.347C335.843 191.261 335.748 191.176 335.651 191.092C335.65 191.093 335.65 191.094 335.649 191.095C335.853 191.679 336.085 192.271 336.201 192.881C336.231 193.04 336.256 193.194 336.277 193.345C336.56 195.455 335.884 196.833 334.81 198.646C334.733 198.776 334.654 198.908 334.573 199.043C334.328 199.452 334.17 199.84 334.079 200.204C334.049 200.325 334.026 200.444 334.009 200.56C336.115 200.9 339.282 200.963 342.523 199.371C342.523 199.371 341.887 198.437 340.931 197.153C340.717 196.866 340.502 196.579 340.285 196.293C340.265 196.267 340.245 196.241 340.225 196.215Z" fill="#DF0067"/>
<path d="M325.495 205.564L326.549 202.08L325.379 201.797C325.117 201.895 324.857 202 324.6 202.114L323.557 205.564L324.722 205.582L325.495 205.564Z" fill="#AA9678"/>
<path d="M326.236 204.057C326.339 204.096 326.443 204.132 326.548 204.169C327.712 204.577 328.963 204.801 330.267 204.801C331.754 204.801 333.173 204.51 334.472 203.987C334.541 203.959 334.608 203.929 334.676 203.9C334.787 203.853 334.896 203.804 335.005 203.754C335.102 203.709 335.199 203.664 335.294 203.616C335.271 203.619 335.248 203.624 335.225 203.626C334.821 203.672 334.42 203.674 334.028 203.618C331.712 203.285 331.199 202.168 331.272 201.005C331.106 200.909 330.936 200.8 330.763 200.675C328.982 199.383 327.924 198.006 327.924 198.006C327.924 198.006 329.298 199.067 331.351 199.861C331.395 199.878 331.437 199.892 331.48 199.909C331.576 199.577 331.689 199.262 331.789 198.982C331.8 198.952 331.811 198.921 331.821 198.892C331.936 198.57 332.066 198.254 332.203 197.942C332.721 196.764 333.351 195.624 333.661 194.366L333.81 193.664H332.543L332.543 193.664C332.543 193.665 332.543 193.666 332.543 193.667L332.542 193.667C332.542 193.67 332.543 193.674 332.543 193.677C332.543 193.886 332.501 194.085 332.424 194.266C332.386 194.357 332.339 194.443 332.285 194.523C332.176 194.684 332.037 194.823 331.876 194.932C331.796 194.986 331.71 195.033 331.619 195.071C331.438 195.147 331.239 195.19 331.03 195.19C330.977 195.19 330.925 195.187 330.873 195.182C330.861 195.18 330.85 195.178 330.838 195.176C330.798 195.171 330.759 195.166 330.72 195.158C330.71 195.155 330.699 195.152 330.689 195.149C330.649 195.14 330.61 195.131 330.572 195.118C330.565 195.116 330.558 195.113 330.551 195.111C330.51 195.097 330.469 195.082 330.429 195.065C330.425 195.063 330.422 195.061 330.418 195.06C330.376 195.041 330.334 195.02 330.293 194.997L330.291 194.996C330.161 194.923 330.043 194.831 329.94 194.723L325.599 193.664H320.862C320.842 193.7 320.82 193.735 320.8 193.771C320.764 193.837 320.729 193.903 320.695 193.969C320.609 194.132 320.526 194.296 320.448 194.463C320.42 194.522 320.393 194.58 320.366 194.639C320.271 194.851 320.18 195.066 320.097 195.283C320.093 195.292 320.089 195.302 320.085 195.312C319.991 195.56 319.904 195.812 319.826 196.066C319.727 196.392 319.641 196.721 319.57 197.052C320.315 199.327 321.766 201.281 323.663 202.659C323.718 202.699 323.776 202.734 323.832 202.774C324.153 202.998 324.484 203.208 324.828 203.398C325.28 203.648 325.749 203.87 326.236 204.057Z" fill="white"/>
<path d="M337.594 206.749C337.564 206.45 337.546 206.148 337.546 205.843C337.546 205.66 337.398 205.511 337.214 205.511H323.279C323.096 205.511 322.947 205.66 322.947 205.843C322.947 206.148 322.929 206.45 322.9 206.749C322.868 207.08 322.816 207.407 322.75 207.729C322.952 207.836 323.155 207.94 323.362 208.038C323.499 207.44 323.583 206.825 323.605 206.197C323.605 206.19 323.606 206.183 323.606 206.176H336.887C336.888 206.183 336.888 206.19 336.889 206.197C336.911 206.825 336.995 207.44 337.131 208.038C337.338 207.94 337.542 207.836 337.744 207.729C337.677 207.407 337.626 207.08 337.594 206.749Z" fill="#8B7460"/>
</g>
<g filter="url(#filter6_d)" class='app7'>
<rect x="96.0369" y="133.755" width="43.626" height="43.626" rx="8" fill="white"/>
</g>
<g class='app7'>
<path d="M110.642 155.108L110.24 155.51C108.95 156.8 108.577 158.607 109.036 160.242C107.745 160.529 106.799 161.676 106.799 163.053C106.799 164.63 108.089 165.921 109.667 165.921C111.101 165.921 112.277 164.888 112.506 163.512C114.055 163.885 115.747 163.454 116.952 162.25L117.124 162.078L115.001 159.955L114.829 160.127C114.141 160.816 113.022 160.816 112.334 160.127C111.646 159.439 111.646 158.32 112.334 157.632L117.095 152.871L114.973 150.749L112.736 152.986L110.642 155.108Z" fill="#7AC143"/>
<path d="M112.988 157.462L115.225 159.699L117.348 161.821L117.749 162.223C119.011 163.485 120.847 163.886 122.453 163.427C122.653 164.833 123.858 165.894 125.292 165.894C126.87 165.894 128.16 164.603 128.16 163.026C128.16 161.563 127.07 160.359 125.665 160.187C126.124 158.58 125.722 156.774 124.46 155.512L124.288 155.339L122.223 157.462L122.395 157.634C123.084 158.322 123.084 159.441 122.395 160.129C121.707 160.818 120.588 160.818 119.9 160.129L119.499 159.728L117.376 157.605L115.139 155.368L112.988 157.462Z" fill="#F9A541"/>
<path d="M122.616 146.761C120.982 146.273 119.146 146.646 117.855 147.937L117.683 148.109L119.806 150.231L119.978 150.059C120.666 149.371 121.785 149.371 122.473 150.059C123.161 150.748 123.161 151.866 122.473 152.555L122.072 152.956L119.949 155.078L117.712 157.316L119.834 159.438L124.624 154.648C125.829 153.444 126.259 151.723 125.886 150.145C127.291 149.945 128.353 148.74 128.353 147.306C128.353 145.729 127.062 144.438 125.485 144.438C124.051 144.467 122.875 145.47 122.616 146.761Z" fill="#F44321"/>
<path d="M121.741 152.727L119.504 150.49L117.382 148.367L116.98 147.966C115.747 146.732 114.026 146.331 112.477 146.704C112.191 145.413 111.043 144.467 109.667 144.467C108.089 144.467 106.799 145.757 106.799 147.335C106.799 148.683 107.745 149.83 109.007 150.117C108.605 151.723 109.007 153.444 110.24 154.677L110.412 154.849L112.535 152.727L112.363 152.555C111.674 151.866 111.674 150.748 112.363 150.059C113.051 149.371 114.17 149.371 114.858 150.059L115.259 150.461L117.382 152.583L119.619 154.82L121.741 152.727Z" fill="#5091CD"/>
</g>
<g filter="url(#filter7_d)" class='app8'>
<rect x="262.977" y="253.924" width="59.6256" height="59.6256" rx="8" fill="#F0F0F0"/>
</g>
<g clip-path="url(#clip6)" class='app8'>
<path d="M288.145 272.738C282.611 275.061 279.128 279.617 279.128 285.471C279.128 292.952 285.264 299.017 292.834 299.017C300.404 299.017 306.54 292.952 306.54 285.471C306.54 276.476 298.084 272.9 298.084 272.9C298.084 272.9 296.237 272.142 295.204 271.462C295.204 271.462 293.899 270.674 291.625 267.772C291.625 267.772 291.677 271.069 288.145 272.738" fill="#136DA9"/>
<path d="M291.463 296.395C290.981 296.064 291.096 295.011 292.4 295.763C292.4 295.763 295.178 297.78 299.576 295.361C299.918 295.173 300.337 295.836 299.25 296.444C299.25 296.444 294.806 298.692 291.463 296.395Z" fill="#F0F0F0"/>
<path d="M291.463 296.395C290.981 296.064 291.096 295.011 292.4 295.763C292.4 295.763 295.178 297.78 299.576 295.361C299.918 295.173 300.337 295.836 299.25 296.444C299.25 296.444 294.806 298.692 291.463 296.395Z" stroke="#FFFDFF"/>
<path d="M297.129 293.05C298.747 293.238 298.19 294.006 298.624 294.125C299.508 294.367 299.127 293.413 299.127 293.413C298.475 292.123 297.347 292.204 297.347 292.204C295.58 291.935 294.262 293.601 294.262 293.601C293.936 294.313 294.392 294.349 294.561 294.273C295.417 293.883 295.938 292.912 297.129 293.05Z" fill="#F0F0F0"/>
<path d="M297.129 293.05C298.747 293.238 298.19 294.006 298.624 294.125C299.508 294.367 299.127 293.413 299.127 293.413C298.475 292.123 297.347 292.204 297.347 292.204C295.58 291.935 294.262 293.601 294.262 293.601C293.936 294.313 294.392 294.349 294.561 294.273C295.417 293.883 295.938 292.912 297.129 293.05Z" stroke="#FFFDFF"/>
<path d="M280.922 292.282C280.922 292.282 285.836 296.301 297.795 287.348C297.795 287.348 303.802 283.621 303.621 277.231C303.621 277.231 301.677 274.47 298.397 273.047C297.931 272.844 293.832 270.634 291.619 267.862C291.619 267.862 291.218 275.903 280.797 279.077C280.797 279.077 278.171 282.905 279.603 289.126C279.603 289.126 280.519 291.649 280.922 292.282Z" fill="#008ECE"/>
<path d="M288.717 293.776C288.717 293.776 284.64 293.883 285.129 289.585C285.129 289.585 285.981 284.75 291.707 285.824C291.707 285.824 292.957 286.093 295.295 287.866C295.295 287.866 296.837 289.041 297.687 289.019C297.687 289.019 298.346 289.081 299.716 288.224C299.716 288.224 302.511 286.093 303.488 286.156C303.512 286.157 305.46 285.945 305.46 289.048C305.46 289.048 305.496 292.468 302.887 293.615C302.887 293.615 302.199 293.847 301.456 293.077C301.456 293.077 299.317 290.678 298.266 290.284C298.266 290.284 297.659 290.048 296.853 290.337C296.853 290.337 296.328 290.391 294.171 291.806C294.171 291.806 290.547 294.044 288.717 293.776Z" fill="#F0F0F0"/>
<path d="M288.717 293.776C288.717 293.776 284.64 293.883 285.129 289.585C285.129 289.585 285.981 284.75 291.707 285.824C291.707 285.824 292.957 286.093 295.295 287.866C295.295 287.866 296.837 289.041 297.687 289.019C297.687 289.019 298.346 289.081 299.716 288.224C299.716 288.224 302.511 286.093 303.488 286.156C303.512 286.157 305.46 285.945 305.46 289.048C305.46 289.048 305.496 292.468 302.887 293.615C302.887 293.615 302.199 293.847 301.456 293.077C301.456 293.077 299.317 290.678 298.266 290.284C298.266 290.284 297.659 290.048 296.853 290.337C296.853 290.337 296.328 290.391 294.171 291.806C294.171 291.806 290.547 294.044 288.717 293.776Z" stroke="#FFFDFF"/>
<path d="M290.873 278.356C293.513 274.62 291.619 267.754 291.619 267.754C291.386 271.479 288.206 272.708 288.206 272.708C282.513 275.137 280.797 278.97 280.797 278.97C282.017 280.68 285.256 286.308 290.873 278.356Z" fill="#008ECE"/>
<path d="M291.619 267.754C291.619 267.754 291.961 270.888 290.239 271.909C290.239 271.909 287.479 273.179 286.636 273.596C286.636 273.596 283.091 275.71 281.922 277.698C281.922 277.698 279.422 281.005 282.874 280.223C282.874 280.223 289.116 278.482 291.653 273.225C291.653 273.225 291.802 272.782 291.326 272.326C291.326 272.326 293.229 270.906 291.619 267.754Z" fill="#A0D8F1"/>
<path d="M291.619 267.754C291.619 267.754 291.761 269.894 289.964 271.668C289.964 271.668 289.424 272.42 286.636 273.596C286.636 273.596 283.444 275.24 282.013 277.521C282.013 277.521 279.893 280.049 282.8 279.371C282.8 279.371 288.692 277.225 290.851 273.285C290.851 273.285 291.143 272.871 290.699 272.444C290.699 272.444 292.813 270.812 291.619 267.754Z" fill="#F0F0F0"/>
</g>
<g filter="url(#filter1_d)" class='app2'>
<rect x="162.837" y="128.558" width="114.665" height="114.665" rx="8" fill="white"/>
</g>
<g class='app2'>
<path d="M189.629 185.686C189.629 197.695 196.608 208.072 206.727 212.99L192.256 173.34C190.573 177.113 189.629 181.288 189.629 185.686Z" fill="#464342"/>
<path d="M240.447 184.156C240.447 180.406 239.101 177.81 237.945 175.789C236.408 173.29 234.966 171.174 234.966 168.675C234.966 165.886 237.081 163.29 240.061 163.29C240.195 163.29 240.323 163.307 240.454 163.314C235.056 158.369 227.865 155.35 219.967 155.35C209.369 155.35 200.044 160.788 194.619 169.024C195.331 169.046 196.002 169.061 196.572 169.061C199.745 169.061 204.657 168.676 204.657 168.676C206.292 168.579 206.485 170.981 204.851 171.175C204.851 171.175 203.208 171.368 201.379 171.464L212.427 204.325L219.066 184.413L214.339 171.463C212.706 171.367 211.158 171.174 211.158 171.174C209.523 171.078 209.715 168.578 211.35 168.675C211.35 168.675 216.36 169.06 219.341 169.06C222.513 169.06 227.426 168.675 227.426 168.675C229.062 168.578 229.255 170.98 227.62 171.174C227.62 171.174 225.974 171.367 224.148 171.463L235.112 204.075L238.138 193.963C239.449 189.767 240.447 186.753 240.447 184.156Z" fill="#464342"/>
<path d="M220.499 188.34L211.397 214.79C214.115 215.589 216.989 216.026 219.967 216.026C223.5 216.026 226.888 215.415 230.041 214.306C229.96 214.176 229.886 214.038 229.826 213.888L220.499 188.34Z" fill="#464342"/>
<path d="M246.587 171.131C246.717 172.098 246.791 173.135 246.791 174.251C246.791 177.329 246.216 180.79 244.485 185.117L235.218 211.91C244.237 206.65 250.303 196.879 250.303 185.687C250.304 180.413 248.957 175.453 246.587 171.131Z" fill="#464342"/>
<path d="M219.967 150.323C200.468 150.323 184.603 166.187 184.603 185.686C184.603 205.188 200.468 221.051 219.967 221.051C239.466 221.051 255.333 205.188 255.333 185.686C255.333 166.187 239.466 150.323 219.967 150.323ZM219.967 219.431C201.362 219.431 186.224 204.293 186.224 185.686C186.224 167.081 201.361 151.945 219.967 151.945C238.572 151.945 253.708 167.081 253.708 185.686C253.708 204.293 238.572 219.431 219.967 219.431Z" fill="#464342"/>
</g>
<defs>
<filter id="filter0_d" x="222.977" y="48.2207" width="139.626" height="139.626" filterUnits="userSpaceOnUse" color-interpolation-filters="sRGB">
<feFlood flood-opacity="0" result="BackgroundImageFix"/>
<feColorMatrix in="SourceAlpha" type="matrix" values="0 0 0 0 0 0 0 0 0 0 0 0 0 0 0 0 0 0 127 0"/>
<feOffset dy="4"/>
<feGaussianBlur stdDeviation="20"/>
<feColorMatrix type="matrix" values="0 0 0 0 0 0 0 0 0 0 0 0 0 0 0 0 0 0 0.1 0"/>
<feBlend mode="normal" in2="BackgroundImageFix" result="effect1_dropShadow"/>
<feBlend mode="normal" in="SourceGraphic" in2="effect1_dropShadow" result="shape"/>
</filter>
<filter id="filter1_d" x="122.837" y="92.5576" width="194.665" height="194.665" filterUnits="userSpaceOnUse" color-interpolation-filters="sRGB">
<feFlood flood-opacity="0" result="BackgroundImageFix"/>
<feColorMatrix in="SourceAlpha" type="matrix" values="0 0 0 0 0 0 0 0 0 0 0 0 0 0 0 0 0 0 127 0"/>
<feOffset dy="4"/>
<feGaussianBlur stdDeviation="20"/>
<feColorMatrix type="matrix" values="0 0 0 0 0 0 0 0 0 0 0 0 0 0 0 0 0 0 0.3 0"/>
<feBlend mode="normal" in2="BackgroundImageFix" result="effect1_dropShadow"/>
<feBlend mode="normal" in="SourceGraphic" in2="effect1_dropShadow" result="shape"/>
</filter>
<filter id="filter2_d" x="0.29248" y="0" width="158.407" height="158.407" filterUnits="userSpaceOnUse" color-interpolation-filters="sRGB">
<feFlood flood-opacity="0" result="BackgroundImageFix"/>
<feColorMatrix in="SourceAlpha" type="matrix" values="0 0 0 0 0 0 0 0 0 0 0 0 0 0 0 0 0 0 127 0"/>
<feOffset dy="4"/>
<feGaussianBlur stdDeviation="20"/>
<feColorMatrix type="matrix" values="0 0 0 0 0 0 0 0 0 0 0 0 0 0 0 0 0 0 0.1 0"/>
<feBlend mode="normal" in2="BackgroundImageFix" result="effect1_dropShadow"/>
<feBlend mode="normal" in="SourceGraphic" in2="effect1_dropShadow" result="shape"/>
</filter>
<filter id="filter3_d" x="67.8867" y="219.065" width="127.395" height="127.395" filterUnits="userSpaceOnUse" color-interpolation-filters="sRGB">
<feFlood flood-opacity="0" result="BackgroundImageFix"/>
<feColorMatrix in="SourceAlpha" type="matrix" values="0 0 0 0 0 0 0 0 0 0 0 0 0 0 0 0 0 0 127 0"/>
<feOffset dy="4"/>
<feGaussianBlur stdDeviation="20"/>
<feColorMatrix type="matrix" values="0 0 0 0 0 0 0 0 0 0 0 0 0 0 0 0 0 0 0.1 0"/>
<feBlend mode="normal" in2="BackgroundImageFix" result="effect1_dropShadow"/>
<feBlend mode="normal" in="SourceGraphic" in2="effect1_dropShadow" result="shape"/>
</filter>
<filter id="filter4_d" x="8.37158" y="160.77" width="150.328" height="150.328" filterUnits="userSpaceOnUse" color-interpolation-filters="sRGB">
<feFlood flood-opacity="0" result="BackgroundImageFix"/>
<feColorMatrix in="SourceAlpha" type="matrix" values="0 0 0 0 0 0 0 0 0 0 0 0 0 0 0 0 0 0 127 0"/>
<feOffset dy="4"/>
<feGaussianBlur stdDeviation="20"/>
<feColorMatrix type="matrix" values="0 0 0 0 0 0 0 0 0 0 0 0 0 0 0 0 0 0 0.1 0"/>
<feBlend mode="normal" in2="BackgroundImageFix" result="effect1_dropShadow"/>
<feBlend mode="normal" in="SourceGraphic" in2="effect1_dropShadow" result="shape"/>
</filter>
<filter id="filter5_d" x="266.55" y="133.837" width="127.395" height="127.395" filterUnits="userSpaceOnUse" color-interpolation-filters="sRGB">
<feFlood flood-opacity="0" result="BackgroundImageFix"/>
<feColorMatrix in="SourceAlpha" type="matrix" values="0 0 0 0 0 0 0 0 0 0 0 0 0 0 0 0 0 0 127 0"/>
<feOffset dy="4"/>
<feGaussianBlur stdDeviation="20"/>
<feColorMatrix type="matrix" values="0 0 0 0 0 0 0 0 0 0 0 0 0 0 0 0 0 0 0.1 0"/>
<feBlend mode="normal" in2="BackgroundImageFix" result="effect1_dropShadow"/>
<feBlend mode="normal" in="SourceGraphic" in2="effect1_dropShadow" result="shape"/>
</filter>
<filter id="filter6_d" x="56.0369" y="97.7549" width="123.626" height="123.626" filterUnits="userSpaceOnUse" color-interpolation-filters="sRGB">
<feFlood flood-opacity="0" result="BackgroundImageFix"/>
<feColorMatrix in="SourceAlpha" type="matrix" values="0 0 0 0 0 0 0 0 0 0 0 0 0 0 0 0 0 0 127 0"/>
<feOffset dy="4"/>
<feGaussianBlur stdDeviation="20"/>
<feColorMatrix type="matrix" values="0 0 0 0 0 0 0 0 0 0 0 0 0 0 0 0 0 0 0.1 0"/>
<feBlend mode="normal" in2="BackgroundImageFix" result="effect1_dropShadow"/>
<feBlend mode="normal" in="SourceGraphic" in2="effect1_dropShadow" result="shape"/>
</filter>
<filter id="filter7_d" x="222.977" y="217.924" width="139.626" height="139.626" filterUnits="userSpaceOnUse" color-interpolation-filters="sRGB">
<feFlood flood-opacity="0" result="BackgroundImageFix"/>
<feColorMatrix in="SourceAlpha" type="matrix" values="0 0 0 0 0 0 0 0 0 0 0 0 0 0 0 0 0 0 127 0"/>
<feOffset dy="4"/>
<feGaussianBlur stdDeviation="20"/>
<feColorMatrix type="matrix" values="0 0 0 0 0 0 0 0 0 0 0 0 0 0 0 0 0 0 0.1 0"/>
<feBlend mode="normal" in2="BackgroundImageFix" result="effect1_dropShadow"/>
<feBlend mode="normal" in="SourceGraphic" in2="effect1_dropShadow" result="shape"/>
</filter>
<radialGradient id="paint0_radial" cx="0" cy="0" r="1" gradientUnits="userSpaceOnUse" gradientTransform="translate(75.4571 224.887) scale(27.804 27.1313)">
<stop stop-color="#AEB2D5"/>
<stop offset="0.3" stop-color="#AEB2D5"/>
<stop offset="0.75" stop-color="#484C89"/>
<stop offset="1" stop-color="#484C89"/>
</radialGradient>
<clipPath id="clip0">
<rect x="273.679" y="103.332" width="38.2216" height="23.6974" fill="white"/>
</clipPath>
<clipPath id="clip1">
<rect x="56.4851" y="47.9314" width="46.0213" height="53.6915" fill="white"/>
</clipPath>
<clipPath id="clip2">
<rect x="119.736" y="265.334" width="23.6974" height="25.2772" fill="white"/>
</clipPath>
<clipPath id="clip3">
<rect x="62.1316" y="220.468" width="43.5726" height="22.9329" fill="white"/>
</clipPath>
<clipPath id="clip4">
<rect x="314.194" y="177.481" width="32.1061" height="32.1061" fill="white"/>
</clipPath>
<clipPath id="clip5">
<rect x="96.0369" y="133.755" width="0.871564" height="0.871564" fill="white"/>
</clipPath>
<clipPath id="clip6">
<rect x="279.03" y="267.684" width="27.5195" height="31.3417" fill="white"/>
</clipPath>
</defs>
</svg>
