<?xml version="1.0" encoding="utf-8"?>
<!-- Generator: Adobe Illustrator 23.0.0, SVG Export Plug-In . SVG Version: 6.00 Build 0)  -->
<svg version="1.1" id="Layer_1" xmlns="http://www.w3.org/2000/svg" xmlns:xlink="http://www.w3.org/1999/xlink" x="0px" y="0px"
	 viewBox="0 0 200 54" style="enable-background:new 0 0 200 54;" xml:space="preserve">
<style type="text/css">
	.st0{fill:#FFFFFF;}
	.st1{font-family:'GalanoGrotesque-Medium';}
	.st2{font-size:57.7471px;}
</style>
<text transform="matrix(1 0 0 1 83.5078 44.9102)" class="st0 st1 st2">+</text>
<g>
	<g>
		<polyline class="st0" points="149.49,7.17 129.92,7.17 129.92,47 169.32,47 169.32,27.08 159.32,27.08 159.32,37.17 139.75,37.17 
			139.75,17.17 149.62,17.17 149.62,7.17 		"/>
		<rect x="149.62" y="16.91" class="st0" width="9.7" height="10.18"/>
		<rect x="167.14" y="16.21" class="st0" width="8" height="8"/>
		<rect x="154.97" y="3.77" class="st0" width="10" height="10.09"/>
		<rect x="169.32" y="2.9" class="st0" width="8.61" height="7.83"/>
	</g>
	<g>
		<polygon class="st0" points="139.75,36.66 139.75,17.17 149.62,17.17 149.62,7.17 129.92,7.17 129.92,46.49 		"/>
		<polygon class="st0" points="159.32,17.09 159.32,16.91 149.62,16.91 149.62,26.79 		"/>
		<rect x="167.14" y="16.21" class="st0" width="8" height="8"/>
		<polyline class="st0" points="164.97,11.44 164.97,3.77 154.97,3.77 154.97,13.86 162.55,13.86 		"/>
		<polygon class="st0" points="173.51,2.9 169.32,2.9 169.32,7.09 		"/>
	</g>
</g>
<g>
	<path class="st0" d="M54.91,15.18l4.69-4.69l0.31-1.98c-8.55-7.78-22.15-6.9-29.86,1.84c-2.14,2.43-3.73,5.45-4.58,8.58l1.68-0.24
		l9.39-1.55l0.72-0.74c4.18-4.59,11.24-5.2,16.06-1.3L54.91,15.18z"/>
	<path class="st0" d="M66.29,18.79c-1.08-3.97-3.29-7.55-6.37-10.28l-6.59,6.59c2.78,2.27,4.37,5.7,4.3,9.29v1.17
		c3.24,0,5.86,2.63,5.86,5.86c0,3.24-2.63,5.8-5.86,5.8H45.89l-1.15,1.25v7.03l1.15,1.1h11.74c8.42,0.07,15.3-6.64,15.37-15.07
		C73.04,26.43,70.52,21.65,66.29,18.79"/>
	<path class="st0" d="M34.16,46.6h11.73v-9.39H34.16c-0.84,0-1.64-0.18-2.4-0.53l-1.66,0.51l-4.73,4.69l-0.41,1.6
		C27.6,45.49,30.84,46.62,34.16,46.6"/>
	<path class="st0" d="M34.16,16.15C25.74,16.2,18.95,23.07,19,31.49c0.03,4.7,2.22,9.13,5.95,12l6.8-6.8
		c-2.95-1.33-4.26-4.81-2.93-7.76c1.33-2.95,4.81-4.26,7.76-2.93c1.3,0.59,2.34,1.63,2.93,2.93l6.8-6.8
		C43.42,18.35,38.92,16.13,34.16,16.15"/>
</g>
</svg>
