<?xml version="1.0" encoding="utf-8"?>
<!-- Generator: Adobe Illustrator 23.0.0, SVG Export Plug-In . SVG Version: 6.00 Build 0)  -->
<svg version="1.1" id="Layer_1" xmlns="http://www.w3.org/2000/svg" xmlns:xlink="http://www.w3.org/1999/xlink" x="0px" y="0px"
	 viewBox="0 0 40 40" style="enable-background:new 0 0 40 40;" xml:space="preserve">
<style type="text/css">
	.st0{fill:#FFFFFF;}
</style>
<g>
	<path class="st0" d="M26.27,12.06l3.3-3.3l0.22-1.39C23.78,1.89,14.21,2.51,8.78,8.66c-1.51,1.71-2.63,3.84-3.22,6.03l1.18-0.17
		l6.61-1.09l0.51-0.52c2.94-3.23,7.91-3.66,11.3-0.92L26.27,12.06z"/>
	<path class="st0" d="M34.28,14.6c-0.76-2.8-2.32-5.31-4.49-7.23L25.16,12c1.96,1.6,3.07,4.01,3.03,6.54v0.82
		c2.28,0,4.13,1.85,4.13,4.13c0,2.28-1.85,4.08-4.13,4.08h-8.26l-0.81,0.88v4.95l0.81,0.78h8.26c5.93,0.05,10.77-4.67,10.82-10.6
		C39.03,19.98,37.26,16.61,34.28,14.6"/>
	<path class="st0" d="M11.67,34.17h8.25v-6.61h-8.25c-0.59,0-1.16-0.13-1.69-0.37l-1.17,0.36l-3.33,3.3l-0.29,1.12
		C7.05,33.39,9.33,34.18,11.67,34.17"/>
	<path class="st0" d="M11.67,12.74C5.74,12.78,0.96,17.61,1,23.54c0.02,3.31,1.57,6.43,4.19,8.44l4.79-4.79
		c-2.08-0.94-3-3.38-2.06-5.46c0.94-2.08,3.38-3,5.46-2.06c0.92,0.41,1.65,1.15,2.06,2.06l4.79-4.79
		C18.19,14.29,15.02,12.73,11.67,12.74"/>
</g>
</svg>
