<?xml version="1.0" encoding="utf-8"?>
<!-- Generator: Adobe Illustrator 25.2.1, SVG Export Plug-In . SVG Version: 6.00 Build 0)  -->
<svg version="1.1" id="a8237fc7-a513-438f-ab7a-2b37aadb4443"
	 xmlns="http://www.w3.org/2000/svg" xmlns:xlink="http://www.w3.org/1999/xlink" x="0px" y="0px" viewBox="0 0 1440 485"
	 style="enable-background:new 0 0 1440 485;" xml:space="preserve">
<style type="text/css">
	.st0{clip-path:url(#SVGID_2_);}
	.st1{fill:url(#SVGID_3_);}
	.st2{opacity:0.73;}
	.st3{clip-path:url(#SVGID_5_);}
	.st4{opacity:0.31;fill:url(#SVGID_6_);enable-background:new    ;}
	.st5{opacity:0.37;fill:url(#SVGID_7_);enable-background:new    ;}
	.st6{opacity:0.5;fill:#D6D2FF;enable-background:new    ;}
	.st7{opacity:0.87;}
	.st8{fill:#F5F5FF;}
	.st9{opacity:0.6;}
	.st10{opacity:0.48;fill:#A385FF;enable-background:new    ;}
	.st11{opacity:0.48;}
	.st12{fill:#A385FF;}
	.st13{clip-path:url(#SVGID_9_);}
	.st14{opacity:0.24;fill:#A385FF;enable-background:new    ;}
	.st15{opacity:0.82;fill:#FF8F8F;enable-background:new    ;}
	.st16{opacity:0.74;}
	.st17{fill:#FF6D66;}
	.st18{opacity:0.82;}
	.st19{fill:#FFA992;}
	.st20{opacity:0.53;}
	.st21{opacity:0.52;fill:#FF6D66;enable-background:new    ;}
	.st22{opacity:0.52;}
	.st23{fill:#0031A9;}
	.st24{fill:#456AF6;}
	.st25{fill:#E4DEFF;}
	.st26{fill:#1134B6;}
	.st27{clip-path:url(#SVGID_11_);}
	.st28{fill:#23274B;}
	.st29{fill:#2E3359;}
	.st30{fill:#484D71;}
	.st31{fill:#393D64;}
	.st32{fill:#565871;}
	.st33{fill:#F06422;}
	.st34{fill:url(#SVGID_12_);}
	.st35{fill:#010101;}
	.st36{fill:#80534F;}
	.st37{fill:#FFFFFF;}
	.st38{fill:#8A6339;}
	.st39{opacity:0.4;fill:#DAA656;enable-background:new    ;}
	.st40{fill:#1A1A1A;}
	.st41{fill:url(#SVGID_13_);}
	.st42{fill:url(#SVGID_14_);}
	.st43{fill:#4B2A6B;}
	.st44{opacity:0.4;fill:url(#SVGID_15_);enable-background:new    ;}
	.st45{fill:#E7580E;}
	.st46{fill:#DD5007;}
	.st47{fill:#F56318;}
	.st48{fill:#D44300;}
	.st49{fill:#3F1022;}
	.st50{fill:#1645F3;}
	.st51{fill:#0023A6;}
	.st52{fill:#541936;}
	.st53{fill:#350F23;}
	.st54{opacity:0.66;}
	.st55{fill:none;stroke:#FFBA00;stroke-linecap:round;stroke-miterlimit:10;}
	.st56{fill:none;stroke:#FFBA00;stroke-miterlimit:10;}
	.st57{opacity:0.66;fill:#FFBA00;enable-background:new    ;}
	.st58{fill:#FFBA00;}
	.st59{fill:#FAFCE8;}
	.st60{opacity:0.55;fill:#FBBC04;enable-background:new    ;}
	.st61{fill:#FFD05C;}
	.st62{opacity:0.82;fill:#2A7CF4;enable-background:new    ;}
	.st63{fill:#C5DDFF;}
	.st64{fill:#00AC47;}
	.st65{fill:#FF8F8F;}
	.st66{fill:#97CBFF;}
	.st67{fill:#A0C6FF;}
	.st68{opacity:0.29;}
	.st69{opacity:0.55;fill:none;stroke:#004FCD;stroke-linecap:round;stroke-miterlimit:10;enable-background:new    ;}
	.st70{opacity:0.94;fill:#1645F3;enable-background:new    ;}
	.st71{fill:#D4E8FF;}
	.st72{opacity:0.38;fill:#1B1C1E;enable-background:new    ;}
	.st73{fill:#00832D;}
	.st74{fill:#28C649;}
	.st75{clip-path:url(#SVGID_17_);}
	.st76{opacity:0.11;fill:#1B1C1E;enable-background:new    ;}
	.st77{fill:#FFD366;}
	.st78{opacity:0.76;fill:#B3D2FF;enable-background:new    ;}
	.st79{fill:#CCE3FF;}
	.st80{opacity:0.23;fill:none;stroke:#004FCD;stroke-linecap:round;stroke-miterlimit:10;enable-background:new    ;}
	.st81{clip-path:url(#SVGID_19_);}
	.st82{opacity:0.82;fill:#34A853;enable-background:new    ;}
	.st83{clip-path:url(#SVGID_21_);}
	.st84{opacity:0.83;fill:#D6D2FF;enable-background:new    ;}
	.st85{opacity:0.9;}
	.st86{opacity:0.12;}
	.st87{fill:none;stroke:#004FCD;stroke-linecap:round;stroke-miterlimit:10;}
	.st88{clip-path:url(#SVGID_23_);}
	.st89{fill:#FBBC04;}
	.st90{fill:#FFE85F;}
	.st91{fill:#4285F4;}
	.st92{fill:#B0DBFF;}
	.st93{clip-path:url(#SVGID_27_);}
	.st94{opacity:0.17;fill:#D35A00;enable-background:new    ;}
	.st95{fill:#B0D8FF;}
	.st96{clip-path:url(#SVGID_29_);}
	.st97{opacity:0.21;fill:#1B1C1E;enable-background:new    ;}
	.st98{opacity:0.59;fill:none;stroke:#A385FF;stroke-miterlimit:10;enable-background:new    ;}
	.st99{opacity:0.55;fill:none;stroke:#A385FF;stroke-linecap:round;stroke-miterlimit:10;enable-background:new    ;}
	.st100{clip-path:url(#SVGID_31_);}
	.st101{opacity:0.36;fill:#A385FF;enable-background:new    ;}
	.st102{fill:#D6D2FF;}
	.st103{opacity:0.54;fill:#A385FF;enable-background:new    ;}
	.st104{opacity:0.68;}
	.st105{opacity:0.44;}
	.st106{fill:none;}
	.st107{fill:#00AC47;stroke:#00AC47;stroke-miterlimit:10;}
	.st108{opacity:0.91;}
	.st109{opacity:0.82;fill:#46E085;enable-background:new    ;}
	.st110{opacity:0.93;fill:#00AC47;enable-background:new    ;}
	.st111{opacity:0.42;}
	.st112{fill:#46E085;}
	.st113{opacity:0.46;}
	.st114{clip-path:url(#SVGID_33_);}
</style>
<g>
	<defs>
		<rect id="SVGID_1_" x="-2.3" y="-3.3" width="1444.9" height="491.4"/>
	</defs>
	<clipPath id="SVGID_2_">
		<use xlink:href="#SVGID_1_"  style="overflow:visible;"/>
	</clipPath>
	<g class="st0">
		
			<linearGradient id="SVGID_3_" gradientUnits="userSpaceOnUse" x1="271.5801" y1="-393.2332" x2="989.7253" y2="945.1289" gradientTransform="matrix(1 0 0 -1 0 485.89)">
			<stop  offset="0.2223" style="stop-color:#EBD8E8"/>
			<stop  offset="0.335" style="stop-color:#C4C8ED"/>
			<stop  offset="0.5245" style="stop-color:#88B0F5"/>
			<stop  offset="0.6642" style="stop-color:#63A1FA"/>
			<stop  offset="0.7379" style="stop-color:#559BFC"/>
		</linearGradient>
		<path class="st1" d="M1450.5,201.8c-252.8,19.7-461,233.9-714.3,244.7c-49.6,2.1-105.1-6.8-135.9-45.7
			c-15.9-20.1-23.3-46.1-39.7-65.9c-27.9-33.6-77.5-42.6-120-32.6s-79.5,35.5-114.4,61.8s-69.6,54.1-110.3,69.8
			c-30.4,11.7-73.7,11-85.8-19.2c-6-14.9-1.8-31.7-1.6-47.7c0.5-41.8-30.6-82-71.2-91.9s-86.8,11.2-105.7,48.5V-44.5l1500.7,8.2
			L1450.5,201.8z"/>
		<g class="st2">
			<g>
				<defs>
					<path id="SVGID_4_" d="M1450.5,201.8c-252.8,19.7-461,233.9-714.3,244.7c-49.6,2.1-105.1-6.8-135.9-45.7
						c-15.9-20.1-23.3-46.1-39.7-65.9c-27.9-33.6-77.5-42.6-120-32.6s-79.5,35.5-114.4,61.8s-69.6,54.1-110.3,69.8
						c-30.4,11.7-73.7,11-85.8-19.2c-6-14.9-1.8-31.7-1.6-47.7c0.5-41.8-30.6-82-71.2-91.9s-86.8,11.2-105.7,48.5V-44.5l1500.7,8.2
						L1450.5,201.8z"/>
				</defs>
				<clipPath id="SVGID_5_">
					<use xlink:href="#SVGID_4_"  style="overflow:visible;"/>
				</clipPath>
				<g class="st3">
					
						<linearGradient id="SVGID_6_" gradientUnits="userSpaceOnUse" x1="646.3586" y1="446.7307" x2="990.9514" y2="-151.7729" gradientTransform="matrix(1 0 0 -1 0 485.89)">
						<stop  offset="0" style="stop-color:#FFFFFF"/>
						<stop  offset="0.2352" style="stop-color:#E2F4FC;stop-opacity:0.7194"/>
						<stop  offset="0.512" style="stop-color:#C3E9F9;stop-opacity:0.4144"/>
						<stop  offset="0.7408" style="stop-color:#ACE0F6;stop-opacity:0.1906"/>
						<stop  offset="0.9095" style="stop-color:#9DDBF5;stop-opacity:5.230000e-02"/>
						<stop  offset="1" style="stop-color:#98D9F4;stop-opacity:0"/>
					</linearGradient>
					<path class="st4" d="M-14,362c115-1.3,229.7-4.7,344.4-7.7c108.5-2.8,218.9-2.9,325.6-11.1c48.3-3.7,100.4-10.2,138.1-22
						c24.5-7.7,38.6-20.2,32.1-32c-7.1-12.9-44.6-20.3-73.5-26.5c-18.3-4-36.7-8.3-48.6-14.7c-52.3-27.8,66.5-37.1,119.8-36.7
						c64.8,0.5,128.5,1.6,193.3,1.1c82.7-0.7,169.4-0.9,250.9-8.9c37.5-3.6,206.3-24.6,152.3-47.7c-27.9-11.9-73.1-17.8-95.4-31.6
						c-19.6-12.2-4.9-24.7,30.6-29.6c23.8-3.3,50.1-4.6,75.2-5.8c37.6-1.9,75.3-3.4,113-4.7c2.1-0.1,4.3-0.2,6.4-0.2V72.1h-312.8
						c-48.1,2-95.7,4.7-142.1,11c-45.2,6.1-77,18.1-29.4,30.8c32.7,8.7,76.6,11.6,107.9,20.6c28.1,8.1,32.1,21.3,7.9,31.1
						c-26.5,10.8-70.9,14.8-107.9,18.8c-66.5,7.3-136.2,11.2-205.6,12.2c-64.2,0.9-128.2-1.6-192.3-2.4c-56.7-0.8-121.6-2-173.9,7.1
						c-36.3,6.3-44.4,18.7-13.7,28.8c27.5,9,62.4,15,93.2,22.7c19.2,4.8,43.3,9.1,55,16.7c14.2,9.3-2.1,17.6-24,22.8
						c-48.7,11.4-106.6,16.1-163.5,18.8c-59.1,2.8-119,3.9-178.4,5.6c-107.5,3-215.5,3.9-323.2,2.3v43.3
						C-39.7,362.2-26.9,362.1-14,362z"/>
					
						<linearGradient id="SVGID_7_" gradientUnits="userSpaceOnUse" x1="508.9038" y1="543.5907" x2="463.5228" y2="177.0499" gradientTransform="matrix(1 0 0 -1 0 485.89)">
						<stop  offset="0" style="stop-color:#FFFFFF"/>
						<stop  offset="0.2352" style="stop-color:#E2F4FC;stop-opacity:0.7194"/>
						<stop  offset="0.512" style="stop-color:#C3E9F9;stop-opacity:0.4144"/>
						<stop  offset="0.7408" style="stop-color:#ACE0F6;stop-opacity:0.1906"/>
						<stop  offset="0.9095" style="stop-color:#9DDBF5;stop-opacity:5.230000e-02"/>
						<stop  offset="1" style="stop-color:#98D9F4;stop-opacity:0"/>
					</linearGradient>
					<path class="st5" d="M-73.8-6.6v58.2c16.3,5.4,33,9.3,49.9,11.6c-19.5,3.6-36.5,8.4-49.9,14.2v64.3c9.5,4,19.3,7.3,29.3,9.7
						c-10.8,7.2-16.9,15.4-16.9,24c0,10,8.1,19.4,22.3,27.4c-12,2.4-23.7,6.4-34.7,11.9l125.1-21.8c0,0,300.5-24.8,300.5-24.8
						c89.1,0-324.6-17.5,63.1-36.7c558.3-27.6-430.6-26.8-282-35.1c206.6-14.4,672.3-42.5,672.3-42.5s-252-7.1-478.8-18.5
						c349.4-20.3,752.5-42,752.5-42H-73.8z"/>
				</g>
			</g>
		</g>
		<path class="st6" d="M397,133.5c-149.3-8-236.5,7.2-281.6,11c-1.7,0.1-4.2-1.5-4.2-6.9l-8.6-126.4C104.4-7.2,229.1-13,394.4-4
			c6,0.3,10.8,4.4,11.2,9.4l3.6,118.1C409.5,129.2,403.8,133.9,397,133.5z"/>
		<g class="st7">
			<path class="st8" d="M111.2,137.6l-2.5-31.6l-2.4-31.6l-4.6-63.2l0-0.1l0-0.1c0.3-1.8,1.2-3.3,2.7-4.4c1.3-1,2.6-1.9,4.1-2.6
				c2.8-1.3,5.8-2.4,8.8-3.2c6-1.6,12.1-2.9,18.2-3.8c12.2-1.9,24.5-3,36.9-3.9c12.3-0.9,24.7-1.4,37-1.7c12.3-0.3,24.7-0.5,37-0.5
				c24.7-0.1,49.4,0.5,74,1.3c12.3,0.4,24.7,1,37,1.6C369.7-5.5,382-4.8,394.4-4c-12.3-0.5-24.6-1-37-1.4c-12.3-0.4-24.7-0.8-37-1.1
				c-24.7-0.6-49.3-0.8-74-0.7c-24.7,0.2-49.3,0.8-73.9,2.4C160.2-4,148-2.9,135.8-1.1c-6.1,0.9-12.1,2.1-18,3.7
				c-2.9,0.8-5.8,1.8-8.5,3.1c-1.3,0.6-2.6,1.4-3.7,2.3c-1.1,0.8-1.8,2-2.1,3.3l0-0.1l4,63.2l1.9,31.6L111.2,137.6z"/>
		</g>
		<g class="st9">
			<path class="st10" d="M387.4,41.9c0.2,2.7-2,5.1-4.7,5.3c-0.2,0-0.3,0-0.5,0c-6.3-0.2-12.7-0.4-19.2-0.6
				c-92.5-2.4-175.4,2.9-230.6,13.2c-2.7,0.5-5.3-1.3-5.8-4c0-0.2-0.1-0.4-0.1-0.6l-1.3-23.5c-0.1-2.5,1.6-4.7,4.1-5.2
				C184.4,16.1,267.9,10.7,361.2,13c6.8,0.2,13.5,0.4,20.1,0.6c2.6,0.1,4.7,2.1,4.8,4.7L387.4,41.9z"/>
			<g class="st11">
				<path class="st12" d="M382.9,59.5l-15.7-0.2c-5.2-0.1-10.4-0.1-15.7-0.1c-5.2-0.1-10.4-0.1-15.7-0.1c-5.2,0-10.4,0-15.7,0.1
					c-20.9,0.2-41.7,0.5-62.6,1.5c-20.9,0.8-41.7,2.1-62.5,3.9c-5.2,0.4-10.4,1-15.6,1.5c-5.2,0.6-10.4,1.1-15.5,1.8
					c-10.4,1.2-20.7,2.7-31,4.4c5.1-1,10.2-2.1,15.4-2.9c2.6-0.4,5.1-0.9,7.7-1.3l7.7-1.2c5.2-0.8,10.4-1.4,15.5-2.1
					c5.2-0.6,10.4-1.2,15.6-1.7c20.8-2.1,41.7-3.4,62.5-4.4c20.9-0.8,41.8-1.2,62.7-1c5.2,0,10.4,0.1,15.7,0.2
					c5.2,0.1,10.4,0.2,15.7,0.4C362.1,58.5,372.5,58.9,382.9,59.5z"/>
			</g>
			<g class="st11">
				<path class="st12" d="M382.9,75.4l-15.7-0.2c-5.2-0.1-10.4-0.1-15.7-0.1c-5.2-0.1-10.4-0.1-15.7-0.1c-5.2,0-10.4,0-15.7,0.1
					c-20.9,0.2-41.7,0.6-62.6,1.5c-20.9,0.8-41.7,2.1-62.5,3.9c-5.2,0.4-10.4,1-15.6,1.5c-5.2,0.6-10.4,1.1-15.5,1.8
					c-10.4,1.2-20.7,2.7-31,4.4c5.1-1,10.2-2.1,15.4-2.9c2.6-0.4,5.1-0.9,7.7-1.3l7.7-1.2c5.2-0.8,10.4-1.4,15.5-2.1
					c5.2-0.6,10.4-1.2,15.6-1.7c20.8-2.1,41.7-3.4,62.5-4.4c20.9-0.8,41.8-1.2,62.7-1c5.2,0,10.4,0.1,15.7,0.2
					c5.2,0.1,10.4,0.2,15.7,0.4C362.1,74.4,372.5,74.9,382.9,75.4z"/>
			</g>
			<g class="st11">
				<path class="st12" d="M385.1,92.8l-15.7-0.2c-5.2-0.1-10.4-0.1-15.7-0.1c-5.2-0.1-10.4-0.1-15.7-0.1c-5.2,0-10.4,0-15.7,0.1
					c-20.9,0.2-41.7,0.6-62.6,1.5c-20.9,0.8-41.7,2.1-62.5,3.9c-5.2,0.4-10.4,1-15.6,1.5c-5.2,0.6-10.4,1.1-15.5,1.8
					c-10.4,1.2-20.7,2.7-31,4.4c5.1-1,10.2-2.1,15.4-2.9c2.6-0.4,5.1-0.9,7.7-1.3l7.7-1.2c5.2-0.8,10.4-1.4,15.5-2.1
					c5.2-0.6,10.4-1.2,15.6-1.7c20.8-2.1,41.7-3.4,62.5-4.4c20.9-0.8,41.8-1.2,62.7-1c5.2,0,10.4,0.1,15.7,0.2
					c5.2,0.1,10.4,0.2,15.7,0.4C364.2,91.8,374.7,92.3,385.1,92.8z"/>
			</g>
			<g class="st11">
				<path class="st12" d="M385.1,108l-15.7-0.2c-5.2-0.1-10.4-0.1-15.7-0.1c-5.2-0.1-10.4-0.1-15.7-0.1c-5.2,0-10.4,0-15.7,0.1
					c-20.9,0.2-41.7,0.6-62.6,1.5c-20.9,0.8-41.7,2.1-62.5,3.9c-5.2,0.4-10.4,1-15.6,1.5c-5.2,0.6-10.4,1.1-15.5,1.8
					c-10.4,1.2-20.7,2.7-31,4.4c5.1-1,10.2-2.1,15.4-2.9c2.6-0.4,5.1-0.9,7.7-1.3l7.7-1.2c5.2-0.8,10.4-1.4,15.5-2.1
					c5.2-0.6,10.4-1.2,15.6-1.7c20.8-2.1,41.7-3.4,62.5-4.4c20.9-0.8,41.8-1.2,62.7-1c5.2,0,10.4,0.1,15.7,0.2
					c5.2,0.1,10.4,0.2,15.7,0.4C364.2,107,374.7,107.5,385.1,108z"/>
			</g>
		</g>
		<g>
			<defs>
				<path id="SVGID_8_" d="M396.7,133.2c-149.3-8-236.5,7.2-281.6,11c-1.7,0.1-4.2-1.5-4.2-6.9l-8.6-126.4
					c1.8-18.4,126.5-24.2,291.8-15.2c6,0.3,10.8,4.4,11.2,9.4l3.6,118.1C409.2,128.9,403.6,133.6,396.7,133.2z"/>
			</defs>
			<clipPath id="SVGID_9_">
				<use xlink:href="#SVGID_8_"  style="overflow:visible;"/>
			</clipPath>
			<g class="st13">
				<path class="st14" d="M498.6,36c-21.5-1.2-45-1.9-69.5-1.9c-31.5,0-61.2,1.1-87.2,3.1c-1.9,0.2-3.3,1.7-3.3,3.6v26.1
					c-1.5,0-2.9,0.1-4.3,0.1c-102.6,2.3-196.4,8.8-269,17.5c-2.8,0.4-4.9,2.8-4.8,5.7l0.5,22.4c0,3,2.5,5.5,5.6,5.5
					c0.2,0,0.4,0,0.5,0c72.4-8.7,165.9-15.1,267.9-17.4c11.4-0.3,22.6-0.5,33.8-0.6c3.1-0.1,5.5-2.6,5.4-5.7c0,0,0,0,0-0.1
					l-0.3-15.7c17.5-0.8,36-1.2,55.3-1.2c24.4,0,47.7,0.7,69.1,1.9c2,0.1,3.7-1.4,3.7-3.4c0-0.1,0-0.1,0-0.2V39.6
					C501.9,37.7,500.5,36.1,498.6,36z"/>
			</g>
		</g>
		<path class="st15" d="M1126.8,275.7c-68.5,2-119,9.4-128,18.4c-0.4,0.4-1.1,0.4-1.5,0c-0.2-0.2-0.3-0.4-0.3-0.6l-9.9-73.5
			c0-10.4,56.6-19.1,132.4-21.2c2.8-0.1,5.2,2,5.5,4.8l6.8,66c0.4,2.9-1.6,5.7-4.6,6.1C1127.1,275.7,1126.9,275.7,1126.8,275.7z"/>
		<g class="st16">
			<path class="st17" d="M1126.8,275.7c-5.4,0.3-10.9,0.5-16.3,0.8c-5.4,0.3-10.9,0.6-16.3,0.9c-10.8,0.7-21.7,1.4-32.5,2.5
				c-10.8,1-21.6,2.4-32.3,4.2c-5.3,0.9-10.7,2-15.9,3.5c-2.6,0.7-5.2,1.5-7.7,2.5c-2.6,0.9-4.9,2.3-7,4c2-1.8,4.4-3.3,6.9-4.3
				c2.5-1.1,5.1-2,7.7-2.7c5.2-1.5,10.5-2.7,15.9-3.7c10.7-2,21.5-3.3,32.3-4.5c10.8-1,21.7-1.8,32.5-2.3
				C1105,276.1,1115.9,275.8,1126.8,275.7z"/>
		</g>
		<g class="st18">
			<path class="st19" d="M1119.5,198.8l-17.1,0.9l-17.1,1c-11.4,0.7-22.7,1.8-34,2.9c-11.3,1.2-22.6,2.6-33.8,4.7
				c-5.6,1-11.1,2.3-16.5,3.8c-2.7,0.8-5.3,1.8-7.8,2.9c-1.2,0.6-2.4,1.3-3.4,2.1c-1,0.7-1.6,1.7-1.8,2.9l0-0.1
				c0.8,6.1,1.6,12.3,2.4,18.4l2.3,18.4c0.8,6.1,1.5,12.3,2.2,18.4l2.1,18.4l-2.8-18.3c-0.9-6.1-1.8-12.2-2.7-18.3l-2.7-18.4
				c-0.9-6.1-1.7-12.2-2.6-18.4l0-0.1V220c0-0.9,0.3-1.8,0.8-2.5c0.4-0.7,1-1.3,1.6-1.8c1.2-0.9,2.4-1.7,3.8-2.4
				c2.6-1.3,5.3-2.3,8.1-3.1c5.5-1.6,11.1-3,16.7-3.9c11.3-2,22.6-3.4,34-4.5c5.7-0.6,11.4-1,17.1-1.4c5.7-0.4,11.4-0.7,17.1-0.9
				c5.7-0.3,11.4-0.4,17.1-0.6C1108.1,198.9,1113.8,198.8,1119.5,198.8z"/>
		</g>
		<g class="st20">
			<path class="st17" d="M1108,210.1c-0.4,0-0.9-0.2-1.2-0.5c-0.5-0.4-0.8-1-0.8-1.7l0,0c-0.2-1.2,0.6-2.2,1.8-2.4
				c0.5,0,0.9,0.1,1.3,0.5c0.5,0.4,0.8,1,0.8,1.7c0.2,1.2-0.6,2.2-1.8,2.4C1108.1,210.1,1108.1,210.1,1108,210.1z M1106.6,207.9
				c0,0.5,0.2,1,0.6,1.4c0.2,0.2,0.6,0.3,0.9,0.3c0.9-0.2,1.5-1,1.3-1.9c0-0.5-0.2-1-0.6-1.4c-0.2-0.2-0.6-0.4-0.9-0.3
				C1107,206.2,1106.4,207.1,1106.6,207.9L1106.6,207.9z"/>
		</g>
		<g class="st20">
			
				<rect x="1114" y="204.8" transform="matrix(0.6496 -0.7603 0.7603 0.6496 232.7181 919.7763)" class="st17" width="0.5" height="5.2"/>
		</g>
		<g class="st20">
			<polygon class="st17" points="1113.1,209.4 1112.7,209.1 1115.4,205.5 1115.8,205.8 			"/>
		</g>
		<path class="st21" d="M1116.5,216.5c-11.5,0.3-22.5,0.8-32.9,1.4c-1.8,0.1-3.2,1.7-3.1,3.5c0,0,0,0.1,0,0.1l3.4,32.8
			c0.2,1.8,1.7,3.1,3.4,3c10.3-0.6,21.2-1.1,32.7-1.4c1.8-0.1,3.3-1.6,3.2-3.5c0-0.1,0-0.2,0-0.2l-3.4-32.8
			C1119.7,217.8,1118.2,216.5,1116.5,216.5z"/>
		<g class="st22">
			<path class="st17" d="M1070.3,226.1c-6,0.8-12,1.6-18,2.3c-6,0.8-12,1.5-18,2.3c-6,0.8-12,1.7-17.9,2.6c-6,1-11.9,2.1-17.8,3.7
				c2.8-1.1,5.7-2.1,8.6-3c2.9-0.8,5.9-1.6,8.9-2.2c5.9-1.3,11.9-2.3,18-3.1C1046,227.1,1058.1,226.3,1070.3,226.1z"/>
		</g>
		<g class="st22">
			<path class="st17" d="M1070.9,234.2c-11.2,1.6-22.5,2.8-33.7,4.3c-5.6,0.7-11.2,1.5-16.8,2.3c-5.6,0.8-11.2,1.8-16.7,2.9
				c5.4-1.9,10.9-3.3,16.4-4.4c5.6-1.1,11.2-2,16.8-2.7c5.6-0.7,11.3-1.3,16.9-1.7C1059.6,234.4,1065.2,234.2,1070.9,234.2z"/>
		</g>
		<g class="st22">
			<path class="st17" d="M1071.5,242.2c-6,0.8-12,1.6-18,2.3c-6,0.8-12,1.5-18,2.3c-6,0.8-12,1.7-17.9,2.6c-6,1-11.9,2.1-17.8,3.7
				c2.8-1.1,5.7-2.1,8.6-3c2.9-0.8,5.9-1.6,8.9-2.2c5.9-1.3,11.9-2.3,18-3.1C1047.3,243.3,1059.4,242.4,1071.5,242.2z"/>
		</g>
		<g class="st22">
			<path class="st17" d="M1072.2,250.3c-5.3,0.8-10.7,1.5-16,2.1l-16,2c-5.3,0.6-10.6,1.3-15.9,2.1c-5.3,0.7-10.6,1.6-15.9,2.4
				c5.1-1.7,10.4-3,15.7-4c5.3-1,10.6-1.8,16-2.5c5.3-0.6,10.7-1.2,16.1-1.5C1061.4,250.5,1066.8,250.3,1072.2,250.3z"/>
		</g>
		<path class="st23" d="M1061,398.4c27.9,27.5,85.1,13.4,127.8-31.5s54.6-103.6,26.7-131.1c0,0,0,0-0.1-0.1c3,2.4,6,5,8.7,7.8
			c44,43.4,44.8,115.1,1.9,160.2s-113.3,46.6-157.3,3.2C1066,404.2,1063.4,401.4,1061,398.4C1060.9,398.4,1061,398.4,1061,398.4z"/>
		<path class="st24" d="M1098.7,411.5c-15.1,0-27.9-4.8-37.1-13.8c-3.8-3.8-6.9-8.2-9.2-13c-7-14.6-7.4-34.2-1.1-55.2
			c6.4-21.3,19.6-43.2,37.1-61.6c26.9-28.3,60.3-45.2,89.4-45.2c8.3-0.1,16.4,1.5,24,4.8c4.8,2.2,9.2,5.2,13,8.9
			c27.6,27.2,15.6,85.4-26.7,129.9C1161.2,394.6,1127.8,411.5,1098.7,411.5z"/>
		<path class="st25" d="M1177.8,223.6c8.1-0.1,16.2,1.5,23.6,4.8c4.7,2.1,9,5.1,12.7,8.7l0,0c27.1,26.8,15.1,84.4-26.7,128.5
			c-12.8,13.6-27.8,24.9-44.4,33.4c-15.2,7.6-30.5,11.6-44.3,11.6c-14.8,0-27.4-4.7-36.4-13.5l-0.1-0.1l0,0c-3.7-3.7-6.7-8-9-12.7
			c-6.9-14.4-7.3-33.8-1.1-54.5c6.4-21.2,19.4-43,36.8-61.2c12.8-13.6,27.8-24.9,44.4-33.4C1148.7,227.6,1164,223.6,1177.8,223.6
			L1177.8,223.6 M1177.8,221.7c-28.1,0-62.2,16.2-90.1,45.5c-36.7,38.6-50.7,87.5-36.1,117.9c2.3,4.9,5.5,9.4,9.3,13.2
			c0,0,0,0,0.1,0.1c9.7,9.5,22.8,14.1,37.7,14.1c28.1,0,62.2-16.2,90.1-45.5c42.7-44.9,54.6-103.6,26.7-131.1c0,0,0,0-0.1-0.1
			c-3.9-3.8-8.3-6.9-13.3-9.1C1194.5,223.3,1186.2,221.6,1177.8,221.7L1177.8,221.7z"/>
		<path class="st26" d="M1137.8,307.7c2.9-20.4,5.8-28.5,14.3-32.2s52.5-2.9,61.7-2.9s11.4,5.9,11.4,5.9c0.9,2,1.6,4.2,1.9,6.4
			c-2.6,26.3-17,56.5-41.3,82.1c-7.1,7.5-14.9,14.3-23.2,20.5c-17.2-3.4-41.6-7.5-38.3-11.6C1129.3,369.5,1135,328.1,1137.8,307.7z"
			/>
		<g>
			<defs>
				<path id="SVGID_10_" d="M1053,330.6c6.3-21,18.2-51.4,35.5-69.6c13.2-13.9,28.1-28,43.7-35.8c15.1-7.5,31.7,0,45.2,0
					c8-0.1,15.9,1.5,23.2,4.7c4.6,2.1,8.8,5,12.4,8.5l0,0l0.1,0.1c26.6,26.3,14.6,83.1-26.8,126.8c-12.7,13.5-27.6,24.7-44.1,33.1
					c-15.1,7.5-30.2,11.5-43.8,11.5c-14.5,0-26.9-4.6-35.6-13.2l-0.1-0.1c-3.5-3.5-16.2-15.6-18.5-20.3
					C1037.5,362.1,1046.9,351,1053,330.6z"/>
			</defs>
			<clipPath id="SVGID_11_">
				<use xlink:href="#SVGID_10_"  style="overflow:visible;"/>
			</clipPath>
			<g class="st27">
				<path class="st28" d="M1162.1,383.6c0,0,8.9,12.7,13.1,15.4c7.6,5,16.9,6.3,7-8c0,0,25.4,14.5,4.6-5.2c0,0,39.1,19.3,6.1-6.2
					c0,0,41.2,3.9,6-10.2c0,0,52.1,8.2,4.7-9.7c0,0,24-1.4,3-6.7c0,0,45.7-0.6,3.5-10.6c0,0,41.8-8.4,3.8-12.5c0,0,39.9-8.7,2.1-9.5
					c0,0,45-4.7,2.9-10.7c0,0,34.8-5-0.1-11.8c0,0,33.9-15.6-1.4-7.4c0,0,31.7-18.5-4.9-9.9c0,0,32.3-25-5-9.3
					c0,0,23.5-23.8-5.1-8.7c0,0,11.8-18.4-3.9-3.9c0,0,22.8-40.2-6.4-4.3c0,0,11.2-27-6.5-3.6c0,0,7.8-30.2-4.6-3.4
					c0,0,11.1-34.9-7.1-3.7c0,0,8.1-40.6-7.9-3.2c0,0,2.7-26.4-8.8-1.4c0,0,0.1-30.1-5.1-0.2c0,0-14.1-25.8-11.7,0.8
					c0,0-14.9-12.2-1.3,12.9c0,0,35.5-5.5,49.3,22.2c13.8,27.7,11.7,52.8-0.1,85.1C1177,390.5,1162.1,383.6,1162.1,383.6z"/>
				<path class="st29" d="M1164.7,379.8c0.7,6.3,12.5,18.8,15.9,16.3c1.5-1.2-1.1-4.2-3.3-16c0,0,27.9,22.2,4-4.4
					c0,0,39.6,16,5.2-5.3c0,0,35.1,3.3,5.2-8.7c0,0,44.4,7,4-8.3c0,0,20.4-1.2,2.5-5.7c0,0,38.9-0.5,3-9c0,0,35.6-7.2,3.3-10.6
					c0,0,34-7.4,1.8-8.1c0,0,38.4-4,2.5-9.1c0,0,29.7-4.2-0.1-10.1c0,0,28.8-13.3-1.2-6.3c0,0,27-15.8-4.2-8.5
					c0,0,27.5-21.3-4.3-7.9c0,0,20.1-20.2-4.3-7.4c0,0,10.1-15.7-3.3-3.3c0,0,19.5-34.3-5.5-3.7c0,0,9.5-23-5.5-3.1
					c0,0,6.7-25.7-3.9-2.9c0,0,9.5-29.7-6.1-3.2c0,0,6.9-34.6-6.7-2.7c0,0,2.3-22.5-7.5-1.2c0,0,0.1-25.6-4.4-0.1c0,0-12-22-10,0.7
					c0,0-16.1-13.9,1.6,11.1c0,0,27.6-4.8,39.3,18.8s20.3,51.7-0.1,72.5C1167.7,368.3,1163.8,372,1164.7,379.8z"/>
				<path class="st30" d="M1201.4,363.5c-0.3,1.2-5,1.2-10.5-0.1s-9.7-3.3-9.5-4.5c0.3-1.2,5-1.2,10.5,0.1
					C1197.4,360.3,1201.7,362.3,1201.4,363.5z"/>
				<path class="st30" d="M1192.9,374.6c-0.7,1-5-0.9-9.6-4.2c-4.6-3.3-7.8-6.8-7.1-7.8c0.7-1,5,0.9,9.6,4.2
					C1190.4,370.1,1193.6,373.6,1192.9,374.6z"/>
				<path class="st30" d="M1179.8,384.3c-1,0.7-4.5-2.5-7.8-7.1c-3.3-4.7-5.2-9-4.2-9.7s4.5,2.5,7.8,7.1S1180.8,383.6,1179.8,384.3z
					"/>
				<path class="st30" d="M1207.5,345c-0.3,1.2-4.9,1.2-10.5,0s-9.8-3.2-9.5-4.4c0.3-1.2,4.9-1.2,10.5,0S1207.7,343.8,1207.5,345z"
					/>
				<path class="st30" d="M1215.6,310.1c0.1,1.2-4.5,2.5-10.1,2.8s-10.3-0.4-10.3-1.7c-0.1-1.2,4.5-2.5,10.1-2.8
					C1210.9,308.1,1215.5,308.8,1215.6,310.1z"/>
				<path class="st30" d="M1210.5,287.9c0.1,1.2-4.5,2.5-10.1,2.8s-10.3-0.4-10.3-1.7c-0.1-1.2,4.5-2.5,10.1-2.8
					C1205.9,285.9,1210.5,286.6,1210.5,287.9z"/>
				<path class="st30" d="M1199.3,266c0.9,0.9-1.6,4.9-5.6,9c-3.9,4.1-7.8,6.8-8.7,5.9c-0.9-0.9,1.6-4.9,5.6-9
					C1194.6,267.8,1198.5,265.2,1199.3,266z"/>
				<path class="st30" d="M1181.3,256.4c0.9,0.4,0.2,4-1.6,8.1s-3.8,7.1-4.7,6.7c-0.9-0.4-0.2-4,1.6-8.1
					C1178.3,259.1,1180.4,256.1,1181.3,256.4z"/>
				<path class="st30" d="M1163.9,246.3c0.9,0.1,1.2,3.8,0.6,8.2c-0.6,4.4-1.8,7.9-2.7,7.7c-0.9-0.1-1.2-3.8-0.6-8.2
					C1161.8,249.6,1163,246.2,1163.9,246.3z"/>
				<path class="st30" d="M1146.9,247.9c0.9-0.4,2.9,2.6,4.6,6.7c1.7,4.1,2.4,7.7,1.5,8.1c-0.9,0.4-2.9-2.6-4.6-6.7
					C1146.8,251.9,1146.1,248.2,1146.9,247.9z"/>
				<path class="st31" d="M1165.1,369.8c1.1,1.8,12.5,17.3,8.3-0.3c0,0,23.5,18.7,3.3-3.7c0,0,33.3,13.4,4.4-4.5
					c0,0,29.6,2.8,4.3-7.3c0,0,37.4,5.9,3.4-7c0,0,17.2-1,2.1-4.8c0,0,32.8-0.4,2.5-7.6c0,0,30-6.1,2.8-9c0,0,28.6-6.3,1.5-6.8
					c0,0,32.3-3.3,2.1-7.7c0,0,25-3.6-0.1-8.5c0,0,24.3-11.2-1-5.3c0,0,22.8-13.3-3.5-7.1c0,0,23.2-17.9-3.6-6.7
					c0,0,16.9-17.1-3.7-6.2c0,0,8.5-13.2-2.8-2.8c0,0,16.4-28.9-4.6-3.1c0,0,8-19.4-4.7-2.6c0,0,5.6-21.7-3.3-2.4
					c0,0,8-25.1-5.1-2.7c0,0,5.8-29.2-5.6-2.3c0,0,2-19-6.3-1c0,0,0.1-21.6-3.7-0.1c0,0-10.1-18.5-8.4,0.6c0,0-13.5-11.8,1.3,9.4
					c0,0,23.2-4.1,33.1,15.8c2.4,4.9,4.9,10.3,7,15.7c6.4,16.8,8.8,34.7-7,44C1159.4,356.6,1161.8,364.2,1165.1,369.8z"/>
				<path class="st30" d="M1167.1,341.9c0,0-3.5-3,1.4-8.9c0,0-4.6,0.4-0.8-3.9c0,0-6.5,0.1-1.9-7.9c0,0-8.1,0.5-1.7-5.8
					c0,0-5.3,3.2-4.8-4.2c0,0-6.2-0.7-1-6.6c0,0-9.9-2.4-3.8-10.5c0,0-6.4-1-0.3-7.3c0,0-10.5,3-1.4-4c0,0-5.8-1.5-2.5-8
					c0,0-4.4,4.3-4.7-2.8c0,0-9.3-20.5,1.8-8.4c0,0-4.3-17.3,5.7,0.6c0,0,3.3-12,5.5,1.5c0,0,10.7-10.5,6.1,3c0,0,12.1-10.3,5.1,4
					c0,0,18.8-10.7,6.5,4.2c0,0,14.7-6.4,3.3,4.3c0,0,14.9-6.1,3.5,5.2c0,0,19.1-12.7,2.7,5.1c0,0,22.7-2.5,3.1,6
					c0,0,20-4.1,1.6,6.6c0,0,11.2,1.8,1.9,6.4c0,0,22,5.8,0.8,5.7c0,0,24.6,3.3-0.2,6.7c0,0,13.8,1,0.2,5.9c0,0,16.2,4.3-0.8,5.4
					c0,0,13.1,5.8-3.7,4.6c0,0,13.8,13.6-5.1,6.2c0,0,13.9,11.5-3.2,2.4c0,0,9.2,9.5-2.5,2.3c0,0,2.8,16.1-4.7,1.5
					c0,0-0.1,7.9-1.7,8c-3.4,0.3-1.3-10.2-1.3-10.2s-9.8-3.4-9.2-6.2C1161.3,341.3,1167.1,341.9,1167.1,341.9z"/>
				<path class="st32" d="M1192.2,327.4c0,1-3.1,1.8-6.9,1.7s-6.9-0.9-6.8-1.9c0-1,3.1-1.8,6.9-1.7S1192.2,326.4,1192.2,327.4z"/>
				<path class="st32" d="M1196.9,302.1c0.1,0.8-3.4,1.9-7.7,2.6c-4.4,0.6-8,0.5-8.1-0.2c-0.1-0.8,3.4-1.9,7.7-2.6
					C1193.1,301.2,1196.8,301.3,1196.9,302.1z"/>
				<path class="st32" d="M1195.5,319c0.1,1-2.9,2.1-6.7,2.5s-6.9-0.1-7-1.1c-0.1-1,2.9-2.1,6.7-2.5S1195.4,318,1195.5,319z"/>
				<path class="st32" d="M1184.7,316.2c0.1,1-2.9,2.1-6.7,2.5s-6.9-0.1-7-1.1s2.9-2.1,6.7-2.5
					C1181.5,314.7,1184.7,315.3,1184.7,316.2z"/>
				<path class="st32" d="M1196.9,314.2c-0.2,1-4,0.9-8.5-0.1s-7.9-2.7-7.7-3.6c0.2-1,4-0.9,8.5,0.1S1197.1,313.2,1196.9,314.2z"/>
				<path class="st31" d="M1190.8,324.3c-0.2,0.6-2.8,0.1-5.8-1.2c-3-1.2-5.2-2.7-4.9-3.3s2.8-0.1,5.8,1.2S1191,323.7,1190.8,324.3z
					"/>
				<path class="st31" d="M1191.2,307.1c0.2,0.7-2,2.2-5,3.2c-3,1.1-5.7,1.3-5.9,0.6s2-2.2,5-3.2
					C1188.3,306.6,1190.9,306.4,1191.2,307.1z"/>
				<path class="st31" d="M1187.4,299.2c0.5,0.6-0.8,2.4-2.7,3.9s-3.9,2.4-4.4,1.7s0.8-2.4,2.7-3.9c0.1-0.1,0.2-0.2,0.3-0.2
					C1185.2,299.3,1187,298.6,1187.4,299.2z"/>
				<path class="st31" d="M1160.8,279.9c0.4,0.6-0.5,2.1-2.2,3.4c-1.6,1.3-3.3,1.9-3.7,1.3s0.5-2.1,2.2-3.4c0.1-0.1,0.2-0.1,0.3-0.2
					C1158.9,279.8,1160.4,279.3,1160.8,279.9z"/>
				<path class="st31" d="M1177.2,321.9c0.5,0.6-0.8,2.4-2.7,3.9c-2,1.6-3.9,2.4-4.4,1.7s0.8-2.4,2.7-3.9c0.1-0.1,0.2-0.2,0.3-0.2
					C1175,322,1176.8,321.3,1177.2,321.9z"/>
				<path class="st31" d="M1163,269c0.8,0.1,1.2,2.2,1.1,4.7s-0.9,4.6-1.7,4.5s-1.2-2.2-1.1-4.7S1162.3,268.9,1163,269z"/>
				<path class="st31" d="M1162.7,298.3c0.8,0.1,1.2,2.2,1.1,4.7s-0.9,4.6-1.7,4.5c-0.8-0.1-1.2-2.2-1.1-4.7
					S1162,298.3,1162.7,298.3z"/>
				<path class="st31" d="M1152.3,268.8c0.4-0.3,1.9,1.1,3.5,3.1c1.6,2,2.6,3.9,2.2,4.1s-1.9-1.1-3.5-3.1S1151.9,269.1,1152.3,268.8
					z"/>
				<path class="st31" d="M1175.1,274.8c0.5,0.6-0.8,2.4-2.7,3.9c-2,1.6-3.9,2.3-4.4,1.7s0.8-2.4,2.7-3.9S1174.6,274.2,1175.1,274.8
					z"/>
				<path class="st32" d="M1146.7,270.2c0.6-0.5,2.3,0.8,3.9,2.8c1.5,2,2.3,4,1.7,4.5s-2.3-0.8-3.9-2.8S1146.1,270.7,1146.7,270.2z"
					/>
				<path class="st31" d="M1180.4,340.8c-0.2,0.6-2,0.4-3.9-0.4s-3.3-1.9-3.1-2.5c0.2-0.6,2-0.4,3.9,0.4S1180.6,340.2,1180.4,340.8z
					"/>
				<path class="st31" d="M1185.1,297.3c-0.2,0.6-2,0.4-3.9-0.4s-3.3-1.9-3.1-2.5c0.2-0.6,2-0.4,3.9,0.4S1185.4,296.7,1185.1,297.3z
					"/>
				<path class="st31" d="M1178.6,299.1c0.1,0.6-1.5,1.4-3.6,1.6c-2.1,0.3-3.8,0-3.9-0.7s1.5-1.4,3.6-1.6
					C1176.7,298.1,1178.5,298.4,1178.6,299.1z"/>
				<path class="st31" d="M1172.8,318.2c-0.2,0.6-2,0.4-3.9-0.4s-3.3-1.9-3.1-2.5c0.2-0.6,2-0.4,3.9,0.4S1173.1,317.6,1172.8,318.2z
					"/>
				<path class="st31" d="M1152.6,272.9c0.4,0.1,0.6,1.4,0.3,2.8s-0.9,2.6-1.3,2.5c-0.4-0.1-0.6-1.4-0.3-2.8
					S1152.2,272.8,1152.6,272.9z"/>
				<path class="st31" d="M1148.9,264.9c0.4-0.1,1.1,1,1.5,2.5s0.3,2.8-0.1,2.9c-0.4,0.1-1.1-1-1.5-2.5S1148.5,265.1,1148.9,264.9z"
					/>
				<path class="st31" d="M1181.6,287.4c0.2,0.6-1.3,1.6-3.4,2.1s-3.8,0.5-3.9-0.2c-0.2-0.6,1.3-1.6,3.4-2.1
					S1181.4,286.8,1181.6,287.4z"/>
				<path class="st31" d="M1176.7,280.3c0.6,0.2,0.4,2.3-0.3,4.7c-0.8,2.4-1.9,4.2-2.5,4s-0.4-2.3,0.3-4.7
					S1176.1,280.1,1176.7,280.3z"/>
				<path class="st31" d="M1183.6,313.7c0.3,0.6-1.2,2-3.4,3.2s-4.2,1.8-4.5,1.2c-0.3-0.6,1.2-2,3.4-3.2S1183.3,313.2,1183.6,313.7z
					"/>
				<path class="st31" d="M1170.2,284.2c0.5,0.3,0,2.3-1.2,4.5c-1.2,2.2-2.6,3.7-3.1,3.4c-0.5-0.3,0-2.3,1.2-4.5
					S1169.7,283.9,1170.2,284.2z"/>
				<path class="st31" d="M1185.1,332.9c-0.2,0.6-2,0.4-3.9-0.4s-3.3-1.9-3.1-2.5c0.2-0.6,2-0.4,3.9,0.4S1185.4,332.3,1185.1,332.9z
					"/>
				<path class="st32" d="M1184.4,336.8c0,1-2.7,1.8-6,1.7s-5.9-0.9-5.9-1.9c0-1,2.7-1.8,6-1.7S1184.4,335.8,1184.4,336.8z"/>
				<path class="st32" d="M1172.2,298.1c-0.3,1-3.1,0.9-6.2-0.2s-5.4-2.7-5.1-3.7s3.1-0.9,6.2,0.2S1172.5,297.1,1172.2,298.1z"/>
				<path class="st32" d="M1179.3,306.9c0.1,1-2.5,2.1-5.7,2.4c-3.3,0.3-6-0.2-6.1-1.2s2.5-2.1,5.7-2.4S1179.2,305.9,1179.3,306.9z"
					/>
				<path class="st32" d="M1167.2,282.6c0.4,0.7-1.4,2.7-4.1,4.6c-2.7,1.9-5.3,2.9-5.7,2.3s1.4-2.7,4.1-4.6
					S1166.7,281.9,1167.2,282.6z"/>
				<path class="st32" d="M1186.7,287.7c0.6,0.8-1.1,3.2-3.9,5.5s-5.5,3.6-6.1,2.8s1.1-3.2,3.9-5.5S1186.1,287,1186.7,287.7z"/>
				<path class="st32" d="M1156.8,267c0.7-0.1,1.5,2.2,1.8,5.1s0,5.3-0.7,5.4s-1.5-2.2-1.8-5.1S1156.1,267.1,1156.8,267z"/>
				<path class="st32" d="M1183.9,280.9c0.6,0.8-1.1,3.2-3.9,5.5c-2.8,2.3-5.5,3.6-6.1,2.8c-0.6-0.8,1.1-3.2,3.9-5.5
					S1183.2,280.2,1183.9,280.9z"/>
				<path class="st32" d="M1171.7,270.4c0.6,0.8-1.1,3.2-3.9,5.5c-2.8,2.3-5.5,3.6-6.1,2.8c-0.6-0.8,1.1-3.2,3.9-5.5
					S1171.1,269.7,1171.7,270.4z"/>
				<path class="st32" d="M1181.3,278.5c0.1,0.8-3.4,1.9-7.7,2.6s-8,0.5-8.1-0.2c-0.1-0.8,3.4-1.9,7.7-2.6
					S1181.2,277.7,1181.3,278.5z"/>
				<path class="st31" d="M1176.5,333.4c-0.2,0.6-2,0.4-3.9-0.4s-3.3-1.9-3.1-2.5c0.2-0.6,2-0.4,3.9,0.4
					C1175.4,331.7,1176.7,332.8,1176.5,333.4z"/>
				<path class="st31" d="M1171.4,305.7c0.5,0.6-0.8,2.4-2.7,3.9s-3.9,2.4-4.4,1.7s0.8-2.4,2.7-3.9c0.1-0.1,0.2-0.2,0.3-0.2
					C1169.2,305.8,1171,305.1,1171.4,305.7z"/>
				<path class="st31" d="M1176.8,305.3c0.6,0.2,0.4,2.3-0.3,4.7s-1.9,4.2-2.5,4s-0.4-2.3,0.3-4.7S1176.2,305.1,1176.8,305.3z"/>
				<path class="st31" d="M1173,292c0.5,0.6-0.8,2.4-2.7,3.9c-2,1.6-3.9,2.4-4.4,1.7c-0.5-0.6,0.8-2.4,2.7-3.9
					S1172.5,291.4,1173,292z"/>
				<path class="st31" d="M1162.8,295.2c0.1,0.6-1.5,1.4-3.6,1.6c-2.1,0.3-3.8,0-3.9-0.7s1.5-1.4,3.6-1.6
					C1161,294.2,1162.8,294.5,1162.8,295.2z"/>
				<path class="st31" d="M1162.6,283.4c0.6,0.2,0.4,2.3-0.3,4.7c-0.8,2.4-1.9,4.2-2.5,4c-0.6-0.2-0.4-2.3,0.3-4.7
					S1162,283.2,1162.6,283.4z"/>
				<path class="st33" d="M1108.4,294.2c2.5-3.6,10.8-16.4,11.4-23.1s7.7-9.9,13-17.3c5.3-7.4,18.3-7.5,29.8-4.3
					s20.3,16.4,21.8,22.9c1,4.4,5.7,16.2,7.8,37.8c1.1,10.5,0.7,21.2-1.2,31.6c-2.9,17-28.4,51.1-35.6,55
					c-22.5,12.1-62.8-3.7-68.3-18.8C1080.9,361.2,1079.7,336,1108.4,294.2z"/>
				<path class="st33" d="M1144.3,256.8c0,0,0-4.6-4.2-5.3s-8.1,7.3-14.9,9.9s-12.5,4.4-18.4,4.2s-11.3-3.4-11.3-1.6
					s8.7,17.7,23,20.2s23.1,2.9,32.5-10.5s12-16,6.3-17.7C1151.8,254.2,1144.3,256.8,1144.3,256.8z"/>
				
					<linearGradient id="SVGID_12_" gradientUnits="userSpaceOnUse" x1="-6475.9038" y1="215.0063" x2="-6519.3999" y2="217.5649" gradientTransform="matrix(-1 0 0 -1 -5381.7017 485.89)">
					<stop  offset="4.100000e-03" style="stop-color:#F1831E"/>
					<stop  offset="0.1049" style="stop-color:#F1821E;stop-opacity:0.9772"/>
					<stop  offset="0.2327" style="stop-color:#F1811F;stop-opacity:0.9119"/>
					<stop  offset="0.3751" style="stop-color:#F17E1F;stop-opacity:0.8041"/>
					<stop  offset="0.5281" style="stop-color:#F07920;stop-opacity:0.6536"/>
					<stop  offset="0.6895" style="stop-color:#F07421;stop-opacity:0.4603"/>
					<stop  offset="0.8554" style="stop-color:#EF6D23;stop-opacity:0.2282"/>
					<stop  offset="1" style="stop-color:#EF6724;stop-opacity:0"/>
				</linearGradient>
				<path class="st34" d="M1144.3,256.8c0,0,0-4.6-4.2-5.3s-8.1,7.3-14.9,9.9s-12.5,4.4-18.4,4.2s-11.3-3.4-11.3-1.6
					s8.7,17.7,23,20.2s23.1,2.9,32.5-10.5s12-16,6.3-17.7C1151.8,254.2,1144.3,256.8,1144.3,256.8z"/>
				<path class="st35" d="M1103.4,265.1c0,0-8.2-3.7-9.1-3s0,5.8,4.5,8S1103.4,265.1,1103.4,265.1z"/>
				<ellipse class="st36" cx="1110.2" cy="271.6" rx="1.3" ry="1.3"/>
				<ellipse class="st36" cx="1113" cy="274.2" rx="0.7" ry="0.7"/>
				<ellipse class="st36" cx="1109.7" cy="275.1" rx="1" ry="1"/>
				<ellipse class="st37" cx="1153.7" cy="266.2" rx="7.2" ry="7.4"/>
				<ellipse class="st38" cx="1152.3" cy="268" rx="5" ry="5.1"/>
				<path class="st39" d="M1147.8,268.4c0.1,2.5,2.3,4.4,4.8,4.3s4.4-2.3,4.3-4.8c0-0.1,0-0.1,0-0.2c-0.2-2.5-1.9,2.4-4.3,2.6
					S1147.6,265.8,1147.8,268.4z"/>
				<ellipse class="st40" cx="1152.3" cy="268" rx="3.7" ry="3.7"/>
				<ellipse class="st37" cx="1150.5" cy="266.7" rx="0.6" ry="0.6"/>
				<path class="st37" d="M1122.4,284.8c0,0,13.3,2.2,24.7-3.3S1144,312.3,1122.4,284.8z"/>
				<path class="st28" d="M1147.7,261.7c1.7-0.3,3.5-0.2,5.2,0.4c3,0.8,5.8,2.3,7.9,4.6c6.5,6.9,1.7-8.6-5.3-8.7
					S1147.7,261.7,1147.7,261.7z"/>
				<path class="st33" d="M1147.7,261.7c0,0,6.6-2,13.1,4.9s1.7-8.6-5.3-8.7S1147.7,261.7,1147.7,261.7z"/>
				
					<linearGradient id="SVGID_13_" gradientUnits="userSpaceOnUse" x1="-6543.6499" y1="230.5009" x2="-6537.2734" y2="220.8839" gradientTransform="matrix(-1 0 0 -1 -5381.7017 485.89)">
					<stop  offset="4.100000e-03" style="stop-color:#F1831E"/>
					<stop  offset="0.1049" style="stop-color:#F1821E;stop-opacity:0.9772"/>
					<stop  offset="0.2327" style="stop-color:#F1811F;stop-opacity:0.9119"/>
					<stop  offset="0.3751" style="stop-color:#F17E1F;stop-opacity:0.8041"/>
					<stop  offset="0.5281" style="stop-color:#F07920;stop-opacity:0.6536"/>
					<stop  offset="0.6895" style="stop-color:#F07421;stop-opacity:0.4603"/>
					<stop  offset="0.8554" style="stop-color:#EF6D23;stop-opacity:0.2282"/>
					<stop  offset="1" style="stop-color:#EF6724;stop-opacity:0"/>
				</linearGradient>
				<path class="st41" d="M1147.7,261.7c0,0,6.6-2,13.1,4.9s1.7-8.6-5.3-8.7S1147.7,261.7,1147.7,261.7z"/>
				<ellipse class="st37" cx="1131.5" cy="260.4" rx="5.9" ry="6"/>
				<ellipse class="st38" cx="1130.5" cy="262" rx="4.1" ry="4.2"/>
				<path class="st39" d="M1126.8,262.3c0.1,2,1.8,3.6,3.9,3.5c2-0.1,3.6-1.8,3.5-3.9c0,0,0-0.1,0-0.1c-0.1-2.1-1.5,2-3.6,2.1
					S1126.7,260.2,1126.8,262.3z"/>
				<ellipse class="st40" cx="1130.5" cy="262" rx="3" ry="3.1"/>
				<ellipse class="st37" cx="1129" cy="260.9" rx="0.5" ry="0.5"/>
				<path class="st28" d="M1124.6,257.1c2.7-0.7,5.6-0.6,8.3,0.2c2.3,0.6,4.5,1.6,6.4,3c7.9,6,0.8-8.8-6.7-8
					S1124.6,257.1,1124.6,257.1z"/>
				<path class="st33" d="M1124.6,257.1c0,0,6.9-2.8,14.8,3.2c7.9,6,0.8-8.8-6.7-8S1124.6,257.1,1124.6,257.1z"/>
				
					<linearGradient id="SVGID_14_" gradientUnits="userSpaceOnUse" x1="-6522.4751" y1="238.4244" x2="-6515.0469" y2="226.1836" gradientTransform="matrix(-1 0 0 -1 -5381.7017 485.89)">
					<stop  offset="4.100000e-03" style="stop-color:#F1831E"/>
					<stop  offset="0.1049" style="stop-color:#F1821E;stop-opacity:0.9772"/>
					<stop  offset="0.2327" style="stop-color:#F1811F;stop-opacity:0.9119"/>
					<stop  offset="0.3751" style="stop-color:#F17E1F;stop-opacity:0.8041"/>
					<stop  offset="0.5281" style="stop-color:#F07920;stop-opacity:0.6536"/>
					<stop  offset="0.6895" style="stop-color:#F07421;stop-opacity:0.4603"/>
					<stop  offset="0.8554" style="stop-color:#EF6D23;stop-opacity:0.2282"/>
					<stop  offset="1" style="stop-color:#EF6724;stop-opacity:0"/>
				</linearGradient>
				<path class="st42" d="M1124.6,257.1c0,0,6.9-2.8,14.8,3.2c7.9,6,0.8-8.8-6.7-8S1124.6,257.1,1124.6,257.1z"/>
				<polygon class="st43" points="1133.9,289.2 1131.7,287.3 1106.5,318.1 1105.9,321.2 1108.7,320 				"/>
				
					<linearGradient id="SVGID_15_" gradientUnits="userSpaceOnUse" x1="-6525.1206" y1="110.3327" x2="-6471.5737" y2="165.3201" gradientTransform="matrix(-1 0 0 -1 -5381.7017 485.89)">
					<stop  offset="6.900000e-03" style="stop-color:#F1831E"/>
					<stop  offset="0.1074" style="stop-color:#F1821E;stop-opacity:0.9772"/>
					<stop  offset="0.2348" style="stop-color:#F1811F;stop-opacity:0.9119"/>
					<stop  offset="0.3768" style="stop-color:#F17E1F;stop-opacity:0.8041"/>
					<stop  offset="0.5294" style="stop-color:#F07920;stop-opacity:0.6536"/>
					<stop  offset="0.6904" style="stop-color:#F07421;stop-opacity:0.4603"/>
					<stop  offset="0.8558" style="stop-color:#EF6D23;stop-opacity:0.2282"/>
					<stop  offset="1" style="stop-color:#EF6724;stop-opacity:0"/>
				</linearGradient>
				<path class="st44" d="M1088.6,336.1c-5.6,15.2-2.6,42.7,12.7,49.8c16.8,7.8,33.3-4.4,39.3-31.1c4.1-18.3,1.7-47.6-15.1-47.6
					S1094.7,319.4,1088.6,336.1z"/>
				<path class="st45" d="M1125.3,299.6c2.8,2.3,6.8,8.5,6.8,8.5s14,19.3,16.9,18.5c5.9-1.7,13.7-5.6,22.8-13.5
					c6.6-5.7,16.8-9.9,17.4-2.9c0.8,9.5-0.1,9.8-5.7,21c-4.4,8.9-21.3,25-42,19.3c-8.3-2.3-10.2-11.2-10.9-13.3
					c-3.2-9.2-1.6-16.7-4.3-23.8c-2.7-0.3-5.8-2.5-7.9-5.4C1121.8,307.3,1124,303.4,1125.3,299.6z"/>
				<path class="st33" d="M1115.7,295.2c0.1,0.3,0.3,0.5,0.5,0.7c1.9,2.3,6.3,3.1,7.2,6.5c-2.2-1.4-3.1-2.8-4.2-2.5
					c-1.6,0.4-1.3,2.2-1.3,2.2c1.4,0.8,2.6,1.7,3.6,2.9l-3.1-1.8c-0.9-0.7-1.8-0.8-2.1-0.1c-0.2,0.5-0.2,1-0.2,1.5
					c0.3,0.1,5,7.5,10.5,7.9c2.4,4.3,1.3,12.2,2.9,18.2c0.6,2.2,3.2,15.6,11.7,17.9c21.3,5.7,40.2-11.8,44.8-20.7
					c5.7-11.2,6.3-11.4,5.8-21c-0.5-9.5-11.2-2.7-17.9,2.9c-9.4,7.9-17.5,16.9-25.3,18c-3.3,0.5-12.8-14.7-15.3-17.5
					c0,0-9.4-13.6-11.7-14.5C1119.4,295.1,1116.2,293.4,1115.7,295.2z"/>
				<path class="st45" d="M1115.7,295.2c0.1,0.3,0.3,0.5,0.5,0.7c1.9,2.3,6.3,3.1,7.2,6.5l1.5,0.1l-0.8-0.4l-0.9-2.6l-2.4-2.2
					L1115.7,295.2z"/>
				<polygon class="st46" points="1122.5,304.6 1121.8,304.4 1119.5,302.1 1117.9,301.5 1117.9,302 1118.2,303 1118.7,303.2 
					1119.1,302.9 1121.3,304.7 				"/>
				<polygon class="st46" points="1120,306.8 1119.2,307.2 1116.8,304.7 1116.5,304 1116.2,304 1116.1,306.3 1116.9,305.4 
					1118.7,307.7 1119.2,307.8 				"/>
				<path class="st45" d="M1148.8,341.1c0,0,5.6-10.2-0.4-11.8C1150,333.3,1148.8,341.1,1148.8,341.1z"/>
				<path class="st47" d="M1182.2,268.2c2.7,0.2,5.5-0.3,8-1.5c5.5-3.3,2.3-15.5-5.6-14.4c-3.7,1.6-5.6,8.1-7.4,10.4"/>
				<path class="st47" d="M1179.4,266.6c3.7,0.1,7.5-0.7,10.8-2.4c5.5-3.3,0.6-14.7-6.6-11.5c-3.7,1.6-5.4,5.6-7.1,8"/>
				<path class="st45" d="M1182.8,263.7c2.1,0.2,4.1-0.2,6-1.1c3.3-1.9,0.4-8.8-4-6.9c-2.2,1-3.3,3.3-4.3,4.8"/>
				<path class="st48" d="M1189.5,257.2c-0.4-1-1.2-1.8-2.2-2.1c-1.1-0.3-2.2-0.1-3.2,0.5c-0.9,0.6-1.6,1.3-2.2,2.2
					c-0.6,0.9-0.9,1.8-1.4,2.7c0.7-0.7,1.3-1.5,1.9-2.3c0.6-0.8,1.3-1.4,2.1-1.9c0.7-0.5,1.6-0.7,2.5-0.6
					C1188,256,1188.9,256.5,1189.5,257.2z"/>
				<path class="st47" d="M1144.6,253.4c-2.2-1.8-4.7-4.7-5.5-7.5c-1.7-5.6,8.5-10.1,11.3-3.4c1.5,3.4,0.1,7.1-0.1,9.7"/>
				<path class="st45" d="M1144.2,250.3c-1.5-1.2-2.7-2.8-3.4-4.6c-1.1-3.5,5.2-6.3,7-2.2c0.9,2.1,0.1,4.4-0.1,6"/>
				<path class="st48" d="M1140.8,245.6c-0.1-0.8,0.2-1.7,0.7-2.3c0.6-0.6,1.2-1,2-1.3c1.6-0.6,3.3,0,4.2,1.4
					c-0.2-0.9-0.9-1.7-1.7-2.1c-0.9-0.4-1.9-0.4-2.8-0.1c-0.9,0.3-1.7,0.9-2.2,1.7C1140.4,243.7,1140.4,244.7,1140.8,245.6z"/>
				<path class="st49" d="M1183.9,269.7c0,0,1.1-2-1.4-2.8s-18.1-6.9-18.1-6.9l-1.4,4.4L1183.9,269.7z"/>
				<polygon class="st49" points="1141.8,253.6 1143.8,254.1 1143.8,256.2 1141.6,255.6 				"/>
				<path class="st49" d="M1143,274.3c-1.9-2.2-2.6-5.1-1.9-8.8c1.2-5.9,2.7-10.9,2.7-10.9l0.1-0.5l21.1,4.4l-0.1,0.5
					c-0.3,2-2.9,19.1-8.9,19.2c-2.4,0.2-4.8,0-7.1-0.6C1146.7,277.1,1144.6,276,1143,274.3z M1145.7,255.5c0,0-1.3,0.4-1.4,0.8
					c-0.5,1.9-1.4,5.5-2.2,9.4c-0.6,3.3,0,6,1.7,7.9c3.8,4.3,12.1,3.6,12.3,3.6c4.2-0.1,7-11.6,7.8-17L1145.7,255.5z"/>
				<path class="st49" d="M1123,268.9c-1.7-2.2-2.3-5.1-1.8-8.8c1-5.8,2.2-10.8,2.2-10.9l0.1-0.5l18.5,4.7l-0.1,0.5
					c-0.2,1.9-2.4,19-7.5,19.1c-2.1,0.1-4.2-0.1-6.2-0.7C1126.2,271.7,1124.3,270.5,1123,268.9z M1125.1,250.1c0,0-1.1,0.3-1.2,0.8
					c-0.4,1.9-1.2,5.4-1.9,9.3c-0.5,3.3,0,6,1.6,7.9c3.4,4.3,10.7,3.7,10.8,3.7c3.7-0.1,6-11.5,6.7-16.9L1125.1,250.1z"/>
			</g>
		</g>
		<path class="st50" d="M1166.5,384.4c0,0-28.7-11.5-40-9s-31.3,9.1-43.1,4.4s-24.2-10.8-29-10.2s-9.1,15.5-6.3,18.5
			s30.5,19.4,47.9,19.4s44.2-2.7,48.5-7.2c4-4.1,11.3-7.8,13.7-9.5S1166.5,384.4,1166.5,384.4z"/>
		<path class="st51" d="M1156.6,390.3c-4.1-2.3-8.4-4.2-13-5.6c-2.2-0.7-4.6-1.1-6.9-1.4c-1.2-0.1-2.3-0.1-3.5,0
			c-1.2,0.1-2.3,0.3-3.5,0.6c-4.6,1-9.1,2.4-13.7,3.6c-4.5,1.3-9.1,2.5-13.8,3.4c-4.6,1-9.4,1.4-14.1,1.2c-2.4-0.2-4.7-0.6-7-1.2
			c-2.3-0.6-4.6-1.2-6.8-2c-9-3-17.7-6.5-26.3-10.4c4.3,1.9,8.7,3.6,13.1,5.3c4.4,1.7,8.8,3.3,13.3,4.7c1.1,0.4,2.2,0.7,3.4,1
			c1.1,0.3,2.3,0.6,3.4,0.9c2.3,0.6,4.6,1,6.9,1.2c4.7,0.1,9.4-0.3,14-1.3c4.6-0.9,9.2-2.1,13.7-3.3c4.6-1.2,9.1-2.6,13.7-3.6
			c1.2-0.3,2.3-0.4,3.5-0.5c1.2-0.1,2.4-0.1,3.6,0c2.4,0.2,4.7,0.7,6.9,1.5C1148.3,385.9,1152.6,387.9,1156.6,390.3z"/>
		<path class="st51" d="M1166.5,384.4c-4.5-1.7-9.1-3.3-13.8-4.6c-4.6-1.4-9.3-2.6-14.1-3.5c-2.4-0.4-4.8-0.7-7.2-0.9
			c-2.4-0.1-4.8,0.2-7.1,0.8c-4.7,1.1-9.4,2.4-14.1,3.4c-4.7,1.1-9.6,1.8-14.4,2.1c-1.2,0-2.4,0.1-3.7,0c-1.2,0-2.4-0.1-3.6-0.3
			c-2.4-0.4-4.8-1.1-7-2.1l-13.4-5.7c-2.2-0.9-4.5-1.8-6.8-2.6c-2.2-0.9-4.6-1.4-7.1-1.4c2.4,0,4.8,0.4,7.1,1.3
			c2.3,0.7,4.6,1.6,6.8,2.5l13.4,5.5c2.2,1,4.5,1.6,6.9,2c1.2,0.2,2.4,0.3,3.6,0.3c1.2,0.1,2.4,0,3.6,0c4.8-0.3,9.6-1,14.3-2.1
			c4.7-1,9.4-2.2,14.1-3.4c2.4-0.6,4.8-0.9,7.3-0.8c2.4,0.2,4.8,0.5,7.2,1C1148.3,377.8,1157.5,380.7,1166.5,384.4z"/>
		<path class="st47" d="M1057.1,371.6c0,0,18.7-13.2,23.6-14.5c1.6-0.2,3.3-0.1,4.9,0.4c0.2,4.9,1.1,7.5,2.2,11.5
			c0.8,2.4,2,4.5,3.6,6.4c-3.6-0.7-7.2-1-10.8-0.9l-23.2,1.2c-1.1,0.1-2.1-0.5-2.6-1.4l0,0C1054.1,373.1,1055.9,372.3,1057.1,371.6z
			"/>
		<path class="st45" d="M1083.8,351.4l0.1,13.6h1.7C1085.6,365,1083.3,355.2,1083.8,351.4z"/>
		<path class="st52" d="M1064.1,375.8l-7.2,0.3l-1.2,0.1c-1.6-3.7-6.7-17.5-5.3-18.1c4-1.7,8.5,4,9.8,14.6c0,0,1.2-0.3,2.5-0.4
			C1063.2,373.5,1063.7,374.6,1064.1,375.8z"/>
		<path class="st53" d="M1055.8,366.8c1.2,3.9,1.6,7.5,1.1,9.2l-1.2,0.1l-1.1,0.1c-1.3-1.4-2.7-4.3-3.8-7.9
			c-1.6-5.2-1.8-9.8-0.4-10.3C1051.8,357.7,1054.2,361.6,1055.8,366.8z"/>
		<path class="st45" d="M1125.2,373.1c-4.6,1-10.7,2.7-17,4l-21.3,1.6c-1.1,0.1-2.1-0.5-2.6-1.4c-0.6-1.3,0.6-1.3,1.8-2
			c0,0,19.9-12,24.8-13.3c7-1.8,31.8-4.1,31.8-4.1c6.9-0.5,12.6,13.1,8.4,19.6C1142.2,374.8,1131.3,371.8,1125.2,373.1z"/>
		<path class="st47" d="M1126.8,374.8c-4.6,1-10.7,2.7-17,4l-21.3,1.6c-1.1,0.1-2.1-0.5-2.6-1.4c-0.6-1.2-0.2-2.8,1-3.5
			c0,0,20.1-11.5,25.1-12.8c7-1.8,34-3.9,34-3.9c6.9-0.5,10.9,13.9,6.7,20.4C1143.8,376.5,1132.8,373.4,1126.8,374.8z"/>
		<path class="st52" d="M1092.8,380.9l-7.1,1.3l-1.3,0c-1.2-4.1-4.8-19.3-3.2-19.7c4.4-1.2,8.6,4.4,8.6,15.7
			c0.7-0.2,1.5-0.3,2.3-0.4C1092.3,379.2,1092.5,379.6,1092.8,380.9z"/>
		<path class="st53" d="M1087.3,372.3c0.2,3.4-0.4,6.8-1.6,9.9l-1.3,0l-1.1,0c-1.1-1.6-2.3-4.9-3-8.9c-1-5.7-0.6-10.6,0.9-10.8
			C1082.7,362.2,1086.8,365.1,1087.3,372.3z"/>
		<path class="st33" d="M1058.3,292.1c1.1,1.4,6.6,4.7,14.4,5.3s37.3-0.6,41.4-12.4c-3.2,12.5-8.8,19.6-13.4,25.1
			c-11.7,0.1-22.8-1.2-31.3-5.6c-4.3-2.4-8.8-4.4-13.5-6c1.3-1.9,1.3-4.8,1.9-6.9C1058,291.7,1058.2,291.9,1058.3,292.1z"/>
		<path class="st47" d="M1048.7,289.2l0.3,7.9c1.1,1.1,2.6,1.7,4.1,1.7c1.8,0.1,3.6-0.1,5.4-0.5l0.1-3.8l-4.6-4.7L1048.7,289.2z"/>
		<path class="st47" d="M1058.6,294.1c-0.1-1.6-0.7-3.2-1.7-4.5c-0.7-0.8-1.3-1.8-1.7-2.9c-0.2-1-0.3-2.1-0.1-3.1
			c0,0-0.8-0.6-2.4,0.7c-0.6,1.9-0.4,3.9,0.5,5.7c0,0-2.7,8.2,5.3,7.9C1058.6,296.6,1058.7,295.3,1058.6,294.1z"/>
		<path class="st48" d="M1057.6,297.2c-1.5,0-2.8-0.9-3.4-2.3c-0.6-1.1-0.9-3.5-0.4-4c-0.2,1.3,0,2.6,0.6,3.8
			C1055,296,1056.2,296.9,1057.6,297.2z"/>
		<polygon class="st47" points="1041.1,288.2 1051.3,289.6 1050.9,292.1 1040.9,291.3 		"/>
		<polygon class="st48" points="1054.2,291.9 1047.9,291.9 1047.9,294.6 1054.2,294.9 		"/>
		<polygon class="st47" points="1047.6,291.8 1047.5,294.7 1054,294.7 1054,292.1 		"/>
		<polygon class="st48" points="1054,297.2 1053.6,294.7 1048.3,294.7 1048.1,297.5 		"/>
		<polygon class="st47" points="1048.2,294.6 1048.1,297.5 1053.8,297.1 1053.4,294.9 		"/>
		<g class="st54">
			<line class="st55" x1="1139.5" y1="340.9" x2="1143.5" y2="345"/>
			<line class="st55" x1="1143.7" y1="340.8" x2="1139.3" y2="345.4"/>
			<ellipse class="st56" cx="1149.1" cy="343" rx="2.4" ry="2.4"/>
		</g>
		<path class="st57" d="M1277,334.3c-11.1,4.3-31,8.4-56.6,11.4c-1.5,0.2-2.6,1.5-2.5,3l1.3,21c0.1,1.6,1.4,2.8,3,2.7
			c0.1,0,0.1,0,0.2,0c26.8-3.2,47.4-7.5,58-12.1c1.1-0.5,1.8-1.6,1.7-2.8l-1.3-20.7c-0.1-1.5-1.4-2.7-2.9-2.7
			C1277.5,334.1,1277.2,334.2,1277,334.3z"/>
		<path class="st57" d="M1145.5,350.5c20-0.2,36.4-1.1,53.5-2.5c1.6-0.1,2.9,1.1,3,2.6c0,0,0,0,0,0l1.3,21c0.1,1.5-1,2.9-2.6,3
			c-17.3,1.4-33.8,2.3-53.9,2.5c-1.5,0-2.7-1.2-2.8-2.7l-1.3-21c-0.1-1.6,1.1-2.9,2.6-3C1145.4,350.5,1145.5,350.5,1145.5,350.5z"/>
		<g class="st54">
			<path class="st58" d="M1222.5,382.5c5-1,10.1-1.8,15.1-2.7c5-0.9,10.1-1.7,15.1-2.7c5-0.9,10-2,15-3.1c5-1.1,9.9-2.6,14.7-4.3
				c-4.5,2.5-9.3,4.4-14.3,5.8c-4.9,1.5-9.9,2.6-15,3.6c-5,0.9-10.1,1.7-15.2,2.3C1232.7,381.9,1227.6,382.3,1222.5,382.5z"/>
		</g>
		<g class="st54">
			<path class="st58" d="M1147.1,387.3c4.7-0.5,9.4-0.7,14.1-1l14-0.8c4.7-0.2,9.4-0.5,14-0.6c4.7-0.2,9.4-0.3,14.1-0.3
				c-4.6,0.8-9.3,1.4-14,1.9c-4.7,0.5-9.4,0.8-14.1,1.1c-4.7,0.2-9.4,0.4-14.1,0.3C1156.5,387.8,1151.8,387.7,1147.1,387.3z"/>
		</g>
		<g class="st54">
			<path class="st58" d="M1223,391.3c5-1,10.1-1.8,15.1-2.7c5-0.9,10.1-1.7,15.1-2.7c5-0.9,10-2,15-3.1c5-1.1,9.9-2.6,14.7-4.3
				c-4.5,2.5-9.3,4.4-14.3,5.8c-4.9,1.5-9.9,2.6-15,3.6c-5,0.9-10.1,1.7-15.2,2.3C1233.3,390.7,1228.2,391.1,1223,391.3z"/>
		</g>
		<g class="st54">
			<path class="st58" d="M1147.6,396.2c4.7-0.5,9.4-0.7,14.1-1l14-0.8c4.7-0.2,9.4-0.5,14-0.6c4.7-0.2,9.4-0.3,14.1-0.3
				c-4.6,0.8-9.3,1.4-14,1.9c-4.7,0.5-9.4,0.8-14.1,1.1c-4.7,0.2-9.4,0.4-14.1,0.3C1157,396.7,1152.3,396.5,1147.6,396.2z"/>
		</g>
		<g class="st54">
			<path class="st58" d="M1223.4,400.2c5-1,10.1-1.8,15.1-2.7c5-0.9,10.1-1.7,15.1-2.7c5-0.9,10-2,15-3.1c5-1.1,9.9-2.6,14.7-4.3
				c-4.5,2.5-9.3,4.4-14.3,5.8c-4.9,1.5-9.9,2.6-15,3.6c-5,0.9-10.1,1.7-15.2,2.3C1233.6,399.6,1228.5,400,1223.4,400.2z"/>
		</g>
		<g class="st54">
			<path class="st58" d="M1148,405c4.7-0.5,9.4-0.7,14.1-1l14-0.8c4.7-0.2,9.4-0.5,14-0.6c4.7-0.2,9.4-0.3,14.1-0.3
				c-4.6,0.8-9.3,1.4-14,1.9c-4.7,0.5-9.4,0.8-14.1,1.1c-4.7,0.2-9.4,0.4-14.1,0.3C1157.4,405.5,1152.7,405.4,1148,405z"/>
		</g>
		<path class="st59" d="M1292.7,393.2c0,0.8-0.2,1.6-0.6,2.3c-0.4,0.7-1,1.3-1.6,1.8c-1.3,1-2.6,1.9-4.1,2.7c-2.9,1.4-6,2.7-9.1,3.6
			c-6.3,1.9-12.6,3.5-19,4.7c-12.8,2.5-25.8,4.2-38.8,5.5c-13,1.3-26,2.1-39.1,2.7c-6.5,0.3-13,0.5-19.6,0.7
			c-6.5,0.1-13.1,0.2-19.6,0.1c6.5-0.1,13-0.3,19.6-0.5c6.5-0.2,13-0.5,19.6-0.8c13-0.7,26-1.6,39-2.9c13-1.3,25.9-2.9,38.8-5.3
			c6.4-1.2,12.8-2.7,19-4.5c3.1-0.9,6.2-2.1,9.1-3.4c1.5-0.7,2.9-1.6,4.1-2.6c0.6-0.5,1.2-1.1,1.6-1.8
			C1292.5,394.9,1292.7,394.1,1292.7,393.2z"/>
		<path class="st60" d="M1135.7,336.4c74.9-0.6,136.2-10.4,149.1-20.2c0.9-0.7,2.1-0.5,2.8,0.4c0.2,0.3,0.4,0.7,0.4,1.1l3.7,75.9
			c0.9,12.1-66,23.6-151.5,24.1c-4.3-0.1-7.8-3.4-8.2-7.7l-4.4-63.5C1127,341.1,1130.8,336.4,1135.7,336.4z"/>
		<path class="st61" d="M1135.7,336.4c6.3-0.3,12.6-0.5,18.9-0.8c6.3-0.3,12.6-0.6,18.9-1c12.6-0.8,25.2-1.7,37.7-3.1
			c12.5-1.2,25.1-2.8,37.5-4.9c6.2-1,12.4-2.2,18.5-3.8c3.1-0.7,6.1-1.6,9.1-2.6c3-0.9,5.9-2.3,8.6-3.9c-2.6,1.9-5.4,3.3-8.4,4.4
			c-2.9,1.2-6,2.2-9,3c-6.1,1.7-12.3,3.1-18.5,4.4c-6.2,1.3-12.5,2.2-18.7,3.1c-6.3,0.9-12.5,1.7-18.8,2.3
			c-6.3,0.6-12.6,1.1-18.9,1.6c-6.3,0.4-12.6,0.8-18.9,1c-6.3,0.2-12.6,0.4-18.9,0.5C1148.4,336.6,1142,336.6,1135.7,336.4z"/>
		<path class="st62" d="M1037.7,28c0-4.3,3.4-7.8,7.7-7.8h0.1c211.6,0,383.2,21.2,383.2,47.4v57.8c0.1,4.3-3.3,7.8-7.6,7.8
			c-1.2,0-2.4-0.3-3.5-0.8c-41.2-20.7-192.2-36-372-36h-0.1c-4.3,0-7.7-3.5-7.7-7.8c0,0,0,0,0,0L1037.7,28z"/>
		<g class="st18">
			<path class="st63" d="M1045.5,20.1c18.7-0.2,37.5-0.2,56.2,0c18.7,0.2,37.5,0.7,56.2,1.3c18.7,0.6,37.5,1.5,56.2,2.6
				c18.7,1.1,37.4,2.5,56.1,4.1c18.7,1.7,37.3,3.7,55.9,6.2c9.3,1.3,18.6,2.6,27.8,4.2c9.3,1.6,18.5,3.3,27.6,5.4
				c9.2,2,18.2,4.6,27.1,7.7c4.5,1.6,8.7,3.6,12.8,6c2.1,1.2,3.9,2.8,5.5,4.6c0.4,0.5,0.7,1,1.1,1.5c0.3,0.5,0.6,1.1,0.7,1.7
				c0.1,0.3,0.2,0.6,0.2,0.9l0.1,0.9c0,0.6,0,1.2,0,1.8l-0.5,56.2l-0.5-56.2c0-0.6,0-1.2,0-1.7l-0.1-0.8c0-0.3-0.1-0.5-0.2-0.8
				c-0.2-0.5-0.4-1-0.7-1.5c-0.3-0.5-0.6-0.9-1-1.4c-1.5-1.7-3.3-3.1-5.3-4.3c-4-2.3-8.3-4.3-12.7-5.8c-8.8-3-17.9-5.5-27-7.4
				c-18.3-4-36.8-6.9-55.3-9.3c-18.6-2.4-37.2-4.4-55.8-6c-37.3-3.4-74.7-5.6-112.2-7.2c-18.7-0.8-37.4-1.4-56.2-1.8
				C1083,20.6,1064.3,20.4,1045.5,20.1z"/>
		</g>
		<path class="st64" d="M-11.9,223.8c0-14.6,29.2-27.2,70.8-32.4c2.2-0.3,3.7-2.3,3.4-4.4c0,0,0-0.1,0-0.1l-7.9-50.8
			c-0.3-2.1-2.2-3.5-4.3-3.3c-41.7,5.2-71,17.8-71,32.4"/>
		<path class="st65" d="M199,180.1c0.8-10.1,27.5-16.6,63.2-16.5c2.3,0.1,4.3-1.6,4.4-3.9c0-0.2,0-0.4,0-0.5l-3-24.7
			c-0.3-2.2-2.2-3.7-4.4-3.7c-36.2-0.3-63.4,6.3-64.1,16.5"/>
		<path class="st66" d="M1276.6,203.7c-2.1,0.3-3.9,1.6-5,3.4c-0.5,0.9-0.9,1.9-1,2.9c-0.1,1,0,2.1-0.1,3.2
			c-0.1,4.3-0.1,8.5-0.3,12.8c-0.2,8.5-0.5,17-0.9,25.5c-0.4,8.5-0.8,17-1.3,25.5c-0.5,8.5-1.1,17-1.9,25.5c0-8.5,0.1-17,0.3-25.5
			c0.2-8.5,0.5-17,0.9-25.5c0.4-8.5,0.8-17,1.3-25.5c0.3-4.2,0.5-8.5,0.8-12.7c0.1-1.1,0.1-2.1,0.3-3.2c0.2-1.1,0.6-2.1,1.3-3.1
			c0.6-0.9,1.4-1.7,2.4-2.2C1274.4,204.1,1275.5,203.8,1276.6,203.7z"/>
		<path class="st17" d="M199,180.1c-0.9,12.2,36.2,25,82.9,28.6c1.7,0.1,3.3,0.2,5,0.3c2.3,0.3,4.4-1.4,4.6-3.7c0-0.3,0-0.5,0-0.8
			l-2.9-24.6c-0.3-2.1-2.1-3.6-4.2-3.7c-2.1-0.1-4.3-0.3-6.4-0.4c-46.7-3.6-83.8-16.4-82.9-28.6"/>
		<path class="st67" d="M75.5,304.7L55,174.7c-2.4-17.8,86.2-23.4,102.9-24.4c1.6-0.1,2.9,1,3.1,2.6l13.6,122.8
			c0.4,2.1-1.1,4.2-3.2,4.5c-0.1,0-0.3,0-0.4,0C151,281.4,73.6,287.6,75.5,304.7z"/>
		<g class="st68">
			<ellipse transform="matrix(0.993 -0.1184 0.1184 0.993 -18.7286 17.1184)" class="st69" cx="134.8" cy="166.2" rx="3" ry="4"/>
			<line class="st69" x1="150.3" y1="168.3" x2="142" y2="162.7"/>
			<line class="st69" x1="148.5" y1="161.8" x2="143.9" y2="169.4"/>
		</g>
		<path class="st70" d="M75.5,304.7L55,174.7c0.3,2.5,2.4,5.1,6.6,8.1c32.6,22.6,133.7,29.9,162,31.5c4.4,0.3,8,3.6,8.6,7.9
			l10.7,118.3c0.4,2.6-1.3,5-3.9,5.5c-0.3,0.1-0.7,0.1-1.1,0.1c-25.9-1.8-122.5-10-155.8-33.1C77.9,309.9,75.8,307.2,75.5,304.7z"/>
		<path class="st71" d="M157.9,150.3c-9.1,0.6-18.2,1.4-27.3,2.3c-9.1,1-18.1,2-27.2,3.4c-9,1.3-17.9,3.1-26.8,5.4
			c-4.4,1.1-8.7,2.6-12.8,4.5c-2,0.9-3.9,2.1-5.6,3.5c-1.6,1.4-2.8,3.2-2.5,5.2l-0.9-0.8l0,0l0.8,0l0.1,0.8c0.4,1.6,1.2,3.1,2.4,4.2
			c1.2,1.3,2.6,2.4,4.1,3.4c3,2,6.2,3.8,9.5,5.2c3.3,1.5,6.7,2.9,10.2,4.1c3.4,1.2,6.9,2.3,10.4,3.4c14.1,4,28.5,7.1,43,9.3
			c14.5,2.4,29.1,4.4,43.7,6c7.3,0.8,14.6,1.6,21.9,2.2s14.7,1.3,22,1.8c-7.4-0.3-14.7-0.7-22-1.2s-14.7-1.1-22-1.8
			c-14.7-1.4-29.3-3.1-43.8-5.4c-14.6-2.2-29-5.3-43.3-9.2c-7.1-2-14.1-4.5-20.9-7.5c-3.4-1.5-6.7-3.4-9.8-5.4
			c-1.6-1.1-3.1-2.3-4.4-3.6c-1.5-1.4-2.5-3.3-2.9-5.3l0.9,0.8h0l-0.8,0l-0.1-0.8c-0.2-1.3,0.1-2.7,0.7-3.9c0.6-1.1,1.4-2.1,2.4-2.9
			c1.8-1.5,3.8-2.8,6-3.7c4.2-1.9,8.6-3.4,13.1-4.5c8.9-2.2,17.9-3.9,27-5c9.1-1.2,18.2-2.2,27.3-2.9
			C139.6,151.2,148.8,150.6,157.9,150.3z"/>
		<path class="st72" d="M59.9,206.5l24.1,7.8c3,0.2,7.8,3.4,8,6.3l5.8,39.3c0.3,3.3-2.2,6.3-5.6,6.5c-0.3,0-0.5,0-0.8,0l-22.6-3.5
			L59.9,206.5z"/>
		<path class="st73" d="M-21,165.2c0,17.3,41,31.7,94.7,34.5c1.8,0.1,3.4,1.5,3.6,3.3l7.9,50.6c0.4,2.1-1.1,4.2-3.2,4.5
			c-0.3,0-0.5,0.1-0.8,0c-53-3-93.1-17.3-93.1-34.4"/>
		<path class="st74" d="M50.7,132.7c-6.5,0.9-13,2.1-19.4,3.4c-6.4,1.4-12.8,2.9-19.1,4.8c-6.3,1.8-12.4,4.2-18.2,7.2
			c-2.9,1.5-5.5,3.3-7.9,5.4c-1.2,1.1-2.2,2.3-3,3.6c-0.4,0.6-0.8,1.3-1.1,2c-0.2,0.3-0.3,0.7-0.4,1.1l-0.4,1.2l0-0.4
			c0,0.6,0,1.3-0.2,1.9c-0.1,0.5-0.1,1-0.2,1.6c0,1,0.2,2,0.5,3c0.8,2,1.9,3.9,3.2,5.6c2.7,3.5,6,6.5,9.8,8.8
			c7.5,4.8,16.1,7.8,24.8,10c8.8,2.2,17.6,3.8,26.6,4.9c4.5,0.5,9,1.1,13.5,1.5c4.5,0.4,9,0.8,13.5,1.3c-9-0.5-18.1-0.8-27.1-1.7
			c-9.1-0.8-18-2.3-26.9-4.3c-4.4-1.1-8.8-2.4-13.1-4c-4.3-1.6-8.4-3.6-12.3-6.1c-4-2.4-7.4-5.6-10.3-9.3c-1.5-1.8-2.7-3.9-3.5-6.1
			c-0.4-1.2-0.6-2.4-0.6-3.7c0-0.6,0.1-1.2,0.2-1.8c0.1-0.5,0.2-1,0.2-1.5l0-0.2l0.1-0.2l0.4-1.1c0.2-0.4,0.3-0.8,0.5-1.2
			c0.3-0.8,0.8-1.6,1.2-2.3c1-1.4,2.1-2.7,3.4-3.9c2.5-2.2,5.3-4.1,8.3-5.6c5.9-2.9,12.2-5.3,18.6-7c6.4-1.8,12.8-3.2,19.3-4.3
			C37.7,134.2,44.2,133.3,50.7,132.7z"/>
		<path class="st19" d="M260.6,130.7c-5.7,0.2-11.3,0.6-16.9,1.1c-5.6,0.5-11.2,1.1-16.8,2c-5.6,0.8-11.1,2-16.4,3.6
			c-2.7,0.8-5.2,1.8-7.7,3.1c-2.4,1.3-4.6,3-5.5,5.3l0-0.1l-0.4,1.8l0-0.3c0.1,0.6,0.1,1.1,0.1,1.5c0.1,0.4,0.2,0.7,0.4,1.1
			c0.5,0.8,1,1.5,1.6,2.2c0.6,0.7,1.3,1.5,1.9,2.2c0.7,0.7,1.3,1.4,2.1,2c3,2.5,6.3,4.5,9.9,6.1c7.2,3.2,14.7,5.6,22.4,7.2
			c7.7,1.8,15.5,3.1,23.4,4.1c7.8,1.1,15.7,1.9,23.6,2.6c-7.9-0.3-15.8-0.8-23.8-1.6c-7.9-0.9-15.8-2-23.6-3.6
			c-7.9-1.5-15.5-3.9-22.9-7.1c-3.7-1.6-7.2-3.7-10.4-6.3c-0.8-0.7-1.5-1.4-2.2-2.1c-0.7-0.7-1.3-1.5-2-2.3
			c-0.7-0.8-1.3-1.7-1.8-2.6c-0.3-0.5-0.5-1.1-0.6-1.7c-0.1-0.6,0-1.1-0.1-1.5l0-0.2l0-0.2l0.4-1.8l0-0.1l0,0
			c0.6-1.4,1.6-2.7,2.7-3.7c1.1-1,2.4-1.8,3.7-2.5c2.6-1.3,5.3-2.4,8-3.2c5.5-1.5,11.1-2.6,16.8-3.3c5.6-0.7,11.3-1.2,16.9-1.5
			C249.3,130.7,255,130.6,260.6,130.7z"/>
		<g>
			<defs>
				<path id="SVGID_16_" d="M1037.7,28c0-4.3,3.4-7.8,7.7-7.8h0.1c211.6,0,383.2,21.2,383.2,47.4v57.8c0.1,4.3-3.3,7.8-7.6,7.8
					c-1.2,0-2.4-0.3-3.5-0.8c-41.2-20.7-192.2-36-372-36h-0.1c-4.3,0-7.7-3.5-7.7-7.8c0,0,0,0,0,0L1037.7,28z"/>
			</defs>
			<clipPath id="SVGID_17_">
				<use xlink:href="#SVGID_16_"  style="overflow:visible;"/>
			</clipPath>
			<g class="st75">
				<path class="st76" d="M1358.3,89.2c0-3.1-1.8-5.9-4.1-6.2c-33-5.6-70.7-10-110.6-12.8c-31.2-2.2-61-3.1-88.2-2.9
					c-2.4,0-4.3,2.5-4.3,5.7l-0.6,59.7c0,3.4,2.1,6.3,4.7,6.3c27.2-0.1,56.7,0.8,87.7,2.9c39.7,2.8,77.1,7.2,109.9,12.7
					c2.6,0.4,4.9-2.1,4.9-5.6L1358.3,89.2z"/>
			</g>
		</g>
		<path class="st77" d="M1454.4,215.9c-2.1-14.5-32.8-22.7-74.6-22c-2.2,0-3.9-1.7-4-3.9c0,0,0-0.1,0-0.1l0.6-51.4
			c0-2.1,1.7-3.8,3.8-3.9c42-0.8,72.8,7.5,74.9,22"/>
		<path class="st6" d="M1339.1,97.9c0-3.1-1.8-5.9-4.1-6.2c-33-5.6-70.7-10-110.6-12.8c-31.2-2.2-61-3.1-88.2-2.9
			c-2.4,0-4.3,2.5-4.3,5.7l-0.6,59.7c0,3.4,2.1,6.3,4.7,6.3c27.2-0.1,56.7,0.8,87.7,2.9c39.7,2.8,77.1,7.2,109.9,12.7
			c2.6,0.4,4.9-2.1,4.9-5.6L1339.1,97.9z"/>
		<path class="st78" d="M1394.7,268.4l11.3-101.7c1.2-13.9-67.7-15-80.7-15.1c-1.2,0-2.2,0.9-2.3,2.1l-6.2,95.8
			c-0.2,1.7,1,3.2,2.7,3.4c0.1,0,0.2,0,0.3,0C1335.4,253.1,1395.6,255,1394.7,268.4z"/>
		<path class="st70" d="M1395.3,268.5l11.3-101.7c-0.2,1.9-1.7,4.1-4.9,6.5c-24.5,18.8-102.7,28.2-124.6,30.5
			c-3.4,0.4-6.1,3.1-6.4,6.5l-4,92.2c-0.2,2,1.2,3.8,3.2,4.1c0.3,0,0.6,0,0.8,0c20-2.4,94.7-12.3,119.6-31.5
			C1393.6,272.6,1395.1,270.4,1395.3,268.5z"/>
		<path class="st79" d="M1325.3,151.7c7.1-0.2,14.2-0.1,21.3,0.1c7.1,0.2,14.2,0.6,21.3,1.2c7.1,0.5,14.2,1.5,21.2,2.9
			c3.5,0.7,7,1.7,10.4,3c1.7,0.7,3.4,1.6,4.9,2.7c0.8,0.6,1.5,1.4,2,2.2c0.6,0.9,0.8,2,0.7,3.1l-0.1,0.8l-0.8,0.1h0l0.8-0.8
			c-0.2,1.6-1,3.1-2.1,4.3c-1,1.1-2.1,2.1-3.3,3c-2.3,1.7-4.8,3.3-7.4,4.6c-5.1,2.6-10.5,4.8-16,6.6c-10.9,3.6-22,6.5-33.3,8.7
			c-11.2,2.3-22.5,4.1-33.8,5.7c-5.7,0.8-11.3,1.5-17,2.1s-11.4,1.2-17.1,1.7c5.7-0.7,11.3-1.5,17-2.3c5.7-0.8,11.3-1.7,16.9-2.6
			c11.3-1.8,22.5-3.9,33.7-6.3c11.2-2.3,22.2-5.3,33-8.9c2.7-0.9,5.3-1.9,8-3c2.6-1.1,5.2-2.2,7.7-3.5c2.5-1.3,4.9-2.7,7.2-4.4
			c1.1-0.8,2.1-1.7,3-2.7c0.9-0.9,1.5-2,1.7-3.2l0.1-0.8l0.8-0.1h0l-0.8,0.8c0-1.5-0.8-2.9-2-3.7c-1.3-1-2.8-1.9-4.4-2.5
			c-3.3-1.3-6.6-2.3-10-3c-6.9-1.5-13.9-2.5-20.9-3.2c-7-0.8-14.1-1.2-21.2-1.7C1339.5,152.1,1332.4,151.9,1325.3,151.7z"/>
		
			<ellipse transform="matrix(7.463766e-02 -0.9972 0.9972 7.463766e-02 1080.7896 1491.057)" class="st80" cx="1343.8" cy="163.2" rx="3.1" ry="2.3"/>
		<line class="st80" x1="1331.8" y1="165.4" x2="1338.1" y2="160.7"/>
		<line class="st80" x1="1333" y1="160.3" x2="1336.8" y2="165.9"/>
		<g>
			<defs>
				<path id="SVGID_18_" d="M1037.7-7c0-4.3,3.4-7.8,7.7-7.8h0.1c211.6,0,383.2,21.2,383.2,47.4v57.8c0.1,4.3-3.3,7.8-7.6,7.8
					c-1.2,0-2.4-0.3-3.5-0.8c-41.2-20.7-192.2-36-372-36h-0.1c-4.3,0-7.7-3.5-7.7-7.8c0,0,0,0,0,0L1037.7-7z"/>
			</defs>
			<clipPath id="SVGID_19_">
				<use xlink:href="#SVGID_18_"  style="overflow:visible;"/>
			</clipPath>
			<g class="st81">
				<path class="st76" d="M773.7,43.9c-0.1,3.1,2.3,5.6,5.4,5.7c0,0,0,0,0.1,0c11.1,0.2,22.4,0.4,33.8,0.6
					c102.1,2.3,195.5,8.7,267.9,17.4c3,0.3,5.8-1.9,6.1-4.9c0-0.2,0-0.4,0-0.5l0.5-22.4c0.1-2.9-2-5.3-4.8-5.7
					c-72.6-8.8-166.4-15.2-269-17.5c-11.4-0.3-22.7-0.5-33.9-0.6c-3,0-5.5,2.4-5.5,5.5L773.7,43.9z"/>
			</g>
		</g>
		<path class="st82" d="M763.2,51.1c-0.1,3.1,2.3,5.6,5.4,5.7c0,0,0,0,0.1,0c11.1,0.2,22.4,0.4,33.8,0.6
			c102.1,2.3,195.5,8.7,267.9,17.4c3,0.3,5.8-1.9,6.1-4.9c0-0.2,0-0.4,0-0.5l0.5-22.4c0.1-2.9-2-5.3-4.8-5.7
			c-72.6-8.8-166.4-15.2-269-17.5c-11.4-0.3-22.7-0.5-33.9-0.6c-3,0-5.5,2.4-5.5,5.5L763.2,51.1z"/>
		<g>
			<defs>
				<path id="SVGID_20_" d="M75.5,304.7L55,174.7c0.3,2.5,2.4,5.1,6.6,8.1c32.6,22.6,133.7,29.9,162,31.5c4.4,0.3,8,3.6,8.6,7.9
					l10.7,118.3c0.4,2.6-1.3,5-3.9,5.5c-0.3,0.1-0.7,0.1-1.1,0.1c-25.9-1.8-122.5-10-155.8-33.1C77.9,309.9,75.8,307.2,75.5,304.7z"
					/>
			</defs>
			<clipPath id="SVGID_21_">
				<use xlink:href="#SVGID_20_"  style="overflow:visible;"/>
			</clipPath>
			<g class="st83">
				<path class="st72" d="M166.7,296.3l4.2,82.4c-0.2,3.2,2.1,6,5.3,6.4c14.1,1.9,47.9,5.5,123.9,7.9c65.8,2.1,91,0.7,100.4-0.3
					c3-0.4,5.3-2.9,5.4-6l-4.6-80.4c0.1-3.4-2.5-6.2-5.9-6.4c-0.1,0-0.1,0-0.2,0c-16.9,0-64.8-1.1-101.9-2.1
					c-42.6-1.2-100.5-5.5-120-7.4c-3.4-0.3-6.3,2.2-6.6,5.5C166.7,296.1,166.7,296.2,166.7,296.3z"/>
			</g>
		</g>
		<path class="st84" d="M184.2,286.6l4.2,82.4c-0.2,3.2,2.1,6,5.3,6.4c14.1,1.9,47.9,5.5,123.9,7.9c65.8,2.1,91,0.7,100.4-0.3
			c3-0.4,5.3-2.9,5.4-6l-4.6-80.4c0.1-3.4-2.5-6.2-5.9-6.4c-0.1,0-0.1,0-0.2,0c-16.9,0-64.8-1.1-101.9-2.1
			c-42.6-1.2-100.5-5.5-120-7.4c-3.4-0.3-6.3,2.2-6.6,5.5C184.2,286.4,184.2,286.5,184.2,286.6z"/>
		<g class="st85">
			<path class="st37" d="M412.7,290.3c-9.3,0-18.5-0.1-27.8-0.1l-27.8-0.3c-9.3-0.1-18.5-0.3-27.8-0.4c-9.3-0.2-18.5-0.3-27.8-0.6
				c-9.3-0.3-18.5-0.8-27.8-1.3c-9.2-0.5-18.5-1-27.7-1.8c-9.2-0.7-18.5-1.4-27.7-2.2c-9.2-0.9-18.4-1.7-27.6-2.8
				c9.2,0.7,18.5,1.3,27.7,1.9c9.2,0.6,18.5,1.2,27.7,1.7c18.5,1,37,2,55.4,2.6c18.5,0.7,37,0.9,55.5,1.5l27.8,0.8
				C394.2,289.6,403.5,289.9,412.7,290.3z"/>
		</g>
		<g class="st86">
			
				<ellipse transform="matrix(1.270214e-02 -0.9999 0.9999 1.270214e-02 81.4935 685.6697)" class="st87" cx="388" cy="301.6" rx="3.2" ry="2.6"/>
			<line class="st87" x1="400.6" y1="304.5" x2="394.8" y2="298.8"/>
			<line class="st87" x1="400.1" y1="299.1" x2="395.4" y2="304.3"/>
		</g>
		<g>
			<defs>
				<path id="SVGID_22_" d="M184.2,286.6l4.2,82.4c-0.2,3.2,2.1,6,5.3,6.4c14.1,1.9,47.9,5.5,123.9,7.9c65.8,2.1,91,0.7,100.4-0.3
					c3-0.4,5.3-2.9,5.4-6l-4.6-80.4c0.1-3.4-2.5-6.2-5.9-6.4c-0.1,0-0.1,0-0.2,0c-16.9,0-64.8-1.1-101.9-2.1
					c-42.6-1.2-100.5-5.5-120-7.4c-3.4-0.3-6.3,2.2-6.6,5.5C184.2,286.4,184.2,286.5,184.2,286.6z"/>
			</defs>
			<clipPath id="SVGID_23_">
				<use xlink:href="#SVGID_22_"  style="overflow:visible;"/>
			</clipPath>
			<g class="st88">
				<path class="st14" d="M454.1,328.2l-4-39.3l-17.2-0.3l0,0l17.2,0.3l-1.2-11.8c-0.4-3.3-3.1-5.8-6.4-6l-11.5-0.2l-50-1
					c-2.7-0.1-5,2-5.1,4.8c0,0.3,0,0.7,0.1,1l6,51.1l1.4,11.8c0.4,3.3,3.1,5.8,6.4,6l11.4,0.2l37.9,0.8L454.1,328.2L454.1,328.2z"/>
			</g>
		</g>
		<path class="st89" d="M353.5,33c0-1.9,1.4-3.4,3.3-3.6c26.1-2,55.7-3.1,87.2-3.1c24.6,0,48,0.7,69.5,1.9c1.9,0.1,3.4,1.7,3.3,3.6
			v36.1c0,2-1.6,3.6-3.5,3.6c-0.1,0-0.1,0-0.2,0c-21.4-1.2-44.7-1.9-69.1-1.9c-31.3,0-60.8,1.1-86.7,3.1c-2,0.1-3.7-1.4-3.8-3.3
			c0-0.1,0-0.2,0-0.3V33z"/>
		<path class="st90" d="M356.8,29.4c6.5-0.7,13-1.2,19.5-1.8c6.5-0.5,13.1-0.9,19.6-1.2c13.1-0.7,26.2-0.9,39.2-1.1
			c13.1,0,26.2,0.1,39.2,0.6c6.5,0.2,13.1,0.5,19.6,0.9c6.5,0.4,13.1,0.8,19.6,1.4c-6.5-0.1-13.1-0.4-19.6-0.5
			c-6.5-0.2-13.1-0.3-19.6-0.3c-13.1-0.1-26.1-0.3-39.2-0.1c-13.1,0-26.1,0.3-39.2,0.6c-6.5,0.2-13.1,0.4-19.6,0.6
			C369.9,28.8,363.4,29.1,356.8,29.4z"/>
		<g>
			<defs>
				<path id="SVGID_24_" d="M353.2,33c0-1.9,1.4-3.4,3.3-3.6c26.1-2,55.7-3.1,87.2-3.1c24.6,0,48,0.7,69.5,1.9
					c1.9,0.1,3.4,1.7,3.3,3.6v36.1c0,2-1.6,3.6-3.5,3.6c-0.1,0-0.1,0-0.2,0c-21.4-1.2-44.7-1.9-69.1-1.9c-31.3,0-60.8,1.1-86.7,3.1
					c-2,0.1-3.7-1.4-3.8-3.3c0-0.1,0-0.2,0-0.3L353.2,33z"/>
			</defs>
			<clipPath id="SVGID_25_">
				<use xlink:href="#SVGID_24_"  style="overflow:visible;"/>
			</clipPath>
		</g>
		<path class="st91" d="M389.1,91.4c0.1,3.1-2.3,5.6-5.4,5.7c0,0,0,0-0.1,0c-11.1,0.2-22.4,0.4-33.8,0.6
			c-102.1,2.3-195.5,8.7-267.9,17.4c-3,0.3-5.8-1.9-6.1-4.9c0-0.2,0-0.4,0-0.5l-0.5-22.4c-0.1-2.9,2-5.3,4.8-5.7
			c72.6-8.8,166.4-15.2,269-17.5c11.4-0.3,22.7-0.5,33.9-0.6c3,0,5.5,2.4,5.5,5.5L389.1,91.4z"/>
		<path class="st92" d="M80.2,81.6c6.3-0.8,12.5-1.7,18.8-2.4l9.4-1.1l9.4-1.1c12.6-1.4,25.2-2.6,37.8-3.7c25.2-2.3,50.4-4,75.7-5.5
			c25.3-1.4,50.5-2.5,75.8-3.2c12.6-0.3,25.3-0.6,37.9-0.8c6.3-0.1,12.6-0.1,19-0.1l19-0.1c-25.3,0.8-50.6,1.5-75.8,2.6
			c-25.3,1-50.5,2.2-75.8,3.7c-25.3,1.4-50.5,3.1-75.7,5c-12.6,1-25.2,2-37.8,3.2C105.4,79,92.8,80.4,80.2,81.6z"/>
		<path class="st89" d="M874.1,433c0,1.6-1.3,2.9-2.9,3.1c-36.9,2.4-81.4,3.8-129.3,3.8c-38.9,0-75.6-0.9-107.8-2.6
			c-1.7-0.1-2.9-1.5-2.9-3.2l0.7-45.8c0-1.7,1.4-3.1,3.1-3.1c0,0,0.1,0,0.1,0c32.1,1.6,68.7,2.5,107.6,2.5
			c47.7,0,92.1-1.4,128.8-3.8c1.7-0.1,3.2,1.2,3.3,2.9c0,0.1,0,0.2,0,0.2L874.1,433z"/>
		<path class="st90" d="M635.1,385.3c9.9,0.3,19.7,0.6,29.6,0.8c9.9,0.2,19.7,0.4,29.6,0.5c19.7,0.2,39.4,0.4,59.1,0.2
			c19.7,0,39.4-0.3,59.1-0.8c9.9-0.2,19.7-0.5,29.5-0.8c9.9-0.3,19.7-0.7,29.5-1.1c-9.8,0.9-19.7,1.5-29.5,2.1
			c-9.8,0.6-19.7,1-29.5,1.4c-19.7,0.8-39.4,1.1-59.1,1.2c-19.7,0-39.4-0.1-59.2-0.7c-9.9-0.3-19.7-0.7-29.6-1.1
			C654.8,386.6,645,386.1,635.1,385.3z"/>
		<g>
			<defs>
				<path id="SVGID_26_" d="M874.5,432.1c0,1.6-1.3,2.9-2.9,3.1c-36.9,2.4-81.4,3.8-129.3,3.8c-38.9,0-75.6-0.9-107.8-2.6
					c-1.7-0.1-2.9-1.5-2.9-3.2l0.7-45.8c0-1.7,1.4-3.1,3.1-3.1c0,0,0.1,0,0.1,0c32.1,1.6,68.7,2.5,107.6,2.5
					c47.7,0,92.1-1.4,128.8-3.8c1.7-0.1,3.2,1.2,3.3,2.9c0,0.1,0,0.2,0,0.2L874.5,432.1z"/>
			</defs>
			<clipPath id="SVGID_27_">
				<use xlink:href="#SVGID_26_"  style="overflow:visible;"/>
			</clipPath>
			<g class="st93">
				<path class="st94" d="M740.3,413.4c-0.1,3,2.3,5.4,5.3,5.5c0.1,0,0.1,0,0.2,0c35.1-0.8,74.7-2.2,116.7-4.2
					c30.4-1.4,59.6-3.1,86.7-4.8c2.8-0.2,5-2.5,5-5.4l0.2-23.4c0.1-3-2.3-5.4-5.3-5.5c-0.1,0-0.3,0-0.4,0
					c-26.9,1.7-55.8,3.4-85.9,4.8c-42.1,2-81.9,3.4-117,4.2c-2.9,0.1-5.2,2.5-5.2,5.4L740.3,413.4z"/>
			</g>
		</g>
		<path class="st64" d="M753.4,400.9c-0.1,3,2.3,5.4,5.3,5.5c0.1,0,0.1,0,0.2,0c35.1-0.8,74.7-2.2,116.7-4.2
			c30.4-1.4,59.6-3.1,86.7-4.8c2.8-0.2,5-2.5,5-5.4l0.2-23.4c0.1-3-2.3-5.4-5.3-5.5c-0.1,0-0.3,0-0.4,0c-26.9,1.7-55.8,3.4-85.9,4.8
			c-42.1,2-81.9,3.4-117,4.2c-2.9,0.1-5.2,2.5-5.2,5.4L753.4,400.9z"/>
		<path class="st74" d="M961.7,363.1c-8.4,0.7-16.9,1.3-25.3,1.9l-25.3,1.7c-8.4,0.6-16.9,1-25.4,1.6c-8.5,0.5-16.9,1-25.4,1.4
			c-16.9,0.7-33.8,1.4-50.8,1.8l-25.4,0.5c-8.5,0.1-16.9,0.2-25.4,0.2l101.5-4.5c16.9-0.6,33.8-1.7,50.7-2.4l25.4-1.1
			C944.8,363.7,953.3,363.4,961.7,363.1z"/>
		<path class="st91" d="M871.6,384.1c-34,2.2-74.5,3.5-118.1,3.7l-0.1,13c-0.1,3,2.3,5.4,5.3,5.5c0.1,0,0.1,0,0.2,0
			c34.8-0.8,74.2-2.2,115.8-4.2l0.2-14.9c0-1.7-1.3-3.1-3-3.2C871.7,384.1,871.7,384.1,871.6,384.1z"/>
		<path class="st95" d="M871.6,384.1c-9.8,1-19.6,1.8-29.5,2.4c-9.8,0.6-19.7,1-29.5,1.3c-9.8,0.3-19.7,0.5-29.5,0.5
			c-9.9,0-19.7-0.1-29.6-0.5c9.8-0.4,19.7-0.8,29.5-1.1l29.5-0.9C832.2,385.3,851.9,384.6,871.6,384.1z"/>
		<g>
			<defs>
				<path id="SVGID_28_" d="M1394.8,268.6L1406,167c-0.2,1.9-1.7,4.1-4.9,6.5c-24.5,18.8-102.7,28.2-124.6,30.5
					c-3.4,0.4-6.1,3.1-6.4,6.5l-4,92.2c-0.2,2,1.2,3.8,3.2,4.1c0.3,0,0.6,0,0.8,0c20-2.4,94.7-12.3,119.6-31.5
					C1393.1,272.8,1394.6,270.6,1394.8,268.6z"/>
			</defs>
			<clipPath id="SVGID_29_">
				<use xlink:href="#SVGID_28_"  style="overflow:visible;"/>
			</clipPath>
			<g class="st96">
				<path class="st97" d="M1435.6,175.6c2.5,17.1-36,37.2-88.9,47.7c-1.8,0.4-3.1,2-3.1,3.8l-0.6,51.2c0,2.2,1.7,4,3.8,4
					c0.3,0,0.5,0,0.8-0.1c52-10.5,89.7-30.4,87.2-47.3"/>
			</g>
		</g>
		<path class="st58" d="M1455.1,156.6c2.5,17.1-36,37.2-88.9,47.7c-1.8,0.4-3.1,2-3.1,3.8l-0.6,51.2c0,2.2,1.7,4,3.8,4
			c0.3,0,0.5,0,0.8-0.1c52-10.5,89.7-30.4,87.2-47.3"/>
		<path class="st90" d="M1380.2,134.6c5.1-0.5,10.2-0.7,15.3-0.6c5.1,0.1,10.2,0.4,15.3,0.9c5.1,0.6,10.1,1.4,15.2,2.4
			c5.1,1,10,2.4,14.8,4.3c2.4,1,4.7,2.2,6.9,3.7c2.2,1.5,4.1,3.4,5.6,5.6c1.5,2.3,2.3,5,2.2,7.8c-0.2,2.7-1,5.3-2.4,7.6
			c-2.6,4.6-6.4,8.3-10.4,11.6c-4.1,3.1-8.6,5.8-13.3,8c-9.3,4.2-19,7.8-28.9,10.5c-4.9,1.5-9.8,2.8-14.8,4c-5,1.3-9.9,2.4-15,3.4
			l-3.7,0.8c-1.7,0.4-3,1.6-3.5,3.2c-0.2,0.6-0.2,1.1-0.2,1.7l-0.1,3.8l-0.2,15.3c-0.2,10.2-0.4,20.4-0.6,30.6
			c-0.2-10.2-0.2-20.4-0.4-30.6l-0.1-15.3l0-3.8c0-0.7,0-1.4,0.2-2.1c0.6-2.1,2.3-3.8,4.5-4.3l3.7-0.8c9.9-2.3,19.8-4.7,29.6-7.6
			c9.8-2.8,19.3-6.4,28.5-10.6c4.6-2.1,8.9-4.7,12.9-7.7c3.9-3.2,7.6-6.7,10-11c1.3-2.1,2-4.4,2.2-6.8c0.1-1.2-0.1-2.4-0.4-3.5
			c-0.3-1.1-0.8-2.2-1.5-3.2c-1.4-2-3.1-3.8-5.1-5.1c-2-1.4-4.2-2.6-6.5-3.6c-4.7-2-9.5-3.5-14.5-4.5c-5-1.1-10-2-15-2.7
			C1400.6,134.6,1390.3,134.1,1380.2,134.6z"/>
		
			<ellipse transform="matrix(1 -5.578043e-03 5.578043e-03 1 -0.4582 6.4253)" class="st98" cx="1151.7" cy="85.4" rx="2.5" ry="3.1"/>
		<line class="st99" x1="1139.3" y1="88.4" x2="1145" y2="82.4"/>
		<line class="st99" x1="1139.2" y1="82.6" x2="1144.8" y2="87.9"/>
		<path class="st74" d="M1072.1,41.4l-75.6-6.9l-18.9-1.8l-9.4-0.9c-3.1-0.3-6.3-0.5-9.5-0.7c-3.2-0.2-6.3-0.5-9.5-0.7l-9.5-0.6
			c-6.3-0.4-12.6-0.6-18.9-0.9L883,27.4L845.1,26l-37.9-1.4l-19-0.6l-19-0.8l0-0.2c12.6-0.1,25.3-0.1,38,0l19,0.3
			c6.3,0.1,12.6,0.3,19,0.5c6.3,0.2,12.6,0.4,19,0.7c6.3,0.3,12.6,0.6,19,0.9c12.6,0.6,25.3,1.4,37.9,2.3
			c12.6,0.9,25.2,1.8,37.9,2.6l18.9,1.2c6.3,0.4,12.6,0.8,18.9,1.2l9.5,0.8c3.2,0.3,6.3,0.5,9.5,0.8c6.3,0.6,12.6,1.2,18.9,1.9
			c12.6,1.4,25.1,3,37.7,4.8L1072.1,41.4z"/>
		<g>
			<defs>
				<path id="SVGID_30_" d="M1338.9,97.7c0-3.1-1.8-5.9-4.1-6.3c-33-5.6-70.7-10-110.6-12.8c-31.2-2.2-61-3.1-88.2-2.9
					c-2.4,0-4.3,2.5-4.3,5.7l-0.6,59.7c0,3.4,2.1,6.3,4.7,6.3c27.2-0.1,56.7,0.8,87.7,2.9c39.7,2.8,77.1,7.2,109.9,12.7
					c2.6,0.4,4.9-2.1,4.9-5.6L1338.9,97.7z"/>
			</defs>
			<clipPath id="SVGID_31_">
				<use xlink:href="#SVGID_30_"  style="overflow:visible;"/>
			</clipPath>
			<g class="st100">
				<path class="st101" d="M1348.6,128.2c0-1.3-0.3-2.5-0.9-3.6l-9.6-18.9l-9.7-19c-0.6-1.2-1.5-2.2-2.5-3.1c-1-0.8-2.2-1.4-3.4-1.7
					l-14.1-3.1c-1.1-0.3-2.3-0.2-3.4,0.2l0,0c-1,0.4-1.9,1.1-2.5,2l-19.3,29.9c-0.6,1-0.9,2.1-0.9,3.3c0,1.3,0.3,2.5,0.9,3.7
					l4.1,8.1l2.9,5.8c0.6,1.2,1.5,2.2,2.5,3.1c1,0.8,2.2,1.4,3.4,1.6l38.7,8.1c1.1,0.2,2.3,0.2,3.4-0.2l0,0c1-0.4,1.9-1.1,2.5-2
					l1.2-1.9l5.8-8.9C1348.3,130.5,1348.7,129.3,1348.6,128.2L1348.6,128.2z"/>
			</g>
		</g>
		<path class="st102" d="M1338.5,157.6c-0.1-11.1-0.1-22.3-0.2-33.4l0-16.7l0-8.4c0-0.7,0-1.3-0.1-2c-0.1-0.6-0.2-1.2-0.5-1.8
			c-0.4-1.1-1.2-2.1-2.3-2.6c-0.3-0.1-0.5-0.2-0.8-0.2l-1-0.2l-2.1-0.3l-4.1-0.6l-8.3-1.3c-5.5-0.8-11-1.6-16.5-2.3
			c-11-1.5-22.1-2.8-33.2-3.9c-22.1-2.4-44.4-4.1-66.6-5.5c-11.1-0.7-22.2-1.2-33.4-1.6c-11.1-0.4-22.3-0.7-33.4-0.8
			c11.1-0.3,22.3-0.3,33.4-0.2c11.1,0.2,22.3,0.5,33.4,1c11.1,0.5,22.3,1.2,33.4,2.1c11.1,0.8,22.2,1.8,33.3,3
			c11.1,1.2,22.2,2.6,33.2,4.1c5.5,0.8,11,1.6,16.6,2.4l8.3,1.3l4.1,0.7l2.1,0.4l1,0.2c0.4,0.1,0.8,0.2,1.2,0.3
			c1.4,0.7,2.5,2,3.1,3.5c0.3,0.7,0.5,1.5,0.5,2.2c0,0.4,0.1,0.7,0,1.1l0,1l-0.2,8.4l-0.3,16.7
			C1339,135.3,1338.8,146.4,1338.5,157.6z"/>
		<path class="st103" d="M198.6,301.4l2.8,56.5c0.1,2.9,2.4,5.2,5.3,5.3l52.6,3.3c3.1,0.2,5.8-2.2,6-5.3c0-0.2,0-0.4,0-0.6
			l-2.2-55.9c-0.1-2.9-2.4-5.2-5.2-5.4l-53.2-3.9c-3.1-0.2-5.8,2.1-6,5.2C198.6,300.9,198.6,301.1,198.6,301.4z"/>
		<g class="st104">
			<path class="st12" d="M278.3,309.9c9.2-0.3,18.4-0.4,27.7-0.5c9.2-0.1,18.4,0,27.6,0.1c9.2,0.1,18.4,0.3,27.6,0.5
				c9.2,0.2,18.4,0.6,27.6,1.1c-9.2,0.3-18.4,0.4-27.7,0.5c-9.2,0.1-18.4,0-27.6-0.1c-9.2-0.1-18.4-0.3-27.6-0.5
				C296.7,310.8,287.5,310.4,278.3,309.9z"/>
		</g>
		<g class="st104">
			<path class="st12" d="M279.2,326.2c9.2-0.3,18.4-0.4,27.7-0.5c9.2-0.1,18.4,0,27.6,0.1c9.2,0.1,18.4,0.3,27.6,0.5
				c9.2,0.2,18.4,0.6,27.6,1.1c-9.2,0.3-18.4,0.4-27.7,0.5c-9.2,0.1-18.4,0-27.6-0.1c-9.2-0.1-18.4-0.3-27.6-0.5
				C297.6,327.1,288.4,326.7,279.2,326.2z"/>
		</g>
		<g class="st104">
			<path class="st12" d="M279.5,343.2c9.2-0.3,18.4-0.4,27.7-0.5c9.2-0.1,18.4,0,27.6,0.1c9.2,0.1,18.4,0.3,27.6,0.5
				c9.2,0.2,18.4,0.6,27.6,1.1c-9.2,0.3-18.4,0.4-27.7,0.5c-9.2,0.1-18.4,0-27.6-0.1c-9.2-0.1-18.4-0.3-27.6-0.5
				C297.9,344,288.7,343.7,279.5,343.2z"/>
		</g>
		<g class="st104">
			<path class="st12" d="M280.4,360.1c9.2-0.3,18.4-0.4,27.7-0.5c9.2-0.1,18.4,0,27.6,0.1c9.2,0.1,18.4,0.3,27.6,0.5
				c9.2,0.2,18.4,0.6,27.6,1.1c-9.2,0.3-18.4,0.4-27.7,0.5c-9.2,0.1-18.4,0-27.6-0.1c-9.2-0.1-18.4-0.3-27.6-0.5
				C298.8,361,289.6,360.6,280.4,360.1z"/>
		</g>
		<path class="st10" d="M1315.4,122.2c-27.7-5.3-55.6-9-83.7-11c-1.2-0.1-2.1-1.1-2.1-2.2v-9.7c0-1.2,1-2.2,2.3-2.2
			c0.1,0,0.1,0,0.2,0c28.3,2,56.4,5.8,84.2,11.2c1,0.2,1.8,1.1,1.8,2.2v9.6c0,1.2-1,2.2-2.2,2.2
			C1315.7,122.2,1315.5,122.2,1315.4,122.2z"/>
		<path class="st10" d="M1218,107.9c0,1.2-0.9,2.3-2.1,2.3c-0.1,0-0.1,0-0.2,0c-13.4-0.7-27.1-1.1-41.1-1.2
			c-7.5-0.1-15.5-0.2-23-0.1c-1.2,0-2.3-1-2.3-2.2c0,0,0-0.1,0-0.1l0.2-9.7c0-1.2,1-2.2,2.2-2.2c7.4-0.1,14.8-0.2,22.3-0.1
			c14.1,0.1,28,0.5,41.5,1.3c1.2,0.1,2.1,1,2.1,2.2L1218,107.9z"/>
		<g class="st105">
			<path class="st12" d="M1230.2,116.8c7.3,0.3,14.6,0.9,21.9,1.6c7.3,0.7,14.6,1.5,21.9,2.5c7.3,1,14.5,2.1,21.7,3.4
				c3.6,0.7,7.2,1.3,10.8,2.1c3.6,0.8,7.2,1.5,10.7,2.4c-3.6-0.6-7.2-1.3-10.8-1.9c-3.6-0.6-7.2-1.2-10.8-1.8
				c-7.2-1.1-14.5-2.2-21.7-3.2c-7.3-1-14.5-1.9-21.8-2.7C1244.8,118.3,1237.5,117.6,1230.2,116.8z"/>
			<path class="st12" d="M1150.5,114.5c5.7-0.2,11.3-0.4,17-0.5s11.3,0,17,0.1c5.7,0.2,11.3,0.3,17,0.7c5.7,0.3,11.3,0.7,16.9,1.2
				l-17-0.5c-5.7-0.2-11.3-0.3-17-0.4c-5.7-0.2-11.3-0.2-17-0.3l-8.5-0.1C1156.1,114.6,1153.3,114.6,1150.5,114.5z"/>
			<path class="st12" d="M1230.2,124.1c7.3,0.3,14.6,0.9,21.9,1.6c7.3,0.7,14.6,1.5,21.9,2.5c7.3,1,14.5,2.1,21.7,3.4
				c3.6,0.7,7.2,1.3,10.8,2.1c3.6,0.8,7.2,1.5,10.7,2.4c-3.6-0.6-7.2-1.3-10.8-1.9c-3.6-0.6-7.2-1.2-10.8-1.8
				c-7.2-1.1-14.5-2.2-21.7-3.2c-7.3-1-14.5-1.9-21.8-2.7C1244.8,125.6,1237.5,124.8,1230.2,124.1z"/>
			<path class="st12" d="M1150.5,121.7c5.7-0.2,11.3-0.4,17-0.5s11.3,0,17,0.1c5.7,0.2,11.3,0.3,17,0.7c5.7,0.3,11.3,0.7,16.9,1.2
				l-17-0.5c-5.7-0.2-11.3-0.3-17-0.4c-5.7-0.2-11.3-0.2-17-0.3l-8.5-0.1C1156.1,121.8,1153.3,121.8,1150.5,121.7z"/>
			<path class="st12" d="M1230.2,131.6c7.3,0.3,14.6,0.9,21.9,1.6c7.3,0.7,14.6,1.5,21.9,2.5c7.3,1,14.5,2.1,21.7,3.4
				c3.6,0.7,7.2,1.3,10.8,2.1c3.6,0.8,7.2,1.5,10.7,2.4c-3.6-0.6-7.2-1.3-10.8-1.9c-3.6-0.6-7.2-1.2-10.8-1.8
				c-7.2-1.1-14.5-2.2-21.7-3.2c-7.3-1-14.5-1.9-21.8-2.7C1244.8,133.1,1237.5,132.4,1230.2,131.6z"/>
			<path class="st12" d="M1150.5,129.3c5.7-0.2,11.3-0.4,17-0.5s11.3,0,17,0.1c5.7,0.2,11.3,0.3,17,0.7c5.7,0.3,11.3,0.7,16.9,1.2
				l-17-0.5c-5.7-0.2-11.3-0.3-17-0.4c-5.7-0.2-11.3-0.2-17-0.3l-8.5-0.1C1156.1,129.4,1153.3,129.4,1150.5,129.3z"/>
			<path class="st12" d="M1230.2,139.2c7.3,0.3,14.6,0.9,21.9,1.6c7.3,0.7,14.6,1.5,21.9,2.5c7.3,1,14.5,2.1,21.7,3.4
				c3.6,0.7,7.2,1.3,10.8,2.1c3.6,0.8,7.2,1.5,10.7,2.4c-3.6-0.6-7.2-1.3-10.8-1.9c-3.6-0.6-7.2-1.2-10.8-1.8
				c-7.2-1.1-14.5-2.2-21.7-3.2c-7.3-1-14.5-1.9-21.8-2.7C1244.8,140.7,1237.5,139.9,1230.2,139.2z"/>
			<path class="st12" d="M1150.5,136.9c5.7-0.2,11.3-0.4,17-0.5s11.3,0,17,0.1c5.7,0.2,11.3,0.3,17,0.7c5.7,0.3,11.3,0.7,16.9,1.2
				l-17-0.5c-5.7-0.2-11.3-0.3-17-0.4c-5.7-0.2-11.3-0.2-17-0.3l-8.5-0.1C1156.1,137,1153.3,136.9,1150.5,136.9z"/>
		</g>
		<rect x="-2.3" y="-3.3" class="st106" width="1444.9" height="491.4"/>
		<path class="st107" d="M1053.1,347.9c-5.3,0.6-10.7,1.3-16,2.1c-5.3,0.8-10.6,1.7-15.9,2.7c-5.3,1-10.5,2.3-15.6,3.9
			c-2.5,0.8-5,1.8-7.4,3c-1.2,0.6-2.3,1.4-3.2,2.3c-1,0.8-1.5,2.1-1.3,3.3l-0.3-0.2h0.3l0,0.2c0.3,1,0.8,1.8,1.5,2.5
			c0.8,0.7,1.6,1.3,2.5,1.9c1.8,1.1,3.7,2,5.6,2.9c3.9,1.6,7.9,2.9,12,4c8.2,2.1,16.5,3.7,24.9,4.8c8.4,1.1,16.8,2,25.2,2.6
			c8.4,0.6,16.9,1.1,25.3,1.3c-8.5-0.1-16.9-0.4-25.4-0.9c-8.4-0.6-16.9-1.3-25.3-2.4c-8.4-1-16.8-2.6-25-4.6c-4.1-1-8.2-2.4-12.1-4
			c-2-0.8-3.9-1.8-5.7-2.9c-0.9-0.6-1.8-1.2-2.6-2c-0.8-0.8-1.4-1.7-1.7-2.8l0.3,0.2h-0.3l0-0.2c-0.1-0.7,0-1.5,0.3-2.1
			c0.3-0.6,0.7-1.2,1.2-1.7c1-0.9,2.1-1.7,3.4-2.3c2.4-1.2,4.9-2.2,7.5-3c5.1-1.6,10.4-2.8,15.7-3.8c5.3-1,10.6-1.9,15.9-2.6
			C1042.5,349,1047.8,348.4,1053.1,347.9z"/>
		
			<ellipse transform="matrix(0.9868 -0.1622 0.1622 0.9868 -37.6483 170.2998)" class="st73" cx="1024.1" cy="315.7" rx="13.8" ry="18.1"/>
		
			<ellipse transform="matrix(0.9856 -0.169 0.169 0.9856 -40.1326 173.3682)" class="st73" cx="998.6" cy="322.5" rx="8.7" ry="18.1"/>
		<g class="st108">
			<path class="st109" d="M993.2,365l-15.8-76.5c-1.9-10.5,50.4-16.4,60.3-17.4c0.9-0.1,1.8,0.5,1.9,1.4l11.5,72.4
				c0.3,1.3-0.5,2.5-1.8,2.8c-0.1,0-0.1,0-0.2,0C1037.2,349.1,991.5,354.9,993.2,365z"/>
			<path class="st110" d="M992.4,364.7l-15.8-76.5c0.3,1.4,1.6,3,4.2,4.6c20,12.5,80,13.9,96.9,14c2.6,0,4.8,1.9,5.3,4.5l9.6,69.8
				c0.3,1.5-0.6,3-2.2,3.3c-0.2,0-0.4,0.1-0.6,0.1c-15.4-0.3-72.8-2.4-93.2-15.1C994,367.8,992.7,366.2,992.4,364.7z"/>
		</g>
		<g class="st111">
			<path class="st73" d="M1023.8,285c-0.5,0-1-0.2-1.4-0.5c-0.8-0.6-1.3-1.5-1.5-2.5l0,0c-0.3-1.9,0.6-3.6,2.1-3.8
				c0.6-0.1,1.3,0,1.8,0.4c0.8,0.6,1.3,1.5,1.5,2.5c0.3,1.9-0.6,3.6-2.1,3.8C1024,285,1023.9,285,1023.8,285z M1021.6,281.9
				c0.1,0.8,0.5,1.5,1.2,2c0.4,0.3,0.8,0.4,1.2,0.3c1.1-0.2,1.7-1.5,1.5-3c-0.1-0.8-0.5-1.5-1.2-2c-0.4-0.3-0.8-0.4-1.2-0.3
				C1022,279.1,1021.4,280.4,1021.6,281.9z"/>
			<path class="st73" d="M1035.5,283.3c-0.1,0-0.1,0-0.2-0.1l-6.2-4.7c-0.2-0.1-0.2-0.3-0.1-0.5c0.1-0.2,0.3-0.2,0.5-0.1l6.2,4.7
				c0.2,0.1,0.2,0.3,0.1,0.5C1035.7,283.2,1035.6,283.3,1035.5,283.3L1035.5,283.3z"/>
			<path class="st73" d="M1030.5,283.8c-0.1,0-0.1,0-0.2-0.1c-0.2-0.1-0.2-0.3-0.1-0.5c0,0,0,0,0,0l3.8-5.7c0.1-0.2,0.3-0.2,0.5-0.1
				c0.2,0.1,0.2,0.3,0.1,0.5l-3.8,5.7C1030.7,283.8,1030.6,283.8,1030.5,283.8z"/>
		</g>
		<path class="st112" d="M1038,271.4c-5.4,0.7-10.7,1.5-16.1,2.3c-5.3,0.9-10.7,1.8-16,2.9c-5.3,1.1-10.5,2.4-15.6,4
			c-2.5,0.8-5,1.8-7.4,3c-1.1,0.6-2.2,1.3-3.1,2.2c-0.8,0.7-1.3,1.7-1.2,2.8l-0.9-0.8h0.8l0.1,0.8c0.2,0.9,0.7,1.6,1.4,2.2
			c0.8,0.7,1.6,1.3,2.5,1.8c1.8,1.1,3.8,2,5.7,2.8c1,0.4,2,0.7,3,1.1c1,0.3,2,0.7,3.1,1c2.1,0.6,4.2,1.2,6.3,1.7
			c8.5,2,17,3.4,25.7,4.3c8.6,1,17.3,1.8,26,2.4c4.3,0.3,8.7,0.6,13.1,0.8s8.7,0.4,13.1,0.6c-4.4,0.1-8.7,0.1-13.1,0
			s-8.7-0.1-13.1-0.3c-8.7-0.4-17.4-0.9-26.1-1.8c-8.7-0.9-17.4-2.3-25.9-4.2c-4.3-0.9-8.5-2.2-12.6-3.9c-2.1-0.8-4.1-1.8-6-3
			c-1-0.6-1.9-1.3-2.8-2.1c-1-0.9-1.7-2-2-3.2l0.9,0.8h-0.8l-0.1-0.8c-0.1-0.9,0-1.7,0.4-2.5c0.4-0.7,0.8-1.3,1.4-1.9
			c1.1-1,2.3-1.8,3.5-2.4c2.5-1.2,5-2.3,7.7-3c5.2-1.5,10.5-2.8,15.9-3.7c5.3-1,10.7-1.8,16.1-2.4
			C1027.2,272.3,1032.6,271.7,1038,271.4z"/>
		<g class="st113">
			<path class="st73" d="M989.9,310.5c5.5,1.7,11,3,16.6,4c5.6,1,11.3,1.9,16.9,2.6c5.7,0.8,11.3,1.4,17,2
				c5.7,0.6,11.4,1.2,17.1,1.9c-5.7,0.1-11.5,0-17.2-0.3c-5.7-0.3-11.5-0.9-17.2-1.6c-5.7-0.7-11.4-1.7-17-3
				C1000.6,314.8,995.1,312.9,989.9,310.5z"/>
			<path class="st73" d="M992,323.3l2.5,0.8c0.8,0.3,1.6,0.6,2.5,0.7c1.7,0.4,3.3,0.9,5,1.2c3.4,0.8,6.8,1.4,10.2,2
				c6.8,1.1,13.7,2,20.6,2.7c6.9,0.7,13.8,1.3,20.7,1.9l20.8,1.7c-7,0.2-13.9,0.2-20.9-0.1c-7-0.3-13.9-0.8-20.8-1.5
				c-6.9-0.8-13.8-1.7-20.7-3.2C1005,328.2,998.3,326.1,992,323.3z"/>
			<path class="st73" d="M994,336c5.5,1.7,11,3,16.6,4c5.6,1,11.3,1.9,16.9,2.6c5.7,0.8,11.3,1.4,17,2c5.7,0.6,11.4,1.2,17.1,1.9
				c-5.7,0.1-11.5,0-17.2-0.3c-5.7-0.3-11.5-0.9-17.2-1.6c-5.7-0.7-11.4-1.7-17-3C1004.7,340.3,999.2,338.5,994,336z"/>
			<path class="st73" d="M996.1,348.8c6,1.9,12,3.3,18.2,4.3c6.1,1.1,12.3,1.9,18.5,2.7c6.2,0.8,12.4,1.4,18.6,2l18.7,1.8
				c-6.3,0.1-12.5,0.1-18.8-0.2c-6.3-0.3-12.5-0.8-18.8-1.5c-6.2-0.7-12.5-1.8-18.6-3.1C1007.8,353.4,1001.8,351.4,996.1,348.8z"/>
			<path class="st73" d="M998.2,361.6c5.6,1.8,11.3,3.1,17.1,4.1c5.8,1,11.6,1.9,17.4,2.6c5.8,0.8,11.7,1.4,17.5,2
				c5.9,0.6,11.7,1.2,17.6,1.9c-5.9,0.1-11.8,0-17.7-0.3c-5.9-0.3-11.8-0.8-17.7-1.6c-5.9-0.7-11.7-1.8-17.5-3.1
				C1009.2,365.9,1003.5,364.1,998.2,361.6z"/>
		</g>
		<g>
			<defs>
				<path id="SVGID_32_" d="M353.5,33c0-1.9,1.4-3.4,3.3-3.6c26.1-2,55.7-3.1,87.2-3.1c24.6,0,48,0.7,69.5,1.9
					c1.9,0.1,3.4,1.7,3.3,3.6v36.1c0,2-1.6,3.6-3.5,3.6c-0.1,0-0.1,0-0.2,0c-21.4-1.2-44.7-1.9-69.1-1.9c-31.3,0-60.8,1.1-86.7,3.1
					c-2,0.1-3.7-1.4-3.8-3.3c0-0.1,0-0.2,0-0.3V33z"/>
			</defs>
			<clipPath id="SVGID_33_">
				<use xlink:href="#SVGID_32_"  style="overflow:visible;"/>
			</clipPath>
			<g class="st114">
				<path class="st94" d="M544.5,32.5h-55c-4.6-0.5-8.7,2.7-9.4,7.3l-0.8,6.5l-4.6,35.1c-0.4,2.3,1.1,4.4,3.4,4.8
					c0.3,0,0.5,0.1,0.8,0.1h11.3l0,0h38.8l0,0h11.3c2.8-0.1,5.1-2.1,5.6-4.9l5-35.1l0.9-6.5C552.6,35,548.8,31.9,544.5,32.5z"/>
			</g>
		</g>
	</g>
</g>
</svg>
