<?xml version="1.0" encoding="utf-8"?>
<!-- Generator: Adobe Illustrator 23.0.0, SVG Export Plug-In . SVG Version: 6.00 Build 0)  -->
<svg version="1.1" id="Layer_1" xmlns="http://www.w3.org/2000/svg" xmlns:xlink="http://www.w3.org/1999/xlink" x="0px" y="0px"
	 viewBox="0 0 200 54" style="enable-background:new 0 0 200 54;" xml:space="preserve">
<style type="text/css">
	.st0{fill:#FFFFFF;}
	.st1{font-family:'GalanoGrotesque-Medium';}
	.st2{font-size:57.7471px;}
</style>
<text transform="matrix(1 0 0 1 81.5078 44.9102)" class="st0 st1 st2">+</text>
<g>
	<g>
		<polyline class="st0" points="147.7,7.8 128.9,7.8 128.9,46.2 166.7,46.2 166.7,27 157.1,27 157.1,36.7 138.3,36.7 138.3,17.5 
			147.8,17.5 147.8,7.8 		"/>
		<rect x="147.8" y="17.2" class="st0" width="9.3" height="9.8"/>
		<rect x="164.6" y="16.5" class="st0" width="7.7" height="7.7"/>
		<rect x="152.9" y="4.6" class="st0" width="9.6" height="9.7"/>
		<rect x="166.7" y="3.8" class="st0" width="8.3" height="7.5"/>
	</g>
	<g>
		<polygon class="st0" points="138.3,36.2 138.3,17.5 147.8,17.5 147.8,7.8 128.9,7.8 128.9,45.7 		"/>
		<polygon class="st0" points="157.1,17.4 157.1,17.2 147.8,17.2 147.8,26.7 		"/>
		<rect x="164.6" y="16.5" class="st0" width="7.7" height="7.7"/>
		<polyline class="st0" points="162.5,12 162.5,4.6 152.9,4.6 152.9,14.3 160.2,14.3 		"/>
		<polygon class="st0" points="170.8,3.8 166.7,3.8 166.7,7.8 		"/>
	</g>
</g>
<g>
	<path class="st0" d="M59,27.8l-0.6,6.5L56.6,33l0.2-3.3v-0.1v-0.1l-0.1-0.1l-0.1-0.1l-4-2.7l0.1-2.9L59,27.8L59,27.8z M49.1,34.9
		l-2.9-2.2v0.5c0,0.1-0.1,0.2-0.1,0.3L44,34.9l2.4,1.9l0.1,0.1V37l0.1,2.3l2.7,2.2L49.1,34.9L49.1,34.9z M30.9,37.7l1.4,6.5l5.6,6
		l-1-6.6L30.9,37.7L30.9,37.7z M36.2,38.7l-1.4-9.1L28,23.9l1.8,8.8L36.2,38.7z M34,23.9L32.2,11l-7.8-4.9l2.6,12.2L34,23.9z"/>
	<path class="st0" d="M64.5,24.3l-0.9,6.2L59,34.2l0.6-6.3L64.5,24.3L64.5,24.3z M49.7,34.9l0.1,6.7l6-4.8l0.4-6.5L49.7,34.9z
		 M45.9,37.6l-8.4,6l1,6.9l7.6-6.1L45.9,37.6L45.9,37.6z M45.7,33.1L45.3,24l-9.8,5.6l1.4,9.4L45.7,33.1z M45,18.7L44.5,6.5L32.7,11
		l1.9,13.2L45,18.7L45,18.7z"/>
	<path d="M65.2,23.6C65.2,23.5,65.2,23.5,65.2,23.6v-0.1c0,0,0-0.1-0.1-0.1c0,0-0.1,0-0.1-0.1l-6.8-3.8c-0.1-0.1-0.2-0.1-0.3,0
		l-5.8,3.5h-0.1v0.3l-0.1,3.1L49.8,25c-0.1-0.1-0.2-0.1-0.3,0L46,26.9l-0.2-3.4v-0.1v-0.1v-0.1v-0.1v-0.1h-0.1l-3.5-2.3l3.3-1.7
		c0.1-0.1,0.2-0.2,0.2-0.3L45.1,6V6c0,0,0-0.1-0.1-0.1c0,0,0-0.1-0.1-0.1l-8.9-4.3C36,1.5,36,1.5,35.9,1.5L23.8,5.2
		c0,0-0.1,0-0.1,0.1c0,0-0.1,0-0.1,0.1v0.3l2.7,13c0,0.1,0.1,0.1,0.1,0.2l3.6,2.8l-2.7,1.2c0,0-0.1,0-0.1,0.1c0,0,0,0.1-0.1,0.1v0.1
		l2,9.8c0,0.1,0.1,0.1,0.1,0.2l2.6,2.4l-1.7,1l-0.1,0.1c0,0,0,0.1-0.1,0.1v0.2l1.6,7.5c0,0.1,0.1,0.1,0.1,0.2l6.2,6.8h0.1
		c0,0,0.1,0,0.1,0.1h0.3l8.2-6.5c0.1-0.1,0.1-0.2,0.1-0.2l-0.2-4.5l2.7,2.3c0,0,0.1,0,0.1,0.1h0.3l6.6-5.2c0.1-0.1,0.1-0.1,0.1-0.2
		l0.2-3.3l2,1.4h0.2c0,0,0.1,0,0.1-0.1l5.3-4.3c0.1-0.1,0.1-0.1,0.1-0.2L65.2,23.6C65.2,23.7,65.2,23.7,65.2,23.6z M59,34.2l0.6-6.3
		l5-3.6l-0.9,6.2L59,34.2L59,34.2z M56.6,33l0.2-3.3v-0.1v-0.1l-0.1-0.1l-0.1-0.1l-4-2.7l0.1-2.9l6.3,3.9l-0.6,6.5L56.6,33L56.6,33z
		 M55.7,36.8l-6,4.8l-0.1-6.7l6.4-4.6L55.7,36.8z M46.2,44.5l-7.7,6.1l-1-6.9l8.3-6L46.2,44.5z M32.2,44.2l-1.4-6.5l6.1,5.9l1,6.6
		L32.2,44.2L32.2,44.2z M32.1,11L34,23.9l-7.1-5.6L24.3,6.1L32.1,11L32.1,11z M44.5,6.5L45,18.7l-10.4,5.4L32.7,11L44.5,6.5
		L44.5,6.5z M45.7,33.1L36.8,39l-1.4-9.4l9.8-5.6L45.7,33.1L45.7,33.1z M34.8,29.6l1.4,9.1l-6.3-6L28,23.9L34.8,29.6z M46.5,37
		L46.5,37v-0.1l-0.1-0.1L44,34.9l2.2-1.5c0.1-0.1,0.1-0.2,0.1-0.3v-0.5l2.9,2.2l0.1,6.7l-2.7-2.2L46.5,37L46.5,37z"/>
</g>
</svg>
