<?xml version="1.0" encoding="utf-8"?>
<!-- Generator: Adobe Illustrator 23.0.0, SVG Export Plug-In . SVG Version: 6.00 Build 0)  -->
<svg version="1.1" id="Layer_1" xmlns="http://www.w3.org/2000/svg" xmlns:xlink="http://www.w3.org/1999/xlink" x="0px" y="0px"
	 viewBox="0 0 40 40" style="enable-background:new 0 0 40 40;" xml:space="preserve">
<style type="text/css">
	.st0{fill:#FFFFFF;}
</style>
<g>
	<path class="st0" d="M30.4,21l-0.4,4.8l-1.4-1l0.2-2.4v0v0l0,0l0,0l-3-2l0-2.1L30.4,21L30.4,21z M23.1,26.3l-2.1-1.6V25
		c0,0.1,0,0.2-0.1,0.2l-1.6,1.1l1.8,1.4l0,0v0.1l0.1,1.7l2,1.6L23.1,26.3L23.1,26.3z M9.6,28.4l1,4.8l4.2,4.4L14,32.8L9.6,28.4
		L9.6,28.4z M13.5,29.1l-1-6.8l-5-4.2l1.3,6.6L13.5,29.1z M11.9,18.2l-1.4-9.6L4.7,5l1.9,9L11.9,18.2z"/>
	<path class="st0" d="M34.5,18.4L33.9,23l-3.4,2.8l0.4-4.7L34.5,18.4L34.5,18.4z M23.5,26.3l0,5l4.4-3.5l0.3-4.8L23.5,26.3z
		 M20.7,28.3l-6.2,4.5l0.8,5.1l5.6-4.5L20.7,28.3L20.7,28.3z M20.5,24.9l-0.3-6.7l-7.3,4.2l1,7L20.5,24.9z M20,14.3l-0.4-9.1
		l-8.7,3.4l1.4,9.8L20,14.3L20,14.3z"/>
	<path d="M35,17.9C35,17.9,35,17.9,35,17.9L35,17.9c0-0.1,0-0.1,0-0.1c0,0,0,0,0,0l-5-2.8c-0.1,0-0.2,0-0.2,0l-4.3,2.6h0v0.3l0,2.3
		l-1.7-1.1c-0.1,0-0.2,0-0.3,0l-2.6,1.4l-0.1-2.5v0v0v0v0v0h0L18,15.9l2.4-1.3c0.1,0,0.1-0.1,0.1-0.2l-0.5-9.5v0c0,0,0,0,0,0
		c0,0,0,0,0,0l-6.6-3.2c0,0-0.1,0-0.1,0l-9,2.8c0,0,0,0,0,0c0,0,0,0,0,0v0.3l2,9.6c0,0,0,0.1,0.1,0.1L9,16.5l-2,0.9c0,0,0,0,0,0
		c0,0,0,0,0,0v0.1l1.5,7.2c0,0,0,0.1,0.1,0.1l1.9,1.8l-1.3,0.8l0,0c0,0,0,0,0,0v0.1l1.2,5.6c0,0,0,0.1,0,0.1l4.6,5h0c0,0,0,0,0,0
		h0.2l6.1-4.8c0,0,0.1-0.1,0.1-0.2l-0.1-3.3l2,1.7c0,0,0,0,0,0h0.2l4.9-3.9c0,0,0.1-0.1,0.1-0.2l0.2-2.4l1.5,1h0.2c0,0,0,0,0,0
		l4-3.2c0,0,0.1-0.1,0.1-0.1L35,17.9C35,18,35,18,35,17.9z M30.4,25.8l0.4-4.7l3.7-2.6L33.9,23L30.4,25.8L30.4,25.8z M28.6,24.9
		l0.2-2.4v0v0l0,0l0,0l-3-2l0-2.1l4.7,2.9l-0.4,4.8L28.6,24.9L28.6,24.9z M27.9,27.7l-4.4,3.5l0-5l4.7-3.4L27.9,27.7z M20.9,33.4
		l-5.7,4.5l-0.8-5.1l6.2-4.4L20.9,33.4z M10.5,33.2l-1-4.8l4.5,4.4l0.7,4.9L10.5,33.2L10.5,33.2z M10.4,8.6l1.4,9.6L6.6,14L4.7,5
		L10.4,8.6L10.4,8.6z M19.7,5.2l0.4,9.1l-7.7,4l-1.4-9.8L19.7,5.2L19.7,5.2z M20.5,24.9l-6.6,4.4l-1-7l7.3-4.2L20.5,24.9L20.5,24.9z
		 M12.5,22.4l1,6.8l-4.7-4.5l-1.3-6.6L12.5,22.4z M21.1,27.9L21.1,27.9L21.1,27.9l0-0.1l-1.8-1.4l1.6-1.1c0.1,0,0.1-0.1,0.1-0.2
		v-0.4l2.1,1.6l0,5l-2-1.6L21.1,27.9L21.1,27.9z"/>
</g>
</svg>
