<?xml version="1.0" encoding="utf-8"?>
<!-- Generator: Adobe Illustrator 23.0.0, SVG Export Plug-In . SVG Version: 6.00 Build 0)  -->
<svg version="1.1" id="Layer_1" xmlns="http://www.w3.org/2000/svg" xmlns:xlink="http://www.w3.org/1999/xlink" x="0px" y="0px"
	 viewBox="0 0 200 54" style="enable-background:new 0 0 200 54;" xml:space="preserve">
<style type="text/css">
	.st0{fill:#FFFFFF;}
	.st1{font-family:'GalanoGrotesque-Medium';}
	.st2{font-size:57.7471px;}
	.st3{opacity:0.68;fill:#FFFFFF;}
	.st4{opacity:0.47;fill:#FFFFFF;}
</style>
<text transform="matrix(1 0 0 1 81.5078 44.9102)" class="st0 st1 st2">+</text>
<g>
	<g>
		<polyline class="st0" points="147.7,7.8 128.9,7.8 128.9,46.2 166.7,46.2 166.7,27 157.1,27 157.1,36.7 138.3,36.7 138.3,17.5 
			147.8,17.5 147.8,7.8 		"/>
		<rect x="147.8" y="17.2" class="st0" width="9.3" height="9.8"/>
		<rect x="164.6" y="16.5" class="st0" width="7.7" height="7.7"/>
		<rect x="152.9" y="4.6" class="st0" width="9.6" height="9.7"/>
		<rect x="166.7" y="3.8" class="st0" width="8.3" height="7.5"/>
	</g>
	<g>
		<polygon class="st0" points="138.3,36.2 138.3,17.5 147.8,17.5 147.8,7.8 128.9,7.8 128.9,45.7 		"/>
		<polygon class="st0" points="157.1,17.4 157.1,17.2 147.8,17.2 147.8,26.7 		"/>
		<rect x="164.6" y="16.5" class="st0" width="7.7" height="7.7"/>
		<polyline class="st0" points="162.5,12 162.5,4.6 152.9,4.6 152.9,14.3 160.2,14.3 		"/>
		<polygon class="st0" points="170.8,3.8 166.7,3.8 166.7,7.8 		"/>
	</g>
</g>
<g>
	<path class="st0" d="M30.3,14.1h15.8c0,0,1,0.3,1.1,0.9c0.2,0.7,13.2,20.9,13.2,20.9s0.5,1.3,0,2l-8.1,12.8c0,0-1.4,0.6-3,0
		L28.3,18C28.3,18,27.4,15.1,30.3,14.1z"/>
	<path class="st3" d="M26.3,7.7H42c0,0,1,0.3,1.1,0.9c0.2,0.7,13.2,20.9,13.2,20.9s0.5,1.3,0,2l-8.1,12.8c0,0-1.4,0.6-3,0l-21-32.8
		C24.3,11.5,23.3,8.7,26.3,7.7z"/>
	<path class="st4" d="M23.4,2.9h15.8c0,0,1,0.3,1.1,0.9c0.2,0.7,13.2,20.9,13.2,20.9s0.5,1.3,0,2l-8.1,12.8c0,0-1.4,0.6-3,0
		l-21-32.8C21.4,6.8,20.4,4,23.4,2.9z"/>
	<path class="st0" d="M55.3,2.9h15.6c0,0,0.8,0.2,1.3,1l4.3,7c0,0,0.3,0.9-0.2,2L68,25.4c0,0-1.3,0.6-2.6,0L53.2,6.8
		C53.2,6.8,52.3,3.8,55.3,2.9z"/>
</g>
</svg>
