<?xml version="1.0" encoding="utf-8"?>
<!-- Generator: Adobe Illustrator 23.0.0, SVG Export Plug-In . SVG Version: 6.00 Build 0)  -->
<svg version="1.1" id="Layer_1" xmlns="http://www.w3.org/2000/svg" xmlns:xlink="http://www.w3.org/1999/xlink" x="0px" y="0px"
	 viewBox="0 0 40 40" style="enable-background:new 0 0 40 40;" xml:space="preserve">
<style type="text/css">
	.st0{fill:#FFFFFF;}
	.st1{opacity:0.68;fill:#FFFFFF;}
	.st2{opacity:0.47;fill:#FFFFFF;}
</style>
<g>
	<path class="st0" d="M7.2,11.3H18c0,0,0.7,0.2,0.8,0.6s9.1,14.3,9.1,14.3s0.3,0.9,0,1.4l-5.6,8.8c0,0-1,0.4-2.1,0L5.8,14
		C5.8,14,5.2,12,7.2,11.3z"/>
	<path class="st1" d="M4.4,6.9h10.8c0,0,0.7,0.2,0.8,0.6c0.1,0.5,9.1,14.3,9.1,14.3s0.3,0.9,0,1.4l-5.6,8.8c0,0-1,0.4-2.1,0L3.1,9.5
		C3.1,9.5,2.4,7.6,4.4,6.9z"/>
	<path class="st2" d="M2.4,3.6h10.8c0,0,0.7,0.2,0.8,0.6c0.1,0.5,9.1,14.3,9.1,14.3s0.3,0.9,0,1.4l-5.6,8.8c0,0-1,0.4-2.1,0L1.1,6.3
		C1.1,6.3,0.4,4.3,2.4,3.6z"/>
	<path class="st0" d="M24.4,3.6h10.7c0,0,0.6,0.1,0.9,0.7l3,4.8c0,0,0.2,0.6-0.2,1.3l-5.7,8.6c0,0-0.9,0.4-1.8,0L23,6.3
		C23,6.3,22.3,4.2,24.4,3.6z"/>
</g>
</svg>
