<svg width="41" height="39" viewBox="0 0 41 39" fill="none" xmlns="http://www.w3.org/2000/svg">
<path d="M40.0015 19.1667C39.9975 18.0431 39.7397 16.9348 39.2473 15.9247C38.755 14.9146 38.0408 14.0288 37.1581 13.3334C38.3793 12.3708 39.2695 11.051 39.7046 9.55813C40.1397 8.06529 40.098 6.47387 39.5853 5.00588C39.0726 3.53788 38.1145 2.26652 36.8446 1.36915C35.5747 0.471788 34.0564 -0.00682823 32.5015 7.36084e-05H7.50148C5.94655 -0.00682823 4.42823 0.471788 3.15834 1.36915C1.88846 2.26652 0.930336 3.53788 0.417638 5.00588C-0.0950605 6.47387 -0.136764 8.06529 0.298344 9.55813C0.733452 11.051 1.62367 12.3708 2.84482 13.3334C1.95906 14.026 1.24266 14.9113 0.749961 15.922C0.257263 16.9327 0.00120265 18.0423 0.00120265 19.1667C0.00120265 20.2911 0.257263 21.4008 0.749961 22.4115C1.24266 23.4222 1.95906 24.3075 2.84482 25.0001C1.62367 25.9627 0.733452 27.2825 0.298344 28.7753C-0.136764 30.2682 -0.0950605 31.8596 0.417638 33.3276C0.930336 34.7956 1.88846 36.067 3.15834 36.9643C4.42823 37.8617 5.94655 38.3403 7.50148 38.3334H32.5015C34.0564 38.3403 35.5747 37.8617 36.8446 36.9643C38.1145 36.067 39.0726 34.7956 39.5853 33.3276C40.098 31.8596 40.1397 30.2682 39.7046 28.7753C39.2695 27.2825 38.3793 25.9627 37.1581 25.0001C38.0408 24.3047 38.755 23.4189 39.2473 22.4088C39.7397 21.3987 39.9975 20.2904 40.0015 19.1667ZM3.33482 7.50007C3.33482 6.395 3.7738 5.3352 4.5552 4.55379C5.33661 3.77239 6.39641 3.33341 7.50148 3.33341H8.33482V5.00007C8.33482 5.4421 8.51041 5.86602 8.82297 6.17858C9.13553 6.49114 9.55946 6.66674 10.0015 6.66674C10.4435 6.66674 10.8674 6.49114 11.18 6.17858C11.4926 5.86602 11.6681 5.4421 11.6681 5.00007V3.33341H15.0015V5.00007C15.0015 5.4421 15.1771 5.86602 15.4896 6.17858C15.8022 6.49114 16.2261 6.66674 16.6681 6.66674C17.1102 6.66674 17.5341 6.49114 17.8467 6.17858C18.1592 5.86602 18.3348 5.4421 18.3348 5.00007V3.33341H32.5015C33.6065 3.33341 34.6664 3.77239 35.4478 4.55379C36.2292 5.3352 36.6681 6.395 36.6681 7.50007C36.6681 8.60514 36.2292 9.66495 35.4478 10.4464C34.6664 11.2278 33.6065 11.6667 32.5015 11.6667H7.50148C6.39641 11.6667 5.33661 11.2278 4.5552 10.4464C3.7738 9.66495 3.33482 8.60514 3.33482 7.50007V7.50007ZM36.6681 30.8334C36.6681 31.9385 36.2292 32.9983 35.4478 33.7797C34.6664 34.5611 33.6065 35.0001 32.5015 35.0001H7.50148C6.39641 35.0001 5.33661 34.5611 4.5552 33.7797C3.7738 32.9983 3.33482 31.9385 3.33482 30.8334C3.33482 29.7283 3.7738 28.6685 4.5552 27.8871C5.33661 27.1057 6.39641 26.6667 7.50148 26.6667H8.33482V28.3334C8.33482 28.7754 8.51041 29.1994 8.82297 29.5119C9.13553 29.8245 9.55946 30.0001 10.0015 30.0001C10.4435 30.0001 10.8674 29.8245 11.18 29.5119C11.4926 29.1994 11.6681 28.7754 11.6681 28.3334V26.6667H15.0015V28.3334C15.0015 28.7754 15.1771 29.1994 15.4896 29.5119C15.8022 29.8245 16.2261 30.0001 16.6681 30.0001C17.1102 30.0001 17.5341 29.8245 17.8467 29.5119C18.1592 29.1994 18.3348 28.7754 18.3348 28.3334V26.6667H32.5015C33.6065 26.6667 34.6664 27.1057 35.4478 27.8871C36.2292 28.6685 36.6681 29.7283 36.6681 30.8334ZM7.50148 23.3334C6.39641 23.3334 5.33661 22.8944 4.5552 22.113C3.7738 21.3316 3.33482 20.2718 3.33482 19.1667C3.33482 18.0617 3.7738 17.0019 4.5552 16.2205C5.33661 15.4391 6.39641 15.0001 7.50148 15.0001H8.33482V16.6667C8.33482 17.1088 8.51041 17.5327 8.82297 17.8452C9.13553 18.1578 9.55946 18.3334 10.0015 18.3334C10.4435 18.3334 10.8674 18.1578 11.18 17.8452C11.4926 17.5327 11.6681 17.1088 11.6681 16.6667V15.0001H15.0015V16.6667C15.0015 17.1088 15.1771 17.5327 15.4896 17.8452C15.8022 18.1578 16.2261 18.3334 16.6681 18.3334C17.1102 18.3334 17.5341 18.1578 17.8467 17.8452C18.1592 17.5327 18.3348 17.1088 18.3348 16.6667V15.0001H32.5015C33.6065 15.0001 34.6664 15.4391 35.4478 16.2205C36.2292 17.0019 36.6681 18.0617 36.6681 19.1667C36.6681 20.2718 36.2292 21.3316 35.4478 22.113C34.6664 22.8944 33.6065 23.3334 32.5015 23.3334H7.50148Z" fill="#3B82F6"/>
</svg>
