<svg width="40" height="40" viewBox="0 0 40 40" fill="none" xmlns="http://www.w3.org/2000/svg">
<path d="M0 19.9421C0 19.5 0.175595 19.0761 0.488155 18.7636C0.800716 18.451 1.22464 18.2754 1.66667 18.2754H11.6667C12.1087 18.2754 12.5326 18.451 12.8452 18.7636C13.1577 19.0761 13.3333 19.5 13.3333 19.9421C13.3333 20.3841 13.1577 20.808 12.8452 21.1206C12.5326 21.4331 12.1087 21.6087 11.6667 21.6087H1.66667C1.22464 21.6087 0.800716 21.4331 0.488155 21.1206C0.175595 20.808 0 20.3841 0 19.9421ZM34.8583 18.4521C35.6859 17.4103 36.2521 16.1855 36.5094 14.8801C36.7667 13.5746 36.7076 12.2266 36.3372 10.9487C35.9668 9.67077 35.2958 8.50011 34.3803 7.53463C33.4649 6.56915 32.3315 5.83691 31.075 5.39917C29.8186 4.96142 28.4756 4.83088 27.1584 5.01848C25.8411 5.20608 24.588 5.70635 23.5037 6.47746C22.4194 7.24857 21.5355 8.2681 20.926 9.45078C20.3164 10.6335 19.9989 11.9449 20 13.2754C20 13.7174 20.1756 14.1414 20.4882 14.4539C20.8007 14.7665 21.2246 14.9421 21.6667 14.9421C22.1087 14.9421 22.5326 14.7665 22.8452 14.4539C23.1577 14.1414 23.3333 13.7174 23.3333 13.2754C23.3333 12.2865 23.6266 11.3198 24.176 10.4976C24.7254 9.67531 25.5063 9.03445 26.4199 8.65601C27.3335 8.27757 28.3389 8.17856 29.3088 8.37148C30.2787 8.56441 31.1696 9.04061 31.8689 9.73988C32.5681 10.4391 33.0443 11.3301 33.2373 12.3C33.4302 13.2699 33.3312 14.2752 32.9527 15.1888C32.5743 16.1025 31.9334 16.8834 31.1112 17.4328C30.2889 17.9822 29.3222 18.2754 28.3333 18.2754H18.3333C17.8913 18.2754 17.4674 18.451 17.1548 18.7636C16.8423 19.0761 16.6667 19.5 16.6667 19.9421C16.6667 20.3841 16.8423 20.808 17.1548 21.1206C17.4674 21.4331 17.8913 21.6087 18.3333 21.6087H33.3333C34.2174 21.6087 35.0652 21.9599 35.6904 22.5851C36.3155 23.2102 36.6667 24.058 36.6667 24.9421C36.6517 28.8371 31.1983 29.3554 29.905 26.0537C29.7578 25.6369 29.4511 25.2956 29.0522 25.105C28.6534 24.9143 28.1952 24.8899 27.7783 25.0371C27.3615 25.1843 27.0202 25.491 26.8296 25.8899C26.6389 26.2887 26.6145 26.7469 26.7617 27.1637C29.3583 33.9671 39.92 32.5737 40 24.9421C39.9979 23.4396 39.4893 21.9818 38.5563 20.8041C37.6233 19.6264 36.3205 18.7978 34.8583 18.4521V18.4521ZM18.3333 26.6087H1.66667C1.22464 26.6087 0.800716 26.7843 0.488155 27.0969C0.175595 27.4095 0 27.8334 0 28.2754C0 28.7174 0.175595 29.1414 0.488155 29.4539C0.800716 29.7665 1.22464 29.9421 1.66667 29.9421H18.3333C19.2174 29.9421 20.0652 30.2933 20.6904 30.9184C21.3155 31.5435 21.6667 32.3914 21.6667 33.2754C21.6517 37.1704 16.1983 37.6887 14.905 34.3871C14.8321 34.1807 14.7193 33.9907 14.573 33.8279C14.4267 33.6651 14.2497 33.5327 14.0522 33.4383C13.8547 33.3439 13.6406 33.2893 13.422 33.2777C13.2035 33.266 12.9847 33.2975 12.7783 33.3704C12.5719 33.4433 12.3819 33.5561 12.2191 33.7024C12.0563 33.8488 11.924 34.0257 11.8296 34.2232C11.7351 34.4207 11.6806 34.6348 11.6689 34.8534C11.6573 35.072 11.6888 35.2907 11.7617 35.4971C14.3583 42.3004 24.92 40.9071 25 33.2754C25 31.5073 24.2976 29.8116 23.0474 28.5614C21.7971 27.3111 20.1014 26.6087 18.3333 26.6087V26.6087ZM1.66667 13.2754H11.6667C13.4348 13.2754 15.1305 12.573 16.3807 11.3228C17.631 10.0725 18.3333 8.37685 18.3333 6.60874C18.2533 -1.02626 7.68833 -2.41459 5.095 4.38708C4.9478 4.80391 4.97222 5.26214 5.16289 5.66097C5.35355 6.0598 5.69483 6.36655 6.11167 6.51374C6.5285 6.66094 6.98673 6.63652 7.38556 6.44586C7.78439 6.25519 8.09114 5.91391 8.23833 5.49708C9.53333 2.19374 14.985 2.71374 15 6.60874C15 7.4928 14.6488 8.34064 14.0237 8.96577C13.3986 9.59089 12.5507 9.94208 11.6667 9.94208H1.66667C1.22464 9.94208 0.800716 10.1177 0.488155 10.4302C0.175595 10.7428 0 11.1667 0 11.6087C0 12.0508 0.175595 12.4747 0.488155 12.7873C0.800716 13.0998 1.22464 13.2754 1.66667 13.2754V13.2754Z" fill="#3B82F6"/>
</svg>
