<svg width="40" height="37" viewBox="0 0 40 37" fill="none" xmlns="http://www.w3.org/2000/svg">
<path d="M31.6667 0H8.33333C6.12401 0.00264643 4.00593 0.88147 2.4437 2.4437C0.88147 4.00593 0.00264643 6.12401 0 8.33333L0 28.3333C0.00264643 30.5427 0.88147 32.6607 2.4437 34.223C4.00593 35.7852 6.12401 36.664 8.33333 36.6667H31.6667C33.876 36.664 35.9941 35.7852 37.5563 34.223C39.1185 32.6607 39.9974 30.5427 40 28.3333V8.33333C39.9974 6.12401 39.1185 4.00593 37.5563 2.4437C35.9941 0.88147 33.876 0.00264643 31.6667 0V0ZM8.33333 3.33333H31.6667C32.9927 3.33333 34.2645 3.86012 35.2022 4.7978C36.1399 5.73548 36.6667 7.00725 36.6667 8.33333V10H3.33333V8.33333C3.33333 7.00725 3.86012 5.73548 4.7978 4.7978C5.73548 3.86012 7.00725 3.33333 8.33333 3.33333V3.33333ZM31.6667 33.3333H8.33333C7.00725 33.3333 5.73548 32.8065 4.7978 31.8689C3.86012 30.9312 3.33333 29.6594 3.33333 28.3333V13.3333H36.6667V28.3333C36.6667 29.6594 36.1399 30.9312 35.2022 31.8689C34.2645 32.8065 32.9927 33.3333 31.6667 33.3333ZM31.6667 20C31.6667 20.442 31.4911 20.8659 31.1785 21.1785C30.866 21.4911 30.442 21.6667 30 21.6667H10C9.55797 21.6667 9.13405 21.4911 8.82149 21.1785C8.50893 20.8659 8.33333 20.442 8.33333 20C8.33333 19.558 8.50893 19.134 8.82149 18.8215C9.13405 18.5089 9.55797 18.3333 10 18.3333H30C30.442 18.3333 30.866 18.5089 31.1785 18.8215C31.4911 19.134 31.6667 19.558 31.6667 20ZM25 26.6667C25 27.1087 24.8244 27.5326 24.5118 27.8452C24.1993 28.1577 23.7754 28.3333 23.3333 28.3333H10C9.55797 28.3333 9.13405 28.1577 8.82149 27.8452C8.50893 27.5326 8.33333 27.1087 8.33333 26.6667C8.33333 26.2246 8.50893 25.8007 8.82149 25.4882C9.13405 25.1756 9.55797 25 10 25H23.3333C23.7754 25 24.1993 25.1756 24.5118 25.4882C24.8244 25.8007 25 26.2246 25 26.6667ZM5 6.66667C5 6.33703 5.09775 6.0148 5.28088 5.74072C5.46402 5.46663 5.72432 5.25301 6.02886 5.12687C6.3334 5.00072 6.66852 4.96772 6.99182 5.03202C7.31512 5.09633 7.61209 5.25507 7.84518 5.48816C8.07826 5.72124 8.237 6.01821 8.30131 6.34152C8.36562 6.66482 8.33261 6.99993 8.20647 7.30447C8.08032 7.60901 7.8667 7.86931 7.59262 8.05245C7.31853 8.23558 6.9963 8.33333 6.66667 8.33333C6.22464 8.33333 5.80072 8.15774 5.48816 7.84518C5.17559 7.53262 5 7.10869 5 6.66667ZM10 6.66667C10 6.33703 10.0977 6.0148 10.2809 5.74072C10.464 5.46663 10.7243 5.25301 11.0289 5.12687C11.3334 5.00072 11.6685 4.96772 11.9918 5.03202C12.3151 5.09633 12.6121 5.25507 12.8452 5.48816C13.0783 5.72124 13.237 6.01821 13.3013 6.34152C13.3656 6.66482 13.3326 6.99993 13.2065 7.30447C13.0803 7.60901 12.8667 7.86931 12.5926 8.05245C12.3185 8.23558 11.9963 8.33333 11.6667 8.33333C11.2246 8.33333 10.8007 8.15774 10.4882 7.84518C10.1756 7.53262 10 7.10869 10 6.66667ZM15 6.66667C15 6.33703 15.0977 6.0148 15.2809 5.74072C15.464 5.46663 15.7243 5.25301 16.0289 5.12687C16.3334 5.00072 16.6685 4.96772 16.9918 5.03202C17.3151 5.09633 17.6121 5.25507 17.8452 5.48816C18.0783 5.72124 18.237 6.01821 18.3013 6.34152C18.3656 6.66482 18.3326 6.99993 18.2065 7.30447C18.0803 7.60901 17.8667 7.86931 17.5926 8.05245C17.3185 8.23558 16.9963 8.33333 16.6667 8.33333C16.2246 8.33333 15.8007 8.15774 15.4882 7.84518C15.1756 7.53262 15 7.10869 15 6.66667Z" fill="#3B82F6"/>
</svg>
