<svg width="40" height="40" viewBox="0 0 40 40" fill="none" xmlns="http://www.w3.org/2000/svg">
<path d="M31.6667 3.33333H20.7867C20.53 3.33333 20.27 3.27167 20.0417 3.15833L14.7817 0.526667C14.0917 0.181667 13.3183 0 12.545 0H8.33333C3.73833 0 0 3.73833 0 8.33333V28.3333C0 31.2983 1.59667 34.0633 4.165 35.55C4.96333 36.0133 5.98167 35.7383 6.44167 34.9433C6.90333 34.145 6.63 33.1267 5.835 32.6667C4.29167 31.7733 3.33333 30.1133 3.33333 28.3333V13.3333H36.6667V28.3333C36.6667 30.1117 35.7083 31.7717 34.165 32.6667C33.3683 33.1267 33.095 34.1467 33.5583 34.9433C33.8667 35.4767 34.4267 35.775 35.0017 35.775C35.285 35.775 35.5717 35.7033 35.835 35.55C38.4033 34.0633 40 31.2983 40 28.3333V11.6667C40 7.07167 36.2617 3.33333 31.6667 3.33333V3.33333ZM3.33333 8.33333C3.33333 5.57667 5.57667 3.33333 8.33333 3.33333H12.545C12.8017 3.33333 13.0617 3.39333 13.29 3.50833L18.55 6.14C19.2417 6.48333 20.015 6.665 20.785 6.665H31.665C33.835 6.665 35.6683 8.06333 36.3583 9.99833H3.33333V8.33167V8.33333ZM19.985 16.6667C13.5533 16.6667 8.31833 21.9017 8.31833 28.3333C8.31833 34.765 13.5533 40 19.985 40C26.4167 40 31.6517 34.765 31.6517 28.3333C31.6517 21.9017 26.4167 16.6667 19.985 16.6667V16.6667ZM19.985 36.6667C15.39 36.6667 11.6517 32.9283 11.6517 28.3333C11.6517 23.7383 15.39 20 19.985 20C24.58 20 28.3183 23.7383 28.3183 28.3333C28.3183 32.9283 24.58 36.6667 19.985 36.6667V36.6667ZM22.83 28.8217C23.4817 29.4733 23.4817 30.5267 22.83 31.1783C22.505 31.5033 22.0783 31.6667 21.6517 31.6667C21.225 31.6667 20.7983 31.5033 20.4733 31.1783L18.8067 29.5117C18.4933 29.1983 18.3183 28.7767 18.3183 28.3333V25C18.3183 24.0783 19.0633 23.3333 19.985 23.3333C20.9067 23.3333 21.6517 24.0783 21.6517 25V27.6433L22.83 28.8217Z" fill="#3B82F6"/>
</svg>
