<svg width="40" height="37" viewBox="0 0 40 37" fill="none" xmlns="http://www.w3.org/2000/svg">
<path d="M33.2337 5.00437C29.3318 1.56094 24.2414 -0.226021 19.0433 0.0229164C13.8452 0.271854 8.94886 2.53708 5.39388 6.33762C1.8389 10.1382 -0.094728 15.1747 0.00357252 20.3778C0.101873 25.5809 2.22436 30.5408 5.92036 34.2044C7.48103 35.7348 9.58119 36.5897 11.767 36.5844H28.0454C30.1151 36.6125 32.1165 35.844 33.6354 34.4377C35.6336 32.5301 37.2169 30.2308 38.2862 27.6835C39.3556 25.1363 39.8881 22.3958 39.8504 19.6335C39.8127 16.8711 39.2056 14.1462 38.0671 11.6291C36.9287 9.11201 35.2832 6.85677 33.2337 5.00437V5.00437ZM31.347 32.016C30.4445 32.8342 29.2632 33.276 28.0454 33.251H11.767C10.4524 33.2552 9.189 32.7415 8.25036 31.821C5.87285 29.4972 4.24466 26.5155 3.57504 23.259C2.90543 20.0026 3.225 16.6204 4.49268 13.547C5.76036 10.4736 7.91821 7.84959 10.6889 6.01219C13.4596 4.17479 16.7164 3.20799 20.0409 3.23606C23.3653 3.26413 26.6054 4.28578 29.3446 6.16969C32.0839 8.05361 34.1971 10.7137 35.4127 13.808C36.6283 16.9024 36.8907 20.2896 36.1662 23.5342C35.4417 26.7789 33.7634 29.7327 31.347 32.016V32.016ZM31.6804 19.901C31.4637 19.9321 31.243 19.9203 31.0309 19.8661C30.8188 19.8119 30.6195 19.7164 30.4443 19.5852C30.2691 19.4539 30.1214 19.2895 30.0098 19.1012C29.8982 18.9128 29.8247 18.7044 29.7937 18.4877C29.4428 16.1118 28.2515 13.9406 26.4362 12.3681C24.6209 10.7956 22.302 9.92622 19.9004 9.9177C11.1204 9.75103 6.50036 21.061 12.912 27.0594C13.2281 27.3688 13.4083 27.7911 13.4129 28.2334C13.4176 28.6756 13.2464 29.1017 12.937 29.4177C12.6276 29.7338 12.2053 29.9139 11.763 29.9186C11.3208 29.9233 10.8947 29.7521 10.5787 29.4427C2.04535 21.331 8.13202 6.4427 19.9004 6.58437C23.1037 6.59606 26.1968 7.75566 28.6183 9.85276C31.0399 11.9499 32.6295 14.8455 33.0987 18.0144C33.1298 18.2312 33.1178 18.452 33.0635 18.6642C33.0092 18.8764 32.9137 19.0758 32.7822 19.251C32.6508 19.4262 32.4862 19.5738 32.2977 19.6853C32.1092 19.7969 31.9005 19.8702 31.6837 19.901H31.6804ZM32.1804 25.3077C32.0924 25.5082 31.9658 25.6895 31.8078 25.8411C31.6498 25.9927 31.4635 26.1116 31.2595 26.1912C31.0555 26.2707 30.8379 26.3093 30.6189 26.3047C30.4 26.3001 30.1842 26.2524 29.9837 26.1644L21.872 22.6044C21.2815 23.0401 20.5638 23.2688 19.83 23.255C19.0963 23.2412 18.3876 22.9856 17.814 22.528C17.2403 22.0703 16.8337 21.4361 16.6572 20.7238C16.4808 20.0115 16.5443 19.2608 16.838 18.5883C17.1317 17.9158 17.6391 17.359 18.2815 17.0042C18.9239 16.6495 19.6655 16.5167 20.3911 16.6264C21.1167 16.7361 21.7858 17.0822 22.2947 17.611C22.8035 18.1398 23.1236 18.8217 23.2054 19.551L31.317 23.111C31.5183 23.1982 31.7004 23.3242 31.8528 23.4819C32.0053 23.6395 32.1252 23.8257 32.2055 24.0298C32.2859 24.2339 32.3252 24.4518 32.3211 24.6711C32.3171 24.8904 32.2698 25.1067 32.182 25.3077H32.1804Z" fill="#3B82F6"/>
</svg>
