<svg width="20" height="20" viewBox="0 0 20 20" fill="none" xmlns="http://www.w3.org/2000/svg">
<path d="M7 1V3M13 1V3M7 17V19M13 17V19M3 7H1M3 13H1M19 7H17M19 13H17M5 17H15C15.5304 17 16.0391 16.7893 16.4142 16.4142C16.7893 16.0391 17 15.5304 17 15V5C17 4.46957 16.7893 3.96086 16.4142 3.58579C16.0391 3.21071 15.5304 3 15 3H5C4.46957 3 3.96086 3.21071 3.58579 3.58579C3.21071 3.96086 3 4.46957 3 5V15C3 15.5304 3.21071 16.0391 3.58579 16.4142C3.96086 16.7893 4.46957 17 5 17ZM7 7H13V13H7V7Z" stroke="white" stroke-width="2" stroke-linecap="round" stroke-linejoin="round"/>
</svg>
