<svg width="18" height="20" viewBox="0 0 18 20" fill="none" xmlns="http://www.w3.org/2000/svg">
<path d="M14.6572 16.657C13.1569 18.1573 11.122 19.0002 9.00021 19.0002C6.87842 19.0002 4.84354 18.1573 3.34321 16.657C1.84288 15.1567 1 13.1218 1 11C1 8.87821 1.84288 6.84333 3.34321 5.343C3.34321 5.343 4.00021 7 6.00021 8C6.00021 6 6.50021 3 8.98621 1C11.0002 3 13.0902 3.777 14.6562 5.343C15.4004 6.08499 15.9905 6.96674 16.3928 7.93756C16.795 8.90839 17.0015 9.94914 17.0002 11C17.0016 12.0508 16.7953 13.0915 16.3932 14.0623C15.9912 15.0331 15.4012 15.9149 14.6572 16.657V16.657Z" stroke="white" stroke-width="2" stroke-linecap="round" stroke-linejoin="round"/>
<path d="M6.87924 14.121C7.22763 14.4695 7.6565 14.7268 8.12794 14.8702C8.59938 15.0135 9.09888 15.0386 9.58229 14.9431C10.0657 14.8476 10.5182 14.6345 10.8997 14.3226C11.2812 14.0107 11.58 13.6096 11.7696 13.1548C11.9593 12.7001 12.0341 12.2056 11.9873 11.715C11.9405 11.2245 11.7736 10.753 11.5013 10.3423C11.229 9.93162 10.8598 9.5943 10.4262 9.36019C9.99259 9.12607 9.508 9.00236 9.01524 9L8.00024 12H6.00024C6.00024 12.768 6.29324 13.536 6.87924 14.121Z" stroke="white" stroke-width="2" stroke-linecap="round" stroke-linejoin="round"/>
</svg>
