<svg width="20" height="20" viewBox="0 0 20 20" fill="none" xmlns="http://www.w3.org/2000/svg">
<path d="M9.00131 1C7.3168 1.18825 5.71968 1.84832 4.39375 2.90424C3.06783 3.96015 2.067 5.36899 1.50646 6.96862C0.945907 8.56825 0.848423 10.2936 1.22522 11.9462C1.60202 13.5988 2.43779 15.1114 3.63633 16.31C4.83488 17.5085 6.34749 18.3443 8.00008 18.7211C9.65267 19.0979 11.3781 19.0004 12.9777 18.4399C14.5773 17.8793 15.9862 16.8785 17.0421 15.5526C18.098 14.2266 18.7581 12.6295 18.9463 10.945H9.00131V1Z" stroke="white" stroke-width="2" stroke-linecap="round" stroke-linejoin="round"/>
<path d="M18.4892 6.94491H13.0012V1.45691C14.2666 1.90584 15.4159 2.63145 16.3653 3.58085C17.3147 4.53025 18.0403 5.67953 18.4892 6.94491V6.94491Z" stroke="white" stroke-width="2" stroke-linecap="round" stroke-linejoin="round"/>
</svg>
