<?xml version="1.0" encoding="utf-8"?>
<!-- Generator: Adobe Illustrator 23.0.0, SVG Export Plug-In . SVG Version: 6.00 Build 0)  -->
<svg version="1.1" id="Layer_1" xmlns="http://www.w3.org/2000/svg" xmlns:xlink="http://www.w3.org/1999/xlink" x="0px" y="0px"
	 viewBox="0 0 128 128" enable-background="new 0 0 128 128" xml:space="preserve">
<g>
	<path id="path22_1_" fill="#86DA2F" d="M109.18,72.58c4.54-0.35,8.2,2.62,8.55,7.16c0.35,4.71-2.97,8.55-7.51,8.9
		c-4.36,0.35-8.2-2.97-8.55-7.33C101.32,76.6,104.46,73.11,109.18,72.58z"/>
	<path id="path24_1_" fill="#24C2FF" d="M54.01,109.76c0-4.54,3.49-8.03,7.68-8.03s8.2,3.84,8.2,8.2c0,4.19-3.49,7.86-7.51,8.03
		C57.33,117.97,54.01,114.83,54.01,109.76z"/>
	<path id="path26_1_" fill="#FFCB12" d="M66.41,58.79c-0.7,0.35-1.05-0.17-1.22-0.7c-6.46-12.05-4.54-27.23,6.81-36.31
		c2.97-2.44,8.55-2.97,11-0.52c1.05,0.87,1.22,1.92,1.4,3.14c0.35,2.62,0.87,5.24,2.62,7.33c1.92,2.27,4.36,3.14,7.16,2.97
		c2.44,0,4.89-0.35,6.46,2.44c0.87,1.57,0.52,7.68-0.87,8.9c-0.7,0.52-1.22,0.17-1.75,0c-4.02-1.57-8.2-1.57-12.39-0.87
		c-1.4,0.17-2.09-0.17-2.09-1.75c-0.17-2.62-0.7-5.06-2.09-7.33c-2.62-4.71-7.51-4.89-10.65-0.52c-2.62,3.49-3.32,7.68-4.02,11.87
		C66.06,51.11,66.23,54.95,66.41,58.79C66.41,58.79,66.23,58.79,66.41,58.79z"/>
	<path id="path28_1_" fill="#86DA2F" d="M70.77,61.41c-0.35-0.52-0.17-1.05,0.35-1.4c9.95-9.08,24.79-10.82,36.31-1.92
		c2.97,2.44,4.89,7.51,3.32,10.47c-0.7,1.22-1.57,1.75-2.62,2.09c-2.44,1.05-4.71,2.09-6.28,4.36c-1.57,2.27-1.92,4.89-1.22,7.68
		c0.52,2.27,1.4,4.71-0.87,6.81c-1.22,1.22-7.16,2.27-8.73,1.22c-0.7-0.52-0.52-1.05-0.35-1.75c0.52-4.36-0.52-8.38-2.09-12.22
		c-0.52-1.4-0.35-2.09,1.05-2.44c2.44-0.7,4.71-1.92,6.46-3.67c3.84-3.67,2.97-8.38-2.09-10.47c-4.02-1.75-8.2-1.4-12.22-1.05
		C77.93,59.31,74.26,60.36,70.77,61.41z"/>
	<path id="path30_1_" fill="#24C2FF" d="M68.5,65.95c0.52-0.52,0.87-0.35,1.4,0c11.52,6.98,17.46,20.77,12.22,34.21
		c-1.4,3.49-5.94,6.98-9.25,6.11c-1.4-0.35-2.09-1.05-2.79-1.92c-1.57-2.09-3.32-4.02-5.94-4.89c-2.79-0.87-5.24-0.35-7.68,1.05
		c-2.09,1.22-4.19,2.79-6.81,1.22c-1.57-0.87-4.19-6.28-3.67-8.03c0.35-0.7,1.05-0.7,1.75-0.7c4.36-0.7,7.86-2.79,11.17-5.59
		c1.05-0.87,1.92-0.87,2.79,0.35c1.4,2.09,3.14,3.84,5.41,5.06c4.54,2.62,8.9,0.35,9.43-4.89c0.52-4.36-1.05-8.2-2.44-12.05
		C72.52,72.41,70.6,69.09,68.5,65.95z"/>
	<path id="path32_1_" fill="#0069DA" d="M62.92,67c-0.7,3.49-2.27,6.81-4.36,9.78c-6.28,9.43-15.36,13.27-26.53,12.22
		c-4.02-0.35-7.33-3.67-7.68-6.98c-0.17-1.4,0.17-2.44,1.05-3.49c1.22-1.57,2.27-2.97,2.79-4.89c1.05-3.84-0.35-6.98-3.14-9.78
		c-3.84-3.84-3.32-7.33,1.22-10.12c0.52-0.35,1.22-0.7,1.92-1.05c1.05-0.52,1.92-0.52,2.27,0.7c1.57,4.02,4.71,6.98,8.2,9.43
		c1.22,1.05,1.22,1.75,0.17,2.97c-2.09,2.27-3.32,5.06-3.49,8.2c-0.35,3.84,1.92,6.28,5.76,6.28c2.44,0,4.71-0.87,6.81-1.92
		c5.41-2.79,9.6-6.81,13.62-11C62.04,67.17,62.22,66.82,62.92,67z"/>
	<path id="path34_1_" fill="#FF4649" d="M34.29,30.34c0.35,0,1.22,0.17,2.09,0.35c6.46,1.22,10.47-1.05,12.57-7.16
		c1.4-4.02,4.36-5.24,8.2-3.14c0.17,0,0.17,0.17,0.35,0.17c4.02,2.27,4.02,2.62,1.57,6.11c-2.09,2.79-3.14,5.94-3.67,9.25
		c-0.35,1.92-1.05,2.27-2.79,1.57c-2.79-1.05-5.76-1.05-8.73,0c-3.32,1.05-4.71,4.02-3.67,7.33c1.4,4.36,5.24,6.28,8.55,8.55
		c3.32,2.27,7.16,3.49,10.82,5.06c0.52,0.17,1.4,0.17,1.22,1.05c-0.17,0.52-0.87,0.52-1.57,0.52c-7.86,0.35-15.36-0.87-21.47-6.11
		c-5.76-4.71-9.95-10.47-9.25-18.5C29.05,32.78,30.97,30.86,34.29,30.34z"/>
	<path id="path36_1_" fill="#0069DA" d="M19.97,79.39c-4.19,0.52-8.38-2.97-8.73-7.33c-0.35-4.19,3.14-8.38,7.16-8.73
		c4.54-0.52,8.73,2.62,9.08,6.81C27.66,74.15,25.04,79.04,19.97,79.39z"/>
	<path id="path38_1_" fill="#FFCB12" d="M93.29,17.24c4.36-0.35,8.55,3.14,8.9,7.51c0.35,4.19-3.14,8.2-7.33,8.55
		c-4.54,0.35-8.55-2.97-8.9-7.33S88.75,17.59,93.29,17.24z"/>
	<path id="path40_1_" fill="#FF4649" d="M47.73,20.56c0.52,4.54-2.62,8.38-7.33,9.08c-4.02,0.52-8.2-2.79-8.73-6.63
		c-0.52-5.06,2.27-8.73,6.98-9.25C43.02,13.23,47.21,16.55,47.73,20.56z"/>
</g>
</svg>
