<?xml version="1.0" encoding="utf-8"?>
<!-- Generator: Adobe Illustrator 23.0.0, SVG Export Plug-In . SVG Version: 6.00 Build 0)  -->
<svg version="1.1" id="Layer_1" xmlns="http://www.w3.org/2000/svg" xmlns:xlink="http://www.w3.org/1999/xlink" x="0px" y="0px"
	 viewBox="0 0 128 128" enable-background="new 0 0 128 128" xml:space="preserve">
<g>
	<path fill="#932279" d="M59.06,60.24l3.73,3.71l-3.73,3.71H32.82V80l-16-16.05l16-15.78v12.08H59.06L59.06,60.24z M70.59,28.71
		h31.88v31.88H70.59V28.71z"/>
	<path fill="#EFA724" d="M70.94,55.88l-3.71,3.73l-3.71-3.73V29.65H51.18l16.05-16l15.78,16H70.94V55.88L70.94,55.88z M70.59,67.42
		h31.88V99.3H70.59L70.59,67.42L70.59,67.42z"/>
	<path fill="#262577" d="M75.3,67.76l-3.73-3.71l3.73-3.71h26.24V48l16,16.05l-16,15.78V67.76H75.3z M31.88,67.42h31.88V99.3H31.88
		L31.88,67.42L31.88,67.42z"/>
	<path fill="#9CCD2A" d="M63.41,72.12l3.71-3.73l3.71,3.73v26.24h12.35l-16.05,16l-15.78-16h12.08V72.12L63.41,72.12z M31.88,28.71
		h31.88v31.88H31.88V28.71L31.88,28.71z"/>
	<path fill="#FFFFFF" d="M30.74,27.57H64.9v34.16H30.74V27.57z M33.02,59.45h29.6v-29.6h-29.6L33.02,59.45L33.02,59.45z
		 M69.46,27.57h34.16v34.16H69.46V27.57L69.46,27.57z M71.73,59.45h29.6v-29.6h-29.6V59.45z M69.46,66.28h34.16v34.16H69.46V66.28
		L69.46,66.28z M71.73,98.16h29.6v-29.6h-29.6V98.16z M30.74,66.28H64.9v34.16H30.74L30.74,66.28L30.74,66.28z M33.02,98.16h29.6
		v-29.6h-29.6L33.02,98.16L33.02,98.16z"/>
	<path fill="#FFFFFF" d="M39.81,88.15L15.65,64l24.15-24.15L63.96,64L39.81,88.15L39.81,88.15z M18.87,64l20.93,20.93L60.74,64
		L39.8,43.07L18.87,64z M67.18,60.78L43.03,36.63l24.15-24.15l24.15,24.15L67.18,60.78L67.18,60.78z M46.25,36.63l20.93,20.93
		l20.93-20.93L67.18,15.7L46.25,36.63z M94.55,88.15L70.4,64l24.15-24.15L118.7,64L94.55,88.15L94.55,88.15z M73.62,64l20.93,20.93
		L115.48,64L94.55,43.07L73.62,64z M67.18,115.53L43.03,91.37l24.15-24.15l24.15,24.15L67.18,115.53L67.18,115.53z M46.25,91.37
		l20.93,20.93l20.93-20.93L67.18,70.44L46.25,91.37z"/>
</g>
</svg>
