<?xml version="1.0" encoding="utf-8"?>
<!-- Generator: Adobe Illustrator 23.0.0, SVG Export Plug-In . SVG Version: 6.00 Build 0)  -->
<svg version="1.1" id="Layer_1" xmlns="http://www.w3.org/2000/svg" xmlns:xlink="http://www.w3.org/1999/xlink" x="0px" y="0px"
	 viewBox="0 0 128 128" enable-background="new 0 0 128 128" xml:space="preserve">
<g>
	<path fill="#32BEA6" d="M104.22,65.67c0-22.81-18.5-41.31-41.31-41.31s-41.31,18.5-41.31,41.31s18.5,41.31,41.31,41.31
		S104.22,88.48,104.22,65.67z"/>
	<path fill="#FFFFFF" d="M89.58,68.88v-6.43l-6.09-1.91c-0.52-2.06-1.33-4.01-2.41-5.79l2.96-5.68l-4.55-4.55l-5.69,2.96
		c-1.77-1.07-3.7-1.86-5.76-2.38l-1.93-6.13h-6.44l-1.93,6.13c-2.05,0.52-4,1.32-5.76,2.38l-5.64-2.96l-4.56,4.56l2.96,5.68
		c-1.07,1.78-1.9,3.71-2.41,5.79l-6.09,1.91v6.43l6.06,1.91c0.52,2.08,1.33,4.05,2.41,5.84l-2.93,5.59l4.55,4.55l5.61-2.93
		c1.8,1.08,3.78,1.91,5.88,2.43l1.9,6.03h6.44l1.9-6.03c2.1-0.52,4.06-1.35,5.88-2.43l5.61,2.93l4.55-4.55l-2.93-5.63
		c1.08-1.8,1.9-3.76,2.41-5.84L89.58,68.88z M62.9,79.79c-7.78,0-14.09-6.31-14.09-14.09s6.31-14.09,14.09-14.09
		s14.07,6.31,14.07,14.09C76.98,73.49,70.68,79.79,62.9,79.79z"/>
</g>
</svg>
