<?xml version="1.0" encoding="utf-8"?>
<!-- Generator: Adobe Illustrator 23.0.0, SVG Export Plug-In . SVG Version: 6.00 Build 0)  -->
<svg version="1.1" id="Layer_1" xmlns="http://www.w3.org/2000/svg" xmlns:xlink="http://www.w3.org/1999/xlink" x="0px" y="0px"
	 viewBox="0 0 128 128" enable-background="new 0 0 128 128" xml:space="preserve">
<g>
	<g>
		<path fill="#A80030" d="M72.06,68.42c-1.59,0.02,0.3,0.82,2.38,1.14c0.57-0.45,1.09-0.9,1.56-1.34
			C74.7,68.54,73.38,68.54,72.06,68.42"/>
		<path fill="#A80030" d="M80.59,66.3c0.95-1.31,1.64-2.74,1.88-4.22c-0.21,1.05-0.78,1.97-1.32,2.93c-2.97,1.87-0.28-1.11,0-2.25
			C77.95,66.78,80.71,65.17,80.59,66.3"/>
		<path fill="#A80030" d="M83.74,58.1c0.19-2.86-0.56-1.96-0.82-0.87C83.22,57.39,83.46,59.25,83.74,58.1"/>
		<path fill="#A80030" d="M66.03,18.96c0.85,0.15,1.83,0.27,1.7,0.47C68.65,19.22,68.86,19.04,66.03,18.96"/>
		<path fill="#A80030" d="M67.72,19.43l-0.6,0.12l0.56-0.05L67.72,19.43"/>
		<path fill="#A80030" d="M94.19,59.18c0.09,2.57-0.75,3.82-1.52,6.03L91.3,65.9c-1.12,2.18,0.11,1.39-0.7,3.12
			c-1.76,1.56-5.33,4.88-6.47,5.19c-0.83-0.02,0.57-0.98,0.75-1.36c-2.35,1.61-1.89,2.42-5.48,3.4l-0.11-0.23
			c-8.87,4.17-21.18-4.09-21.02-15.37c-0.09,0.72-0.27,0.54-0.47,0.83c-0.46-5.8,2.68-11.63,7.97-14.01
			c5.18-2.56,11.24-1.51,14.95,1.94c-2.04-2.67-6.09-5.49-10.89-5.23c-4.71,0.07-9.11,3.06-10.58,6.31
			c-2.41,1.52-2.69,5.85-3.74,6.64C54.1,67.51,58.18,72,65.06,77.28c1.08,0.73,0.31,0.84,0.45,1.4c-2.29-1.07-4.38-2.69-6.11-4.67
			c0.91,1.34,1.9,2.64,3.18,3.66c-2.16-0.73-5.04-5.23-5.88-5.41c3.72,6.66,15.09,11.68,21.04,9.19c-2.75,0.1-6.25,0.06-9.35-1.09
			c-1.3-0.67-3.07-2.05-2.75-2.31c8.13,3.04,16.52,2.3,23.55-3.34c1.79-1.39,3.74-3.76,4.31-3.8c-0.85,1.28,0.15,0.62-0.51,1.74
			c1.78-2.87-0.77-1.17,1.84-4.96l0.97,1.33c-0.36-2.39,2.96-5.28,2.63-9.06c0.76-1.15,0.85,1.24,0.04,3.9
			c1.12-2.95,0.3-3.42,0.58-5.85c0.31,0.82,0.72,1.68,0.93,2.55c-0.73-2.85,0.75-4.79,1.12-6.45c-0.36-0.16-1.13,1.26-1.3-2.1
			c0.03-1.46,0.41-0.77,0.55-1.12c-0.29-0.16-1.04-1.28-1.5-3.43c0.33-0.5,0.89,1.31,1.34,1.38c-0.29-1.71-0.79-3.01-0.81-4.32
			c-1.32-2.76-0.47,0.37-1.54-1.18c-1.4-4.38,1.16-1.02,1.34-3.01c2.13,3.08,3.34,7.86,3.9,9.84c-0.42-2.41-1.11-4.75-1.95-7.01
			c0.65,0.27-1.04-4.96,0.84-1.5c-2.01-7.39-8.6-14.3-14.66-17.54c0.74,0.68,1.68,1.53,1.34,1.66c-3.01-1.79-2.48-1.93-2.92-2.69
			c-2.46-1-2.62,0.08-4.24,0c-4.63-2.45-5.52-2.19-9.78-3.73l0.19,0.91c-3.07-1.02-3.57,0.39-6.89,0c-0.2-0.16,1.06-0.57,2.1-0.72
			c-2.96,0.39-2.83-0.58-5.73,0.11c0.72-0.5,1.47-0.83,2.23-1.26c-2.42,0.15-5.77,1.41-4.74,0.26c-3.94,1.76-10.95,4.23-14.88,7.91
			l-0.12-0.83c-1.8,2.16-7.85,6.46-8.34,9.26l-0.48,0.11c-0.94,1.59-1.54,3.38-2.29,5.02c-1.23,2.09-1.8,0.8-1.62,1.13
			c-2.41,4.89-3.61,8.99-4.64,12.36c0.74,1.1,0.02,6.63,0.3,11.06c-1.21,21.86,15.34,43.09,33.44,47.99
			c2.65,0.95,6.6,0.91,9.95,1.01c-3.96-1.13-4.47-0.6-8.33-1.94c-2.78-1.31-3.39-2.81-5.36-4.51l0.78,1.38
			c-3.86-1.37-2.25-1.69-5.39-2.69l0.83-1.09c-1.25-0.09-3.32-2.11-3.88-3.23l-1.37,0.05c-1.65-2.03-2.52-3.49-2.46-4.63l-0.44,0.79
			c-0.5-0.86-6.06-7.62-3.17-6.04c-0.54-0.49-1.25-0.8-2.02-2.2l0.59-0.67c-1.39-1.78-2.55-4.07-2.46-4.83
			c0.74,1,1.25,1.19,1.76,1.36c-3.5-8.69-3.7-0.48-6.35-8.84l0.56-0.05c-0.43-0.65-0.69-1.35-1.04-2.04l0.24-2.43
			c-2.52-2.92-0.71-12.39-0.34-17.59c0.25-2.11,2.1-4.36,3.51-7.89l-0.86-0.15c1.64-2.86,9.37-11.49,12.95-11.05
			c1.73-2.18-0.34-0.01-0.68-0.56c3.81-3.94,5.01-2.78,7.58-3.49c2.77-1.65-2.38,0.64-1.06-0.63c4.79-1.22,3.4-2.78,9.65-3.4
			c0.66,0.38-1.53,0.58-2.08,1.07c3.99-1.95,12.63-1.51,18.24,1.08c6.51,3.04,13.83,12.04,14.12,20.5l0.33,0.09
			c-0.17,3.36,0.52,7.26-0.67,10.83L94.19,59.18"/>
		<path fill="#A80030" d="M54.7,70.61l-0.22,1.12c1.05,1.42,1.87,2.96,3.21,4.07C56.72,73.91,56.01,73.14,54.7,70.61"/>
		<path fill="#A80030" d="M57.17,70.51c-0.55-0.61-0.88-1.35-1.25-2.08c0.35,1.29,1.07,2.4,1.74,3.52L57.17,70.51"/>
		<path fill="#A80030" d="M100.89,61.01l-0.23,0.59c-0.43,3.04-1.35,6.05-2.77,8.84C99.45,67.49,100.46,64.27,100.89,61.01"/>
		<path fill="#A80030" d="M66.34,18.19c1.08-0.39,2.64-0.22,3.78-0.48c-1.49,0.12-2.97,0.2-4.43,0.39L66.34,18.19"/>
		<path fill="#A80030" d="M28.59,38.27c0.25,2.29-1.73,3.18,0.44,1.67C30.19,37.33,28.58,39.22,28.59,38.27"/>
		<path fill="#A80030" d="M26.05,48.88c0.5-1.53,0.59-2.45,0.78-3.33C25.45,47.31,26.2,47.68,26.05,48.88"/>
	</g>
</g>
</svg>
