<?xml version="1.0" encoding="utf-8"?>
<!-- Generator: Adobe Illustrator 23.0.0, SVG Export Plug-In . SVG Version: 6.00 Build 0)  -->
<svg version="1.1" id="Layer_1" xmlns="http://www.w3.org/2000/svg" xmlns:xlink="http://www.w3.org/1999/xlink" x="0px" y="0px"
	 viewBox="0 0 128 128" enable-background="new 0 0 128 128" xml:space="preserve">
<g>
	<g>
		<path fill="#294172" d="M111.62,63.76c0-24.41-19.79-44.2-44.2-44.2c-24.4,0-44.18,19.77-44.2,44.17v34.2
			c0.01,5.54,4.51,10.02,10.05,10.02h34.17C91.84,107.95,111.62,88.16,111.62,63.76"/>
		<path fill="#3C6EB4" d="M80.4,30.02c-11.43,0-20.73,9.3-20.73,20.73v11H48.71c-11.43,0-20.73,9.3-20.73,20.73
			c0,11.43,9.3,20.73,20.73,20.73s20.73-9.3,20.73-20.73V71.49H80.4c11.43,0,20.73-9.3,20.73-20.73
			C101.13,39.32,91.83,30.02,80.4,30.02L80.4,30.02z M59.74,82.5c0,6.09-4.95,11.04-11.04,11.04S37.67,88.58,37.67,82.5
			c0-6.09,4.95-11.04,11.04-11.04h10.96v0.03h0.08V82.5L59.74,82.5z M80.4,61.79H69.44v-0.03h-0.08v-11
			c0-6.09,4.95-11.04,11.04-11.04c6.09,0,11.04,4.95,11.04,11.04S86.48,61.79,80.4,61.79L80.4,61.79z"/>
		<path fill="#FFFFFF" d="M84.98,30.65c-1.61-0.42-2.84-0.62-4.58-0.62c-11.46,0-20.74,9.29-20.74,20.74v11h-8.69
			c-2.71,0-4.9,2.13-4.9,4.83c0,2.69,2.17,4.82,4.85,4.82l7.19,0c0.85,0,1.55,0.69,1.55,1.54v9.51
			c-0.01,6.04-4.91,10.93-10.95,10.93c-2.05,0-2.55-0.27-3.95-0.27c-2.93,0-4.9,1.97-4.9,4.67c0,2.24,1.92,4.16,4.26,4.77
			c1.61,0.42,2.84,0.62,4.58,0.62c11.46,0,20.74-9.29,20.74-20.74V71.48h8.69c2.71,0,4.9-2.13,4.9-4.83c0-2.69-2.17-4.82-4.85-4.82
			l-7.19,0c-0.85,0-1.55-0.69-1.55-1.54v-9.51c0.01-6.04,4.91-10.93,10.95-10.93c2.05,0,2.55,0.27,3.95,0.27
			c2.93,0,4.9-1.97,4.9-4.67C89.24,33.19,87.33,31.27,84.98,30.65"/>
	</g>
</g>
</svg>
