<?xml version="1.0" encoding="utf-8"?>
<!-- Generator: Adobe Illustrator 23.0.0, SVG Export Plug-In . SVG Version: 6.00 Build 0)  -->
<svg version="1.1" id="Layer_1" xmlns="http://www.w3.org/2000/svg" xmlns:xlink="http://www.w3.org/1999/xlink" x="0px" y="0px"
	 viewBox="0 0 128 128" enable-background="new 0 0 128 128" xml:space="preserve">
<g>
	<g>
		<path fill="#FFFFFF" d="M105.88,48.26c3.35,0.12,5.97,2.94,5.86,6.28c-0.06,1.62-0.74,3.12-1.92,4.22
			c-1.18,1.11-2.72,1.68-4.35,1.63c-3.34-0.12-5.96-2.94-5.85-6.28c0.06-1.62,0.73-3.12,1.92-4.23
			C102.72,48.78,104.26,48.2,105.88,48.26L105.88,48.26z M110.15,54.41c0.08-2.38-1.78-4.38-4.16-4.46
			c-1.15-0.04-2.25,0.37-3.09,1.15c-0.84,0.78-1.33,1.85-1.37,3c-0.08,2.38,1.78,4.38,4.16,4.47c1.16,0.03,2.25-0.37,3.1-1.16
			C109.63,56.63,110.11,55.56,110.15,54.41L110.15,54.41z"/>
		<path fill="#73BA25" d="M105.98,49.95c2.38,0.08,4.24,2.08,4.16,4.46c-0.03,1.15-0.52,2.21-1.36,3c-0.84,0.78-1.94,1.19-3.1,1.16
			c-2.38-0.09-4.24-2.09-4.16-4.47c0.03-1.15,0.53-2.22,1.37-3C103.73,50.32,104.83,49.91,105.98,49.95L105.98,49.95z M108.6,53.39
			c0-0.71-0.86-1.28-1.91-1.28s-1.91,0.57-1.91,1.28c0,0.7,0.85,1.28,1.91,1.28S108.6,54.09,108.6,53.39L108.6,53.39z"/>
		<path fill="#FFFFFF" d="M106.69,52.11c1.06,0,1.91,0.57,1.91,1.28c0,0.7-0.86,1.28-1.91,1.28s-1.91-0.57-1.91-1.28
			C104.78,52.68,105.63,52.11,106.69,52.11L106.69,52.11z"/>
		<path fill="#73BA25" d="M115.56,62.73l0.44-0.08c0.12,0.1,0.1,0.29,0.06,0.47c-0.08,0.4-0.28,1.14-0.41,1.49l-0.11,0.29
			c-0.16,0.43-0.31,0.83-0.61,1.07c-0.83,0.75-2.15,1.35-4.22,2.26c-3.2,1.4-8.39,2.28-13.22,2.25c-1.73-0.04-3.4-0.23-4.87-0.4
			c-4.49-0.51-7.74-0.88-8.41,3.2c-0.85,5.12,3.96,11.33,4.01,11.39l0,0.17l-0.16,0.04c0,0-7.67-3.53-7.86-3.64l-0.24-0.17
			l-0.2-0.19c-0.58-0.56-1.74-1.81-4.1-4.54c-4.57-5.29-9.93-5.98-14.05-4.98c-1.01,0.24-2.28,0.97-3.12,1.8
			c-2.15,2.12-1.91,6.4-1.79,7.96c0.14,1.76,0.23,1.89,0.27,2.04l-0.03,0.18l-0.15,0.02l-0.09-0.06l-6.29-3.08l-0.24-1.03
			c-0.16-0.68-0.35-1.43-0.7-2.38c-2.25-5.93-7.31-10.39-12.88-11.35c-3.76-0.65-10.63-0.72-14.26,6.14
			c-1.52,2.86-1.43,6.59,0.24,9.73c1.7,3.22,4.73,5.28,8.32,5.67c3.56,0.39,6.24-0.44,7.74-2.38c1.51-1.96,1.8-4.63,0.72-6.81
			c-1.15-2.34-2.89-3.58-5.31-3.78c-1.84-0.17-3.21,0.6-3.7,1.38c-0.14,0.24-0.4,0.7-0.41,1.34v0.02c0,1.75,1.61,2.23,1.93,2.25
			c0.1,0,0.58-0.01,1.22-0.17l0.31-0.1l0.21-0.07l0.16-0.03c1.17-0.21,2.29,0.47,2.62,1.61c0.06,0.21,0.09,0.42,0.09,0.63
			c0,0.75-0.38,1.45-1.02,1.88l0.03-0.01l-0.07,0.04l-0.1,0.07c-0.34,0.21-0.64,0.33-0.97,0.43c-0.91,0.3-1.72,0.44-2.54,0.44
			c-2.78,0-6.64-2.39-6.7-6.88c-0.03-2.53,1.24-4.84,3.48-6.32c2.58-1.7,7.03-2.28,11.16,0.25c5.08,3.11,6.41,9.2,5.08,13.36
			c-1.93,6.02-7.35,9.23-14.51,8.59c-5.07-0.45-9.78-3.13-12.58-7.16c-1.24-1.78-2.17-3.77-2.66-5.76
			c-1.14-4.54,0.01-9.36,0.87-11.5c2.74-6.79,7.99-12.64,15.58-17.38l0.48-0.3c16.15-9.93,27.58-9.53,35.95-9.23
			c9.87,0.34,20.4,3.75,21.85,4.23c0-0.33,0.06-3.27,0.06-3.27l0.04-0.1l0.11-0.03c0.66,0.09,14.84,2.2,20.82,5.68
			c0.74,0.44,1.1,0.89,1.56,1.36c1.65,1.71,3.83,8.81,4.06,10.28l-0.09,0.15c-0.09,0.03-0.29,0.18-0.57,0.37
			c-1.39,0.97-4.65,3.25-8.83,2.88c-3.76-0.33-8.66-2.48-14.57-6.38c0.26,0.61,1.49,3.53,1.7,4.02l0.08,0.1
			c0.86,0.44,9.07,4.63,13.15,4.55C110.64,65.18,114.15,63.58,115.56,62.73L115.56,62.73z M111.74,54.54
			c0.11-3.34-2.51-6.16-5.86-6.28c-1.62-0.06-3.16,0.52-4.35,1.62c-1.19,1.11-1.87,2.61-1.92,4.23c-0.11,3.34,2.51,6.16,5.85,6.28
			c1.63,0.06,3.17-0.52,4.35-1.63C111,57.66,111.68,56.16,111.74,54.54L111.74,54.54z"/>
	</g>
</g>
</svg>
