<?xml version="1.0" encoding="utf-8"?>
<!-- Generator: Adobe Illustrator 23.0.0, SVG Export Plug-In . SVG Version: 6.00 Build 0)  -->
<svg version="1.1" id="Layer_1" xmlns="http://www.w3.org/2000/svg" xmlns:xlink="http://www.w3.org/1999/xlink" x="0px" y="0px"
	 viewBox="0 0 128 128" enable-background="new 0 0 128 128" xml:space="preserve">
<g>
	<g transform="rotate(120 160.955 289.196) scale(.29363)">
		<circle fill="#ED1D1D" cx="34.57" cy="1628.06" r="14.65"/>
		
			<radialGradient id="SVGID_1_" cx="-4938.5591" cy="649.368" r="13.4458" gradientTransform="matrix(0.0472 -0.3268 -0.3292 -0.0536 474.6602 49.1312)" gradientUnits="userSpaceOnUse">
			<stop  offset="0" style="stop-color:#FFFFFF;stop-opacity:0"/>
			<stop  offset="1" style="stop-color:#000000;stop-opacity:0.5"/>
		</radialGradient>
		<circle fill="url(#SVGID_1_)" cx="34.57" cy="1628.06" r="14.65"/>
		<ellipse opacity="0.8" fill="#FFFFFF" enable-background="new    " cx="27.18" cy="1629.41" rx="3.11" ry="3.36"/>
	</g>
	<g transform="rotate(120 149.09 268.646) scale(.29364)">
		<circle fill="#ED1D1D" cx="34.57" cy="1522.5" r="14.65"/>
		
			<radialGradient id="SVGID_2_" cx="-4581.4683" cy="560.6032" r="13.4458" gradientTransform="matrix(0.0472 -0.3268 -0.3293 -0.0536 428.5874 55.4492)" gradientUnits="userSpaceOnUse">
			<stop  offset="0" style="stop-color:#FFFFFF;stop-opacity:0"/>
			<stop  offset="1" style="stop-color:#000000;stop-opacity:0.5"/>
		</radialGradient>
		<circle fill="url(#SVGID_2_)" cx="34.57" cy="1522.5" r="14.65"/>
		<ellipse opacity="0.8" fill="#FFFFFF" enable-background="new    " cx="27.18" cy="1523.85" rx="3.11" ry="3.36"/>
	</g>
	<g transform="rotate(120 140.108 301.233) scale(.29363)">
		<circle fill="#ED1D1D" cx="-72.47" cy="1628.06" r="14.65"/>
		
			<radialGradient id="SVGID_3_" cx="-5139.4868" cy="1008.5757" r="13.4458" gradientTransform="matrix(0.0472 -0.3268 -0.3292 -0.0536 495.3757 2.7316)" gradientUnits="userSpaceOnUse">
			<stop  offset="0" style="stop-color:#FFFFFF;stop-opacity:0"/>
			<stop  offset="1" style="stop-color:#000000;stop-opacity:0.5"/>
		</radialGradient>
		<circle fill="url(#SVGID_3_)" cx="-72.47" cy="1628.06" r="14.65"/>
		<ellipse opacity="0.8" fill="#FFFFFF" enable-background="new    " cx="-79.85" cy="1629.41" rx="3.11" ry="3.36"/>
	</g>
	<g transform="rotate(120 127.19 280.894) scale(.29363)">
		<circle fill="#ED1D1D" cx="-76.99" cy="1521.02" r="14.65"/>
		
			<radialGradient id="SVGID_4_" cx="-4786.0439" cy="933.6693" r="13.4458" gradientTransform="matrix(0.0472 -0.3268 -0.3292 -0.0536 449.4991 7.1686)" gradientUnits="userSpaceOnUse">
			<stop  offset="0" style="stop-color:#FFFFFF;stop-opacity:0"/>
			<stop  offset="1" style="stop-color:#000000;stop-opacity:0.5"/>
		</radialGradient>
		<circle fill="url(#SVGID_4_)" cx="-76.99" cy="1521.02" r="14.65"/>
		<ellipse opacity="0.8" fill="#FFFFFF" enable-background="new    " cx="-84.38" cy="1522.37" rx="3.11" ry="3.36"/>
	</g>
	<g transform="rotate(120 188.041 261.52) scale(.29363)">
		<g transform="translate(83.5 258.5)">
			<circle fill="#E4E4E4" cx="164.91" cy="1326.15" r="14.65"/>
			
				<radialGradient id="SVGID_5_" cx="-4604.3652" cy="293.0096" r="13.4458" gradientTransform="matrix(0.0472 -0.3268 -0.3292 -0.0536 471.8941 -162.6671)" gradientUnits="userSpaceOnUse">
				<stop  offset="0" style="stop-color:#FFFFFF;stop-opacity:0"/>
				<stop  offset="1" style="stop-color:#000000;stop-opacity:0.5"/>
			</radialGradient>
			<circle fill="url(#SVGID_5_)" cx="164.91" cy="1326.15" r="14.65"/>
		</g>
		<ellipse opacity="0.8" fill="#FFFFFF" enable-background="new    " cx="241.15" cy="1586.25" rx="3.11" ry="3.36"/>
	</g>
	<g transform="rotate(120 158.887 278.156) scale(.29363)">
		<g transform="translate(83.5 258.5)">
			<circle fill="#E4E4E4" cx="15.66" cy="1325.4" r="14.65"/>
			
				<radialGradient id="SVGID_6_" cx="-4881.9639" cy="793.2399" r="13.4458" gradientTransform="matrix(0.0472 -0.3268 -0.3292 -0.0536 500.4474 -227.32)" gradientUnits="userSpaceOnUse">
				<stop  offset="0" style="stop-color:#FFFFFF;stop-opacity:0"/>
				<stop  offset="1" style="stop-color:#000000;stop-opacity:0.5"/>
			</radialGradient>
			<circle fill="url(#SVGID_6_)" cx="15.66" cy="1325.4" r="14.65"/>
		</g>
		<ellipse opacity="0.8" fill="#FFFFFF" enable-background="new    " cx="91.9" cy="1585.5" rx="3.11" ry="3.36"/>
	</g>
	<g transform="rotate(120 165.15 255.944) scale(.29363)">
		<g transform="translate(83.5 258.5)">
			<circle fill="#E4E4E4" cx="89.16" cy="1253.79" r="14.65"/>
			
				<radialGradient id="SVGID_7_" cx="-4501.8677" cy="486.312" r="13.4458" gradientTransform="matrix(0.0472 -0.3268 -0.3292 -0.0536 454.9467 -191.1782)" gradientUnits="userSpaceOnUse">
				<stop  offset="0" style="stop-color:#FFFFFF;stop-opacity:0"/>
				<stop  offset="1" style="stop-color:#000000;stop-opacity:0.5"/>
			</radialGradient>
			<circle fill="url(#SVGID_7_)" cx="89.16" cy="1253.79" r="14.65"/>
		</g>
		<ellipse opacity="0.8" fill="#FFFFFF" enable-background="new    " cx="165.4" cy="1513.89" rx="3.11" ry="3.36"/>
	</g>
	<g transform="rotate(120 181.842 283.5) scale(.29363)">
		<g transform="translate(83.5 258.5)">
			<circle fill="#E4E4E4" cx="92.17" cy="1397.01" r="14.65"/>
			
				<radialGradient id="SVGID_8_" cx="-4980.4907" cy="596.7471" r="13.4458" gradientTransform="matrix(0.0472 -0.3268 -0.3292 -0.0536 516.9191 -198.4336)" gradientUnits="userSpaceOnUse">
				<stop  offset="0" style="stop-color:#FFFFFF;stop-opacity:0"/>
				<stop  offset="1" style="stop-color:#000000;stop-opacity:0.5"/>
			</radialGradient>
			<circle fill="url(#SVGID_8_)" cx="92.17" cy="1397.01" r="14.65"/>
		</g>
		<ellipse opacity="0.8" fill="#FFFFFF" enable-background="new    " cx="168.41" cy="1657.11" rx="3.11" ry="3.36"/>
	</g>
	<g transform="rotate(120 144.513 284.79) scale(.29363)">
		<circle fill="#ED1D1D" cx="-18.95" cy="1574.53" r="14.65"/>
		
			<radialGradient id="SVGID_9_" cx="-4858.0444" cy="783.9215" r="13.4458" gradientTransform="matrix(0.0472 -0.3268 -0.3292 -0.0536 461.6405 29.1311)" gradientUnits="userSpaceOnUse">
			<stop  offset="0" style="stop-color:#FFFFFF;stop-opacity:0"/>
			<stop  offset="1" style="stop-color:#000000;stop-opacity:0.5"/>
		</radialGradient>
		<circle fill="url(#SVGID_9_)" cx="-18.95" cy="1574.53" r="14.65"/>
		<ellipse opacity="0.8" fill="#FFFFFF" enable-background="new    " cx="-26.34" cy="1575.89" rx="3.11" ry="3.36"/>
	</g>
	<g>
		<path fill="#1414B8" stroke="#1414B8" d="M84.32,76.11c-5.7,2.78-21.3,7.56-36.02,9.29c-13.87,1.63-26.82,0.3-29.23-5.65
			C15.09,69.9,40.9,55.8,66.2,49.94c18.33-4.26,37.66-5.32,44.22,1.77c4.13,4.47-3.03,11.3-3.03,11.3l-0.6-0.58
			c0,0,6.89-6.24,2.69-10.64c-6.09-6.38-25.94-5.1-43.16-1.2c-24.16,5.49-50.76,19.44-46.84,29.06c2.35,5.78,14.92,7.23,28.79,5.6
			C62.99,83.53,78.62,78.89,84.32,76.11"/>
		<path fill="#1414B8" stroke="#1414B8" stroke-width="1.026" d="M84.32,76.11c-5.7,2.78-21.3,7.56-36.02,9.29
			c-13.87,1.63-26.82,0.3-29.23-5.65C15.09,69.9,40.9,55.8,66.2,49.94c18.33-4.26,37.66-5.32,44.22,1.77
			c4.13,4.47-3.03,11.3-3.03,11.3l-0.6-0.58c0,0,6.89-6.24,2.69-10.64c-6.09-6.38-25.94-5.1-43.16-1.2
			c-24.16,5.49-50.76,19.44-46.84,29.06c2.35,5.78,14.92,7.23,28.79,5.6C62.99,83.53,78.63,78.89,84.32,76.11"/>
	</g>
	<g transform="translate(327.642 107.528) scale(.15519)">
		<g transform="translate(275.75 261)">
			<circle fill="#1D28ED" cx="-1691.41" cy="-556.82" r="14.65"/>
			
				<radialGradient id="SVGID_10_" cx="-15648.5449" cy="-10184.1719" r="13.4458" gradientTransform="matrix(0.1382 0.1109 0.1086 -0.1354 1570.8087 -200.6206)" gradientUnits="userSpaceOnUse">
				<stop  offset="0" style="stop-color:#FFFFFF;stop-opacity:0"/>
				<stop  offset="1" style="stop-color:#000000;stop-opacity:0.5"/>
			</radialGradient>
			<circle fill="url(#SVGID_10_)" cx="-1691.41" cy="-556.82" r="14.65"/>
		</g>
		<ellipse opacity="0.8" fill="#FFFFFF" enable-background="new    " cx="-1423.11" cy="-293.61" rx="3.11" ry="3.36"/>
	</g>
	<g>
		<path fill="#1414B8" stroke="#1414B8" d="M86.59,65.21c-3.54,5.26-14.67,17.2-26.55,26.05c-11.2,8.34-23.07,13.67-28.15,9.72
			c-8.36-6.53,6.93-31.65,25.92-49.38c13.74-12.85,29.96-23.44,39.18-20.57c5.82,1.81,3.03,11.3,3.03,11.3l-0.81-0.21
			c0,0,2.85-8.85-2.99-10.56c-8.46-2.48-25.02,8.56-37.98,20.54C40.06,68.94,24,94.32,32.21,100.7c4.93,3.83,16.54-1.2,27.73-9.54
			C71.82,82.3,83.04,70.47,86.59,65.21"/>
		<path fill="#1414B8" stroke="#1414B8" stroke-width="1.026" d="M86.59,65.21c-3.54,5.26-14.67,17.2-26.55,26.05
			c-11.2,8.34-23.07,13.67-28.15,9.72c-8.36-6.53,6.93-31.65,25.92-49.38c13.74-12.85,29.96-23.44,39.18-20.57
			c5.82,1.81,3.03,11.3,3.03,11.3l-0.81-0.21c0,0,2.85-8.85-2.99-10.56c-8.46-2.48-25.02,8.56-37.98,20.55
			C40.06,68.94,24,94.32,32.21,100.7c4.93,3.83,16.54-1.2,27.73-9.54C71.82,82.3,83.04,70.47,86.59,65.21"/>
	</g>
	<g transform="translate(293.678 21.561) scale(.15519)">
		<g transform="translate(275.75 261)">
			<circle fill="#1D28ED" cx="-1526.44" cy="-139.26" r="14.65"/>
			
				<radialGradient id="SVGID_11_" cx="-12940.9219" cy="-11079.666" r="13.4458" gradientTransform="matrix(0.1382 0.1109 0.1086 -0.1354 1458.7988 -204.5342)" gradientUnits="userSpaceOnUse">
				<stop  offset="0" style="stop-color:#FFFFFF;stop-opacity:0"/>
				<stop  offset="1" style="stop-color:#000000;stop-opacity:0.5"/>
			</radialGradient>
			<circle fill="url(#SVGID_11_)" cx="-1526.44" cy="-139.26" r="14.65"/>
		</g>
		<ellipse opacity="0.8" fill="#FFFFFF" enable-background="new    " cx="-1258.14" cy="123.95" rx="3.11" ry="3.36"/>
	</g>
	<g>
		<path fill="#1414B8" stroke="#1414B8" d="M83.22,54.33c-0.44,6.33-4.1,22.23-9.97,35.84C67.72,103,60.1,113.55,53.73,112.66
			c-10.5-1.47-9.82-30.87-2.24-55.72c5.48-18,14.23-35.28,23.64-37.41c5.94-1.34,8.27,8.27,8.27,8.27l-0.8,0.22
			c0,0-1.95-9.09-7.87-7.65c-8.57,2.09-17.39,19.92-22.62,36.78c-7.33,23.67-8.54,53.68,1.75,55.09
			c6.18,0.85,13.72-9.31,19.25-22.13C78.98,76.52,82.78,60.66,83.22,54.33"/>
		<path fill="#1414B8" stroke="#1414B8" stroke-width="1.026" d="M83.22,54.33c-0.44,6.33-4.1,22.23-9.97,35.84
			C67.72,103,60.1,113.55,53.73,112.66c-10.5-1.47-9.82-30.87-2.24-55.72c5.48-18,14.23-35.28,23.64-37.41
			c5.94-1.34,8.27,8.27,8.27,8.27l-0.8,0.22c0,0-1.95-9.09-7.87-7.65c-8.57,2.09-17.39,19.92-22.62,36.78
			c-7.33,23.67-8.54,53.68,1.75,55.09c6.18,0.85,13.72-9.31,19.25-22.13C78.98,76.52,82.78,60.66,83.22,54.33"/>
	</g>
	<g transform="translate(222.55 -35.25) scale(.15519)">
		<g transform="translate(275.75 261)">
			<circle fill="#1D28ED" cx="-1180.96" cy="136.68" r="14.65"/>
			
				<radialGradient id="SVGID_12_" cx="-9660.7402" cy="-10707.4502" r="13.4458" gradientTransform="matrix(0.1382 0.1109 0.1086 -0.1354 1310.4694 -241.9041)" gradientUnits="userSpaceOnUse">
				<stop  offset="0" style="stop-color:#FFFFFF;stop-opacity:0"/>
				<stop  offset="1" style="stop-color:#000000;stop-opacity:0.5"/>
			</radialGradient>
			<circle fill="url(#SVGID_12_)" cx="-1180.96" cy="136.68" r="14.65"/>
		</g>
		<ellipse opacity="0.8" fill="#FFFFFF" enable-background="new    " cx="-912.66" cy="399.9" rx="3.11" ry="3.36"/>
	</g>
	<g>
		<path fill="#1414B8" stroke="#1414B8" d="M74.86,46.6c2.78,5.7,7.56,21.3,9.29,36.02c1.63,13.87,0.3,26.82-5.65,29.23
			c-9.83,3.98-23.94-21.83-29.8-47.13c-4.26-18.33-5.32-37.66,1.77-44.22c4.47-4.13,11.3,3.03,11.3,3.03l-0.58,0.6
			c0,0-6.24-6.89-10.64-2.69c-6.38,6.09-5.1,25.94-1.2,43.16c5.49,24.16,19.44,50.76,29.06,46.84c5.78-2.35,7.23-14.92,5.6-28.79
			C82.28,67.94,77.64,52.3,74.86,46.6"/>
		<path fill="#1414B8" stroke="#1414B8" stroke-width="1.026" d="M74.86,46.6c2.78,5.7,7.56,21.3,9.29,36.02
			c1.63,13.87,0.31,26.82-5.65,29.23c-9.83,3.98-23.94-21.83-29.8-47.13c-4.26-18.33-5.32-37.66,1.77-44.22
			c4.47-4.13,11.3,3.03,11.3,3.03l-0.58,0.6c0,0-6.24-6.89-10.64-2.69c-6.38,6.09-5.1,25.94-1.2,43.16
			c5.49,24.16,19.44,50.76,29.06,46.84c5.78-2.36,7.23-14.92,5.6-28.79C82.28,67.94,77.64,52.3,74.86,46.6"/>
	</g>
	<g transform="translate(134.752 -47.938) scale(.15519)">
		<g transform="translate(275.75 261)">
			<circle fill="#1D28ED" cx="-754.5" cy="198.31" r="14.65"/>
			
				<radialGradient id="SVGID_13_" cx="-6725.9243" cy="-9200.3428" r="13.4458" gradientTransform="matrix(0.1382 0.1109 0.1086 -0.1354 1167.5769 -301.6309)" gradientUnits="userSpaceOnUse">
				<stop  offset="0" style="stop-color:#FFFFFF;stop-opacity:0"/>
				<stop  offset="1" style="stop-color:#000000;stop-opacity:0.5"/>
			</radialGradient>
			<circle fill="url(#SVGID_13_)" cx="-754.5" cy="198.31" r="14.65"/>
		</g>
		<ellipse opacity="0.8" fill="#FFFFFF" enable-background="new    " cx="-486.2" cy="461.53" rx="3.11" ry="3.36"/>
	</g>
	<g>
		<path fill="#1414B8" stroke="#1414B8" d="M63.97,44.26c5.26,3.54,17.2,14.67,26.05,26.55c8.34,11.2,13.67,23.07,9.72,28.15
			c-6.53,8.36-31.65-6.93-49.38-25.92C37.52,59.3,26.93,43.09,29.8,33.87c1.81-5.82,11.3-3.03,11.3-3.03l-0.21,0.81
			c0,0-8.85-2.85-10.56,2.99c-2.48,8.46,8.56,25.02,20.54,37.98c16.83,18.18,42.21,34.24,48.59,26.03
			c3.83-4.93-1.2-16.54-9.54-27.73C81.07,59.03,69.23,47.81,63.97,44.26"/>
		<path fill="#1414B8" stroke="#1414B8" stroke-width="1.026" d="M63.97,44.26c5.26,3.54,17.2,14.67,26.05,26.55
			c8.34,11.2,13.67,23.07,9.72,28.15c-6.53,8.36-31.65-6.93-49.38-25.92C37.52,59.3,26.93,43.08,29.8,33.87
			c1.81-5.82,11.3-3.03,11.3-3.03l-0.21,0.81c0,0-8.85-2.85-10.56,2.99c-2.48,8.46,8.56,25.02,20.55,37.98
			c16.83,18.18,42.21,34.24,48.59,26.03c3.83-4.93-1.2-16.54-9.54-27.73C81.07,59.03,69.23,47.81,63.97,44.26"/>
	</g>
	<g transform="translate(50.18 -14.725) scale(.15519)">
		<g transform="translate(275.75 261)">
			<circle fill="#1D28ED" cx="-343.72" cy="36.99" r="14.65"/>
			
				<radialGradient id="SVGID_14_" cx="-4780.251" cy="-6919.8823" r="13.4458" gradientTransform="matrix(0.1382 0.1109 0.1086 -0.1354 1061.7346 -369.9201)" gradientUnits="userSpaceOnUse">
				<stop  offset="0" style="stop-color:#FFFFFF;stop-opacity:0"/>
				<stop  offset="1" style="stop-color:#000000;stop-opacity:0.5"/>
			</radialGradient>
			<circle fill="url(#SVGID_14_)" cx="-343.72" cy="36.99" r="14.65"/>
		</g>
		<ellipse opacity="0.8" fill="#FFFFFF" enable-background="new    " cx="-75.41" cy="300.2" rx="3.11" ry="3.36"/>
	</g>
	<g>
		<path fill="#1414B8" stroke="#1414B8" d="M53.4,47.75c6.33,0.44,22.23,4.1,35.84,9.97c12.82,5.53,23.38,13.15,22.49,19.51
			c-1.47,10.5-30.87,9.82-55.72,2.24c-18-5.48-35.28-14.23-37.41-23.64c-1.34-5.94,8.27-8.27,8.27-8.27l0.22,0.8
			c0,0-9.09,1.95-7.65,7.87c2.09,8.57,19.92,17.39,36.78,22.62c23.67,7.33,53.68,8.54,55.09-1.75c0.85-6.18-9.31-13.72-22.13-19.25
			C75.59,51.99,59.73,48.19,53.4,47.75"/>
		<path fill="#1414B8" stroke="#1414B8" stroke-width="1.026" d="M53.4,47.75c6.33,0.44,22.23,4.1,35.84,9.97
			c12.82,5.53,23.38,13.15,22.49,19.51c-1.47,10.5-30.87,9.82-55.72,2.24c-18-5.48-35.28-14.23-37.41-23.64
			c-1.34-5.94,8.27-8.27,8.27-8.27l0.22,0.8c0,0-9.09,1.95-7.65,7.87c2.09,8.57,19.92,17.39,36.78,22.62
			c23.67,7.33,53.68,8.54,55.09-1.75c0.85-6.18-9.31-13.72-22.13-19.25C75.59,51.99,59.73,48.19,53.4,47.75"/>
	</g>
	<g transform="translate(-5.647 54.285) scale(.15519)">
		<g transform="translate(275.75 261)">
			<circle fill="#1D28ED" cx="-72.55" cy="-298.21" r="14.65"/>
			
				<radialGradient id="SVGID_15_" cx="-4409.2192" cy="-4555.6821" r="13.4458" gradientTransform="matrix(0.1382 0.1109 0.1086 -0.1354 1024.8221 -426.1465)" gradientUnits="userSpaceOnUse">
				<stop  offset="0" style="stop-color:#FFFFFF;stop-opacity:0"/>
				<stop  offset="1" style="stop-color:#000000;stop-opacity:0.5"/>
			</radialGradient>
			<circle fill="url(#SVGID_15_)" cx="-72.55" cy="-298.21" r="14.65"/>
		</g>
		<ellipse opacity="0.8" fill="#FFFFFF" enable-background="new    " cx="195.75" cy="-35" rx="3.11" ry="3.36"/>
	</g>
</g>
</svg>
