<?xml version="1.0" encoding="utf-8"?>
<!-- Generator: Adobe Illustrator 23.0.0, SVG Export Plug-In . SVG Version: 6.00 Build 0)  -->
<svg version="1.1" id="Layer_1" xmlns="http://www.w3.org/2000/svg" xmlns:xlink="http://www.w3.org/1999/xlink" x="0px" y="0px"
	 viewBox="0 0 128 128" enable-background="new 0 0 128 128" xml:space="preserve">
<g>
	<g>
		<path fill="#DD4814" d="M108.24,65.51c0,24.43-19.81,44.24-44.24,44.24c-24.44,0-44.25-19.81-44.25-44.24
			c0-24.44,19.81-44.24,44.25-44.24S108.24,41.07,108.24,65.51L108.24,65.51z"/>
		<path fill="#FFFFFF" d="M33.91,59.6c-3.26,0-5.91,2.64-5.91,5.91c0,3.26,2.64,5.91,5.91,5.91c3.26,0,5.91-2.64,5.91-5.91
			C39.81,62.24,37.17,59.6,33.91,59.6L33.91,59.6z M76.08,86.45c-2.83,1.63-3.79,5.24-2.16,8.07c1.63,2.83,5.24,3.79,8.07,2.16
			c2.83-1.63,3.79-5.24,2.16-8.07C82.52,85.78,78.91,84.82,76.08,86.45L76.08,86.45z M46.74,65.51c0-5.84,2.9-11,7.34-14.12
			l-4.32-7.23c-5.17,3.45-9.01,8.73-10.61,14.92c1.86,1.52,3.06,3.84,3.06,6.43c0,2.59-1.19,4.91-3.06,6.43
			c1.6,6.18,5.44,11.46,10.61,14.92l4.32-7.24C49.64,76.5,46.74,71.34,46.74,65.51L46.74,65.51z M63.99,48.25
			c9.01,0,16.41,6.91,17.19,15.73l8.42-0.12c-0.41-6.51-3.26-12.35-7.62-16.64c-2.25,0.85-4.84,0.72-7.08-0.57
			c-2.25-1.3-3.65-3.48-4.04-5.86c-2.18-0.6-4.48-0.93-6.86-0.93c-4.08,0-7.94,0.96-11.37,2.66l4.1,7.36
			C58.93,48.83,61.4,48.25,63.99,48.25L63.99,48.25z M63.99,82.76c-2.6,0-5.06-0.58-7.27-1.61l-4.1,7.36
			c3.43,1.7,7.29,2.66,11.37,2.66c2.38,0,4.67-0.33,6.86-0.93c0.39-2.37,1.79-4.56,4.04-5.86c2.24-1.29,4.84-1.42,7.08-0.57
			c4.37-4.3,7.21-10.14,7.62-16.64l-8.42-0.12C80.4,75.85,73.01,82.76,63.99,82.76L63.99,82.76z M76.08,44.56
			c2.83,1.63,6.44,0.67,8.07-2.16c1.63-2.83,0.67-6.44-2.16-8.07c-2.83-1.63-6.44-0.66-8.07,2.16
			C72.29,39.32,73.26,42.93,76.08,44.56L76.08,44.56z"/>
	</g>
</g>
</svg>
