<svg width="16" height="16" viewBox="0 0 16 16" fill="none" xmlns="http://www.w3.org/2000/svg">
<path d="M15.9239 0.617001C15.874 0.496649 15.8009 0.387253 15.7089 0.295001L15.7049 0.291C15.5178 0.104395 15.2642 -0.000272497 14.9999 5.32818e-07H10.9999C10.7347 5.32818e-07 10.4803 0.105357 10.2928 0.292894C10.1053 0.48043 9.99992 0.734784 9.99992 1C9.99992 1.26522 10.1053 1.51957 10.2928 1.70711C10.4803 1.89464 10.7347 2 10.9999 2H12.5859L9.29292 5.293C9.11076 5.4816 9.00997 5.73421 9.01224 5.9964C9.01452 6.2586 9.11969 6.50941 9.3051 6.69482C9.49051 6.88023 9.74132 6.9854 10.0035 6.98767C10.2657 6.98995 10.5183 6.88916 10.7069 6.707L13.9999 3.414V5C13.9999 5.26522 14.1053 5.51957 14.2928 5.70711C14.4803 5.89464 14.7347 6 14.9999 6C15.2651 6 15.5195 5.89464 15.707 5.70711C15.8946 5.51957 15.9999 5.26522 15.9999 5V1C16.0001 0.868572 15.9742 0.73841 15.9239 0.617001V0.617001Z" fill="white"/>
<path d="M0 1C0 0.734784 0.105357 0.48043 0.292893 0.292893C0.48043 0.105357 0.734784 0 1 0H3.153C3.38971 0.000108969 3.6187 0.0841807 3.79924 0.23726C3.97979 0.390339 4.10018 0.602499 4.139 0.836L4.879 5.271C4.91436 5.48222 4.88097 5.69921 4.78376 5.89003C4.68655 6.08085 4.53065 6.23543 4.339 6.331L2.791 7.104C3.34611 8.47965 4.17283 9.72928 5.22178 10.7782C6.27072 11.8272 7.52035 12.6539 8.896 13.209L9.67 11.661C9.76552 11.4695 9.91994 11.3138 10.1106 11.2166C10.3012 11.1194 10.5179 11.0859 10.729 11.121L15.164 11.861C15.3975 11.8998 15.6097 12.0202 15.7627 12.2008C15.9158 12.3813 15.9999 12.6103 16 12.847V15C16 15.2652 15.8946 15.5196 15.7071 15.7071C15.5196 15.8946 15.2652 16 15 16H13C5.82 16 0 10.18 0 3V1Z" fill="white"/>
</svg>
