<svg width="16" height="14" viewBox="0 0 16 14" fill="none" xmlns="http://www.w3.org/2000/svg">
<path d="M2.99991 1C2.99991 0.734784 2.89455 0.48043 2.70702 0.292893C2.51948 0.105357 2.26513 0 1.99991 0C1.7347 0 1.48034 0.105357 1.29281 0.292893C1.10527 0.48043 0.999912 0.734784 0.999912 1V8.268C0.695897 8.44354 0.443444 8.69602 0.267924 9.00004C0.0924035 9.30407 0 9.64894 0 10C0 10.3511 0.0924035 10.6959 0.267924 11C0.443444 11.304 0.695897 11.5565 0.999912 11.732V13C0.999912 13.2652 1.10527 13.5196 1.29281 13.7071C1.48034 13.8946 1.7347 14 1.99991 14C2.26513 14 2.51948 13.8946 2.70702 13.7071C2.89455 13.5196 2.99991 13.2652 2.99991 13V11.732C3.30393 11.5565 3.55638 11.304 3.7319 11C3.90742 10.6959 3.99982 10.3511 3.99982 10C3.99982 9.64894 3.90742 9.30407 3.7319 9.00004C3.55638 8.69602 3.30393 8.44354 2.99991 8.268V1ZM8.99991 1C8.99991 0.734784 8.89456 0.48043 8.70702 0.292893C8.51948 0.105357 8.26513 0 7.99991 0C7.7347 0 7.48034 0.105357 7.29281 0.292893C7.10527 0.48043 6.99991 0.734784 6.99991 1V2.268C6.6959 2.44354 6.44344 2.69602 6.26792 3.00004C6.0924 3.30407 6 3.64894 6 4C6 4.35106 6.0924 4.69593 6.26792 4.99996C6.44344 5.30398 6.6959 5.55646 6.99991 5.732V13C6.99991 13.2652 7.10527 13.5196 7.29281 13.7071C7.48034 13.8946 7.7347 14 7.99991 14C8.26513 14 8.51948 13.8946 8.70702 13.7071C8.89456 13.5196 8.99991 13.2652 8.99991 13V5.732C9.30393 5.55646 9.55638 5.30398 9.7319 4.99996C9.90742 4.69593 9.99982 4.35106 9.99982 4C9.99982 3.64894 9.90742 3.30407 9.7319 3.00004C9.55638 2.69602 9.30393 2.44354 8.99991 2.268V1ZM13.9999 0C14.2651 0 14.5195 0.105357 14.707 0.292893C14.8946 0.48043 14.9999 0.734784 14.9999 1V8.268C15.3039 8.44354 15.5564 8.69602 15.7319 9.00004C15.9074 9.30407 15.9998 9.64894 15.9998 10C15.9998 10.3511 15.9074 10.6959 15.7319 11C15.5564 11.304 15.3039 11.5565 14.9999 11.732V13C14.9999 13.2652 14.8946 13.5196 14.707 13.7071C14.5195 13.8946 14.2651 14 13.9999 14C13.7347 14 13.4803 13.8946 13.2928 13.7071C13.1053 13.5196 12.9999 13.2652 12.9999 13V11.732C12.6959 11.5565 12.4434 11.304 12.2679 11C12.0924 10.6959 12 10.3511 12 10C12 9.64894 12.0924 9.30407 12.2679 9.00004C12.4434 8.69602 12.6959 8.44354 12.9999 8.268V1C12.9999 0.734784 13.1053 0.48043 13.2928 0.292893C13.4803 0.105357 13.7347 0 13.9999 0V0Z" fill="white"/>
</svg>
