<svg width="16" height="14" viewBox="0 0 16 14" fill="none" xmlns="http://www.w3.org/2000/svg">
<path fill-rule="evenodd" clip-rule="evenodd" d="M0 2C0 1.46957 0.210714 0.960859 0.585786 0.585786C0.960859 0.210714 1.46957 0 2 0H14C14.5304 0 15.0391 0.210714 15.4142 0.585786C15.7893 0.960859 16 1.46957 16 2V4C16 4.53043 15.7893 5.03914 15.4142 5.41421C15.0391 5.78929 14.5304 6 14 6H2C1.46957 6 0.960859 5.78929 0.585786 5.41421C0.210714 5.03914 0 4.53043 0 4V2ZM14 3C14 3.26522 13.8946 3.51957 13.7071 3.70711C13.5196 3.89464 13.2652 4 13 4C12.7348 4 12.4804 3.89464 12.2929 3.70711C12.1054 3.51957 12 3.26522 12 3C12 2.73478 12.1054 2.48043 12.2929 2.29289C12.4804 2.10536 12.7348 2 13 2C13.2652 2 13.5196 2.10536 13.7071 2.29289C13.8946 2.48043 14 2.73478 14 3ZM0 10C0 9.46957 0.210714 8.96086 0.585786 8.58579C0.960859 8.21071 1.46957 8 2 8H14C14.5304 8 15.0391 8.21071 15.4142 8.58579C15.7893 8.96086 16 9.46957 16 10V12C16 12.5304 15.7893 13.0391 15.4142 13.4142C15.0391 13.7893 14.5304 14 14 14H2C1.46957 14 0.960859 13.7893 0.585786 13.4142C0.210714 13.0391 0 12.5304 0 12V10ZM14 11C14 11.2652 13.8946 11.5196 13.7071 11.7071C13.5196 11.8946 13.2652 12 13 12C12.7348 12 12.4804 11.8946 12.2929 11.7071C12.1054 11.5196 12 11.2652 12 11C12 10.7348 12.1054 10.4804 12.2929 10.2929C12.4804 10.1054 12.7348 10 13 10C13.2652 10 13.5196 10.1054 13.7071 10.2929C13.8946 10.4804 14 10.7348 14 11V11Z" fill="white"/>
</svg>
