<svg width="16" height="10" viewBox="0 0 16 10" fill="none" xmlns="http://www.w3.org/2000/svg">
<path fill-rule="evenodd" clip-rule="evenodd" d="M9.98771 2C9.7225 2 9.46814 1.89464 9.28061 1.70711C9.09307 1.51957 8.98771 1.26522 8.98771 1C8.98771 0.734784 9.09307 0.48043 9.28061 0.292893C9.46814 0.105357 9.7225 0 9.98771 0H14.9877C15.2529 0 15.5073 0.105357 15.6948 0.292893C15.8824 0.48043 15.9877 0.734784 15.9877 1V6C15.9877 6.26522 15.8824 6.51957 15.6948 6.70711C15.5073 6.89464 15.2529 7 14.9877 7C14.7225 7 14.4681 6.89464 14.2806 6.70711C14.0931 6.51957 13.9877 6.26522 13.9877 6V3.414L9.69471 7.707C9.50718 7.89447 9.25288 7.99979 8.98771 7.99979C8.72255 7.99979 8.46824 7.89447 8.28071 7.707L5.98771 5.414L1.69471 9.707C1.50611 9.88916 1.25351 9.98995 0.99131 9.98767C0.729114 9.9854 0.478301 9.88023 0.292893 9.69482C0.107485 9.50941 0.00231622 9.2586 3.78026e-05 8.9964C-0.00224062 8.7342 0.0985537 8.4816 0.280712 8.293L5.28071 3.293C5.46824 3.10553 5.72255 3.00021 5.98771 3.00021C6.25288 3.00021 6.50718 3.10553 6.69471 3.293L8.98771 5.586L12.5737 2H9.98771Z" fill="white"/>
</svg>
