<svg width="12" height="16" viewBox="0 0 12 16" fill="none" xmlns="http://www.w3.org/2000/svg">
<path fill-rule="evenodd" clip-rule="evenodd" d="M2 0C1.46957 0 0.960859 0.210714 0.585786 0.585786C0.210714 0.960859 0 1.46957 0 2V14C0 14.5304 0.210714 15.0391 0.585786 15.4142C0.960859 15.7893 1.46957 16 2 16H10C10.5304 16 11.0391 15.7893 11.4142 15.4142C11.7893 15.0391 12 14.5304 12 14V2C12 1.46957 11.7893 0.960859 11.4142 0.585786C11.0391 0.210714 10.5304 0 10 0H2ZM6 14C6.26522 14 6.51957 13.8946 6.70711 13.7071C6.89464 13.5196 7 13.2652 7 13C7 12.7348 6.89464 12.4804 6.70711 12.2929C6.51957 12.1054 6.26522 12 6 12C5.73478 12 5.48043 12.1054 5.29289 12.2929C5.10536 12.4804 5 12.7348 5 13C5 13.2652 5.10536 13.5196 5.29289 13.7071C5.48043 13.8946 5.73478 14 6 14V14Z" fill="white"/>
</svg>
