<svg width="14" height="16" viewBox="0 0 14 16" fill="none" xmlns="http://www.w3.org/2000/svg">
<path fill-rule="evenodd" clip-rule="evenodd" d="M9.39501 0.553345C9.33162 0.426381 9.24194 0.31436 9.13193 0.224728C9.02191 0.135096 8.89408 0.0699058 8.75692 0.033489C8.61977 -0.00292775 8.47644 -0.00973652 8.33645 0.013515C8.19646 0.0367665 8.06302 0.0895458 7.945 0.168345C7.6 0.398345 7.33101 0.726346 7.12301 1.04835C6.90901 1.37835 6.72001 1.76135 6.55301 2.16435C6.21901 2.96835 5.93901 3.93235 5.71301 4.89835C5.43969 6.07884 5.23501 7.27417 5.10001 8.47834C4.69314 8.21605 4.36622 7.84693 4.15501 7.41135C3.82701 6.73135 3.757 5.87735 3.757 4.75735C3.75696 4.5596 3.69829 4.3663 3.58841 4.20189C3.47852 4.03748 3.32236 3.90934 3.13966 3.83367C2.95696 3.758 2.75593 3.73819 2.56197 3.77676C2.36802 3.81533 2.18986 3.91054 2.05001 4.05035C1.39917 4.69978 0.883032 5.47139 0.531232 6.32085C0.179433 7.17032 -0.00109811 8.08091 5.02513e-06 9.00035C8.80858e-05 10.1515 0.284051 11.2848 0.826743 12.3C1.36944 13.3151 2.15411 14.1808 3.11125 14.8203C4.0684 15.4598 5.16849 15.8534 6.31407 15.9662C7.45965 16.079 8.61536 15.9075 9.67886 15.467C10.7423 15.0264 11.6808 14.3304 12.4111 13.4406C13.1413 12.5508 13.6409 11.4946 13.8655 10.3656C14.0901 9.23661 14.0328 8.06965 13.6987 6.96809C13.3645 5.86652 12.7639 4.86435 11.95 4.05035C11.358 3.45935 10.97 3.06535 10.602 2.58335C10.239 2.10735 9.87801 1.52035 9.39501 0.553345V0.553345ZM9.12 13.1203C8.70046 13.5394 8.16615 13.8247 7.58455 13.9402C7.00296 14.0557 6.40016 13.9963 5.85231 13.7695C5.30446 13.5426 4.83612 13.1585 4.50644 12.6657C4.17676 12.1728 4.00053 11.5933 4.00001 11.0003C4.00001 11.0003 4.87901 11.5003 6.50001 11.5003C6.50001 10.5003 7.00001 7.50035 7.75001 7.00035C8.25001 8.00035 8.53601 8.29334 9.12101 8.87934C9.40004 9.15753 9.62135 9.48812 9.7722 9.85211C9.92305 10.2161 10.0005 10.6063 10 11.0003C10.0005 11.3944 9.92305 11.7846 9.7722 12.1486C9.62135 12.5126 9.40004 12.8432 9.12101 13.1213L9.12 13.1203Z" fill="white"/>
</svg>
