<svg width="16" height="16" viewBox="0 0 16 16" fill="none" xmlns="http://www.w3.org/2000/svg">
<path fill-rule="evenodd" clip-rule="evenodd" d="M12.243 3.75587C11.442 2.95529 10.4307 2.39778 9.3261 2.14778C8.22152 1.89779 7.06874 1.96551 6.00103 2.34313C4.93332 2.72076 3.99429 3.39285 3.29249 4.28172C2.5907 5.17058 2.1548 6.23992 2.03519 7.36611C1.91559 8.4923 2.11716 9.62934 2.6166 10.6458C3.11604 11.6622 3.89296 12.5166 4.85754 13.11C5.82212 13.7035 6.93496 14.0118 8.06741 13.9994C9.19986 13.987 10.3057 13.6543 11.257 13.0399C11.3671 12.9644 11.4913 12.9117 11.6221 12.8849C11.7529 12.8581 11.8878 12.8579 12.0187 12.8841C12.1496 12.9102 12.274 12.9624 12.3844 13.0374C12.4949 13.1125 12.5892 13.2089 12.6618 13.3209C12.7344 13.433 12.7838 13.5585 12.8071 13.6899C12.8305 13.8214 12.8272 13.9562 12.7976 14.0864C12.768 14.2166 12.7126 14.3396 12.6347 14.448C12.5568 14.5565 12.4579 14.6482 12.344 14.7179C10.8507 15.6835 9.07827 16.124 7.30667 15.9699C5.53508 15.8158 3.86533 15.0758 2.56121 13.8668C1.2571 12.6578 0.392976 11.0488 0.105349 9.29395C-0.182278 7.53908 0.122993 5.73839 0.972934 4.17637C1.82287 2.61435 3.16903 1.38004 4.79874 0.668439C6.42844 -0.0431598 8.24879 -0.19148 9.9722 0.246909C11.6956 0.685299 13.2238 1.68541 14.3154 3.08923C15.407 4.49306 15.9998 6.22058 16 7.99887C16.0002 8.55609 15.8452 9.10235 15.5524 9.57642C15.2595 10.0505 14.8405 10.4336 14.3421 10.6829C13.8437 10.9322 13.2858 11.0378 12.7308 10.9878C12.1759 10.9378 11.6458 10.7342 11.2 10.3999C10.6302 11.1597 9.80854 11.6919 8.88216 11.9014C7.95579 12.1108 6.98511 11.9838 6.14381 11.5431C5.3025 11.1024 4.64547 10.3767 4.29028 9.49581C3.93508 8.61497 3.90489 7.63649 4.20512 6.73543C4.50535 5.83437 5.1164 5.06954 5.92893 4.57778C6.74147 4.08603 7.70248 3.89944 8.64 4.0514C9.57752 4.20335 10.4304 4.68395 11.046 5.40718C11.6616 6.13042 11.9998 7.04911 12 7.99887C12 8.26408 12.1054 8.51844 12.2929 8.70597C12.4804 8.89351 12.7348 8.99887 13 8.99887C13.2652 8.99887 13.5196 8.89351 13.7071 8.70597C13.8947 8.51844 14 8.26408 14 7.99887C14 6.46187 13.414 4.92887 12.243 3.75587ZM10 7.99887C10 7.46843 9.7893 6.95973 9.41422 6.58465C9.03915 6.20958 8.53044 5.99887 8.00001 5.99887C7.46958 5.99887 6.96087 6.20958 6.5858 6.58465C6.21073 6.95973 6.00001 7.46843 6.00001 7.99887C6.00001 8.5293 6.21073 9.03801 6.5858 9.41308C6.96087 9.78815 7.46958 9.99887 8.00001 9.99887C8.53044 9.99887 9.03915 9.78815 9.41422 9.41308C9.7893 9.03801 10 8.5293 10 7.99887Z" fill="white"/>
</svg>
