<svg width="17" height="17" viewBox="0 0 17 17" fill="none" xmlns="http://www.w3.org/2000/svg">
<path fill-rule="evenodd" clip-rule="evenodd" d="M5.50601 0.741121C5.43731 0.484922 5.26966 0.266503 5.03993 0.133915C4.8102 0.00132696 4.5372 -0.03457 4.28101 0.034121C4.02481 0.102812 3.80639 0.270465 3.6738 0.500197C3.54121 0.729929 3.50531 1.00292 3.574 1.25912L3.83301 2.22512C3.9017 2.48132 4.06935 2.69974 4.29908 2.83233C4.52881 2.96492 4.80181 3.00081 5.05801 2.93212C5.3142 2.86343 5.53262 2.69578 5.66521 2.46605C5.7978 2.23631 5.8337 1.96332 5.76501 1.70712L5.50501 0.741121H5.50601ZM1.26301 3.57012C1.13593 3.53548 1.00326 3.52628 0.872618 3.54306C0.741976 3.55984 0.615937 3.60226 0.501737 3.66789C0.387537 3.73352 0.287428 3.82106 0.207157 3.92549C0.126887 4.02992 0.068038 4.14918 0.0339895 4.27641C-5.90272e-05 4.40365 -0.00863594 4.53636 0.00875121 4.66692C0.0261384 4.79748 0.069147 4.92332 0.135307 5.03722C0.201467 5.15111 0.289476 5.25081 0.394278 5.33059C0.49908 5.41037 0.61861 5.46867 0.746005 5.50212L1.71201 5.76112C1.96774 5.82828 2.23967 5.79142 2.4683 5.65861C2.69693 5.5258 2.86366 5.30784 2.93201 5.05242C3.00036 4.797 2.96477 4.5249 2.83303 4.29565C2.70128 4.0664 2.4841 3.89866 2.22901 3.82912L1.26301 3.56912V3.57012ZM10.077 3.00112C10.1698 2.90821 10.2435 2.79792 10.2937 2.67656C10.3439 2.55519 10.3698 2.42512 10.3697 2.29377C10.3697 2.16242 10.3437 2.03237 10.2934 1.91103C10.2431 1.7897 10.1694 1.67947 10.0765 1.58662C9.9836 1.49378 9.87331 1.42014 9.75194 1.36992C9.63057 1.3197 9.5005 1.29387 9.36915 1.29392C9.2378 1.29397 9.10775 1.31988 8.98642 1.37019C8.86509 1.4205 8.75485 1.49421 8.66201 1.58712L7.95501 2.29412C7.8621 2.38703 7.7884 2.49733 7.73811 2.61872C7.68783 2.74012 7.66195 2.87023 7.66195 3.00162C7.66195 3.13302 7.68783 3.26312 7.73811 3.38452C7.7884 3.50591 7.8621 3.61621 7.95501 3.70912C8.04792 3.80203 8.15822 3.87573 8.27961 3.92601C8.401 3.9763 8.53111 4.00218 8.66251 4.00218C8.7939 4.00218 8.92401 3.9763 9.0454 3.92601C9.16679 3.87573 9.2771 3.80203 9.37001 3.70912L10.077 3.00112V3.00112ZM3.00601 10.0731L3.71301 9.36612C3.90078 9.17861 4.00637 8.92419 4.00656 8.65883C4.00675 8.39346 3.90151 8.13889 3.71401 7.95112C3.5265 7.76335 3.27208 7.65775 3.00671 7.65757C2.74135 7.65738 2.48678 7.76261 2.29901 7.95012L1.59101 8.65712C1.40336 8.84476 1.29795 9.09926 1.29795 9.36462C1.29795 9.62999 1.40336 9.88448 1.59101 10.0721C1.77865 10.2598 2.03314 10.3652 2.29851 10.3652C2.56387 10.3652 2.81836 10.2598 3.00601 10.0721V10.0731ZM6.20601 4.90212C6.02428 4.82938 5.8252 4.81157 5.63344 4.85091C5.44169 4.89024 5.2657 4.98499 5.12729 5.1234C4.98887 5.26182 4.89413 5.43781 4.85479 5.62956C4.81546 5.82131 4.83326 6.02039 4.90601 6.20212L8.906 16.2021C8.97767 16.3811 9.09955 16.5355 9.25696 16.6469C9.41437 16.7582 9.60061 16.8216 9.79324 16.8295C9.98587 16.8375 10.1767 16.7895 10.3427 16.6915C10.5087 16.5935 10.6429 16.4496 10.729 16.2771L12.109 13.5181L15.127 16.5381C15.3146 16.7256 15.5691 16.8309 15.8344 16.8308C16.0996 16.8307 16.354 16.7253 16.5415 16.5376C16.729 16.35 16.8343 16.0955 16.8342 15.8303C16.8341 15.565 16.7286 15.3106 16.541 15.1231L13.522 12.1031L16.282 10.7241C16.4542 10.6378 16.5977 10.5036 16.6954 10.3376C16.7932 10.1716 16.8409 9.98099 16.8328 9.78856C16.8248 9.59613 16.7614 9.41012 16.6502 9.25287C16.539 9.09562 16.3848 8.97382 16.206 8.90212L6.20601 4.90212V4.90212Z" fill="white"/>
</svg>
