<svg width="14" height="15" viewBox="0 0 14 15" fill="none" xmlns="http://www.w3.org/2000/svg">
<path d="M5.70692 5.293C5.51832 5.11084 5.26572 5.01005 5.00352 5.01233C4.74132 5.0146 4.49051 5.11977 4.3051 5.30518C4.11969 5.49059 4.01452 5.7414 4.01224 6.0036C4.00997 6.2658 4.11076 6.5184 4.29292 6.707L6.29292 8.707C6.48045 8.89447 6.73476 8.99979 6.99992 8.99979C7.26508 8.99979 7.51939 8.89447 7.70692 8.707L9.70692 6.707C9.88908 6.5184 9.98987 6.2658 9.98759 6.0036C9.98531 5.7414 9.88015 5.49059 9.69474 5.30518C9.50933 5.11977 9.25852 5.0146 8.99632 5.01233C8.73412 5.01005 8.48152 5.11084 8.29292 5.293L7.99992 5.586V1C7.99992 0.734784 7.89456 0.48043 7.70703 0.292893C7.51949 0.105357 7.26514 0 6.99992 0C6.7347 0 6.48035 0.105357 6.29281 0.292893C6.10528 0.48043 5.99992 0.734784 5.99992 1V5.586L5.70692 5.293Z" fill="white"/>
<path d="M0 3C0 2.46957 0.210714 1.96086 0.585786 1.58579C0.960859 1.21071 1.46957 1 2 1H3C3.26522 1 3.51957 1.10536 3.70711 1.29289C3.89464 1.48043 4 1.73478 4 2C4 2.26522 3.89464 2.51957 3.70711 2.70711C3.51957 2.89464 3.26522 3 3 3H2V10H4L5 12H9L10 10H12V3H11C10.7348 3 10.4804 2.89464 10.2929 2.70711C10.1054 2.51957 10 2.26522 10 2C10 1.73478 10.1054 1.48043 10.2929 1.29289C10.4804 1.10536 10.7348 1 11 1H12C12.5304 1 13.0391 1.21071 13.4142 1.58579C13.7893 1.96086 14 2.46957 14 3V13C14 13.5304 13.7893 14.0391 13.4142 14.4142C13.0391 14.7893 12.5304 15 12 15H2C1.46957 15 0.960859 14.7893 0.585786 14.4142C0.210714 14.0391 0 13.5304 0 13V3Z" fill="white"/>
</svg>
