<svg width="14" height="16" viewBox="0 0 14 16" fill="none" xmlns="http://www.w3.org/2000/svg">
<path fill-rule="evenodd" clip-rule="evenodd" d="M2 0C1.46957 0 0.960859 0.210714 0.585786 0.585786C0.210714 0.960859 0 1.46957 0 2V16L3.5 14L7 16L10.5 14L14 16V2C14 1.46957 13.7893 0.960859 13.4142 0.585786C13.0391 0.210714 12.5304 0 12 0H2ZM6.707 3.707C6.88916 3.5184 6.98995 3.2658 6.98767 3.0036C6.9854 2.7414 6.88023 2.49059 6.69482 2.30518C6.50941 2.11977 6.2586 2.0146 5.9964 2.01233C5.7342 2.01005 5.4816 2.11084 5.293 2.293L2.293 5.293C2.10553 5.48053 2.00021 5.73484 2.00021 6C2.00021 6.26516 2.10553 6.51947 2.293 6.707L5.293 9.707C5.4816 9.88916 5.7342 9.98995 5.9964 9.98767C6.2586 9.9854 6.50941 9.88023 6.69482 9.69482C6.88023 9.50941 6.9854 9.2586 6.98767 8.9964C6.98995 8.7342 6.88916 8.4816 6.707 8.293L5.414 7H7C7.79565 7 8.55871 7.31607 9.12132 7.87868C9.68393 8.44129 10 9.20435 10 10V11C10 11.2652 10.1054 11.5196 10.2929 11.7071C10.4804 11.8946 10.7348 12 11 12C11.2652 12 11.5196 11.8946 11.7071 11.7071C11.8946 11.5196 12 11.2652 12 11V10C12 8.67392 11.4732 7.40215 10.5355 6.46447C9.59785 5.52678 8.32608 5 7 5H5.414L6.707 3.707V3.707Z" fill="white"/>
</svg>
