<svg width="10" height="16" viewBox="0 0 10 16" fill="none" xmlns="http://www.w3.org/2000/svg">
<path fill-rule="evenodd" clip-rule="evenodd" d="M2 0C1.46957 0 0.960859 0.210714 0.585786 0.585786C0.210714 0.960859 0 1.46957 0 2V14C0 14.5304 0.210714 15.0391 0.585786 15.4142C0.960859 15.7893 1.46957 16 2 16H8C8.53043 16 9.03914 15.7893 9.41421 15.4142C9.78929 15.0391 10 14.5304 10 14V2C10 1.46957 9.78929 0.960859 9.41421 0.585786C9.03914 0.210714 8.53043 0 8 0H2ZM5 14C5.26522 14 5.51957 13.8946 5.70711 13.7071C5.89464 13.5196 6 13.2652 6 13C6 12.7348 5.89464 12.4804 5.70711 12.2929C5.51957 12.1054 5.26522 12 5 12C4.73478 12 4.48043 12.1054 4.29289 12.2929C4.10536 12.4804 4 12.7348 4 13C4 13.2652 4.10536 13.5196 4.29289 13.7071C4.48043 13.8946 4.73478 14 5 14V14Z" fill="white"/>
</svg>
