<svg width="16" height="14" viewBox="0 0 16 14" fill="none" xmlns="http://www.w3.org/2000/svg">
<path fill-rule="evenodd" clip-rule="evenodd" d="M0 2C0 1.46957 0.210714 0.960859 0.585786 0.585786C0.960859 0.210714 1.46957 0 2 0H14C14.5304 0 15.0391 0.210714 15.4142 0.585786C15.7893 0.960859 16 1.46957 16 2V12C16 12.5304 15.7893 13.0391 15.4142 13.4142C15.0391 13.7893 14.5304 14 14 14H2C1.46957 14 0.960859 13.7893 0.585786 13.4142C0.210714 13.0391 0 12.5304 0 12V2ZM3.293 3.293C3.48053 3.10553 3.73484 3.00021 4 3.00021C4.26516 3.00021 4.51947 3.10553 4.707 3.293L7.707 6.293C7.89447 6.48053 7.99979 6.73484 7.99979 7C7.99979 7.26516 7.89447 7.51947 7.707 7.707L4.707 10.707C4.5184 10.8892 4.2658 10.99 4.0036 10.9877C3.7414 10.9854 3.49059 10.8802 3.30518 10.6948C3.11977 10.5094 3.0146 10.2586 3.01233 9.9964C3.01005 9.7342 3.11084 9.4816 3.293 9.293L5.586 7L3.293 4.707C3.10553 4.51947 3.00021 4.26516 3.00021 4C3.00021 3.73484 3.10553 3.48053 3.293 3.293V3.293ZM9 9C8.73478 9 8.48043 9.10536 8.29289 9.29289C8.10536 9.48043 8 9.73478 8 10C8 10.2652 8.10536 10.5196 8.29289 10.7071C8.48043 10.8946 8.73478 11 9 11H12C12.2652 11 12.5196 10.8946 12.7071 10.7071C12.8946 10.5196 13 10.2652 13 10C13 9.73478 12.8946 9.48043 12.7071 9.29289C12.5196 9.10536 12.2652 9 12 9H9Z" fill="white"/>
</svg>
