<svg width="16" height="17" viewBox="0 0 16 17" fill="none" xmlns="http://www.w3.org/2000/svg">
<path fill-rule="evenodd" clip-rule="evenodd" d="M0.166 3.055C3.06114 3.019 5.84481 1.93346 8 0C10.155 1.93382 12.9387 3.01973 15.834 3.056C15.944 3.706 16 4.376 16 5.057C16 10.282 12.66 14.727 8 16.374C3.34 14.726 0 10.281 0 5.056C0 4.374 0.0569999 3.706 0.166 3.055V3.055ZM11.707 6.763C11.8892 6.5744 11.99 6.3218 11.9877 6.0596C11.9854 5.7974 11.8802 5.54659 11.6948 5.36118C11.5094 5.17577 11.2586 5.0706 10.9964 5.06833C10.7342 5.06605 10.4816 5.16684 10.293 5.349L7 8.642L5.707 7.349C5.5184 7.16684 5.2658 7.06605 5.0036 7.06833C4.7414 7.0706 4.49059 7.17577 4.30518 7.36118C4.11977 7.54659 4.0146 7.7974 4.01233 8.0596C4.01005 8.3218 4.11084 8.5744 4.293 8.763L6.293 10.763C6.48053 10.9505 6.73484 11.0558 7 11.0558C7.26516 11.0558 7.51947 10.9505 7.707 10.763L11.707 6.763V6.763Z" fill="white"/>
</svg>
