<?xml version="1.0" encoding="utf-8"?>
<!-- Generator: Adobe Illustrator 23.0.0, SVG Export Plug-In . SVG Version: 6.00 Build 0)  -->
<svg version="1.1" id="Layer_1" xmlns="http://www.w3.org/2000/svg" xmlns:xlink="http://www.w3.org/1999/xlink" x="0px" y="0px"
	 viewBox="0 0 256 256" style="enable-background:new 0 0 256 256;" xml:space="preserve">
<style type="text/css">
	.st0{fill:#D12053;}
	.st1{fill:#E2136E;}
	.st2{fill:#9E1638;}
</style>
<g>
	<path class="st0" d="M205.41,140.16L93.17,122.57l14.88,66.88L205.41,140.16z"/>
	<path class="st1" d="M205.41,140.16L120.84,22.65l-27.64,99.94L205.41,140.16z"/>
	<path class="st0" d="M90.57,121.24L1.95,7.98L118,21.85L90.57,121.24z"/>
	<path class="st2" d="M50.21,73.91L1,27.54h12.95L50.21,73.91z"/>
	<path class="st0" d="M229.35,83.04l-20.83,56.49l-33.76-46.69L229.35,83.04z"/>
	<path class="st1" d="M121.15,186.07l81.72-32.83l3.43-10.43L121.15,186.07z"/>
	<path class="st2" d="M55.8,248.02l35.01-122.8l17.76,79.9L55.8,248.02z"/>
	<path class="st1" d="M232.61,83.48l-8.59,23.32L255,106.3L232.61,83.48z"/>
</g>
</svg>
