<?xml version="1.0" encoding="utf-8"?>
<!-- Generator: Adobe Illustrator 23.0.0, SVG Export Plug-In . SVG Version: 6.00 Build 0)  -->
<svg version="1.1" id="Ñëîé_1" xmlns="http://www.w3.org/2000/svg" xmlns:xlink="http://www.w3.org/1999/xlink" x="0px" y="0px"
	 viewBox="0 0 600 450" style="enable-background:new 0 0 600 450;" xml:space="preserve">
<style type="text/css">
	.st0{fill:url(#SVGID_1_);}
	.st1{fill:url(#SVGID_2_);}
	.st2{fill:url(#SVGID_3_);}
	.st3{opacity:0.6;fill:#0C0F38;}
	.st4{opacity:0.8;fill:#D4088C;}
	.st5{fill:#6EE8FC;}
	.st6{fill:#D4088C;}
	.st7{fill:#6EE1F8;}
	.st8{opacity:0.6;}
	.st9{fill:#0C0F38;}
	.st10{opacity:0.4;}
	.st11{fill:url(#SVGID_4_);}
	.st12{fill:url(#SVGID_5_);}
	.st13{fill:#480689;}
	.st14{opacity:0.5;}
	.st15{fill:url(#SVGID_8_);}
	.st16{fill:url(#SVGID_9_);}
	.st17{opacity:0.7;}
	.st18{fill:url(#SVGID_12_);}
	.st19{fill:url(#SVGID_13_);}
	.st20{fill:url(#SVGID_16_);}
	.st21{fill:url(#SVGID_17_);}
	.st22{fill:url(#SVGID_18_);}
	.st23{fill:#25BFEC;}
	.st24{fill:url(#SVGID_21_);}
	.st25{fill:url(#SVGID_22_);}
	.st26{fill:url(#SVGID_25_);}
	.st27{fill:url(#SVGID_26_);}
	.st28{fill:url(#SVGID_29_);}
	.st29{fill:url(#SVGID_30_);}
	.st30{fill:url(#SVGID_33_);}
	.st31{fill:url(#SVGID_34_);}
	.st32{fill:url(#SVGID_35_);}
	.st33{fill:#6DE0F6;}
	.st34{fill:#267FE5;}
	.st35{fill:url(#SVGID_36_);}
	.st36{fill:url(#SVGID_37_);}
	.st37{fill:url(#SVGID_40_);}
	.st38{fill:url(#SVGID_41_);}
	.st39{fill:url(#SVGID_44_);}
	.st40{fill:url(#SVGID_45_);}
	.st41{fill:url(#SVGID_48_);}
	.st42{fill:url(#SVGID_49_);}
	.st43{fill:url(#SVGID_50_);}
	.st44{fill:url(#SVGID_53_);}
	.st45{fill:url(#SVGID_54_);}
	.st46{fill:url(#SVGID_57_);}
	.st47{fill:url(#SVGID_58_);}
	.st48{fill:url(#SVGID_61_);}
	.st49{fill:url(#SVGID_62_);}
	.st50{fill:url(#SVGID_65_);}
	.st51{fill:url(#SVGID_66_);}
	.st52{fill:url(#SVGID_67_);}
	.st53{fill:url(#SVGID_70_);}
	.st54{fill:url(#SVGID_71_);}
	.st55{fill:url(#SVGID_72_);}
	.st56{fill:url(#SVGID_73_);}
	.st57{fill:url(#SVGID_74_);}
	.st58{fill:url(#SVGID_75_);}
	.st59{opacity:0.8;fill:url(#SVGID_76_);}
	.st60{opacity:0.1;fill:#6DE0F6;}
	.st61{opacity:0.4;fill:#6DE0F6;}
</style>
<g>
	
		<linearGradient id="SVGID_1_" gradientUnits="userSpaceOnUse" x1="427.2484" y1="1022.276" x2="497.7128" y2="1022.276" gradientTransform="matrix(-0.7071 0.7071 -0.7071 -0.7071 1119.8167 734.1299)">
		<stop  offset="0" style="stop-color:#D4088C"/>
		<stop  offset="0.045" style="stop-color:#CC088C"/>
		<stop  offset="0.4621" style="stop-color:#85078A"/>
		<stop  offset="0.7624" style="stop-color:#590689"/>
		<stop  offset="0.914" style="stop-color:#480689"/>
	</linearGradient>
	<circle class="st0" cx="69.95" cy="338.3" r="35.23"/>
	
		<linearGradient id="SVGID_2_" gradientUnits="userSpaceOnUse" x1="278.0142" y1="1135.9265" x2="307.1946" y2="1135.9265" gradientTransform="matrix(-1 0 0 -1 408.1528 1225.2839)">
		<stop  offset="0" style="stop-color:#6EE8FC"/>
		<stop  offset="0.1572" style="stop-color:#6AE2FB"/>
		<stop  offset="0.3681" style="stop-color:#5ED1F7"/>
		<stop  offset="0.6094" style="stop-color:#4BB5F1"/>
		<stop  offset="0.8716" style="stop-color:#308EE8"/>
		<stop  offset="0.9624" style="stop-color:#267FE5"/>
	</linearGradient>
	<circle class="st1" cx="115.55" cy="89.36" r="14.59"/>
	
		<linearGradient id="SVGID_3_" gradientUnits="userSpaceOnUse" x1="153.5149" y1="788.1648" x2="219.117" y2="788.1648" gradientTransform="matrix(0.8955 0.445 -0.445 0.8955 720.2325 -555.8404)">
		<stop  offset="0" style="stop-color:#6EE8FC"/>
		<stop  offset="0.1572" style="stop-color:#6AE2FB"/>
		<stop  offset="0.3681" style="stop-color:#5ED1F7"/>
		<stop  offset="0.6094" style="stop-color:#4BB5F1"/>
		<stop  offset="0.8716" style="stop-color:#308EE8"/>
		<stop  offset="0.9624" style="stop-color:#267FE5"/>
	</linearGradient>
	<circle class="st2" cx="533.54" cy="231.48" r="26.22"/>
	<path class="st3" d="M540.25,337.69c-10.54,2.05-21.97-1.23-25.51-7.32c-3.54-6.09,2.13-12.68,12.68-14.73
		c10.54-2.05,21.97,1.23,25.51,7.32C556.47,329.05,550.8,335.64,540.25,337.69z"/>
	<path class="st3" d="M118.75,148.33c-5.27,1.02-10.97-0.61-12.74-3.66c-1.77-3.04,1.06-6.33,6.33-7.36
		c5.27-1.02,10.97,0.61,12.74,3.66C126.86,144.02,124.02,147.31,118.75,148.33z"/>
	<g>
		<circle class="st4" cx="211.94" cy="28.65" r="3.74"/>
		<circle class="st4" cx="146.42" cy="408.73" r="4.5"/>
		<path class="st5" d="M120.18,388.8c0,1.28-1.04,2.32-2.32,2.32c-1.28,0-2.32-1.04-2.32-2.32c0-1.28,1.04-2.32,2.32-2.32
			C119.15,386.48,120.18,387.52,120.18,388.8z"/>
		<path class="st5" d="M513.69,303.23c0,1.32-1.07,2.4-2.4,2.4c-1.32,0-2.4-1.07-2.4-2.4s1.07-2.4,2.4-2.4
			C512.61,300.83,513.69,301.9,513.69,303.23z"/>
		<g>
			<path class="st5" d="M70.36,141.49c0,1.86-1.51,3.37-3.37,3.37s-3.37-1.51-3.37-3.37c0-1.86,1.51-3.37,3.37-3.37
				S70.36,139.62,70.36,141.49z"/>
			<path class="st5" d="M322.43,18.5c0,1.86-1.51,3.37-3.37,3.37c-1.86,0-3.37-1.51-3.37-3.37s1.51-3.37,3.37-3.37
				C320.92,15.13,322.43,16.64,322.43,18.5z"/>
			<path class="st5" d="M84.09,134.01c0,1.03-0.84,1.87-1.87,1.87c-1.03,0-1.87-0.84-1.87-1.87c0-1.03,0.84-1.87,1.87-1.87
				C83.26,132.14,84.09,132.98,84.09,134.01z"/>
		</g>
		<path class="st6" d="M405.57,30.55c0,1.22-0.99,2.21-2.21,2.21c-1.22,0-2.21-0.99-2.21-2.21c0-1.22,0.99-2.21,2.21-2.21
			C404.59,28.34,405.57,29.33,405.57,30.55z"/>
	</g>
	<g>
		<g>
			<polygon class="st7" points="81.53,252.08 80.72,249.19 87.14,247.4 85.34,240.98 88.23,240.17 90.83,249.48 			"/>
		</g>
		<g>
			<polygon class="st7" points="75.87,262.13 75.06,259.24 81.48,257.45 79.68,251.04 82.57,250.23 85.17,259.53 			"/>
		</g>
		<g>
			<polygon class="st7" points="81.88,258.89 79.28,249.59 88.58,246.99 89.39,249.88 82.97,251.67 84.76,258.09 			"/>
		</g>
	</g>
	<path class="st7" d="M303.2,37.68c-3.93,0-7.13-3.2-7.13-7.13s3.2-7.13,7.13-7.13c3.93,0,7.13,3.2,7.13,7.13
		S307.13,37.68,303.2,37.68z M303.2,26.41c-2.28,0-4.14,1.86-4.14,4.14c0,2.28,1.86,4.14,4.14,4.14c2.28,0,4.14-1.86,4.14-4.14
		C307.33,28.27,305.48,26.41,303.2,26.41z"/>
	<path class="st7" d="M459.66,394.57l-8.1-8.1l8.1-8.1l8.1,8.1L459.66,394.57z M455.81,386.48l3.86,3.86l3.86-3.86l-3.86-3.86
		L455.81,386.48z"/>
	<g>
		
			<rect x="480.71" y="98.38" transform="matrix(0.7071 -0.7071 0.7071 0.7071 67.3472 371.5978)" class="st6" width="3" height="12.26"/>
		
			<rect x="476.08" y="103.01" transform="matrix(0.7071 -0.7071 0.7071 0.7071 67.3397 371.5862)" class="st6" width="12.26" height="3"/>
	</g>
</g>
<g class="st8">
	<path class="st9" d="M290.3,312.9l-58.55-33.8c-4.16-2.4-3.64-6.6,1.17-9.38l56.21-32.45c4.81-2.78,12.08-3.08,16.24-0.67
		l58.55,33.8c4.16,2.4,3.64,6.6-1.17,9.38l-56.21,32.45C301.73,315,294.46,315.31,290.3,312.9z"/>
	<path class="st9" d="M384.29,371.68l-58.55-33.8c-4.16-2.4-3.64-6.6,1.17-9.38l56.21-32.45c4.81-2.78,12.08-3.08,16.24-0.67
		l58.55,33.8c4.16,2.4,3.64,6.6-1.17,9.38L400.53,371C395.72,373.78,388.45,374.08,384.29,371.68z"/>
	<path class="st9" d="M195.76,366.86l-58.55-33.8c-4.16-2.4-3.64-6.6,1.17-9.38l56.21-32.45c4.81-2.78,12.08-3.08,16.24-0.67
		l58.55,33.8c4.16,2.4,3.64,6.6-1.17,9.38L212,366.19C207.19,368.96,199.92,369.27,195.76,366.86z"/>
	<path class="st9" d="M289.75,425.64l-58.55-33.8c-4.16-2.4-3.64-6.6,1.17-9.38L288.58,350c4.81-2.77,12.08-3.08,16.24-0.67
		l58.55,33.8c4.16,2.4,3.64,6.6-1.17,9.38l-56.21,32.45C301.18,427.74,293.91,428.04,289.75,425.64z"/>
</g>
<g>
	<g>
		<path class="st9" d="M290.32,297.2l-58.55-33.8c-4.16-2.4-3.64-6.6,1.17-9.38l56.21-32.45c4.81-2.77,12.08-3.08,16.24-0.67
			l58.55,33.8c4.16,2.4,3.64,6.6-1.17,9.38l-56.21,32.45C301.75,299.3,294.48,299.6,290.32,297.2z"/>
		<g class="st10">
			<linearGradient id="SVGID_4_" gradientUnits="userSpaceOnUse" x1="215.9183" y1="235.9996" x2="383.7803" y2="235.9996">
				<stop  offset="0" style="stop-color:#A31FA9"/>
				<stop  offset="0.0668" style="stop-color:#8B17A0"/>
				<stop  offset="0.1494" style="stop-color:#740F98"/>
				<stop  offset="0.2393" style="stop-color:#640A92"/>
				<stop  offset="0.3408" style="stop-color:#5B078F"/>
				<stop  offset="0.4785" style="stop-color:#58068E"/>
				<stop  offset="0.6264" style="stop-color:#4D22A3"/>
				<stop  offset="0.9436" style="stop-color:#3168DA"/>
				<stop  offset="1" style="stop-color:#2C75E4"/>
			</linearGradient>
			<path class="st11" d="M366.73,216.51h-29.04l-32.32-18.66c-4.16-2.4-11.43-2.1-16.24,0.67l-31.16,17.99h-29.02V236h0.01
				c-0.12,1.63,0.79,3.2,2.79,4.35l58.55,33.8c4.16,2.4,11.43,2.1,16.24-0.67l56.21-32.45c2.5-1.44,3.83-3.27,3.95-5.03h0.02V216.51
				z"/>
			<path class="st6" d="M230.8,237.34L230.8,237.34l-0.01-19.49h29.02l31.16-17.99c4.81-2.78,12.08-3.08,16.24-0.67l32.32,18.66
				h27.2v-1.34h-29.04l-32.32-18.66c-4.16-2.4-11.43-2.1-16.24,0.67l-31.16,17.99h-29.02V236h0.01c-0.12,1.63,0.79,3.2,2.79,4.35
				l0.33,0.19C231.14,239.58,230.72,238.48,230.8,237.34z"/>
			
				<linearGradient id="SVGID_5_" gradientUnits="userSpaceOnUse" x1="563.3957" y1="785.0814" x2="642.5765" y2="716.5088" gradientTransform="matrix(0.866 0.5 -1 0.5774 525.0016 -518.4943)">
				<stop  offset="0" style="stop-color:#8D139B"/>
				<stop  offset="0.1651" style="stop-color:#851BA1"/>
				<stop  offset="0.4284" style="stop-color:#6E33B2"/>
				<stop  offset="0.7551" style="stop-color:#4958CD"/>
				<stop  offset="1" style="stop-color:#2979E4"/>
			</linearGradient>
			<path class="st12" d="M290.3,254.66l-58.55-33.8c-4.16-2.4-3.64-6.6,1.17-9.38l56.21-32.45c4.81-2.78,12.08-3.08,16.24-0.67
				l58.55,33.8c4.16,2.4,3.64,6.6-1.17,9.38l-56.21,32.45C301.73,256.76,294.46,257.06,290.3,254.66z"/>
			<path class="st5" d="M363.92,212.16l-58.55-33.8c-2.16-1.24-5.15-1.76-8.2-1.58c2.22,0.13,4.29,0.65,5.9,1.58l58.55,33.8
				c4.16,2.4,3.64,6.6-1.17,9.38l-56.21,32.45c-2.32,1.34-5.21,2.09-8.04,2.26c3.52,0.21,7.39-0.56,10.34-2.26l56.21-32.45
				C367.56,218.76,368.08,214.56,363.92,212.16z"/>
			<path class="st13" d="M297.48,246.61c-2.06,0-4.03-0.42-5.5-1.27l-43.59-25.16c-1.51-0.87-2.34-2.1-2.34-3.47
				c0-1.61,1.17-3.2,3.21-4.38l41.85-24.16c3.71-2.14,9.36-2.37,12.59-0.5l43.59,25.17c1.51,0.87,2.34,2.1,2.34,3.47
				c0,1.61-1.17,3.2-3.21,4.38l-41.85,24.16C302.54,246.01,299.95,246.61,297.48,246.61z M298.2,187.39c-2.29,0-4.7,0.56-6.59,1.65
				l-41.85,24.16c-1.72,0.99-2.71,2.28-2.71,3.52c0,0.99,0.65,1.91,1.84,2.6l43.59,25.16c2.96,1.71,8.16,1.48,11.59-0.5l41.85-24.16
				c1.72-0.99,2.71-2.28,2.71-3.52c0-0.99-0.65-1.91-1.84-2.6l-43.59-25.17C301.86,187.77,300.07,187.39,298.2,187.39z"/>
			<path class="st6" d="M292.93,254.66l-58.55-33.8c-4.16-2.4-3.64-6.6,1.17-9.38l56.21-32.45c2.28-1.32,5.12-2.07,7.92-2.25
				c-3.57-0.26-7.54,0.51-10.54,2.25l-56.21,32.45c-4.81,2.78-5.33,6.97-1.17,9.38l58.55,33.8c2.19,1.26,5.23,1.77,8.32,1.57
				C296.48,256.08,294.49,255.56,292.93,254.66z"/>
			<g>
				<defs>
					<path id="SVGID_6_" d="M293.77,237.09l-31.58-18.23c-2.25-1.3-1.96-3.56,0.63-5.06l30.32-17.51c2.59-1.5,6.51-1.66,8.76-0.36
						l31.58,18.23c2.25,1.3,1.96,3.56-0.63,5.06l-30.32,17.51C299.94,238.22,296.02,238.38,293.77,237.09z"/>
				</defs>
				<clipPath id="SVGID_7_">
					<use xlink:href="#SVGID_6_"  style="overflow:visible;"/>
				</clipPath>
			</g>
		</g>
		<g class="st14">
			<linearGradient id="SVGID_8_" gradientUnits="userSpaceOnUse" x1="215.9183" y1="209.1499" x2="383.7803" y2="209.1499">
				<stop  offset="0" style="stop-color:#A31FA9"/>
				<stop  offset="0.0668" style="stop-color:#8B17A0"/>
				<stop  offset="0.1494" style="stop-color:#740F98"/>
				<stop  offset="0.2393" style="stop-color:#640A92"/>
				<stop  offset="0.3408" style="stop-color:#5B078F"/>
				<stop  offset="0.4785" style="stop-color:#58068E"/>
				<stop  offset="0.6264" style="stop-color:#4D22A3"/>
				<stop  offset="0.9436" style="stop-color:#3168DA"/>
				<stop  offset="1" style="stop-color:#2C75E4"/>
			</linearGradient>
			<path class="st15" d="M366.73,189.66h-29.04L305.37,171c-4.16-2.4-11.43-2.1-16.24,0.67l-31.16,17.99h-29.02v19.49h0.01
				c-0.12,1.63,0.79,3.2,2.79,4.35l58.55,33.8c4.16,2.4,11.43,2.1,16.24-0.67l56.21-32.45c2.5-1.44,3.83-3.27,3.95-5.03h0.02V189.66
				z"/>
			<path class="st6" d="M230.8,210.49L230.8,210.49L230.79,191h29.02l31.16-17.99c4.81-2.78,12.08-3.08,16.24-0.67L339.53,191h27.2
				v-1.34h-29.04L305.37,171c-4.16-2.4-11.43-2.1-16.24,0.67l-31.16,17.99h-29.02v19.49h0.01c-0.12,1.63,0.79,3.2,2.79,4.35
				l0.33,0.19C231.14,212.73,230.72,211.63,230.8,210.49z"/>
			
				<linearGradient id="SVGID_9_" gradientUnits="userSpaceOnUse" x1="536.5467" y1="761.8303" x2="615.7276" y2="693.2576" gradientTransform="matrix(0.866 0.5 -1 0.5774 525.0016 -518.4943)">
				<stop  offset="0" style="stop-color:#8D139B"/>
				<stop  offset="0.1651" style="stop-color:#851BA1"/>
				<stop  offset="0.4284" style="stop-color:#6E33B2"/>
				<stop  offset="0.7551" style="stop-color:#4958CD"/>
				<stop  offset="1" style="stop-color:#2979E4"/>
			</linearGradient>
			<path class="st16" d="M290.3,227.81l-58.55-33.8c-4.16-2.4-3.64-6.6,1.17-9.38l56.21-32.45c4.81-2.78,12.08-3.08,16.24-0.67
				l58.55,33.8c4.16,2.4,3.64,6.6-1.17,9.38l-56.21,32.45C301.73,229.91,294.46,230.21,290.3,227.81z"/>
			<path class="st5" d="M363.92,185.31l-58.55-33.8c-2.16-1.24-5.15-1.76-8.2-1.58c2.22,0.13,4.29,0.65,5.9,1.58l58.55,33.8
				c4.16,2.4,3.64,6.6-1.17,9.38l-56.21,32.45c-2.32,1.34-5.21,2.09-8.04,2.26c3.52,0.21,7.39-0.55,10.34-2.26l56.21-32.45
				C367.56,191.91,368.08,187.71,363.92,185.31z"/>
			<path class="st13" d="M297.48,219.76c-2.06,0-4.03-0.42-5.5-1.27l-43.59-25.17c-1.51-0.87-2.34-2.1-2.34-3.46
				c0-1.61,1.17-3.2,3.21-4.38l41.85-24.16c3.71-2.14,9.36-2.37,12.59-0.5l43.59,25.16c1.51,0.87,2.34,2.1,2.34,3.47
				c0,1.61-1.17,3.2-3.21,4.38l-41.85,24.16C302.54,219.16,299.95,219.76,297.48,219.76z M292.48,217.63
				c2.96,1.7,8.16,1.48,11.59-0.5l41.85-24.16c1.72-0.99,2.71-2.28,2.71-3.52c0-0.99-0.65-1.91-1.84-2.6l-43.59-25.16
				c-2.96-1.71-8.16-1.48-11.59,0.5l-41.85,24.16c-1.72,1-2.71,2.28-2.71,3.52c0,0.99,0.65,1.91,1.84,2.6L292.48,217.63z"/>
			<path class="st6" d="M292.93,227.81l-58.55-33.8c-4.16-2.4-3.64-6.6,1.17-9.38l56.21-32.45c2.28-1.32,5.12-2.07,7.92-2.25
				c-3.57-0.26-7.54,0.51-10.54,2.25l-56.21,32.45c-4.81,2.77-5.33,6.97-1.17,9.38l58.55,33.8c2.19,1.26,5.23,1.77,8.32,1.57
				C296.48,229.23,294.49,228.71,292.93,227.81z"/>
			<g>
				<defs>
					<path id="SVGID_10_" d="M293.77,210.24L262.19,192c-2.25-1.3-1.96-3.56,0.63-5.06l30.32-17.51c2.59-1.5,6.51-1.66,8.76-0.36
						l31.58,18.23c2.25,1.3,1.96,3.56-0.63,5.06l-30.32,17.51C299.94,211.37,296.02,211.53,293.77,210.24z"/>
				</defs>
				<clipPath id="SVGID_11_">
					<use xlink:href="#SVGID_10_"  style="overflow:visible;"/>
				</clipPath>
			</g>
		</g>
		<g class="st17">
			<linearGradient id="SVGID_12_" gradientUnits="userSpaceOnUse" x1="215.9183" y1="182.3003" x2="383.7803" y2="182.3003">
				<stop  offset="0" style="stop-color:#A31FA9"/>
				<stop  offset="0.0668" style="stop-color:#8B17A0"/>
				<stop  offset="0.1494" style="stop-color:#740F98"/>
				<stop  offset="0.2393" style="stop-color:#640A92"/>
				<stop  offset="0.3408" style="stop-color:#5B078F"/>
				<stop  offset="0.4785" style="stop-color:#58068E"/>
				<stop  offset="0.6264" style="stop-color:#4D22A3"/>
				<stop  offset="0.9436" style="stop-color:#3168DA"/>
				<stop  offset="1" style="stop-color:#2C75E4"/>
			</linearGradient>
			<path class="st18" d="M366.73,162.81h-29.04l-32.32-18.66c-4.16-2.4-11.43-2.1-16.24,0.67l-31.16,17.99h-29.02v19.49h0.01
				c-0.12,1.63,0.79,3.2,2.79,4.35l58.55,33.8c4.16,2.4,11.43,2.1,16.24-0.67l56.21-32.45c2.5-1.44,3.83-3.27,3.95-5.03h0.02V162.81
				z"/>
			<path class="st6" d="M230.8,183.64L230.8,183.64l-0.01-19.49h29.02l31.16-17.99c4.81-2.78,12.08-3.08,16.24-0.67l32.32,18.66
				h27.2v-1.34h-29.04l-32.32-18.66c-4.16-2.4-11.43-2.1-16.24,0.67l-31.16,17.99h-29.02v19.49h0.01c-0.12,1.63,0.79,3.2,2.79,4.35
				l0.33,0.19C231.14,185.88,230.72,184.78,230.8,183.64z"/>
			
				<linearGradient id="SVGID_13_" gradientUnits="userSpaceOnUse" x1="509.6978" y1="738.5791" x2="588.8787" y2="670.0065" gradientTransform="matrix(0.866 0.5 -1 0.5774 525.0016 -518.4943)">
				<stop  offset="0" style="stop-color:#8D139B"/>
				<stop  offset="0.1651" style="stop-color:#851BA1"/>
				<stop  offset="0.4284" style="stop-color:#6E33B2"/>
				<stop  offset="0.7551" style="stop-color:#4958CD"/>
				<stop  offset="1" style="stop-color:#2979E4"/>
			</linearGradient>
			<path class="st19" d="M290.3,200.96l-58.55-33.8c-4.16-2.4-3.64-6.6,1.17-9.38l56.21-32.45c4.81-2.78,12.08-3.08,16.24-0.67
				l58.55,33.8c4.16,2.4,3.64,6.6-1.17,9.38l-56.21,32.45C301.73,203.06,294.46,203.36,290.3,200.96z"/>
			<path class="st5" d="M363.92,158.46l-58.55-33.8c-2.16-1.24-5.15-1.76-8.2-1.58c2.22,0.13,4.29,0.65,5.9,1.58l58.55,33.8
				c4.16,2.4,3.64,6.6-1.17,9.38l-56.21,32.45c-2.32,1.34-5.21,2.09-8.04,2.26c3.52,0.21,7.39-0.56,10.34-2.26l56.21-32.45
				C367.56,165.06,368.08,160.86,363.92,158.46z"/>
			<path class="st13" d="M297.48,192.91c-2.06,0-4.03-0.42-5.5-1.27l-43.59-25.16c-1.51-0.87-2.34-2.1-2.34-3.47
				c0-1.61,1.17-3.2,3.21-4.38l41.85-24.16c3.71-2.14,9.36-2.37,12.59-0.5l43.59,25.17c1.51,0.87,2.34,2.1,2.34,3.47
				c0,1.61-1.17,3.2-3.21,4.38l-41.85,24.16C302.54,192.31,299.95,192.91,297.48,192.91z M292.48,190.78
				c2.96,1.7,8.16,1.48,11.59-0.5l41.85-24.16c1.72-0.99,2.71-2.28,2.71-3.52c0-0.99-0.65-1.91-1.84-2.6l-43.59-25.17
				c-2.96-1.71-8.16-1.48-11.59,0.5l-41.85,24.16c-1.72,1-2.71,2.28-2.71,3.52c0,0.99,0.65,1.91,1.84,2.6L292.48,190.78z"/>
			<path class="st6" d="M292.93,200.96l-58.55-33.8c-4.16-2.4-3.64-6.6,1.17-9.38l56.21-32.45c2.28-1.32,5.12-2.07,7.92-2.25
				c-3.57-0.25-7.54,0.51-10.54,2.25l-56.21,32.45c-4.81,2.78-5.33,6.97-1.17,9.38l58.55,33.8c2.19,1.26,5.23,1.77,8.32,1.57
				C296.48,202.38,294.49,201.86,292.93,200.96z"/>
			<g>
				<defs>
					<path id="SVGID_14_" d="M293.77,183.39l-31.58-18.23c-2.25-1.3-1.96-3.56,0.63-5.06l30.32-17.51c2.59-1.5,6.51-1.66,8.76-0.36
						l31.58,18.23c2.25,1.3,1.96,3.56-0.63,5.06l-30.32,17.51C299.94,184.52,296.02,184.68,293.77,183.39z"/>
				</defs>
				<clipPath id="SVGID_15_">
					<use xlink:href="#SVGID_14_"  style="overflow:visible;"/>
				</clipPath>
			</g>
		</g>
		<g>
			<linearGradient id="SVGID_16_" gradientUnits="userSpaceOnUse" x1="215.9183" y1="155.4505" x2="383.7803" y2="155.4505">
				<stop  offset="0" style="stop-color:#A31FA9"/>
				<stop  offset="0.0668" style="stop-color:#8B17A0"/>
				<stop  offset="0.1494" style="stop-color:#740F98"/>
				<stop  offset="0.2393" style="stop-color:#640A92"/>
				<stop  offset="0.3408" style="stop-color:#5B078F"/>
				<stop  offset="0.4785" style="stop-color:#58068E"/>
				<stop  offset="0.6264" style="stop-color:#4D22A3"/>
				<stop  offset="0.9436" style="stop-color:#3168DA"/>
				<stop  offset="1" style="stop-color:#2C75E4"/>
			</linearGradient>
			<path class="st20" d="M366.73,135.96h-29.04l-32.32-18.66c-4.16-2.4-11.43-2.1-16.24,0.67l-31.16,17.99h-29.02v19.49h0.01
				c-0.12,1.63,0.79,3.2,2.79,4.35l58.55,33.8c4.16,2.4,11.43,2.1,16.24-0.67l56.21-32.45c2.5-1.44,3.83-3.27,3.95-5.03h0.02V135.96
				z"/>
			<path class="st6" d="M230.8,156.79L230.8,156.79l-0.01-19.49h29.02l31.16-17.99c4.81-2.78,12.08-3.08,16.24-0.67l32.32,18.66
				h27.2v-1.34h-29.04l-32.32-18.66c-4.16-2.4-11.43-2.1-16.24,0.67l-31.16,17.99h-29.02v19.49h0.01c-0.12,1.63,0.79,3.2,2.79,4.35
				l0.33,0.19C231.14,159.03,230.72,157.93,230.8,156.79z"/>
			
				<linearGradient id="SVGID_17_" gradientUnits="userSpaceOnUse" x1="482.8489" y1="715.3279" x2="562.0298" y2="646.7552" gradientTransform="matrix(0.866 0.5 -1 0.5774 525.0016 -518.4943)">
				<stop  offset="0" style="stop-color:#267FE5"/>
				<stop  offset="0.1699" style="stop-color:#2C87E7"/>
				<stop  offset="0.441" style="stop-color:#3D9FEB"/>
				<stop  offset="0.7773" style="stop-color:#59C4F2"/>
				<stop  offset="1" style="stop-color:#6EE1F8"/>
			</linearGradient>
			<path class="st21" d="M290.3,174.11l-58.55-33.8c-4.16-2.4-3.64-6.6,1.17-9.38l56.21-32.45c4.81-2.77,12.08-3.08,16.24-0.67
				l58.55,33.8c4.16,2.4,3.64,6.6-1.17,9.38l-56.21,32.45C301.73,176.21,294.46,176.51,290.3,174.11z"/>
			<path class="st5" d="M363.92,131.61l-58.55-33.8c-2.16-1.24-5.15-1.76-8.2-1.58c2.22,0.13,4.29,0.65,5.9,1.58l58.55,33.8
				c4.16,2.4,3.64,6.6-1.17,9.38l-56.21,32.45c-2.32,1.34-5.21,2.09-8.04,2.26c3.52,0.21,7.39-0.55,10.34-2.26l56.21-32.45
				C367.56,138.21,368.08,134.01,363.92,131.61z"/>
			<linearGradient id="SVGID_18_" gradientUnits="userSpaceOnUse" x1="246.0452" y1="135.9594" x2="349.6272" y2="135.9594">
				<stop  offset="0" style="stop-color:#6DE0F6"/>
				<stop  offset="0.1595" style="stop-color:#68D8F5"/>
				<stop  offset="0.4138" style="stop-color:#5AC0F1"/>
				<stop  offset="0.7294" style="stop-color:#439BEA"/>
				<stop  offset="1" style="stop-color:#2C75E4"/>
			</linearGradient>
			<path class="st22" d="M297.48,166.06c-2.06,0-4.03-0.42-5.5-1.27l-43.59-25.17c-1.51-0.87-2.34-2.1-2.34-3.46
				c0-1.61,1.17-3.2,3.21-4.38l41.85-24.16c3.71-2.14,9.36-2.37,12.59-0.5l43.59,25.16c1.51,0.87,2.34,2.1,2.34,3.47
				c0,1.61-1.17,3.2-3.21,4.38l-41.85,24.16C302.54,165.46,299.95,166.06,297.48,166.06z M292.48,163.93
				c2.96,1.7,8.16,1.48,11.59-0.5l41.85-24.16c1.72-0.99,2.71-2.27,2.71-3.51c0-0.99-0.65-1.91-1.84-2.6l-43.59-25.16
				c-2.96-1.71-8.16-1.48-11.59,0.5l-41.85,24.16c-1.72,1-2.71,2.28-2.71,3.52c0,0.99,0.65,1.91,1.84,2.6L292.48,163.93z"/>
			<path class="st23" d="M292.93,174.11l-58.55-33.8c-4.16-2.4-3.64-6.6,1.17-9.38l56.21-32.45c2.28-1.32,5.12-2.07,7.92-2.25
				c-3.57-0.26-7.54,0.51-10.54,2.25l-56.21,32.45c-4.81,2.78-5.33,6.97-1.17,9.38l58.55,33.8c2.19,1.26,5.23,1.77,8.32,1.57
				C296.48,175.53,294.49,175.01,292.93,174.11z"/>
			<g>
				<defs>
					<path id="SVGID_19_" d="M293.77,156.54l-31.58-18.23c-2.25-1.3-1.96-3.56,0.63-5.06l30.32-17.51c2.59-1.5,6.51-1.66,8.76-0.36
						l31.58,18.23c2.25,1.3,1.96,3.56-0.63,5.06l-30.32,17.51C299.94,157.67,296.02,157.83,293.77,156.54z"/>
				</defs>
				<clipPath id="SVGID_20_">
					<use xlink:href="#SVGID_19_"  style="overflow:visible;"/>
				</clipPath>
			</g>
		</g>
	</g>
	<g>
		<g class="st10">
			<linearGradient id="SVGID_21_" gradientUnits="userSpaceOnUse" x1="309.9083" y1="294.7734" x2="477.7701" y2="294.7734">
				<stop  offset="0" style="stop-color:#A31FA9"/>
				<stop  offset="0.0668" style="stop-color:#8B17A0"/>
				<stop  offset="0.1494" style="stop-color:#740F98"/>
				<stop  offset="0.2393" style="stop-color:#640A92"/>
				<stop  offset="0.3408" style="stop-color:#5B078F"/>
				<stop  offset="0.4785" style="stop-color:#58068E"/>
				<stop  offset="0.6264" style="stop-color:#4D22A3"/>
				<stop  offset="0.9436" style="stop-color:#3168DA"/>
				<stop  offset="1" style="stop-color:#2C75E4"/>
			</linearGradient>
			<path class="st24" d="M460.72,275.28h-29.03l-32.32-18.66c-4.16-2.4-11.43-2.1-16.24,0.67l-31.16,17.99h-29.02v19.49h0.01
				c-0.12,1.63,0.79,3.2,2.79,4.35l58.55,33.8c4.16,2.4,11.43,2.1,16.24-0.67l56.21-32.45c2.5-1.44,3.83-3.27,3.95-5.03h0.02V275.28
				z"/>
			<path class="st6" d="M324.79,296.12L324.79,296.12l-0.01-19.49h29.02l31.16-17.99c4.81-2.78,12.08-3.08,16.24-0.67l32.32,18.66
				h27.2v-1.34h-29.04l-32.32-18.66c-4.16-2.4-11.43-2.1-16.24,0.67l-31.16,17.99h-29.02v19.49h0.01c-0.12,1.63,0.79,3.2,2.79,4.35
				l0.33,0.19C325.13,298.36,324.71,297.25,324.79,296.12z"/>
			
				<linearGradient id="SVGID_22_" gradientUnits="userSpaceOnUse" x1="676.436" y1="788.9844" x2="755.6169" y2="720.4117" gradientTransform="matrix(0.866 0.5 -1 0.5774 525.0016 -518.4943)">
				<stop  offset="0" style="stop-color:#8D139B"/>
				<stop  offset="0.1651" style="stop-color:#851BA1"/>
				<stop  offset="0.4284" style="stop-color:#6E33B2"/>
				<stop  offset="0.7551" style="stop-color:#4958CD"/>
				<stop  offset="1" style="stop-color:#2979E4"/>
			</linearGradient>
			<path class="st25" d="M384.29,313.43l-58.55-33.8c-4.16-2.4-3.64-6.6,1.17-9.38l56.21-32.45c4.81-2.78,12.08-3.08,16.24-0.67
				l58.55,33.8c4.16,2.4,3.64,6.6-1.17,9.38l-56.21,32.45C395.72,315.54,388.45,315.84,384.29,313.43z"/>
			<path class="st5" d="M457.91,270.93l-58.55-33.8c-2.16-1.24-5.15-1.76-8.2-1.58c2.22,0.13,4.29,0.65,5.9,1.58l58.55,33.8
				c4.16,2.4,3.64,6.6-1.17,9.38l-56.21,32.45c-2.32,1.34-5.21,2.09-8.04,2.26c3.52,0.21,7.39-0.56,10.34-2.26l56.21-32.45
				C461.55,277.53,462.07,273.33,457.91,270.93z"/>
			<path class="st13" d="M391.46,305.39c-2.06,0-4.03-0.42-5.5-1.27l-43.59-25.16c-1.51-0.87-2.34-2.1-2.34-3.47
				c0-1.61,1.17-3.2,3.21-4.38l41.85-24.16c3.71-2.14,9.36-2.37,12.59-0.5l43.59,25.17c1.51,0.87,2.34,2.1,2.34,3.47
				c0,1.61-1.17,3.2-3.21,4.38l-41.85,24.16C396.53,304.79,393.93,305.38,391.46,305.39z M392.19,246.16c-2.29,0-4.7,0.56-6.59,1.65
				l-41.85,24.16c-1.72,1-2.71,2.28-2.71,3.52c0,0.99,0.65,1.91,1.84,2.6l43.59,25.16c2.96,1.71,8.15,1.48,11.59-0.5l41.85-24.16
				c1.72-1,2.71-2.28,2.71-3.52c0-0.99-0.65-1.91-1.84-2.6l-43.59-25.17C395.85,246.54,394.06,246.16,392.19,246.16z"/>
			<path class="st6" d="M386.92,313.43l-58.55-33.8c-4.16-2.4-3.64-6.6,1.17-9.38l56.21-32.45c2.28-1.32,5.12-2.07,7.92-2.25
				c-3.57-0.26-7.54,0.51-10.54,2.25l-56.21,32.45c-4.81,2.78-5.33,6.97-1.17,9.38l58.55,33.8c2.19,1.26,5.23,1.77,8.32,1.57
				C390.47,314.86,388.48,314.34,386.92,313.43z"/>
			<g>
				<defs>
					<path id="SVGID_23_" d="M387.76,295.86l-31.58-18.23c-2.25-1.3-1.96-3.56,0.63-5.06l30.32-17.51c2.59-1.5,6.51-1.66,8.76-0.36
						l31.58,18.23c2.25,1.3,1.96,3.56-0.63,5.06l-30.32,17.51C393.93,296.99,390.01,297.16,387.76,295.86z"/>
				</defs>
				<clipPath id="SVGID_24_">
					<use xlink:href="#SVGID_23_"  style="overflow:visible;"/>
				</clipPath>
			</g>
		</g>
		<g class="st14">
			<linearGradient id="SVGID_25_" gradientUnits="userSpaceOnUse" x1="309.9083" y1="267.9236" x2="477.7701" y2="267.9236">
				<stop  offset="0" style="stop-color:#A31FA9"/>
				<stop  offset="0.0668" style="stop-color:#8B17A0"/>
				<stop  offset="0.1494" style="stop-color:#740F98"/>
				<stop  offset="0.2393" style="stop-color:#640A92"/>
				<stop  offset="0.3408" style="stop-color:#5B078F"/>
				<stop  offset="0.4785" style="stop-color:#58068E"/>
				<stop  offset="0.6264" style="stop-color:#4D22A3"/>
				<stop  offset="0.9436" style="stop-color:#3168DA"/>
				<stop  offset="1" style="stop-color:#2C75E4"/>
			</linearGradient>
			<path class="st26" d="M460.72,248.43h-29.03l-32.32-18.66c-4.16-2.4-11.43-2.1-16.24,0.67l-31.16,17.99h-29.02v19.49h0.01
				c-0.12,1.63,0.79,3.2,2.79,4.35l58.55,33.8c4.16,2.4,11.43,2.1,16.24-0.67l56.21-32.45c2.5-1.44,3.83-3.27,3.95-5.03h0.02V248.43
				z"/>
			<path class="st6" d="M324.79,269.27L324.79,269.27l-0.01-19.49h29.02l31.16-17.99c4.81-2.78,12.08-3.08,16.24-0.67l32.32,18.66
				h27.2v-1.34h-29.04l-32.32-18.66c-4.16-2.4-11.43-2.1-16.24,0.67l-31.16,17.99h-29.02v19.49h0.01c-0.12,1.63,0.79,3.2,2.79,4.35
				l0.33,0.19C325.13,271.51,324.71,270.4,324.79,269.27z"/>
			
				<linearGradient id="SVGID_26_" gradientUnits="userSpaceOnUse" x1="649.5871" y1="765.7332" x2="728.7679" y2="697.1605" gradientTransform="matrix(0.866 0.5 -1 0.5774 525.0016 -518.4943)">
				<stop  offset="0" style="stop-color:#8D139B"/>
				<stop  offset="0.1651" style="stop-color:#851BA1"/>
				<stop  offset="0.4284" style="stop-color:#6E33B2"/>
				<stop  offset="0.7551" style="stop-color:#4958CD"/>
				<stop  offset="1" style="stop-color:#2979E4"/>
			</linearGradient>
			<path class="st27" d="M384.29,286.58l-58.55-33.8c-4.16-2.4-3.64-6.6,1.17-9.38l56.21-32.45c4.81-2.78,12.08-3.08,16.24-0.67
				l58.55,33.8c4.16,2.4,3.64,6.6-1.17,9.38l-56.21,32.45C395.72,288.69,388.45,288.99,384.29,286.58z"/>
			<path class="st5" d="M457.91,244.08l-58.55-33.8c-2.16-1.24-5.15-1.76-8.2-1.58c2.22,0.13,4.29,0.65,5.9,1.58l58.55,33.8
				c4.16,2.4,3.64,6.6-1.17,9.38l-56.21,32.45c-2.32,1.34-5.21,2.09-8.04,2.26c3.52,0.21,7.39-0.55,10.34-2.26l56.21-32.45
				C461.55,250.68,462.07,246.48,457.91,244.08z"/>
			<path class="st13" d="M391.46,278.53c-2.06,0-4.03-0.42-5.5-1.26l-43.59-25.17c-1.51-0.87-2.34-2.1-2.34-3.47
				c0-1.61,1.17-3.2,3.21-4.38l41.85-24.16c3.71-2.14,9.36-2.37,12.59-0.5l43.59,25.16c1.51,0.87,2.34,2.1,2.34,3.47
				c0,1.61-1.17,3.2-3.21,4.38l-41.85,24.16C396.53,277.94,393.94,278.53,391.46,278.53z M386.47,276.4
				c2.96,1.7,8.16,1.48,11.59-0.5l41.85-24.16c1.72-0.99,2.71-2.28,2.71-3.52c0-0.99-0.65-1.91-1.84-2.6l-43.59-25.16
				c-2.96-1.71-8.15-1.48-11.59,0.5l-41.85,24.16c-1.72,0.99-2.71,2.28-2.71,3.52c0,0.99,0.65,1.91,1.84,2.6L386.47,276.4z"/>
			<path class="st6" d="M386.92,286.58l-58.55-33.8c-4.16-2.4-3.64-6.6,1.17-9.38l56.21-32.45c2.28-1.32,5.12-2.07,7.92-2.25
				c-3.57-0.26-7.54,0.51-10.54,2.25l-56.21,32.45c-4.81,2.78-5.33,6.97-1.17,9.38l58.55,33.8c2.19,1.26,5.23,1.77,8.32,1.57
				C390.47,288.01,388.48,287.49,386.92,286.58z"/>
			<g>
				<defs>
					<path id="SVGID_27_" d="M387.76,269.01l-31.58-18.23c-2.25-1.3-1.96-3.56,0.63-5.06l30.32-17.51c2.59-1.5,6.51-1.66,8.76-0.36
						l31.58,18.23c2.25,1.3,1.96,3.56-0.63,5.06l-30.32,17.51C393.93,270.14,390.01,270.31,387.76,269.01z"/>
				</defs>
				<clipPath id="SVGID_28_">
					<use xlink:href="#SVGID_27_"  style="overflow:visible;"/>
				</clipPath>
			</g>
		</g>
		<g class="st17">
			<linearGradient id="SVGID_29_" gradientUnits="userSpaceOnUse" x1="309.9083" y1="241.074" x2="477.7701" y2="241.074">
				<stop  offset="0" style="stop-color:#A31FA9"/>
				<stop  offset="0.0668" style="stop-color:#8B17A0"/>
				<stop  offset="0.1494" style="stop-color:#740F98"/>
				<stop  offset="0.2393" style="stop-color:#640A92"/>
				<stop  offset="0.3408" style="stop-color:#5B078F"/>
				<stop  offset="0.4785" style="stop-color:#58068E"/>
				<stop  offset="0.6264" style="stop-color:#4D22A3"/>
				<stop  offset="0.9436" style="stop-color:#3168DA"/>
				<stop  offset="1" style="stop-color:#2C75E4"/>
			</linearGradient>
			<path class="st28" d="M460.72,221.58h-29.03l-32.32-18.66c-4.16-2.4-11.43-2.1-16.24,0.67l-31.16,17.99h-29.02v19.49h0.01
				c-0.12,1.63,0.79,3.2,2.79,4.35l58.55,33.8c4.16,2.4,11.43,2.1,16.24-0.67l56.21-32.45c2.5-1.44,3.83-3.27,3.95-5.03h0.02V221.58
				z"/>
			<path class="st6" d="M324.79,242.42L324.79,242.42l-0.01-19.49h29.02l31.16-17.99c4.81-2.78,12.08-3.08,16.24-0.67l32.32,18.66
				h27.2v-1.34h-29.04l-32.32-18.66c-4.16-2.4-11.43-2.1-16.24,0.67l-31.16,17.99h-29.02v19.49h0.01c-0.12,1.63,0.79,3.2,2.79,4.35
				l0.33,0.19C325.13,244.66,324.71,243.55,324.79,242.42z"/>
			
				<linearGradient id="SVGID_30_" gradientUnits="userSpaceOnUse" x1="622.7382" y1="742.4821" x2="701.9191" y2="673.9094" gradientTransform="matrix(0.866 0.5 -1 0.5774 525.0016 -518.4943)">
				<stop  offset="0" style="stop-color:#8D139B"/>
				<stop  offset="0.1651" style="stop-color:#851BA1"/>
				<stop  offset="0.4284" style="stop-color:#6E33B2"/>
				<stop  offset="0.7551" style="stop-color:#4958CD"/>
				<stop  offset="1" style="stop-color:#2979E4"/>
			</linearGradient>
			<path class="st29" d="M384.29,259.73l-58.55-33.8c-4.16-2.4-3.64-6.6,1.17-9.38l56.21-32.45c4.81-2.78,12.08-3.08,16.24-0.67
				l58.55,33.8c4.16,2.4,3.64,6.6-1.17,9.38l-56.21,32.45C395.72,261.84,388.45,262.14,384.29,259.73z"/>
			<path class="st5" d="M457.91,217.23l-58.55-33.8c-2.16-1.24-5.15-1.76-8.2-1.58c2.22,0.13,4.29,0.65,5.9,1.58l58.55,33.8
				c4.16,2.4,3.64,6.6-1.17,9.38l-56.21,32.45c-2.32,1.34-5.21,2.09-8.04,2.26c3.52,0.21,7.39-0.56,10.34-2.26l56.21-32.45
				C461.55,223.83,462.07,219.63,457.91,217.23z"/>
			<path class="st13" d="M391.47,251.68c-2.06,0-4.03-0.42-5.5-1.27l-43.59-25.16c-1.51-0.87-2.34-2.1-2.34-3.47
				c0-1.61,1.17-3.2,3.21-4.38l41.85-24.16c3.71-2.14,9.36-2.37,12.59-0.5l43.59,25.17c1.51,0.87,2.34,2.1,2.34,3.46
				c0,1.61-1.17,3.2-3.21,4.38l-41.85,24.16C396.53,251.09,393.94,251.68,391.47,251.68z M386.47,249.55
				c2.96,1.71,8.16,1.48,11.59-0.5l41.85-24.16c1.72-1,2.71-2.28,2.71-3.52c0-0.99-0.65-1.91-1.84-2.6l-43.59-25.17
				c-2.96-1.7-8.15-1.48-11.59,0.5l-41.85,24.16c-1.72,0.99-2.71,2.28-2.71,3.52c0,0.99,0.65,1.91,1.84,2.6L386.47,249.55z"/>
			<path class="st6" d="M386.92,259.73l-58.55-33.8c-4.16-2.4-3.64-6.6,1.17-9.38l56.21-32.45c2.28-1.32,5.12-2.07,7.92-2.25
				c-3.57-0.26-7.54,0.51-10.54,2.25l-56.21,32.45c-4.81,2.78-5.33,6.97-1.17,9.38l58.55,33.8c2.19,1.26,5.23,1.77,8.32,1.57
				C390.47,261.16,388.48,260.64,386.92,259.73z"/>
			<g>
				<defs>
					<path id="SVGID_31_" d="M387.76,242.16l-31.58-18.23c-2.25-1.3-1.96-3.56,0.63-5.06l30.32-17.51c2.59-1.5,6.51-1.66,8.76-0.36
						l31.58,18.23c2.25,1.3,1.96,3.56-0.63,5.06l-30.32,17.51C393.93,243.29,390.01,243.46,387.76,242.16z"/>
				</defs>
				<clipPath id="SVGID_32_">
					<use xlink:href="#SVGID_31_"  style="overflow:visible;"/>
				</clipPath>
			</g>
		</g>
		<g>
			<linearGradient id="SVGID_33_" gradientUnits="userSpaceOnUse" x1="309.9083" y1="214.2243" x2="477.7701" y2="214.2243">
				<stop  offset="0" style="stop-color:#A31FA9"/>
				<stop  offset="0.0668" style="stop-color:#8B17A0"/>
				<stop  offset="0.1494" style="stop-color:#740F98"/>
				<stop  offset="0.2393" style="stop-color:#640A92"/>
				<stop  offset="0.3408" style="stop-color:#5B078F"/>
				<stop  offset="0.4785" style="stop-color:#58068E"/>
				<stop  offset="0.6264" style="stop-color:#4D22A3"/>
				<stop  offset="0.9436" style="stop-color:#3168DA"/>
				<stop  offset="1" style="stop-color:#2C75E4"/>
			</linearGradient>
			<path class="st30" d="M460.72,194.73h-29.03l-32.32-18.66c-4.16-2.4-11.43-2.1-16.24,0.67l-31.16,17.99h-29.02v19.49h0.01
				c-0.12,1.63,0.79,3.2,2.79,4.35l58.55,33.8c4.16,2.4,11.43,2.1,16.24-0.67l56.21-32.45c2.5-1.44,3.83-3.27,3.95-5.03h0.02V194.73
				z"/>
			<path class="st6" d="M324.79,215.57L324.79,215.57l-0.01-19.49h29.02l31.16-17.99c4.81-2.78,12.08-3.08,16.24-0.67l32.32,18.66
				h27.2v-1.34h-29.04l-32.32-18.66c-4.16-2.4-11.43-2.1-16.24,0.67l-31.16,17.99h-29.02v19.49h0.01c-0.12,1.63,0.79,3.2,2.79,4.35
				l0.33,0.19C325.13,217.81,324.71,216.7,324.79,215.57z"/>
			
				<linearGradient id="SVGID_34_" gradientUnits="userSpaceOnUse" x1="595.8892" y1="719.2308" x2="675.0701" y2="650.6581" gradientTransform="matrix(0.866 0.5 -1 0.5774 525.0016 -518.4943)">
				<stop  offset="0" style="stop-color:#267FE5"/>
				<stop  offset="0.1699" style="stop-color:#2C87E7"/>
				<stop  offset="0.441" style="stop-color:#3D9FEB"/>
				<stop  offset="0.7773" style="stop-color:#59C4F2"/>
				<stop  offset="1" style="stop-color:#6EE1F8"/>
			</linearGradient>
			<path class="st31" d="M384.29,232.89l-58.55-33.8c-4.16-2.4-3.64-6.6,1.17-9.38l56.21-32.45c4.81-2.78,12.08-3.08,16.24-0.67
				l58.55,33.8c4.16,2.4,3.64,6.6-1.17,9.38l-56.21,32.45C395.72,234.99,388.45,235.29,384.29,232.89z"/>
			<path class="st5" d="M457.91,190.38l-58.55-33.8c-2.16-1.24-5.15-1.76-8.2-1.58c2.22,0.13,4.29,0.65,5.9,1.58l58.55,33.8
				c4.16,2.4,3.64,6.6-1.17,9.38l-56.21,32.45c-2.32,1.34-5.21,2.09-8.04,2.26c3.52,0.21,7.39-0.55,10.34-2.26l56.21-32.45
				C461.55,196.98,462.07,192.78,457.91,190.38z"/>
			<linearGradient id="SVGID_35_" gradientUnits="userSpaceOnUse" x1="340.036" y1="194.7328" x2="443.6182" y2="194.7328">
				<stop  offset="0" style="stop-color:#6DE0F6"/>
				<stop  offset="0.1595" style="stop-color:#68D8F5"/>
				<stop  offset="0.4138" style="stop-color:#5AC0F1"/>
				<stop  offset="0.7294" style="stop-color:#439BEA"/>
				<stop  offset="1" style="stop-color:#2C75E4"/>
			</linearGradient>
			<path class="st32" d="M391.46,224.84c-2.06,0-4.03-0.42-5.5-1.27l-43.59-25.17c-1.51-0.87-2.34-2.1-2.34-3.47
				c0-1.61,1.17-3.2,3.21-4.38l41.85-24.16c3.71-2.14,9.36-2.37,12.59-0.5l43.59,25.16c1.51,0.87,2.34,2.1,2.34,3.47
				c0,1.61-1.17,3.2-3.21,4.38l-41.85,24.16C396.53,224.24,393.94,224.84,391.46,224.84z M386.47,222.7
				c2.96,1.71,8.15,1.48,11.59-0.5l41.85-24.16c1.72-0.99,2.71-2.28,2.71-3.52c0-0.99-0.65-1.91-1.84-2.6l-43.59-25.16
				c-2.96-1.71-8.15-1.48-11.59,0.5l-41.85,24.16c-1.72,0.99-2.71,2.28-2.71,3.52c0,0.99,0.65,1.91,1.84,2.6L386.47,222.7z"/>
			<path class="st23" d="M386.92,232.89l-58.55-33.8c-4.16-2.4-3.64-6.6,1.17-9.38l56.21-32.45c2.28-1.32,5.12-2.07,7.92-2.25
				c-3.57-0.26-7.54,0.51-10.54,2.25l-56.21,32.45c-4.81,2.78-5.33,6.97-1.17,9.38l58.55,33.8c2.19,1.26,5.23,1.77,8.32,1.57
				C390.47,234.31,388.48,233.79,386.92,232.89z"/>
			<g>
				<path class="st33" d="M402.2,243.74l49.52-28.65c0.45-0.26,0.82-0.96,0.82-1.57v-2.34c0-0.6-0.37-0.88-0.82-0.62l-49.52,28.65
					c-0.45,0.26-0.82,0.96-0.82,1.57v2.34C401.38,243.72,401.75,244,402.2,243.74z"/>
				<path class="st34" d="M450.64,214.47c0.45-0.26,0.82-0.96,0.82-1.57v-2.19l0.26-0.15c0.45-0.26,0.82,0.02,0.82,0.62v2.34
					c0,0.6-0.37,1.31-0.82,1.57l-49.52,28.65c-0.45,0.26-0.82-0.02-0.82-0.62v-0.15L450.64,214.47z"/>
			</g>
		</g>
	</g>
	<g>
		<g class="st10">
			<linearGradient id="SVGID_36_" gradientUnits="userSpaceOnUse" x1="121.3786" y1="289.9596" x2="289.2406" y2="289.9596">
				<stop  offset="0" style="stop-color:#A31FA9"/>
				<stop  offset="0.0668" style="stop-color:#8B17A0"/>
				<stop  offset="0.1494" style="stop-color:#740F98"/>
				<stop  offset="0.2393" style="stop-color:#640A92"/>
				<stop  offset="0.3408" style="stop-color:#5B078F"/>
				<stop  offset="0.4785" style="stop-color:#58068E"/>
				<stop  offset="0.6264" style="stop-color:#4D22A3"/>
				<stop  offset="0.9436" style="stop-color:#3168DA"/>
				<stop  offset="1" style="stop-color:#2C75E4"/>
			</linearGradient>
			<path class="st35" d="M272.19,270.47h-29.03l-32.32-18.66c-4.16-2.4-11.43-2.1-16.24,0.67l-31.16,17.99h-29.02v19.49h0.01
				c-0.12,1.63,0.79,3.2,2.79,4.35l58.55,33.8c4.16,2.4,11.43,2.1,16.24-0.67l56.21-32.45c2.5-1.44,3.83-3.27,3.95-5.03h0.02V270.47
				z"/>
			<path class="st6" d="M136.26,291.3L136.26,291.3l-0.01-19.49h29.02l31.16-17.99c4.81-2.78,12.08-3.08,16.24-0.67l32.32,18.66
				h27.2v-1.34h-29.04l-32.32-18.66c-4.16-2.4-11.43-2.1-16.24,0.67l-31.16,17.99h-29.02v19.49h0.01c-0.12,1.63,0.79,3.2,2.79,4.35
				l0.33,0.19C136.6,293.54,136.18,292.44,136.26,291.3z"/>
			
				<linearGradient id="SVGID_37_" gradientUnits="userSpaceOnUse" x1="562.7685" y1="879.0779" x2="641.9494" y2="810.5052" gradientTransform="matrix(0.866 0.5 -1 0.5774 525.0016 -518.4943)">
				<stop  offset="0" style="stop-color:#8D139B"/>
				<stop  offset="0.1651" style="stop-color:#851BA1"/>
				<stop  offset="0.4284" style="stop-color:#6E33B2"/>
				<stop  offset="0.7551" style="stop-color:#4958CD"/>
				<stop  offset="1" style="stop-color:#2979E4"/>
			</linearGradient>
			<path class="st36" d="M195.76,308.62l-58.55-33.8c-4.16-2.4-3.64-6.6,1.17-9.38l56.21-32.45c4.81-2.77,12.08-3.08,16.24-0.67
				l58.55,33.8c4.16,2.4,3.64,6.6-1.17,9.38L212,307.95C207.19,310.72,199.92,311.02,195.76,308.62z"/>
			<path class="st5" d="M269.38,266.12l-58.55-33.8c-2.16-1.24-5.15-1.76-8.2-1.58c2.22,0.13,4.29,0.65,5.9,1.58l58.55,33.8
				c4.16,2.4,3.64,6.6-1.17,9.38l-56.21,32.45c-2.32,1.34-5.21,2.09-8.04,2.26c3.52,0.21,7.39-0.56,10.34-2.26l56.21-32.45
				C273.02,272.72,273.54,268.52,269.38,266.12z"/>
			<path class="st13" d="M202.94,300.57c-2.06,0-4.03-0.42-5.5-1.26l-43.59-25.17c-1.51-0.87-2.34-2.1-2.34-3.46
				c0-1.61,1.17-3.2,3.21-4.38l41.85-24.16c3.71-2.14,9.36-2.37,12.59-0.5l43.59,25.16c1.51,0.87,2.34,2.1,2.34,3.47
				c0,1.61-1.17,3.2-3.21,4.38l-41.85,24.16C208.01,299.97,205.41,300.57,202.94,300.57z M197.94,298.44
				c2.96,1.7,8.16,1.48,11.59-0.5l41.85-24.16c1.72-1,2.71-2.28,2.71-3.52c0-0.99-0.65-1.91-1.84-2.6l-43.59-25.16
				c-2.96-1.71-8.15-1.48-11.59,0.5l-41.85,24.16c-1.72,1-2.71,2.28-2.71,3.52c0,0.99,0.65,1.91,1.84,2.6L197.94,298.44z"/>
			<path class="st6" d="M198.39,308.62l-58.55-33.8c-4.16-2.4-3.64-6.6,1.17-9.38l56.21-32.45c2.28-1.32,5.12-2.07,7.92-2.25
				c-3.57-0.26-7.54,0.51-10.54,2.25l-56.21,32.45c-4.81,2.78-5.33,6.97-1.17,9.38l58.55,33.8c2.19,1.26,5.23,1.77,8.32,1.57
				C201.95,310.04,199.95,309.52,198.39,308.62z"/>
			<g>
				<defs>
					<path id="SVGID_38_" d="M199.23,291.05l-31.58-18.23c-2.25-1.3-1.96-3.56,0.63-5.06l30.32-17.51c2.59-1.5,6.51-1.66,8.76-0.36
						l31.58,18.23c2.25,1.3,1.96,3.56-0.63,5.06l-30.32,17.51C205.4,292.18,201.48,292.34,199.23,291.05z"/>
				</defs>
				<clipPath id="SVGID_39_">
					<use xlink:href="#SVGID_38_"  style="overflow:visible;"/>
				</clipPath>
			</g>
		</g>
		<g class="st14">
			<linearGradient id="SVGID_40_" gradientUnits="userSpaceOnUse" x1="121.3786" y1="263.1099" x2="289.2406" y2="263.1099">
				<stop  offset="0" style="stop-color:#A31FA9"/>
				<stop  offset="0.0668" style="stop-color:#8B17A0"/>
				<stop  offset="0.1494" style="stop-color:#740F98"/>
				<stop  offset="0.2393" style="stop-color:#640A92"/>
				<stop  offset="0.3408" style="stop-color:#5B078F"/>
				<stop  offset="0.4785" style="stop-color:#58068E"/>
				<stop  offset="0.6264" style="stop-color:#4D22A3"/>
				<stop  offset="0.9436" style="stop-color:#3168DA"/>
				<stop  offset="1" style="stop-color:#2C75E4"/>
			</linearGradient>
			<path class="st37" d="M272.19,243.62h-29.03l-32.32-18.66c-4.16-2.4-11.43-2.1-16.24,0.67l-31.16,17.99h-29.02v19.49h0.01
				c-0.12,1.63,0.79,3.2,2.79,4.35l58.55,33.8c4.16,2.4,11.43,2.1,16.24-0.67l56.21-32.45c2.5-1.44,3.83-3.27,3.95-5.03h0.02V243.62
				z"/>
			<path class="st6" d="M136.26,264.45L136.26,264.45l-0.01-19.49h29.02l31.16-17.99c4.81-2.77,12.08-3.08,16.24-0.67l32.32,18.66
				h27.2v-1.34h-29.04l-32.32-18.66c-4.16-2.4-11.43-2.1-16.24,0.67l-31.16,17.99h-29.02v19.49h0.01c-0.12,1.63,0.79,3.2,2.79,4.35
				l0.33,0.19C136.6,266.69,136.18,265.59,136.26,264.45z"/>
			
				<linearGradient id="SVGID_41_" gradientUnits="userSpaceOnUse" x1="535.9196" y1="855.8267" x2="615.1005" y2="787.254" gradientTransform="matrix(0.866 0.5 -1 0.5774 525.0016 -518.4943)">
				<stop  offset="0" style="stop-color:#8D139B"/>
				<stop  offset="0.1651" style="stop-color:#851BA1"/>
				<stop  offset="0.4284" style="stop-color:#6E33B2"/>
				<stop  offset="0.7551" style="stop-color:#4958CD"/>
				<stop  offset="1" style="stop-color:#2979E4"/>
			</linearGradient>
			<path class="st38" d="M195.76,281.77l-58.55-33.8c-4.16-2.4-3.64-6.6,1.17-9.38l56.21-32.45c4.81-2.78,12.08-3.08,16.24-0.67
				l58.55,33.8c4.16,2.4,3.64,6.6-1.17,9.38L212,281.1C207.19,283.87,199.92,284.17,195.76,281.77z"/>
			<path class="st5" d="M269.38,239.27l-58.55-33.8c-2.16-1.24-5.15-1.76-8.2-1.58c2.22,0.13,4.29,0.65,5.9,1.58l58.55,33.8
				c4.16,2.4,3.64,6.6-1.17,9.38l-56.21,32.45c-2.32,1.34-5.21,2.09-8.04,2.26c3.52,0.21,7.39-0.55,10.34-2.26l56.21-32.45
				C273.02,245.87,273.54,241.67,269.38,239.27z"/>
			<path class="st13" d="M202.94,273.72c-2.06,0-4.03-0.42-5.5-1.27l-43.59-25.16c-1.51-0.87-2.34-2.1-2.34-3.46
				c0-1.61,1.17-3.2,3.21-4.38l41.85-24.16c3.71-2.14,9.36-2.37,12.59-0.5l43.59,25.16c1.51,0.87,2.34,2.1,2.34,3.47
				c0,1.61-1.17,3.2-3.21,4.38l-41.85,24.16C208.01,273.12,205.41,273.72,202.94,273.72z M203.66,214.5c-2.29,0-4.7,0.56-6.59,1.65
				l-41.85,24.16c-1.72,0.99-2.71,2.28-2.71,3.52c0,0.99,0.65,1.91,1.84,2.6l43.59,25.16c2.95,1.7,8.16,1.48,11.59-0.5l41.85-24.16
				c1.72-0.99,2.71-2.28,2.71-3.52c0-0.99-0.65-1.91-1.84-2.6l-43.59-25.16C207.32,214.88,205.53,214.5,203.66,214.5z"/>
			<path class="st6" d="M198.39,281.77l-58.55-33.8c-4.16-2.4-3.64-6.6,1.17-9.38l56.21-32.45c2.28-1.32,5.12-2.07,7.92-2.25
				c-3.57-0.26-7.54,0.51-10.54,2.25l-56.21,32.45c-4.81,2.78-5.33,6.97-1.17,9.38l58.55,33.8c2.19,1.26,5.23,1.77,8.32,1.57
				C201.95,283.19,199.95,282.67,198.39,281.77z"/>
			<g>
				<defs>
					<path id="SVGID_42_" d="M199.23,264.2l-31.58-18.23c-2.25-1.3-1.96-3.56,0.63-5.06l30.32-17.51c2.59-1.5,6.51-1.66,8.76-0.36
						l31.58,18.23c2.25,1.3,1.96,3.56-0.63,5.06l-30.32,17.51C205.4,265.33,201.48,265.49,199.23,264.2z"/>
				</defs>
				<clipPath id="SVGID_43_">
					<use xlink:href="#SVGID_42_"  style="overflow:visible;"/>
				</clipPath>
			</g>
		</g>
		<g class="st17">
			<linearGradient id="SVGID_44_" gradientUnits="userSpaceOnUse" x1="121.3786" y1="236.2602" x2="289.2406" y2="236.2602">
				<stop  offset="0" style="stop-color:#A31FA9"/>
				<stop  offset="0.0668" style="stop-color:#8B17A0"/>
				<stop  offset="0.1494" style="stop-color:#740F98"/>
				<stop  offset="0.2393" style="stop-color:#640A92"/>
				<stop  offset="0.3408" style="stop-color:#5B078F"/>
				<stop  offset="0.4785" style="stop-color:#58068E"/>
				<stop  offset="0.6264" style="stop-color:#4D22A3"/>
				<stop  offset="0.9436" style="stop-color:#3168DA"/>
				<stop  offset="1" style="stop-color:#2C75E4"/>
			</linearGradient>
			<path class="st39" d="M272.19,216.77h-29.03l-32.32-18.66c-4.16-2.4-11.43-2.1-16.24,0.67l-31.16,17.99h-29.02v19.49h0.01
				c-0.12,1.63,0.79,3.2,2.79,4.35l58.55,33.8c4.16,2.4,11.43,2.1,16.24-0.67l56.21-32.45c2.5-1.44,3.83-3.27,3.95-5.03h0.02V216.77
				z"/>
			<path class="st6" d="M136.26,237.6L136.26,237.6l-0.01-19.49h29.02l31.16-17.99c4.81-2.78,12.08-3.08,16.24-0.67l32.32,18.66
				h27.2v-1.34h-29.04l-32.32-18.66c-4.16-2.4-11.43-2.1-16.24,0.67l-31.16,17.99h-29.02v19.49h0.01c-0.12,1.63,0.79,3.2,2.79,4.35
				l0.33,0.19C136.6,239.84,136.18,238.74,136.26,237.6z"/>
			
				<linearGradient id="SVGID_45_" gradientUnits="userSpaceOnUse" x1="509.0707" y1="832.5756" x2="588.2515" y2="764.0029" gradientTransform="matrix(0.866 0.5 -1 0.5774 525.0016 -518.4943)">
				<stop  offset="0" style="stop-color:#8D139B"/>
				<stop  offset="0.1651" style="stop-color:#851BA1"/>
				<stop  offset="0.4284" style="stop-color:#6E33B2"/>
				<stop  offset="0.7551" style="stop-color:#4958CD"/>
				<stop  offset="1" style="stop-color:#2979E4"/>
			</linearGradient>
			<path class="st40" d="M195.76,254.92l-58.55-33.8c-4.16-2.4-3.64-6.6,1.17-9.38l56.21-32.45c4.81-2.78,12.08-3.08,16.24-0.67
				l58.55,33.8c4.16,2.4,3.64,6.6-1.17,9.38L212,254.25C207.19,257.02,199.92,257.32,195.76,254.92z"/>
			<path class="st5" d="M269.38,212.42l-58.55-33.8c-2.16-1.24-5.15-1.76-8.2-1.58c2.22,0.13,4.29,0.65,5.9,1.58l58.55,33.8
				c4.16,2.4,3.64,6.6-1.17,9.38l-56.21,32.45c-2.32,1.34-5.21,2.09-8.04,2.26c3.52,0.21,7.39-0.56,10.34-2.26l56.21-32.45
				C273.02,219.02,273.54,214.82,269.38,212.42z"/>
			<path class="st13" d="M202.94,246.87c-2.06,0-4.03-0.42-5.5-1.27l-43.59-25.16c-1.51-0.87-2.34-2.1-2.34-3.47
				c0-1.61,1.17-3.2,3.21-4.38l41.85-24.16c3.71-2.14,9.36-2.37,12.59-0.5l43.59,25.17c1.51,0.87,2.34,2.1,2.34,3.47
				c0,1.61-1.17,3.2-3.21,4.38l-41.85,24.16C208.01,246.27,205.41,246.87,202.94,246.87z M203.66,187.65c-2.29,0-4.7,0.56-6.59,1.65
				l-41.85,24.16c-1.72,0.99-2.71,2.28-2.71,3.52c0,0.99,0.65,1.91,1.84,2.6l43.59,25.16c2.96,1.71,8.15,1.48,11.59-0.5l41.85-24.16
				c1.72-0.99,2.71-2.28,2.71-3.52c0-0.99-0.65-1.91-1.84-2.6l-43.59-25.17C207.32,188.03,205.53,187.65,203.66,187.65z"/>
			<path class="st6" d="M198.39,254.92l-58.55-33.8c-4.16-2.4-3.64-6.6,1.17-9.38l56.21-32.45c2.28-1.32,5.12-2.07,7.92-2.25
				c-3.57-0.26-7.54,0.51-10.54,2.25l-56.21,32.45c-4.81,2.78-5.33,6.97-1.17,9.38l58.55,33.8c2.19,1.26,5.23,1.77,8.32,1.57
				C201.95,256.34,199.95,255.82,198.39,254.92z"/>
			<g>
				<defs>
					<path id="SVGID_46_" d="M199.23,237.35l-31.58-18.23c-2.25-1.3-1.96-3.56,0.63-5.06l30.32-17.51c2.59-1.5,6.51-1.66,8.76-0.36
						l31.58,18.23c2.25,1.3,1.96,3.56-0.63,5.06l-30.32,17.51C205.4,238.48,201.48,238.64,199.23,237.35z"/>
				</defs>
				<clipPath id="SVGID_47_">
					<use xlink:href="#SVGID_46_"  style="overflow:visible;"/>
				</clipPath>
			</g>
		</g>
		<g>
			<linearGradient id="SVGID_48_" gradientUnits="userSpaceOnUse" x1="121.3786" y1="209.4105" x2="289.2406" y2="209.4105">
				<stop  offset="0" style="stop-color:#A31FA9"/>
				<stop  offset="0.0668" style="stop-color:#8B17A0"/>
				<stop  offset="0.1494" style="stop-color:#740F98"/>
				<stop  offset="0.2393" style="stop-color:#640A92"/>
				<stop  offset="0.3408" style="stop-color:#5B078F"/>
				<stop  offset="0.4785" style="stop-color:#58068E"/>
				<stop  offset="0.6264" style="stop-color:#4D22A3"/>
				<stop  offset="0.9436" style="stop-color:#3168DA"/>
				<stop  offset="1" style="stop-color:#2C75E4"/>
			</linearGradient>
			<path class="st41" d="M272.19,189.92h-29.03l-32.32-18.66c-4.16-2.4-11.43-2.1-16.24,0.67l-31.16,17.99h-29.02v19.49h0.01
				c-0.12,1.63,0.79,3.2,2.79,4.35l58.55,33.8c4.16,2.4,11.43,2.1,16.24-0.67l56.21-32.45c2.5-1.44,3.83-3.27,3.95-5.03h0.02V189.92
				z"/>
			<path class="st6" d="M136.26,210.75L136.26,210.75l-0.01-19.49h29.02l31.16-17.99c4.81-2.78,12.08-3.08,16.24-0.67l32.32,18.66
				h27.2v-1.34h-29.04l-32.32-18.66c-4.16-2.4-11.43-2.1-16.24,0.67l-31.16,17.99h-29.02v19.49h0.01c-0.12,1.63,0.79,3.2,2.79,4.35
				l0.33,0.19C136.6,212.99,136.18,211.89,136.26,210.75z"/>
			
				<linearGradient id="SVGID_49_" gradientUnits="userSpaceOnUse" x1="482.2217" y1="809.3243" x2="561.4026" y2="740.7517" gradientTransform="matrix(0.866 0.5 -1 0.5774 525.0016 -518.4943)">
				<stop  offset="0" style="stop-color:#267FE5"/>
				<stop  offset="0.1699" style="stop-color:#2C87E7"/>
				<stop  offset="0.441" style="stop-color:#3D9FEB"/>
				<stop  offset="0.7773" style="stop-color:#59C4F2"/>
				<stop  offset="1" style="stop-color:#6EE1F8"/>
			</linearGradient>
			<path class="st42" d="M195.76,228.07l-58.55-33.8c-4.16-2.4-3.64-6.6,1.17-9.38l56.21-32.45c4.81-2.78,12.08-3.08,16.24-0.67
				l58.55,33.8c4.16,2.4,3.64,6.6-1.17,9.38L212,227.4C207.19,230.17,199.92,230.47,195.76,228.07z"/>
			<path class="st5" d="M269.38,185.57l-58.55-33.8c-2.16-1.24-5.15-1.76-8.2-1.58c2.22,0.13,4.29,0.65,5.9,1.58l58.55,33.8
				c4.16,2.4,3.64,6.6-1.17,9.38l-56.21,32.45c-2.32,1.34-5.21,2.09-8.04,2.26c3.52,0.21,7.39-0.55,10.34-2.26l56.21-32.45
				C273.02,192.17,273.54,187.97,269.38,185.57z"/>
			<linearGradient id="SVGID_50_" gradientUnits="userSpaceOnUse" x1="151.5069" y1="189.919" x2="255.0876" y2="189.919">
				<stop  offset="0" style="stop-color:#6DE0F6"/>
				<stop  offset="0.1595" style="stop-color:#68D8F5"/>
				<stop  offset="0.4138" style="stop-color:#5AC0F1"/>
				<stop  offset="0.7294" style="stop-color:#439BEA"/>
				<stop  offset="1" style="stop-color:#2C75E4"/>
			</linearGradient>
			<path class="st43" d="M202.94,220.02c-2.06,0-4.03-0.42-5.5-1.27l-43.59-25.17c-1.51-0.87-2.34-2.1-2.34-3.46
				c0-1.61,1.17-3.2,3.21-4.38l41.85-24.16c3.71-2.14,9.36-2.37,12.59-0.5l43.59,25.16c1.51,0.87,2.34,2.1,2.34,3.47
				c0,1.61-1.17,3.2-3.21,4.38l-41.85,24.16C208.01,219.42,205.41,220.02,202.94,220.02z M197.94,217.89
				c2.96,1.71,8.15,1.48,11.59-0.5l41.85-24.16c1.72-0.99,2.71-2.28,2.71-3.52c0-0.99-0.65-1.91-1.84-2.6l-43.59-25.16
				c-2.96-1.71-8.15-1.48-11.59,0.5l-41.85,24.16c-1.72,0.99-2.71,2.28-2.71,3.52c0,0.99,0.65,1.91,1.84,2.6L197.94,217.89z"/>
			<path class="st23" d="M198.39,228.07l-58.55-33.8c-4.16-2.4-3.64-6.6,1.17-9.38l56.21-32.45c2.28-1.32,5.12-2.07,7.92-2.25
				c-3.57-0.26-7.54,0.51-10.54,2.25l-56.21,32.45c-4.81,2.77-5.33,6.97-1.17,9.38l58.55,33.8c2.19,1.26,5.23,1.77,8.32,1.57
				C201.95,229.49,199.95,228.97,198.39,228.07z"/>
			<g>
				<defs>
					<path id="SVGID_51_" d="M199.23,210.5l-31.58-18.23c-2.25-1.3-1.96-3.56,0.63-5.06l30.32-17.51c2.59-1.5,6.51-1.66,8.76-0.36
						l31.58,18.23c2.25,1.3,1.96,3.56-0.63,5.06l-30.32,17.51C205.4,211.63,201.48,211.79,199.23,210.5z"/>
				</defs>
				<clipPath id="SVGID_52_">
					<use xlink:href="#SVGID_51_"  style="overflow:visible;"/>
				</clipPath>
			</g>
			<g>
				<path class="st33" d="M193.17,238.92l-49.52-28.65c-0.45-0.26-0.82-0.96-0.82-1.57v-2.34c0-0.6,0.37-0.88,0.82-0.62l49.52,28.65
					c0.45,0.26,0.82,0.96,0.82,1.57v2.34C193.99,238.91,193.62,239.19,193.17,238.92z"/>
				<path class="st34" d="M144.73,209.66c-0.45-0.26-0.82-0.96-0.82-1.57v-2.19l-0.26-0.15c-0.45-0.26-0.82,0.02-0.82,0.62v2.34
					c0,0.6,0.37,1.31,0.82,1.57l49.52,28.65c0.45,0.26,0.82-0.02,0.82-0.62v-0.15L144.73,209.66z"/>
			</g>
		</g>
	</g>
	<g>
		<g class="st10">
			<linearGradient id="SVGID_53_" gradientUnits="userSpaceOnUse" x1="215.3686" y1="348.7333" x2="383.2307" y2="348.7333">
				<stop  offset="0" style="stop-color:#A31FA9"/>
				<stop  offset="0.0668" style="stop-color:#8B17A0"/>
				<stop  offset="0.1494" style="stop-color:#740F98"/>
				<stop  offset="0.2393" style="stop-color:#640A92"/>
				<stop  offset="0.3408" style="stop-color:#5B078F"/>
				<stop  offset="0.4785" style="stop-color:#58068E"/>
				<stop  offset="0.6264" style="stop-color:#4D22A3"/>
				<stop  offset="0.9436" style="stop-color:#3168DA"/>
				<stop  offset="1" style="stop-color:#2C75E4"/>
			</linearGradient>
			<path class="st44" d="M366.18,329.24h-29.03l-32.32-18.66c-4.16-2.4-11.43-2.1-16.24,0.67l-31.16,17.99h-29.02v19.49h0.01
				c-0.12,1.63,0.79,3.2,2.79,4.35l58.55,33.8c4.16,2.4,11.43,2.1,16.24-0.67l56.21-32.45c2.5-1.44,3.83-3.27,3.95-5.03h0.02V329.24
				z"/>
			<path class="st6" d="M230.25,350.08L230.25,350.08l-0.01-19.49h29.02l31.16-17.99c4.81-2.78,12.08-3.08,16.24-0.67l32.32,18.66
				h27.2v-1.34h-29.04l-32.32-18.66c-4.16-2.4-11.43-2.1-16.24,0.67l-31.16,17.99h-29.02v19.49h0.01c-0.12,1.63,0.79,3.2,2.79,4.35
				l0.33,0.19C230.59,352.32,230.17,351.21,230.25,350.08z"/>
			
				<linearGradient id="SVGID_54_" gradientUnits="userSpaceOnUse" x1="675.8088" y1="882.9808" x2="754.9897" y2="814.4081" gradientTransform="matrix(0.866 0.5 -1 0.5774 525.0016 -518.4943)">
				<stop  offset="0" style="stop-color:#8D139B"/>
				<stop  offset="0.1651" style="stop-color:#851BA1"/>
				<stop  offset="0.4284" style="stop-color:#6E33B2"/>
				<stop  offset="0.7551" style="stop-color:#4958CD"/>
				<stop  offset="1" style="stop-color:#2979E4"/>
			</linearGradient>
			<path class="st45" d="M289.75,367.39l-58.55-33.8c-4.16-2.4-3.64-6.6,1.17-9.38l56.21-32.45c4.81-2.77,12.08-3.08,16.24-0.67
				l58.55,33.8c4.16,2.4,3.64,6.6-1.17,9.38l-56.21,32.45C301.18,369.5,293.91,369.8,289.75,367.39z"/>
			<path class="st5" d="M363.37,324.89l-58.55-33.8c-2.16-1.24-5.15-1.76-8.2-1.58c2.22,0.13,4.29,0.65,5.9,1.58l58.55,33.8
				c4.16,2.4,3.64,6.6-1.17,9.38l-56.21,32.45c-2.32,1.34-5.21,2.09-8.04,2.26c3.52,0.21,7.39-0.55,10.34-2.26l56.21-32.45
				C367.01,331.49,367.53,327.29,363.37,324.89z"/>
			<path class="st13" d="M296.93,359.34c-2.06,0-4.03-0.42-5.5-1.26l-43.59-25.17c-1.51-0.87-2.34-2.1-2.34-3.46
				c0-1.61,1.17-3.2,3.21-4.38l41.85-24.16c3.71-2.14,9.36-2.37,12.59-0.5l43.59,25.16c1.51,0.87,2.34,2.1,2.34,3.47
				c0,1.61-1.17,3.2-3.21,4.38l-41.85,24.16C301.99,358.75,299.4,359.34,296.93,359.34z M291.93,357.21
				c2.96,1.7,8.16,1.48,11.59-0.5l41.85-24.16c1.72-1,2.71-2.28,2.71-3.52c0-0.99-0.65-1.91-1.84-2.6l-43.59-25.16
				c-2.96-1.7-8.16-1.48-11.59,0.5l-41.85,24.16c-1.72,1-2.71,2.28-2.71,3.52c0,0.99,0.65,1.91,1.84,2.6L291.93,357.21z"/>
			<path class="st6" d="M292.38,367.39l-58.55-33.8c-4.16-2.4-3.64-6.6,1.17-9.38l56.21-32.45c2.28-1.32,5.12-2.07,7.92-2.25
				c-3.57-0.26-7.54,0.51-10.54,2.25l-56.21,32.45c-4.81,2.78-5.33,6.97-1.17,9.38l58.55,33.8c2.19,1.26,5.23,1.77,8.32,1.57
				C295.94,368.82,293.94,368.3,292.38,367.39z"/>
			<g>
				<defs>
					<path id="SVGID_55_" d="M293.22,349.82l-31.58-18.23c-2.25-1.3-1.96-3.56,0.63-5.06l30.32-17.51c2.59-1.5,6.51-1.66,8.76-0.36
						l31.58,18.23c2.25,1.3,1.96,3.56-0.63,5.06l-30.32,17.51C299.39,350.95,295.47,351.12,293.22,349.82z"/>
				</defs>
				<clipPath id="SVGID_56_">
					<use xlink:href="#SVGID_55_"  style="overflow:visible;"/>
				</clipPath>
			</g>
		</g>
		<g class="st14">
			<linearGradient id="SVGID_57_" gradientUnits="userSpaceOnUse" x1="215.3686" y1="321.8836" x2="383.2307" y2="321.8836">
				<stop  offset="0" style="stop-color:#A31FA9"/>
				<stop  offset="0.0668" style="stop-color:#8B17A0"/>
				<stop  offset="0.1494" style="stop-color:#740F98"/>
				<stop  offset="0.2393" style="stop-color:#640A92"/>
				<stop  offset="0.3408" style="stop-color:#5B078F"/>
				<stop  offset="0.4785" style="stop-color:#58068E"/>
				<stop  offset="0.6264" style="stop-color:#4D22A3"/>
				<stop  offset="0.9436" style="stop-color:#3168DA"/>
				<stop  offset="1" style="stop-color:#2C75E4"/>
			</linearGradient>
			<path class="st46" d="M366.18,302.39h-29.03l-32.32-18.66c-4.16-2.4-11.43-2.1-16.24,0.67l-31.16,17.99h-29.02v19.49h0.01
				c-0.12,1.63,0.79,3.2,2.79,4.35l58.55,33.8c4.16,2.4,11.43,2.1,16.24-0.67l56.21-32.45c2.5-1.44,3.83-3.27,3.95-5.03h0.02V302.39
				z"/>
			<path class="st6" d="M230.25,323.23L230.25,323.23l-0.01-19.49h29.02l31.16-17.99c4.81-2.77,12.08-3.08,16.24-0.67l32.32,18.66
				h27.2v-1.34h-29.04l-32.32-18.66c-4.16-2.4-11.43-2.1-16.24,0.67l-31.16,17.99h-29.02v19.49h0.01c-0.12,1.63,0.79,3.2,2.79,4.35
				l0.33,0.19C230.59,325.47,230.17,324.36,230.25,323.23z"/>
			
				<linearGradient id="SVGID_58_" gradientUnits="userSpaceOnUse" x1="648.96" y1="859.7297" x2="728.1408" y2="791.157" gradientTransform="matrix(0.866 0.5 -1 0.5774 525.0016 -518.4943)">
				<stop  offset="0" style="stop-color:#8D139B"/>
				<stop  offset="0.1651" style="stop-color:#851BA1"/>
				<stop  offset="0.4284" style="stop-color:#6E33B2"/>
				<stop  offset="0.7551" style="stop-color:#4958CD"/>
				<stop  offset="1" style="stop-color:#2979E4"/>
			</linearGradient>
			<path class="st47" d="M289.75,340.54l-58.55-33.8c-4.16-2.4-3.64-6.6,1.17-9.38l56.21-32.45c4.81-2.78,12.08-3.08,16.24-0.67
				l58.55,33.8c4.16,2.4,3.64,6.6-1.17,9.38l-56.21,32.45C301.18,342.65,293.91,342.95,289.75,340.54z"/>
			<path class="st5" d="M363.37,298.04l-58.55-33.8c-2.16-1.24-5.15-1.76-8.2-1.58c2.22,0.13,4.29,0.65,5.9,1.58l58.55,33.8
				c4.16,2.4,3.64,6.6-1.17,9.38l-56.21,32.45c-2.32,1.34-5.21,2.09-8.04,2.26c3.52,0.21,7.39-0.56,10.34-2.26l56.21-32.45
				C367.01,304.64,367.53,300.44,363.37,298.04z"/>
			<path class="st13" d="M296.93,332.49c-2.06,0-4.03-0.42-5.5-1.27l-43.59-25.16c-1.51-0.87-2.34-2.1-2.34-3.46
				c0-1.61,1.17-3.2,3.21-4.38l41.85-24.16c3.71-2.14,9.36-2.36,12.59-0.5l43.59,25.16c1.51,0.87,2.34,2.1,2.34,3.47
				c0,1.61-1.17,3.2-3.21,4.38l-41.85,24.16C301.99,331.9,299.4,332.49,296.93,332.49z M297.65,273.27c-2.29,0-4.7,0.56-6.59,1.65
				l-41.85,24.16c-1.72,1-2.71,2.28-2.71,3.52c0,0.99,0.65,1.91,1.84,2.6l43.59,25.16c2.96,1.7,8.16,1.48,11.59-0.5l41.85-24.16
				c1.72-0.99,2.71-2.28,2.71-3.52c0-0.99-0.65-1.91-1.84-2.6l-43.59-25.16C301.31,273.65,299.52,273.27,297.65,273.27z"/>
			<path class="st6" d="M292.38,340.54l-58.55-33.8c-4.16-2.4-3.64-6.6,1.17-9.38l56.21-32.45c2.28-1.32,5.12-2.07,7.92-2.25
				c-3.57-0.26-7.54,0.51-10.54,2.25l-56.21,32.45c-4.81,2.78-5.33,6.97-1.17,9.38l58.55,33.8c2.19,1.26,5.23,1.77,8.32,1.57
				C295.94,341.97,293.94,341.45,292.38,340.54z"/>
			<g>
				<defs>
					<path id="SVGID_59_" d="M293.22,322.97l-31.58-18.23c-2.25-1.3-1.96-3.56,0.63-5.06l30.32-17.51c2.59-1.5,6.51-1.66,8.76-0.36
						l31.58,18.23c2.25,1.3,1.96,3.56-0.63,5.06l-30.32,17.51C299.39,324.1,295.47,324.27,293.22,322.97z"/>
				</defs>
				<clipPath id="SVGID_60_">
					<use xlink:href="#SVGID_59_"  style="overflow:visible;"/>
				</clipPath>
			</g>
		</g>
		<g class="st17">
			<linearGradient id="SVGID_61_" gradientUnits="userSpaceOnUse" x1="215.3686" y1="295.034" x2="383.2307" y2="295.034">
				<stop  offset="0" style="stop-color:#A31FA9"/>
				<stop  offset="0.0668" style="stop-color:#8B17A0"/>
				<stop  offset="0.1494" style="stop-color:#740F98"/>
				<stop  offset="0.2393" style="stop-color:#640A92"/>
				<stop  offset="0.3408" style="stop-color:#5B078F"/>
				<stop  offset="0.4785" style="stop-color:#58068E"/>
				<stop  offset="0.6264" style="stop-color:#4D22A3"/>
				<stop  offset="0.9436" style="stop-color:#3168DA"/>
				<stop  offset="1" style="stop-color:#2C75E4"/>
			</linearGradient>
			<path class="st48" d="M366.18,275.54h-29.03l-32.32-18.66c-4.16-2.4-11.43-2.1-16.24,0.67l-31.16,17.99h-29.02v19.49h0.01
				c-0.12,1.63,0.79,3.2,2.79,4.35l58.55,33.8c4.16,2.4,11.43,2.1,16.24-0.67l56.21-32.45c2.5-1.44,3.83-3.27,3.95-5.03h0.02V275.54
				z"/>
			<path class="st6" d="M230.25,296.38L230.25,296.38l-0.01-19.49h29.02l31.16-17.99c4.81-2.78,12.08-3.08,16.24-0.67l32.32,18.66
				h27.2v-1.34h-29.04l-32.32-18.66c-4.16-2.4-11.43-2.1-16.24,0.67l-31.16,17.99h-29.02v19.49h0.01c-0.12,1.63,0.79,3.2,2.79,4.35
				l0.33,0.19C230.59,298.62,230.17,297.51,230.25,296.38z"/>
			
				<linearGradient id="SVGID_62_" gradientUnits="userSpaceOnUse" x1="622.111" y1="836.4785" x2="701.2919" y2="767.9058" gradientTransform="matrix(0.866 0.5 -1 0.5774 525.0016 -518.4943)">
				<stop  offset="0" style="stop-color:#8D139B"/>
				<stop  offset="0.1651" style="stop-color:#851BA1"/>
				<stop  offset="0.4284" style="stop-color:#6E33B2"/>
				<stop  offset="0.7551" style="stop-color:#4958CD"/>
				<stop  offset="1" style="stop-color:#2979E4"/>
			</linearGradient>
			<path class="st49" d="M289.75,313.69l-58.55-33.8c-4.16-2.4-3.64-6.6,1.17-9.38l56.21-32.45c4.81-2.78,12.08-3.08,16.24-0.67
				l58.55,33.8c4.16,2.4,3.64,6.6-1.17,9.38l-56.21,32.45C301.18,315.8,293.91,316.1,289.75,313.69z"/>
			<path class="st5" d="M363.37,271.19l-58.55-33.8c-2.16-1.24-5.15-1.76-8.2-1.58c2.22,0.13,4.29,0.65,5.9,1.58l58.55,33.8
				c4.16,2.4,3.64,6.6-1.17,9.38l-56.21,32.45c-2.32,1.34-5.21,2.09-8.04,2.26c3.52,0.21,7.39-0.56,10.34-2.26l56.21-32.45
				C367.01,277.79,367.53,273.59,363.37,271.19z"/>
			<path class="st13" d="M296.93,305.65c-2.06,0-4.03-0.42-5.5-1.27l-43.59-25.16c-1.51-0.87-2.34-2.1-2.34-3.47
				c0-1.61,1.17-3.2,3.21-4.38l41.85-24.16c3.71-2.14,9.36-2.37,12.59-0.5l43.59,25.17c1.51,0.87,2.34,2.1,2.34,3.47
				c0,1.61-1.17,3.2-3.21,4.38l-41.85,24.16C301.99,305.05,299.39,305.64,296.93,305.65z M297.65,246.42c-2.29,0-4.7,0.56-6.59,1.65
				l-41.85,24.16c-1.72,1-2.71,2.28-2.71,3.52c0,0.99,0.65,1.91,1.84,2.6l43.59,25.16c2.96,1.71,8.15,1.48,11.59-0.5l41.85-24.16
				c1.72-1,2.71-2.28,2.71-3.52c0-0.99-0.65-1.91-1.84-2.6l-43.59-25.17C301.31,246.8,299.52,246.42,297.65,246.42z"/>
			<path class="st6" d="M292.38,313.69l-58.55-33.8c-4.16-2.4-3.64-6.6,1.17-9.38l56.21-32.45c2.28-1.32,5.12-2.07,7.92-2.25
				c-3.57-0.26-7.54,0.51-10.54,2.25l-56.21,32.45c-4.81,2.78-5.33,6.97-1.17,9.38l58.55,33.8c2.19,1.26,5.23,1.77,8.32,1.57
				C295.94,315.12,293.94,314.6,292.38,313.69z"/>
			<g>
				<defs>
					<path id="SVGID_63_" d="M293.22,296.12l-31.58-18.23c-2.25-1.3-1.96-3.56,0.63-5.06l30.32-17.51c2.59-1.5,6.51-1.66,8.76-0.36
						l31.58,18.23c2.25,1.3,1.96,3.56-0.63,5.06l-30.32,17.51C299.39,297.25,295.47,297.42,293.22,296.12z"/>
				</defs>
				<clipPath id="SVGID_64_">
					<use xlink:href="#SVGID_63_"  style="overflow:visible;"/>
				</clipPath>
			</g>
		</g>
		<g>
			<linearGradient id="SVGID_65_" gradientUnits="userSpaceOnUse" x1="215.3686" y1="268.1842" x2="383.2307" y2="268.1842">
				<stop  offset="0" style="stop-color:#A31FA9"/>
				<stop  offset="0.0668" style="stop-color:#8B17A0"/>
				<stop  offset="0.1494" style="stop-color:#740F98"/>
				<stop  offset="0.2393" style="stop-color:#640A92"/>
				<stop  offset="0.3408" style="stop-color:#5B078F"/>
				<stop  offset="0.4785" style="stop-color:#58068E"/>
				<stop  offset="0.6264" style="stop-color:#4D22A3"/>
				<stop  offset="0.9436" style="stop-color:#3168DA"/>
				<stop  offset="1" style="stop-color:#2C75E4"/>
			</linearGradient>
			<path class="st50" d="M366.18,248.69h-29.03l-32.32-18.66c-4.16-2.4-11.43-2.1-16.24,0.67l-31.16,17.99h-29.02v19.49h0.01
				c-0.12,1.63,0.79,3.2,2.79,4.35l58.55,33.8c4.16,2.4,11.43,2.1,16.24-0.67l56.21-32.45c2.5-1.44,3.83-3.27,3.95-5.03h0.02V248.69
				z"/>
			<path class="st6" d="M230.25,269.53L230.25,269.53l-0.01-19.49h29.02l31.16-17.99c4.81-2.78,12.08-3.08,16.24-0.67l32.32,18.66
				h27.2v-1.34h-29.04l-32.32-18.66c-4.16-2.4-11.43-2.1-16.24,0.67l-31.16,17.99h-29.02v19.49h0.01c-0.12,1.63,0.79,3.2,2.79,4.35
				l0.33,0.19C230.59,271.77,230.17,270.66,230.25,269.53z"/>
			
				<linearGradient id="SVGID_66_" gradientUnits="userSpaceOnUse" x1="595.2621" y1="813.2273" x2="674.4429" y2="744.6546" gradientTransform="matrix(0.866 0.5 -1 0.5774 525.0016 -518.4943)">
				<stop  offset="0" style="stop-color:#267FE5"/>
				<stop  offset="0.1699" style="stop-color:#2C87E7"/>
				<stop  offset="0.441" style="stop-color:#3D9FEB"/>
				<stop  offset="0.7773" style="stop-color:#59C4F2"/>
				<stop  offset="1" style="stop-color:#6EE1F8"/>
			</linearGradient>
			<path class="st51" d="M289.75,286.84l-58.55-33.8c-4.16-2.4-3.64-6.6,1.17-9.38l56.21-32.45c4.81-2.78,12.08-3.08,16.24-0.67
				l58.55,33.8c4.16,2.4,3.64,6.6-1.17,9.38l-56.21,32.45C301.18,288.95,293.91,289.25,289.75,286.84z"/>
			<path class="st5" d="M363.37,244.34l-58.55-33.8c-2.16-1.24-5.15-1.76-8.2-1.58c2.22,0.13,4.29,0.65,5.9,1.58l58.55,33.8
				c4.16,2.4,3.64,6.6-1.17,9.38l-56.21,32.45c-2.32,1.34-5.21,2.09-8.04,2.26c3.52,0.21,7.39-0.55,10.34-2.26l56.21-32.45
				C367.01,250.94,367.53,246.74,363.37,244.34z"/>
			<linearGradient id="SVGID_67_" gradientUnits="userSpaceOnUse" x1="245.6955" y1="248.6927" x2="348.8795" y2="248.6927">
				<stop  offset="0" style="stop-color:#6DE0F6"/>
				<stop  offset="0.1595" style="stop-color:#68D8F5"/>
				<stop  offset="0.4138" style="stop-color:#5AC0F1"/>
				<stop  offset="0.7294" style="stop-color:#439BEA"/>
				<stop  offset="1" style="stop-color:#2C75E4"/>
			</linearGradient>
			<path class="st52" d="M296.93,278.6c-2.02,0-3.96-0.41-5.4-1.24l-43.59-25.17c-1.45-0.83-2.24-2-2.24-3.29
				c0-1.53,1.13-3.07,3.11-4.21l41.85-24.16c3.66-2.11,9.22-2.34,12.39-0.5l43.59,25.16c1.45,0.83,2.24,2,2.24,3.29
				c0,1.53-1.13,3.07-3.11,4.21l-41.85,24.16C301.92,278.01,299.36,278.6,296.93,278.6z M297.65,219.38c-2.32,0-4.78,0.57-6.69,1.67
				l-41.85,24.16c-1.79,1.03-2.81,2.38-2.81,3.69c0,1.06,0.69,2.05,1.94,2.77l43.59,25.16c3.01,1.74,8.3,1.51,11.79-0.5l41.85-24.16
				c1.79-1.03,2.81-2.38,2.81-3.69c0-1.06-0.69-2.05-1.94-2.77l-43.59-25.16C301.39,219.76,299.56,219.38,297.65,219.38z"/>
			<path class="st23" d="M292.38,286.84l-58.55-33.8c-4.16-2.4-3.64-6.6,1.17-9.38l56.21-32.45c2.28-1.32,5.12-2.07,7.92-2.25
				c-3.57-0.26-7.54,0.51-10.54,2.25l-56.21,32.45c-4.81,2.77-5.33,6.97-1.17,9.38l58.55,33.8c2.19,1.26,5.23,1.77,8.32,1.57
				C295.94,288.27,293.94,287.75,292.38,286.84z"/>
			<g>
				<defs>
					<path id="SVGID_68_" d="M293.22,269.27l-31.58-18.23c-2.25-1.3-1.96-3.56,0.63-5.06l30.32-17.51c2.59-1.5,6.51-1.66,8.76-0.36
						l31.58,18.23c2.25,1.3,1.96,3.56-0.63,5.06l-30.32,17.51C299.39,270.41,295.47,270.57,293.22,269.27z"/>
				</defs>
				<clipPath id="SVGID_69_">
					<use xlink:href="#SVGID_68_"  style="overflow:visible;"/>
				</clipPath>
			</g>
			<g>
				<path class="st33" d="M307.66,297.7l49.52-28.65c0.45-0.26,0.82-0.96,0.82-1.57v-2.34c0-0.6-0.37-0.88-0.82-0.62l-49.52,28.65
					c-0.45,0.26-0.82,0.96-0.82,1.57v2.34C306.84,297.68,307.21,297.96,307.66,297.7z"/>
				<path class="st34" d="M356.1,268.43c0.45-0.26,0.82-0.96,0.82-1.57v-2.19l0.26-0.15c0.45-0.26,0.82,0.02,0.82,0.62v2.34
					c0,0.6-0.37,1.31-0.82,1.57l-49.52,28.65c-0.45,0.26-0.82-0.02-0.82-0.62v-0.15L356.1,268.43z"/>
			</g>
			<g>
				<path class="st33" d="M287.27,297.7l-49.52-28.65c-0.45-0.26-0.82-0.96-0.82-1.57v-2.34c0-0.6,0.37-0.88,0.82-0.62l49.52,28.65
					c0.45,0.26,0.82,0.96,0.82,1.57v2.34C288.09,297.68,287.72,297.96,287.27,297.7z"/>
				<path class="st34" d="M238.83,268.43c-0.45-0.26-0.82-0.96-0.82-1.57v-2.19l-0.26-0.15c-0.45-0.26-0.82,0.02-0.82,0.62v2.34
					c0,0.6,0.37,1.31,0.82,1.57l49.52,28.65c0.45,0.26,0.82-0.02,0.82-0.62v-0.15L238.83,268.43z"/>
			</g>
		</g>
	</g>
	<g>
		
			<linearGradient id="SVGID_70_" gradientUnits="userSpaceOnUse" x1="482.8489" y1="715.3279" x2="562.0298" y2="646.7552" gradientTransform="matrix(0.866 0.5 -1 0.5774 525.0016 -518.4943)">
			<stop  offset="0" style="stop-color:#8D139B"/>
			<stop  offset="0.1651" style="stop-color:#851BA1"/>
			<stop  offset="0.4284" style="stop-color:#6E33B2"/>
			<stop  offset="0.7551" style="stop-color:#4958CD"/>
			<stop  offset="1" style="stop-color:#2979E4"/>
		</linearGradient>
		<path class="st53" d="M290.3,174.11l-58.55-33.8c-4.16-2.4-3.64-6.6,1.17-9.38l56.21-32.45c4.81-2.77,12.08-3.08,16.24-0.67
			l58.55,33.8c4.16,2.4,3.64,6.6-1.17,9.38l-56.21,32.45C301.73,176.21,294.46,176.51,290.3,174.11z"/>
		
			<linearGradient id="SVGID_71_" gradientUnits="userSpaceOnUse" x1="496.0322" y1="703.9108" x2="549.3903" y2="657.7013" gradientTransform="matrix(0.866 0.5 -1 0.5774 525.0016 -518.4943)">
			<stop  offset="0" style="stop-color:#267FE5"/>
			<stop  offset="0.1699" style="stop-color:#2C87E7"/>
			<stop  offset="0.441" style="stop-color:#3D9FEB"/>
			<stop  offset="0.7773" style="stop-color:#59C4F2"/>
			<stop  offset="1" style="stop-color:#6EE1F8"/>
		</linearGradient>
		<path class="st54" d="M292.76,161.67l-39.45-22.78c-2.81-1.62-2.45-4.45,0.79-6.32l37.88-21.87c3.24-1.87,8.14-2.07,10.94-0.45
			l39.45,22.78c2.81,1.62,2.45,4.45-0.79,6.32l-37.88,21.87C300.46,163.09,295.56,163.29,292.76,161.67z"/>
		
			<linearGradient id="SVGID_72_" gradientUnits="userSpaceOnUse" x1="595.8892" y1="719.2308" x2="675.0701" y2="650.6581" gradientTransform="matrix(0.866 0.5 -1 0.5774 525.0016 -518.4943)">
			<stop  offset="0" style="stop-color:#8D139B"/>
			<stop  offset="0.1651" style="stop-color:#851BA1"/>
			<stop  offset="0.4284" style="stop-color:#6E33B2"/>
			<stop  offset="0.7551" style="stop-color:#4958CD"/>
			<stop  offset="1" style="stop-color:#2979E4"/>
		</linearGradient>
		<path class="st55" d="M384.29,232.89l-58.55-33.8c-4.16-2.4-3.64-6.6,1.17-9.38l56.21-32.45c4.81-2.78,12.08-3.08,16.24-0.67
			l58.55,33.8c4.16,2.4,3.64,6.6-1.17,9.38l-56.21,32.45C395.72,234.99,388.45,235.29,384.29,232.89z"/>
		
			<linearGradient id="SVGID_73_" gradientUnits="userSpaceOnUse" x1="482.2217" y1="809.3243" x2="561.4026" y2="740.7517" gradientTransform="matrix(0.866 0.5 -1 0.5774 525.0016 -518.4943)">
			<stop  offset="0" style="stop-color:#8D139B"/>
			<stop  offset="0.1651" style="stop-color:#851BA1"/>
			<stop  offset="0.4284" style="stop-color:#6E33B2"/>
			<stop  offset="0.7551" style="stop-color:#4958CD"/>
			<stop  offset="1" style="stop-color:#2979E4"/>
		</linearGradient>
		<path class="st56" d="M195.76,228.07l-58.55-33.8c-4.16-2.4-3.64-6.6,1.17-9.38l56.21-32.45c4.81-2.78,12.08-3.08,16.24-0.67
			l58.55,33.8c4.16,2.4,3.64,6.6-1.17,9.38L212,227.4C207.19,230.17,199.92,230.47,195.76,228.07z"/>
		
			<linearGradient id="SVGID_74_" gradientUnits="userSpaceOnUse" x1="595.2621" y1="813.2273" x2="674.4429" y2="744.6546" gradientTransform="matrix(0.866 0.5 -1 0.5774 525.0016 -518.4943)">
			<stop  offset="0" style="stop-color:#267FE5"/>
			<stop  offset="0.1699" style="stop-color:#2C87E7"/>
			<stop  offset="0.441" style="stop-color:#3D9FEB"/>
			<stop  offset="0.7773" style="stop-color:#59C4F2"/>
			<stop  offset="1" style="stop-color:#6EE1F8"/>
		</linearGradient>
		<path class="st57" d="M289.75,286.84l-58.55-33.8c-4.16-2.4-3.64-6.6,1.17-9.38l56.21-32.45c4.81-2.78,12.08-3.08,16.24-0.67
			l58.55,33.8c4.16,2.4,3.64,6.6-1.17,9.38l-56.21,32.45C301.18,288.95,293.91,289.25,289.75,286.84z"/>
		
			<linearGradient id="SVGID_75_" gradientUnits="userSpaceOnUse" x1="615.9554" y1="802.4601" x2="656.0376" y2="753.2153" gradientTransform="matrix(0.866 0.5 -1 0.5774 525.0016 -518.4943)">
			<stop  offset="0" style="stop-color:#A31FA9"/>
			<stop  offset="0.0503" style="stop-color:#8B17A0"/>
			<stop  offset="0.1125" style="stop-color:#740F98"/>
			<stop  offset="0.1801" style="stop-color:#640A92"/>
			<stop  offset="0.2565" style="stop-color:#5B078F"/>
			<stop  offset="0.3602" style="stop-color:#58068E"/>
			<stop  offset="0.5416" style="stop-color:#4D22A3"/>
			<stop  offset="0.9308" style="stop-color:#3168DA"/>
			<stop  offset="1" style="stop-color:#2C75E4"/>
		</linearGradient>
		<path class="st58" d="M292.81,271.38l-34.82-20.1c-2.48-1.43-2.17-3.93,0.69-5.58l33.43-19.3c2.86-1.65,7.18-1.83,9.66-0.4
			l34.82,20.1c2.48,1.43,2.17,3.93-0.69,5.58l-33.43,19.3C299.61,272.63,295.28,272.81,292.81,271.38z"/>
	</g>
</g>
<linearGradient id="SVGID_76_" gradientUnits="userSpaceOnUse" x1="1086.813" y1="82.8995" x2="1102.9219" y2="-29.9878" gradientTransform="matrix(-0.866 0.5 1 0.5774 1396.7529 -300.8687)">
	<stop  offset="0" style="stop-color:#071033"/>
	<stop  offset="0.1662" style="stop-color:#081237"/>
	<stop  offset="0.3156" style="stop-color:#0A1941"/>
	<stop  offset="0.4584" style="stop-color:#0D2354"/>
	<stop  offset="0.5973" style="stop-color:#12336E"/>
	<stop  offset="0.7333" style="stop-color:#19478F"/>
	<stop  offset="0.8652" style="stop-color:#205EB7"/>
	<stop  offset="0.9892" style="stop-color:#2979E4"/>
</linearGradient>
<polygon class="st59" points="499.05,309.48 570.01,268.51 448.6,213.1 403.07,239.38 "/>
<g>
	<g>
		<g>
			<polygon class="st33" points="391.92,170.61 389.14,169 391.92,167.4 394.7,169 			"/>
			<polygon class="st60" points="397.48,173.82 394.7,172.21 397.48,170.61 400.26,172.21 			"/>
			<polygon class="st61" points="403.04,177.03 400.26,175.42 403.04,173.82 405.81,175.42 			"/>
			<polygon class="st33" points="408.59,180.24 405.81,178.63 408.59,177.03 411.37,178.63 			"/>
			<polygon class="st61" points="414.15,183.45 411.37,181.84 414.15,180.24 416.93,181.84 			"/>
			<polygon class="st33" points="419.71,186.66 416.93,185.05 419.71,183.45 422.49,185.05 			"/>
			<polygon class="st33" points="425.27,189.87 422.49,188.26 425.27,186.66 428.05,188.26 			"/>
			<polygon class="st33" points="430.83,193.08 428.05,191.47 430.83,189.87 433.61,191.47 			"/>
			<polygon class="st60" points="436.39,196.29 433.61,194.68 436.39,193.08 439.17,194.68 			"/>
		</g>
		<g>
			<polygon class="st33" points="386.33,173.83 383.56,172.23 386.33,170.62 389.11,172.23 			"/>
			<polygon class="st33" points="391.89,177.04 389.11,175.44 391.89,173.83 394.67,175.44 			"/>
			<polygon class="st33" points="397.45,180.25 394.67,178.65 397.45,177.04 400.23,178.65 			"/>
			<polygon class="st33" points="403.01,183.46 400.23,181.85 403.01,180.25 405.79,181.85 			"/>
			<polygon class="st33" points="408.57,186.67 405.79,185.06 408.57,183.46 411.35,185.06 			"/>
			<polygon class="st33" points="414.13,189.88 411.35,188.27 414.13,186.67 416.91,188.27 			"/>
			<polygon class="st33" points="419.69,193.09 416.91,191.48 419.69,189.88 422.47,191.48 			"/>
			<polygon class="st33" points="425.25,196.3 422.47,194.69 425.25,193.09 428.03,194.69 			"/>
			<polygon class="st33" points="430.81,199.51 428.03,197.9 430.81,196.3 433.59,197.9 			"/>
		</g>
		<g>
			<polygon class="st33" points="380.75,177.05 377.97,175.45 380.75,173.84 383.53,175.45 			"/>
			<polygon class="st33" points="386.31,180.26 383.53,178.66 386.31,177.05 389.09,178.66 			"/>
			<polygon class="st33" points="391.87,183.47 389.09,181.87 391.87,180.26 394.65,181.87 			"/>
			<polygon class="st60" points="397.43,186.68 394.65,185.08 397.43,183.47 400.21,185.08 			"/>
			<polygon class="st61" points="402.99,189.89 400.21,188.29 402.99,186.68 405.77,188.29 			"/>
			<polygon class="st61" points="408.55,193.1 405.77,191.5 408.55,189.89 411.33,191.5 			"/>
			<polygon class="st33" points="414.11,196.31 411.33,194.71 414.11,193.1 416.89,194.71 			"/>
			<polygon class="st33" points="419.67,199.52 416.89,197.92 419.67,196.31 422.45,197.92 			"/>
			<polygon class="st33" points="425.23,202.73 422.45,201.13 425.23,199.52 428.01,201.13 			"/>
		</g>
		<g>
			<polygon class="st61" points="375.17,180.28 372.39,178.67 375.17,177.07 377.95,178.67 			"/>
			<polygon class="st61" points="380.73,183.49 377.95,181.88 380.73,180.28 383.51,181.88 			"/>
			<polygon class="st60" points="386.29,186.7 383.51,185.09 386.29,183.49 389.07,185.09 			"/>
			<polygon class="st33" points="391.85,189.91 389.07,188.3 391.85,186.7 394.63,188.3 			"/>
			<polygon class="st33" points="397.41,193.11 394.63,191.51 397.41,189.91 400.19,191.51 			"/>
			<polygon class="st33" points="402.97,196.32 400.19,194.72 402.97,193.11 405.75,194.72 			"/>
			<polygon class="st61" points="408.53,199.53 405.75,197.93 408.53,196.32 411.31,197.93 			"/>
			<polygon class="st33" points="414.09,202.74 411.31,201.14 414.09,199.53 416.87,201.14 			"/>
			<polygon class="st33" points="419.65,205.95 416.87,204.35 419.65,202.74 422.43,204.35 			"/>
		</g>
		<g>
			<polygon class="st33" points="369.59,183.5 366.81,181.89 369.59,180.29 372.37,181.89 			"/>
			<polygon class="st33" points="375.15,186.71 372.37,185.1 375.15,183.5 377.93,185.1 			"/>
			<polygon class="st33" points="380.71,189.92 377.93,188.31 380.71,186.71 383.49,188.31 			"/>
			<polygon class="st33" points="386.27,193.13 383.49,191.52 386.27,189.92 389.05,191.52 			"/>
			<polygon class="st33" points="391.83,196.34 389.05,194.73 391.83,193.13 394.61,194.73 			"/>
			<polygon class="st33" points="397.39,199.55 394.61,197.94 397.39,196.34 400.17,197.94 			"/>
			<polygon class="st33" points="402.95,202.76 400.17,201.15 402.95,199.55 405.72,201.15 			"/>
			<polygon class="st33" points="408.5,205.97 405.72,204.36 408.5,202.76 411.28,204.36 			"/>
			<polygon class="st33" points="414.06,209.18 411.28,207.57 414.06,205.97 416.84,207.57 			"/>
		</g>
		<g>
			<polygon class="st33" points="364.01,186.72 361.23,185.12 364.01,183.51 366.79,185.12 			"/>
			<polygon class="st33" points="369.57,189.93 366.79,188.33 369.57,186.72 372.35,188.33 			"/>
			<polygon class="st61" points="375.13,193.14 372.35,191.54 375.13,189.93 377.91,191.54 			"/>
			<polygon class="st33" points="380.69,196.35 377.91,194.75 380.69,193.14 383.47,194.75 			"/>
			<polygon class="st60" points="386.24,199.56 383.47,197.96 386.24,196.35 389.02,197.96 			"/>
			<polygon class="st33" points="391.8,202.77 389.02,201.16 391.8,199.56 394.58,201.16 			"/>
			<polygon class="st33" points="397.36,205.98 394.58,204.37 397.36,202.77 400.14,204.37 			"/>
			<polygon class="st33" points="402.92,209.19 400.14,207.58 402.92,205.98 405.7,207.58 			"/>
			<polygon class="st33" points="408.48,212.4 405.7,210.79 408.48,209.19 411.26,210.79 			"/>
		</g>
		<g>
			<polygon class="st33" points="358.43,189.94 355.65,188.34 358.43,186.73 361.21,188.34 			"/>
			<polygon class="st33" points="363.99,193.15 361.21,191.55 363.99,189.94 366.76,191.55 			"/>
			<polygon class="st61" points="369.54,196.36 366.76,194.76 369.54,193.15 372.32,194.76 			"/>
			<polygon class="st33" points="375.1,199.57 372.32,197.97 375.1,196.36 377.88,197.97 			"/>
			<polygon class="st33" points="380.66,202.78 377.88,201.18 380.66,199.57 383.44,201.18 			"/>
			<polygon class="st60" points="386.22,205.99 383.44,204.39 386.22,202.78 389,204.39 			"/>
			<polygon class="st61" points="391.78,209.2 389,207.6 391.78,205.99 394.56,207.6 			"/>
			<polygon class="st33" points="397.34,212.41 394.56,210.81 397.34,209.2 400.12,210.81 			"/>
			<polygon class="st60" points="402.9,215.62 400.12,214.02 402.9,212.41 405.68,214.02 			"/>
		</g>
		<g>
			<polygon class="st33" points="352.84,193.17 350.06,191.56 352.84,189.96 355.62,191.56 			"/>
			<polygon class="st61" points="358.4,196.38 355.62,194.77 358.4,193.17 361.18,194.77 			"/>
			<polygon class="st33" points="363.96,199.59 361.18,197.98 363.96,196.38 366.74,197.98 			"/>
			<polygon class="st33" points="369.52,202.8 366.74,201.19 369.52,199.59 372.3,201.19 			"/>
			<polygon class="st33" points="375.08,206.01 372.3,204.4 375.08,202.8 377.86,204.4 			"/>
			<polygon class="st33" points="380.64,209.21 377.86,207.61 380.64,206.01 383.42,207.61 			"/>
			<polygon class="st33" points="386.2,212.42 383.42,210.82 386.2,209.21 388.98,210.82 			"/>
			<polygon class="st61" points="391.76,215.63 388.98,214.03 391.76,212.42 394.54,214.03 			"/>
			<polygon class="st33" points="397.32,218.84 394.54,217.24 397.32,215.63 400.1,217.24 			"/>
		</g>
		<g>
			<polygon class="st33" points="347.26,196.39 344.48,194.78 347.26,193.18 350.04,194.78 			"/>
			<polygon class="st60" points="352.82,199.6 350.04,197.99 352.82,196.39 355.6,197.99 			"/>
			<polygon class="st33" points="358.38,202.81 355.6,201.2 358.38,199.6 361.16,201.2 			"/>
			<polygon class="st33" points="363.94,206.02 361.16,204.41 363.94,202.81 366.72,204.41 			"/>
			<polygon class="st33" points="369.5,209.23 366.72,207.62 369.5,206.02 372.28,207.62 			"/>
			<polygon class="st33" points="375.06,212.44 372.28,210.83 375.06,209.23 377.84,210.83 			"/>
			<polygon class="st61" points="380.62,215.65 377.84,214.04 380.62,212.44 383.4,214.04 			"/>
			<polygon class="st33" points="386.18,218.86 383.4,217.25 386.18,215.65 388.96,217.25 			"/>
			<polygon class="st33" points="391.74,222.07 388.96,220.46 391.74,218.86 394.52,220.46 			"/>
		</g>
	</g>
	<path class="st13" d="M391.46,224.93c-2.03,0-3.97-0.41-5.42-1.25l-44.16-25.5c-1.43-0.83-2.22-1.98-2.22-3.25
		c0-1.52,1.13-3.04,3.1-4.18l42.4-24.48c3.67-2.12,9.26-2.35,12.46-0.51l44.16,25.5c1.43,0.83,2.22,1.98,2.22,3.25
		c0,1.52-1.13,3.04-3.1,4.18l-42.4,24.48C396.49,224.34,393.91,224.93,391.46,224.93z M392.19,164.93c-2.37,0-4.88,0.58-6.83,1.7
		l-42.4,24.48c-1.84,1.06-2.9,2.46-2.9,3.82c0,1.12,0.72,2.14,2.02,2.89l44.16,25.5c3.08,1.78,8.48,1.55,12.05-0.51l42.4-24.48
		c1.84-1.06,2.9-2.46,2.9-3.82c0-1.12-0.72-2.14-2.02-2.89l-44.16-25.5C396.02,165.33,394.15,164.93,392.19,164.93z"/>
</g>
<path class="st6" d="M46.56,213.29c0,1.22-0.99,2.21-2.21,2.21c-1.22,0-2.21-0.99-2.21-2.21s0.99-2.21,2.21-2.21
	C45.57,211.08,46.56,212.07,46.56,213.29z"/>
</svg>
