<svg width="20" height="20" viewBox="0 0 20 20" fill="none" xmlns="http://www.w3.org/2000/svg">
<path d="M6.92661 9.92661L8.92661 11.9266L12.9266 7.92661M5.76161 2.62361C6.47892 2.56636 7.15989 2.28431 7.70761 1.81761C8.32652 1.28988 9.11325 1 9.92661 1C10.74 1 11.5267 1.28988 12.1456 1.81761C12.6933 2.28431 13.3743 2.56636 14.0916 2.62361C14.9024 2.68811 15.6636 3.03943 16.2387 3.61453C16.8138 4.18963 17.1651 4.95086 17.2296 5.76161C17.2869 6.47892 17.5689 7.15989 18.0356 7.70761C18.5633 8.32652 18.8532 9.11325 18.8532 9.92661C18.8532 10.74 18.5633 11.5267 18.0356 12.1456C17.5689 12.6933 17.2869 13.3743 17.2296 14.0916C17.1651 14.9024 16.8138 15.6636 16.2387 16.2387C15.6636 16.8138 14.9024 17.1651 14.0916 17.2296C13.3743 17.2869 12.6933 17.5689 12.1456 18.0356C11.5267 18.5633 10.74 18.8532 9.92661 18.8532C9.11325 18.8532 8.32652 18.5633 7.70761 18.0356C7.15989 17.5689 6.47892 17.2869 5.76161 17.2296C4.95086 17.1651 4.18963 16.8138 3.61453 16.2387C3.03943 15.6636 2.68811 14.9024 2.62361 14.0916C2.56636 13.3743 2.28431 12.6933 1.81761 12.1456C1.28988 11.5267 1 10.74 1 9.92661C1 9.11325 1.28988 8.32652 1.81761 7.70761C2.28431 7.15989 2.56636 6.47892 2.62361 5.76161C2.68811 4.95086 3.03943 4.18963 3.61453 3.61453C4.18963 3.03943 4.95086 2.68811 5.76161 2.62361V2.62361Z" stroke="#22C55E" stroke-width="2" stroke-linecap="round" stroke-linejoin="round"/>
</svg>
