<?xml version="1.0" encoding="utf-8"?>
<!-- Generator: Adobe Illustrator 23.0.0, SVG Export Plug-In . SVG Version: 6.00 Build 0)  -->
<svg version="1.1" xmlns="http://www.w3.org/2000/svg" xmlns:xlink="http://www.w3.org/1999/xlink" x="0px" y="0px"
	 viewBox="0 0 3710 3710" enable-background="new 0 0 3710 3710" xml:space="preserve">
<g id="Background">
	<g>
	</g>
</g>
<g id="Illustration">
	<path fill="#303030" d="M1215.67,622.14c-25.42-0.75-46.05,18.5-46.05,43s20.63,44.93,46.05,45.63c25.39,0.7,45.94-18.56,45.94-43
		C1261.61,643.32,1241.06,622.89,1215.67,622.14z"/>
	<path fill="#303030" d="M1053.44,617.33c-25.63-0.76-46.44,18.57-46.44,43.17c0,24.61,20.8,45.12,46.44,45.82
		c25.6,0.7,46.33-18.63,46.33-43.18C1099.77,638.6,1079.04,618.09,1053.44,617.33z"/>
	<path fill="#303030" d="M889.85,612.47c-25.85-0.77-46.83,18.64-46.83,43.35c0,24.71,20.98,45.31,46.83,46.02
		c25.81,0.71,46.72-18.7,46.72-43.35C936.57,633.84,915.67,613.24,889.85,612.47z"/>
	<linearGradient id="SVGID_1_" gradientUnits="userSpaceOnUse" x1="680.5801" y1="1862.5233" x2="2637.873" y2="1862.5233">
		<stop  offset="3.597120e-03" style="stop-color:#E38DDD"/>
		<stop  offset="1" style="stop-color:#9571F6"/>
	</linearGradient>
	<path fill="url(#SVGID_1_)" d="M2506.97,585.08l-1682.48-53.3c-79.35-2.51-143.91,56.9-143.91,132.7v2396.7
		c0,75.81,64.56,134.93,143.91,132.06l1682.48-60.81c72.41-2.62,130.9-63.13,130.9-135.17V719.67
		C2637.87,647.63,2579.38,587.38,2506.97,585.08z M2438.9,2703.96l-1590.55,40.48v-69.83l1587.51-37.49L2438.9,2703.96z
		 M2196.04,2208.56l-15.6,0.18v-41.64c0-13.91-11.46-25.12-25.56-24.98l-346.6,3.36c-23.15,0.22-42-18.03-42-40.69v-57.54
		l15.94-0.11v57.52c0,14.06,11.7,25.39,26.06,25.26l346.6-3.22c22.71-0.21,41.16,17.85,41.16,40.25V2208.56z M2360.18,2228.99
		c23.06-0.28,41.74,18.05,41.74,40.93v153.01c0,22.88-18.68,41.77-41.74,42.2l-345.45,6.32c-23.52,0.43-42.6-17.98-42.6-41.13
		v-154.76c0-23.14,19.08-42.13,42.6-42.42L2360.18,2228.99z M1462.24,2282.26c0-23.45,19.6-42.7,43.75-42.99l354.7-4.27
		c23.68-0.29,42.85,18.28,42.85,41.46v155.04c0,23.18-19.17,42.33-42.85,42.76l-354.7,6.49c-24.15,0.44-43.75-18.21-43.75-41.66
		V2282.26z M1201.61,2151.34c-14.83,0.14-26.9,11.88-26.9,26.16v42.75l-16.45,0.19v-42.76c0-23.02,19.46-41.93,43.35-42.15
		l357.62-3.32c14.54-0.13,26.37-11.74,26.37-25.87v-57.82l16.09-0.12v57.79c0,22.76-19.04,41.46-42.46,41.68L1201.61,2151.34z
		 M1676.16,2214.51v-166.63l16.02-0.11v166.57L1676.16,2214.51z M1903.55,1976.67c0,23.18-19.17,42.1-42.85,42.25l-354.7,2.26
		c-24.15,0.15-43.75-18.73-43.75-42.19v-156.83c0-23.45,19.6-42.47,43.75-42.47l354.7-0.04c23.68,0,42.85,18.79,42.85,41.97V1976.67
		z M1692.17,1756.98l-16.02-0.01v-166.63l16.02,0.08V1756.98z M1427.29,1569.92c-46.99-0.25-85.17-37.39-85.17-82.96v-139.65
		c0-45.57,38.18-82,85.17-81.38l510.35,6.72c45.65,0.6,82.58,37.38,82.58,82.15v137.2c0,44.77-36.93,80.86-82.58,80.62
		L1427.29,1569.92z M1559.23,1673.28c14.54,0.04,26.37-11.43,26.37-25.56v-57.82l16.09,0.08v57.79c0,22.76-19.04,41.23-42.46,41.18
		l-357.62-0.8c-14.83-0.03-26.9,11.56-26.9,25.84v42.75l-16.45-0.01v-42.76c0-23.02,19.46-41.69,43.35-41.63L1559.23,1673.28z
		 M1347.8,1779.72c24.32,0,44.01,19.04,44.01,42.54v157.11c0,23.5-19.69,42.67-44.01,42.82l-364.34,2.33
		c-24.81,0.16-44.94-18.98-44.94-42.75v-158.96c0-23.77,20.13-43.04,44.94-43.05L1347.8,1779.72z M983.46,2245.56l364.34-4.39
		c24.32-0.29,44.01,18.52,44.01,42.01v157.11c0,23.5-19.69,42.9-44.01,43.35l-364.34,6.67c-24.81,0.46-44.94-18.45-44.94-42.22
		v-158.96C938.52,2265.37,958.66,2245.86,983.46,2245.56z M2401.92,1821.02v153.01c0,22.88-18.68,41.55-41.74,41.7l-345.45,2.21
		c-23.52,0.15-42.6-18.49-42.6-41.63v-154.76c0-23.14,19.08-41.91,42.6-41.91l345.45-0.04
		C2383.24,1779.59,2401.92,1798.14,2401.92,1821.02z M2196.04,1715.59v41.62l-15.6-0.01v-41.64c0-13.91-11.46-25.26-25.56-25.29
		l-346.6-0.77c-23.15-0.05-42-18.53-42-41.19v-57.54l15.94,0.08v57.52c0,14.06,11.7,25.53,26.06,25.57l346.6,0.92
		C2177.59,1674.91,2196.04,1693.19,2196.04,1715.59z M2104.71,1107.92l-1256.36-22.08v-69.83l1256.36,24.31V1107.92z
		 M1215.67,622.14c25.39,0.75,45.94,21.18,45.94,45.63c0,24.44-20.56,43.7-45.94,43c-25.42-0.7-46.05-21.13-46.05-45.63
		C1169.62,640.64,1190.25,621.39,1215.67,622.14z M1053.44,617.33c25.6,0.76,46.33,21.27,46.33,45.82
		c0,24.55-20.73,43.88-46.33,43.18c-25.63-0.7-46.44-21.22-46.44-45.82S1027.81,616.57,1053.44,617.33z M889.85,612.47
		c25.81,0.77,46.72,21.37,46.72,46.02c0,24.65-20.9,44.06-46.72,43.35c-25.85-0.71-46.83-21.31-46.83-46.02
		C843.02,631.11,864,611.7,889.85,612.47z M848.35,2915.74v-69.83l1595.43-44.7l3.63,66.8L848.35,2915.74z"/>
	<linearGradient id="SVGID_2_" gradientUnits="userSpaceOnUse" x1="848.3467" y1="2858.4741" x2="2447.4033" y2="2858.4741">
		<stop  offset="3.597120e-03" style="stop-color:#E38DDD"/>
		<stop  offset="1" style="stop-color:#9571F6"/>
	</linearGradient>
	<polygon fill="url(#SVGID_2_)" points="848.35,2845.91 848.35,2915.74 2447.4,2868.02 2443.78,2801.21 	"/>
	<linearGradient id="SVGID_3_" gradientUnits="userSpaceOnUse" x1="848.3467" y1="2690.7827" x2="2438.8984" y2="2690.7827">
		<stop  offset="3.597120e-03" style="stop-color:#E38DDD"/>
		<stop  offset="1" style="stop-color:#9571F6"/>
	</linearGradient>
	<polygon fill="url(#SVGID_3_)" points="848.35,2674.61 848.35,2744.44 2438.9,2703.96 2435.86,2637.12 	"/>
	<linearGradient id="SVGID_4_" gradientUnits="userSpaceOnUse" x1="848.3467" y1="1061.9722" x2="2104.7109" y2="1061.9722">
		<stop  offset="3.597120e-03" style="stop-color:#E38DDD"/>
		<stop  offset="1" style="stop-color:#9571F6"/>
	</linearGradient>
	<polygon fill="url(#SVGID_4_)" points="2104.71,1040.33 848.35,1016.02 848.35,1085.85 2104.71,1107.92 	"/>
	<linearGradient id="SVGID_5_" gradientUnits="userSpaceOnUse" x1="1169.6172" y1="666.4526" x2="1261.6134" y2="666.4526">
		<stop  offset="3.597120e-03" style="stop-color:#E38DDD"/>
		<stop  offset="1" style="stop-color:#9571F6"/>
	</linearGradient>
	<path fill="url(#SVGID_5_)" d="M1215.67,710.77c25.39,0.7,45.94-18.56,45.94-43c0-24.45-20.56-44.87-45.94-45.63
		c-25.42-0.75-46.05,18.5-46.05,43S1190.25,710.07,1215.67,710.77z"/>
	<linearGradient id="SVGID_6_" gradientUnits="userSpaceOnUse" x1="1007.0032" y1="661.8234" x2="1099.7688" y2="661.8234">
		<stop  offset="3.597120e-03" style="stop-color:#E38DDD"/>
		<stop  offset="1" style="stop-color:#9571F6"/>
	</linearGradient>
	<path fill="url(#SVGID_6_)" d="M1053.44,706.32c25.6,0.7,46.33-18.63,46.33-43.18c0-24.55-20.73-45.06-46.33-45.82
		c-25.63-0.76-46.44,18.57-46.44,43.17C1007,685.11,1027.81,705.62,1053.44,706.32z"/>
	<linearGradient id="SVGID_7_" gradientUnits="userSpaceOnUse" x1="843.0237" y1="657.1558" x2="936.569" y2="657.1558">
		<stop  offset="3.597120e-03" style="stop-color:#E38DDD"/>
		<stop  offset="1" style="stop-color:#9571F6"/>
	</linearGradient>
	<path fill="url(#SVGID_7_)" d="M889.85,612.47c-25.85-0.77-46.83,18.64-46.83,43.35c0,24.71,20.98,45.31,46.83,46.02
		c25.81,0.71,46.72-18.7,46.72-43.35C936.57,633.84,915.67,613.24,889.85,612.47z"/>
	<path opacity="0.74" fill="#FFFFFF" d="M2520.64,627.3L809.56,574.99c-45.75-1.4-82.91,32.86-82.91,76.52v2422.44
		c0,43.66,37.16,77.75,82.91,76.15l1711.08-59.94c41.75-1.46,75.53-36.36,75.53-77.94V704.9
		C2596.18,663.32,2562.4,628.58,2520.64,627.3z M2438.9,2703.96l-1590.55,40.48v-69.83l1587.51-37.49L2438.9,2703.96z
		 M2196.04,2208.56l-15.6,0.18v-41.64c0-13.91-11.46-25.12-25.56-24.98l-346.6,3.36c-23.15,0.22-42-18.03-42-40.69v-57.54
		l15.94-0.11v57.52c0,14.06,11.7,25.39,26.06,25.26l346.6-3.22c22.71-0.21,41.16,17.85,41.16,40.25V2208.56z M2360.18,2228.99
		c23.06-0.28,41.74,18.05,41.74,40.93v153.01c0,22.88-18.68,41.77-41.74,42.2l-345.45,6.32c-23.52,0.43-42.6-17.98-42.6-41.13
		v-154.76c0-23.14,19.08-42.13,42.6-42.42L2360.18,2228.99z M1462.24,2282.26c0-23.45,19.6-42.7,43.75-42.99l354.7-4.27
		c23.68-0.29,42.85,18.28,42.85,41.46v155.04c0,23.18-19.17,42.33-42.85,42.76l-354.7,6.49c-24.15,0.44-43.75-18.21-43.75-41.66
		V2282.26z M1201.61,2151.34c-14.83,0.14-26.9,11.88-26.9,26.16v42.75l-16.45,0.19v-42.76c0-23.02,19.46-41.93,43.35-42.15
		l357.62-3.32c14.54-0.13,26.37-11.74,26.37-25.87v-57.82l16.09-0.12v57.79c0,22.76-19.04,41.46-42.46,41.68L1201.61,2151.34z
		 M1676.16,2214.51v-166.63l16.02-0.11v166.57L1676.16,2214.51z M1903.55,1976.67c0,23.18-19.17,42.1-42.85,42.25l-354.7,2.26
		c-24.15,0.15-43.75-18.73-43.75-42.19v-156.83c0-23.45,19.6-42.47,43.75-42.47l354.7-0.04c23.68,0,42.85,18.79,42.85,41.97V1976.67
		z M1692.17,1756.98l-16.02-0.01v-166.63l16.02,0.08V1756.98z M1427.29,1569.92c-46.99-0.25-85.17-37.39-85.17-82.96v-139.65
		c0-45.57,38.18-82,85.17-81.38l510.35,6.72c45.65,0.6,82.58,37.38,82.58,82.15v137.2c0,44.77-36.93,80.86-82.58,80.62
		L1427.29,1569.92z M1559.23,1673.28c14.54,0.04,26.37-11.43,26.37-25.56v-57.82l16.09,0.08v57.79c0,22.76-19.04,41.23-42.46,41.18
		l-357.62-0.8c-14.83-0.03-26.9,11.56-26.9,25.84v42.75l-16.45-0.01v-42.76c0-23.02,19.46-41.69,43.35-41.63L1559.23,1673.28z
		 M1347.8,1779.72c24.32,0,44.01,19.04,44.01,42.54v157.11c0,23.5-19.69,42.67-44.01,42.82l-364.34,2.33
		c-24.81,0.16-44.94-18.98-44.94-42.75v-158.96c0-23.77,20.13-43.04,44.94-43.05L1347.8,1779.72z M983.46,2245.56l364.34-4.39
		c24.32-0.29,44.01,18.52,44.01,42.01v157.11c0,23.5-19.69,42.9-44.01,43.35l-364.34,6.67c-24.81,0.46-44.94-18.45-44.94-42.22
		v-158.96C938.52,2265.37,958.66,2245.86,983.46,2245.56z M2401.92,1821.02v153.01c0,22.88-18.68,41.55-41.74,41.7l-345.45,2.21
		c-23.52,0.15-42.6-18.49-42.6-41.63v-154.76c0-23.14,19.08-41.91,42.6-41.91l345.45-0.04
		C2383.24,1779.59,2401.92,1798.14,2401.92,1821.02z M2196.04,1715.59v41.62l-15.6-0.01v-41.64c0-13.91-11.46-25.26-25.56-25.29
		l-346.6-0.77c-23.15-0.05-42-18.53-42-41.19v-57.54l15.94,0.08v57.52c0,14.06,11.7,25.53,26.06,25.57l346.6,0.92
		C2177.59,1674.91,2196.04,1693.19,2196.04,1715.59z M2104.71,1107.92l-1256.36-22.08v-69.83l1256.36,24.31V1107.92z
		 M1215.67,622.14c25.39,0.75,45.94,21.18,45.94,45.63c0,24.44-20.56,43.7-45.94,43c-25.42-0.7-46.05-21.13-46.05-45.63
		C1169.62,640.64,1190.25,621.39,1215.67,622.14z M1053.44,617.33c25.6,0.76,46.33,21.27,46.33,45.82
		c0,24.55-20.73,43.88-46.33,43.18c-25.63-0.7-46.44-21.22-46.44-45.82S1027.81,616.57,1053.44,617.33z M889.85,612.47
		c25.81,0.77,46.72,21.37,46.72,46.02c0,24.65-20.9,44.06-46.72,43.35c-25.85-0.71-46.83-21.31-46.83-46.02
		C843.02,631.11,864,611.7,889.85,612.47z M848.35,2915.74v-69.83l1595.43-44.7l3.63,66.8L848.35,2915.74z"/>
	<path opacity="0.74" fill="#FFFFFF" d="M1215.67,710.77c25.39,0.7,45.94-18.56,45.94-43c0-24.45-20.56-44.87-45.94-45.63
		c-25.42-0.75-46.05,18.5-46.05,43S1190.25,710.07,1215.67,710.77z"/>
	<path opacity="0.74" fill="#FFFFFF" d="M1053.44,706.32c25.6,0.7,46.33-18.63,46.33-43.18c0-24.55-20.73-45.06-46.33-45.82
		c-25.63-0.76-46.44,18.57-46.44,43.17C1007,685.11,1027.81,705.62,1053.44,706.32z"/>
	<path opacity="0.74" fill="#FFFFFF" d="M889.85,612.47c-25.85-0.77-46.83,18.64-46.83,43.35c0,24.71,20.98,45.31,46.83,46.02
		c25.81,0.71,46.72-18.7,46.72-43.35C936.57,633.84,915.67,613.24,889.85,612.47z"/>
	<linearGradient id="SVGID_8_" gradientUnits="userSpaceOnUse" x1="1669.9449" y1="638.3436" x2="1503.595" y2="2141.8989">
		<stop  offset="0" style="stop-color:#40447E"/>
		<stop  offset="0.9964" style="stop-color:#3C3B6B"/>
	</linearGradient>
	<path fill="url(#SVGID_8_)" d="M2506.97,585.08L824.5,531.78c-79.35-2.51-143.92,56.9-143.92,132.7v98.47l1957.29,50.3v-93.57
		C2637.87,647.63,2579.38,587.38,2506.97,585.08z M889.85,701.84c-25.85-0.71-46.83-21.31-46.83-46.02
		c0-24.71,20.98-44.12,46.83-43.35c25.81,0.77,46.72,21.37,46.72,46.02C936.57,683.14,915.67,702.55,889.85,701.84z M1053.44,706.32
		c-25.63-0.7-46.44-21.22-46.44-45.82c0-24.61,20.8-43.93,46.44-43.17c25.6,0.76,46.33,21.27,46.33,45.82
		C1099.77,687.69,1079.04,707.02,1053.44,706.32z M1215.67,710.77c-25.42-0.7-46.05-21.12-46.05-45.63s20.63-43.75,46.05-43
		c25.39,0.75,45.94,21.18,45.94,45.63C1261.61,692.21,1241.06,711.46,1215.67,710.77z"/>
	<linearGradient id="SVGID_9_" gradientUnits="userSpaceOnUse" x1="848.3466" y1="1880.2305" x2="2485.0981" y2="1880.2305">
		<stop  offset="3.597120e-03" style="stop-color:#E38DDD"/>
		<stop  offset="1" style="stop-color:#9571F6"/>
	</linearGradient>
	<path fill="url(#SVGID_9_)" d="M848.35,1180.22v1400.02l1636.75-33.61V1205.05L848.35,1180.22z M2196.04,1715.59v41.62l-15.6-0.01
		v-41.64c0-13.91-11.46-25.26-25.56-25.29l-346.6-0.77c-23.15-0.05-42-18.53-42-41.19v-57.54l15.94,0.08v57.52
		c0,14.06,11.7,25.53,26.06,25.57l346.6,0.92C2177.59,1674.91,2196.04,1693.19,2196.04,1715.59z M2154.88,2142.11l-346.6,3.36
		c-23.15,0.22-42-18.03-42-40.69v-57.54l15.94-0.11v57.52c0,14.06,11.7,25.39,26.06,25.26l346.6-3.22
		c22.71-0.21,41.16,17.85,41.16,40.25v41.62l-15.6,0.18v-41.64C2180.44,2153.18,2168.98,2141.97,2154.88,2142.11z M1903.55,1976.67
		c0,23.19-19.17,42.1-42.85,42.25l-354.7,2.26c-24.15,0.15-43.75-18.73-43.75-42.19v-156.83c0-23.45,19.6-42.47,43.75-42.47
		l354.7-0.04c23.68,0,42.85,18.79,42.85,41.97V1976.67z M1692.17,2047.76v166.57l-16.02,0.18v-166.63L1692.17,2047.76z
		 M1601.69,2048.41v57.79c0,22.76-19.04,41.46-42.46,41.68l-357.62,3.46c-14.83,0.14-26.9,11.88-26.9,26.16v42.75l-16.45,0.19
		v-42.76c0-23.02,19.46-41.93,43.35-42.15l357.62-3.32c14.54-0.14,26.37-11.74,26.37-25.87v-57.82L1601.69,2048.41z
		 M1676.16,1756.97v-166.63l16.02,0.08v166.57L1676.16,1756.97z M1342.12,1347.32c0-45.57,38.18-82,85.17-81.38l510.35,6.72
		c45.65,0.6,82.58,37.38,82.58,82.15v137.2c0,44.77-36.93,80.86-82.58,80.62l-510.35-2.71c-46.99-0.25-85.17-37.39-85.17-82.96
		V1347.32z M1158.26,1713.96c0-23.02,19.46-41.69,43.35-41.63l357.62,0.95c14.54,0.04,26.37-11.43,26.37-25.56v-57.82l16.09,0.08
		v57.79c0,22.76-19.04,41.23-42.46,41.18l-357.62-0.8c-14.83-0.03-26.9,11.56-26.9,25.84v42.75l-16.45-0.01V1713.96z
		 M938.52,1822.81c0-23.77,20.13-43.04,44.94-43.05l364.34-0.04c24.32,0,44.01,19.04,44.01,42.54v157.11
		c0,23.5-19.69,42.67-44.01,42.82l-364.34,2.33c-24.81,0.16-44.94-18.98-44.94-42.75V1822.81z M1391.81,2440.3
		c0,23.5-19.69,42.9-44.01,43.35l-364.34,6.67c-24.81,0.45-44.94-18.45-44.94-42.22v-158.96c0-23.77,20.13-43.28,44.94-43.58
		l364.34-4.39c24.32-0.29,44.01,18.52,44.01,42.01V2440.3z M1903.55,2431.5c0,23.18-19.17,42.33-42.85,42.76l-354.7,6.49
		c-24.15,0.44-43.75-18.21-43.75-41.66v-156.83c0-23.45,19.6-42.7,43.75-42.99l354.7-4.27c23.68-0.28,42.85,18.28,42.85,41.46
		V2431.5z M2401.92,2422.92c0,22.88-18.68,41.77-41.74,42.2l-345.45,6.32c-23.52,0.43-42.6-17.98-42.6-41.12v-154.76
		c0-23.14,19.08-42.13,42.6-42.42l345.45-4.16c23.06-0.28,41.74,18.05,41.74,40.93V2422.92z M2401.92,1974.03
		c0,22.88-18.68,41.55-41.74,41.7l-345.45,2.21c-23.52,0.15-42.6-18.49-42.6-41.63v-154.76c0-23.14,19.08-41.91,42.6-41.91
		l345.45-0.04c23.06,0,41.74,18.55,41.74,41.43V1974.03z"/>
	<polygon fill="#FFFFFF" points="2345.32,1044.99 2345.32,1112.15 2485.1,1114.61 2485.1,1047.7 	"/>
	<g>
		<g>
			<path fill="#D8DEE8" d="M3200.93,1064.9L2165.42,964.62c-33.96-3.29-68.99,20.4-78.16,52.96l-6.28,22.29l23.73,0.46v67.59
				l-42.68-0.75l-56.64,201.1c9.34,13.26,14.83,29.3,14.83,46.53v137.2c0,44.77-36.93,80.86-82.58,80.62l-6.69-0.04l-28.61,101.59
				l252.54,0.67c22.71,0.06,41.16,18.34,41.16,40.74v41.62l-15.6-0.01v-41.64c0-13.91-11.46-25.26-25.56-25.29l-256.91-0.57
				l-13.67,48.55c-9.55,33.92,11.24,63.08,46.36,65.07l44.57,2.53c6.32-15.37,21.63-26.22,39.5-26.22l345.45-0.04
				c23.06,0,41.74,18.54,41.74,41.43v9.01l598.51,33.91c31.6,1.79,63.65-22.83,71.66-54.93l170.29-682.85
				C3250.08,1095.27,3231.56,1067.86,3200.93,1064.9z"/>
			<polygon fill="#D8DEE8" points="2104.71,1040.33 2080.98,1039.88 2062.03,1107.17 2104.71,1107.92 			"/>
			<path fill="#D8DEE8" d="M2180.44,1715.57v41.64l15.6,0.01v-41.62c0-22.4-18.45-40.68-41.16-40.74l-252.54-0.67l-4.37,15.52
				l256.91,0.57C2168.98,1690.31,2180.44,1701.65,2180.44,1715.57z"/>
			<path fill="#D8DEE8" d="M2360.18,1779.6l-345.45,0.04c-17.88,0-33.18,10.85-39.5,26.22l426.69,24.18v-9.01
				C2401.92,1798.14,2383.24,1779.59,2360.18,1779.6z"/>
			<path fill="#D8DEE8" d="M2020.22,1492.01v-137.2c0-17.23-5.49-33.27-14.83-46.53l-74.44,264.32l6.69,0.04
				C1983.29,1572.87,2020.22,1536.78,2020.22,1492.01z"/>
			<linearGradient id="SVGID_10_" gradientUnits="userSpaceOnUse" x1="2919.2922" y1="756.5543" x2="1966.3771" y2="2662.3806">
				<stop  offset="0" style="stop-color:#E3E7EF"/>
				<stop  offset="1" style="stop-color:#FAFBFD"/>
			</linearGradient>
			<path fill="url(#SVGID_10_)" d="M3210.64,1067.46L2175.13,967.18c-33.96-3.29-68.99,20.4-78.16,52.96l-5.61,19.93l13.35,0.26
				v67.59l-32.3-0.57l-59.98,212.97c4.99,10.5,7.79,22.19,7.79,34.48v137.2c0,43.53-34.92,78.86-78.82,80.55l-28.63,101.65
				l242.11,0.64c22.71,0.06,41.16,18.34,41.16,40.74v41.62l-15.6-0.01v-41.64c0-13.91-11.46-25.26-25.56-25.29l-246.48-0.55
				l-14.39,51.09c-9.55,33.92,11.24,63.08,46.36,65.07l34.11,1.93c5.78-16.4,21.62-28.18,40.25-28.18l345.45-0.04
				c23.06,0,41.74,18.54,41.74,41.43v11.02l608.22,34.46c31.6,1.79,63.65-22.83,71.66-54.93l170.29-682.85
				C3259.79,1097.83,3241.27,1070.42,3210.64,1067.46z"/>
			<linearGradient id="SVGID_11_" gradientUnits="userSpaceOnUse" x1="2116.7183" y1="1036.6334" x2="2059.407" y2="1151.2556">
				<stop  offset="0" style="stop-color:#E3E7EF"/>
				<stop  offset="1" style="stop-color:#FAFBFD"/>
			</linearGradient>
			<polygon fill="url(#SVGID_11_)" points="2104.71,1040.33 2091.36,1040.08 2072.41,1107.36 2104.71,1107.92 			"/>
			<linearGradient id="SVGID_12_" gradientUnits="userSpaceOnUse" x1="2099.4614" y1="1625.5945" x2="2000.9386" y2="1822.6396">
				<stop  offset="0" style="stop-color:#E3E7EF"/>
				<stop  offset="1" style="stop-color:#FAFBFD"/>
			</linearGradient>
			<path fill="url(#SVGID_12_)" d="M2180.44,1715.57v41.64l15.6,0.01v-41.62c0-22.4-18.45-40.68-41.16-40.74l-242.11-0.64
				l-4.37,15.52l246.48,0.55C2168.98,1690.31,2180.44,1701.65,2180.44,1715.57z"/>
			<linearGradient id="SVGID_13_" gradientUnits="userSpaceOnUse" x1="2251.1243" y1="1693.7208" x2="2095.3638" y2="2005.2412">
				<stop  offset="0" style="stop-color:#E3E7EF"/>
				<stop  offset="1" style="stop-color:#FAFBFD"/>
			</linearGradient>
			<path fill="url(#SVGID_13_)" d="M2360.18,1779.6l-345.45,0.04c-18.63,0-34.47,11.78-40.25,28.18l427.44,24.22v-11.02
				C2401.92,1798.14,2383.24,1779.59,2360.18,1779.6z"/>
			<linearGradient id="SVGID_14_" gradientUnits="userSpaceOnUse" x1="2067.0784" y1="1314.074" x2="1868.8007" y2="1710.6288">
				<stop  offset="0" style="stop-color:#E3E7EF"/>
				<stop  offset="1" style="stop-color:#FAFBFD"/>
			</linearGradient>
			<path fill="url(#SVGID_14_)" d="M2020.22,1492.01v-137.2c0-12.29-2.8-23.98-7.79-34.48l-71.04,252.23
				C1985.3,1570.86,2020.22,1535.54,2020.22,1492.01z"/>
			<linearGradient id="SVGID_15_" gradientUnits="userSpaceOnUse" x1="2564.9404" y1="643.6492" x2="2789.1145" y2="1540.3489">
				<stop  offset="0" style="stop-color:#FF9085"/>
				<stop  offset="1" style="stop-color:#FB6FBB"/>
			</linearGradient>
			<path fill="url(#SVGID_15_)" d="M3210.64,1067.46L2175.13,967.18c-33.96-3.29-68.99,20.4-78.16,52.96l-5.61,19.93l13.35,0.26
				v24.01l1137.35,104.58l10.03-40.2C3259.79,1097.83,3241.27,1070.42,3210.64,1067.46z"/>
			<linearGradient id="SVGID_16_" gradientUnits="userSpaceOnUse" x1="2088.9414" y1="1027.7084" x2="2102.0376" y2="1080.0924">
				<stop  offset="0" style="stop-color:#FF9085"/>
				<stop  offset="1" style="stop-color:#FB6FBB"/>
			</linearGradient>
			<polygon fill="url(#SVGID_16_)" points="2091.36,1040.08 2085.03,1062.53 2104.71,1064.34 2104.71,1040.33 			"/>
			<path fill="#FFFFFF" d="M2208.39,1024.78c-2.96,10.62-14.34,18.39-25.43,17.35c-11.1-1.04-17.7-10.5-14.73-21.14
				c2.97-10.63,14.38-18.38,25.47-17.33C2204.77,1004.72,2211.35,1014.17,2208.39,1024.78z"/>
			<path fill="#FFFFFF" d="M2278.55,1031.39c-2.93,10.58-14.23,18.33-25.25,17.3c-11.03-1.03-17.59-10.46-14.65-21.07
				c2.94-10.6,14.26-18.33,25.28-17.28C2274.94,1011.4,2281.48,1020.82,2278.55,1031.39z"/>
			<path fill="#FFFFFF" d="M2348.25,1037.96c-2.9,10.55-14.11,18.28-25.06,17.26c-10.96-1.02-17.49-10.42-14.57-20.99
				c2.91-10.56,14.15-18.28,25.09-17.23C2344.64,1018.03,2351.14,1027.42,2348.25,1037.96z"/>
			<polygon fill="#D8DEE8" points="2107.04,1248.19 2027.22,1533.67 3065.89,1606.01 3134.27,1333.78 			"/>
			<polygon fill="#FFFFFF" points="2015.53,1575.47 2006.86,1606.46 3048.46,1675.39 3055.88,1645.85 			"/>
			<path fill="#FFFFFF" d="M2104.9,1690.16l63.49,3.97c-3.92-2.43-8.55-3.85-13.51-3.86L2104.9,1690.16z"/>
			<path fill="#FFFFFF" d="M3037.66,1718.39l-1043.42-66.8l-6.38,22.82l167.01,0.44c15.32,0.04,28.69,8.38,35.78,20.68l839.56,52.51
				L3037.66,1718.39z"/>
			<path fill="#FFFFFF" d="M2154.88,1674.85l-167.01-0.44l-2.32,8.29l119.35,7.46l49.98,0.11c4.96,0.01,9.59,1.43,13.51,3.86
				l22.26,1.39C2183.57,1683.23,2170.2,1674.89,2154.88,1674.85z"/>
			<g>
				<polygon fill="#FFFFFF" points="2673.11,1224.17 2127.01,1176.8 2118.53,1207.12 2665.29,1253.76 				"/>
				<polygon fill="#FFFFFF" points="3091.88,1260.5 3084.54,1289.52 3144.11,1294.6 3151.38,1265.67 				"/>
			</g>
			<g opacity="0.5">
				<path fill="#FFFFFF" d="M2750.37,1851.79c-15.76-35.48-28.58-74.65-36.78-117.81c-31.22-164.35,36.52-214.38-11.33-322.77
					c-78.42-177.65-303.99-139.12-386.22-332.22c-14.7-34.51-21.57-69-24.1-100.49l-116.81-11.31
					c-33.96-3.29-68.99,20.4-78.16,52.96l-5.61,19.93l13.35,0.26v67.59l-32.3-0.57l-59.98,212.97c4.99,10.5,7.79,22.19,7.79,34.48
					v137.2c0,43.53-34.92,78.86-78.82,80.55l-28.63,101.65l242.11,0.64c22.71,0.06,41.16,18.34,41.16,40.74v41.62l-15.6-0.01v-41.64
					c0-13.91-11.46-25.26-25.56-25.29l-246.48-0.55l-14.39,51.09c-9.55,33.92,11.24,63.08,46.36,65.07l34.11,1.93
					c5.78-16.4,21.62-28.18,40.25-28.18l345.45-0.04c23.06,0,41.74,18.54,41.74,41.43v11.02L2750.37,1851.79z"/>
				<polygon fill="#FFFFFF" points="2104.71,1040.33 2091.36,1040.08 2072.41,1107.36 2104.71,1107.92 				"/>
				<path fill="#FFFFFF" d="M2180.44,1715.57v41.64l15.6,0.01v-41.62c0-22.4-18.45-40.68-41.16-40.74l-242.11-0.64l-4.37,15.52
					l246.48,0.55C2168.98,1690.31,2180.44,1701.65,2180.44,1715.57z"/>
				<path fill="#FFFFFF" d="M2401.92,1821.02c0-22.88-18.68-41.43-41.74-41.43l-345.45,0.04c-18.63,0-34.47,11.78-40.25,28.18
					l427.44,24.22V1821.02z"/>
				<path fill="#FFFFFF" d="M2020.22,1492.01v-137.2c0-12.29-2.8-23.98-7.79-34.48l-71.04,252.23
					C1985.3,1570.86,2020.22,1535.54,2020.22,1492.01z"/>
			</g>
		</g>
		<g>
			<linearGradient id="SVGID_17_" gradientUnits="userSpaceOnUse" x1="2020.719" y1="1404.2677" x2="1999.3411" y2="1427.3658">
				<stop  offset="0" style="stop-color:#FFC444"/>
				<stop  offset="0.9964" style="stop-color:#F36F56"/>
			</linearGradient>
			<path fill="url(#SVGID_17_)" d="M2029.69,1414.69c0,0-1.61-12.26-9.47-29.99v33.49L2029.69,1414.69z"/>
			<linearGradient id="SVGID_18_" gradientUnits="userSpaceOnUse" x1="2004.3895" y1="1306.403" x2="2003.2474" y2="1307.637">
				<stop  offset="0" style="stop-color:#FFC444"/>
				<stop  offset="0.9964" style="stop-color:#F36F56"/>
			</linearGradient>
			<path fill="url(#SVGID_18_)" d="M2005.31,1306.23c0,0-0.71-0.39-1.95-0.73c0.57,0.74,1.11,1.49,1.66,2.25L2005.31,1306.23z"/>
			<linearGradient id="SVGID_19_" gradientUnits="userSpaceOnUse" x1="2000.238" y1="1367.7715" x2="1927.3285" y2="1446.5474">
				<stop  offset="0" style="stop-color:#FFC444"/>
				<stop  offset="0.9964" style="stop-color:#F36F56"/>
			</linearGradient>
			<path fill="url(#SVGID_19_)" d="M1973.36,1333.13c-13.45,36.99,6.73,63.06,6.73,63.06l26.9,26.9l13.23-4.9v-33.49
				c-2.01-4.54-4.43-9.43-7.35-14.57c-15.97-21.02-12.61-37.83-12.61-37.83l4.75-24.54c-0.54-0.76-1.09-1.51-1.66-2.25
				C1998.26,1304.09,1984.18,1303.38,1973.36,1333.13z"/>
			<linearGradient id="SVGID_20_" gradientUnits="userSpaceOnUse" x1="3142.5137" y1="1520.9836" x2="3031.5613" y2="1640.8634">
				<stop  offset="0" style="stop-color:#FFC444"/>
				<stop  offset="0.9964" style="stop-color:#F36F56"/>
			</linearGradient>
			<path fill="url(#SVGID_20_)" d="M3126.86,1527.91l30.27-27.46l13.45-49.88c0,0,36.99,14.57,16.81,61.65
				c-12.89,15.69-44.56,39.23-58.01,62.22C3115.93,1597.41,3126.86,1527.91,3126.86,1527.91z"/>
			<linearGradient id="SVGID_21_" gradientUnits="userSpaceOnUse" x1="2698.5454" y1="1243.3584" x2="3179.1538" y2="2007.252">
				<stop  offset="0" style="stop-color:#FF9085"/>
				<stop  offset="1" style="stop-color:#FB6FBB"/>
			</linearGradient>
			<path fill="url(#SVGID_21_)" d="M2828.68,1862.52c0,0,145.17-89.68,180.48-121.63c36.82-33.31,133.68-161.42,142.09-176.56
				c8.41-15.13-26.06-45.4-26.06-45.4s-168.71,210.75-380.58,148.53C2778.23,1743.14,2828.68,1862.52,2828.68,1862.52z"/>
			<linearGradient id="SVGID_22_" gradientUnits="userSpaceOnUse" x1="2883.0439" y1="3213.3206" x2="2883.0439" y2="3091.3796">
				<stop  offset="0" style="stop-color:#FFC444"/>
				<stop  offset="0.9964" style="stop-color:#F36F56"/>
			</linearGradient>
			<path fill="url(#SVGID_22_)" d="M2849.69,3100.94c0,0,26.62,66.98,19.62,96.69c28.59-0.56,47.08-4.2,47.08-4.2
				s-11.49-30.55-13.73-45.68c-3.03-20.45-2.8-53.53-2.8-53.53L2849.69,3100.94z"/>
			<path fill="#26264F" d="M2556.2,3257.6c1.72,2.08,4.78,6.42,5.03,12.3c0.14,3.2-0.59,5.83-1.51,8.24
				c-4.54,11.95-11.67,13.52-19.36,26.2c-4.7,7.75-3.81,10.08-8.12,13.58c-5.68,4.61-12.54,4.87-18.5,4.94
				c-10.06,0.12-24.54-0.24-42.77-2.42c9.56-12.32,19.72-24.83,30.52-37.46c4.74-5.54,9.47-10.95,14.19-16.23l28.09-9.49
				C2547.92,3257.38,2552.06,3257.49,2556.2,3257.6z"/>
			<linearGradient id="SVGID_23_" gradientUnits="userSpaceOnUse" x1="2511.3669" y1="3248.0713" x2="2511.3669" y2="3101.1145">
				<stop  offset="0" style="stop-color:#FFC444"/>
				<stop  offset="0.9964" style="stop-color:#F36F56"/>
			</linearGradient>
			<path fill="url(#SVGID_23_)" d="M2532.84,3121.2c0,0-16.06,83.79,4.38,107.25c17.41,23.46-8.41,6.73-8.41,6.73l-30.83,26.9
				l-18.5,31.95c0,0,17.03-82.01,12.49-114.55c-4.54-32.54-6.81-54.49-6.81-54.49L2532.84,3121.2z"/>
			<linearGradient id="SVGID_24_" gradientUnits="userSpaceOnUse" x1="2267.1831" y1="1488.9596" x2="2819.427" y2="2366.7129">
				<stop  offset="0" style="stop-color:#FF9085"/>
				<stop  offset="1" style="stop-color:#FB6FBB"/>
			</linearGradient>
			<path fill="url(#SVGID_24_)" d="M2612.32,1666.91c-78.16-13.18-190.1,26.39-319.48-42.04
				c-127.3-67.33-202.51-166.7-246.34-230.36c-8.76,4.33-17.52,8.67-26.28,13v65.47c39.76,61.31,102.1,145.4,178.7,208.59
				c57.59,47.51,114.61,74.75,166.06,98.3c9.08,1.03,17.26,4.94,23.61,10.8c52.16,23.99,97.3,46.74,129.58,87.54
				C2550.02,1846.65,2650.46,1673.34,2612.32,1666.91z"/>
			<linearGradient id="SVGID_25_" gradientUnits="userSpaceOnUse" x1="2374.4895" y1="1781.6373" x2="2392.5593" y2="1810.3583">
				<stop  offset="0" style="stop-color:#FF9085"/>
				<stop  offset="1" style="stop-color:#FB6FBB"/>
			</linearGradient>
			<path fill="url(#SVGID_25_)" d="M2388.58,1790.67c-6.35-5.86-14.53-9.77-23.61-10.8
				C2372.99,1783.54,2380.86,1787.12,2388.58,1790.67z"/>
			<linearGradient id="SVGID_26_" gradientUnits="userSpaceOnUse" x1="2013.022" y1="1428.9169" x2="2062.0649" y2="1506.8671">
				<stop  offset="0" style="stop-color:#FF9085"/>
				<stop  offset="1" style="stop-color:#FB6FBB"/>
			</linearGradient>
			<path fill="url(#SVGID_26_)" d="M1989.37,1422.76c7.81,13.49,18.19,30.7,30.85,50.22v-65.47
				C2009.94,1412.59,1999.65,1417.68,1989.37,1422.76z"/>
			<linearGradient id="SVGID_27_" gradientUnits="userSpaceOnUse" x1="2429.1533" y1="2670.7971" x2="2909.9482" y2="2670.7971">
				<stop  offset="0" style="stop-color:#311944"/>
				<stop  offset="1" style="stop-color:#893976"/>
			</linearGradient>
			<path fill="url(#SVGID_27_)" d="M2853.74,2681.48c-27.25-115.8-24.98-395.07-70.39-474.54c-102.17-40.87-311.06-2.27-311.06-2.27
				s-43.14,38.6-43.14,197.54c0,60.93,3,149.24,6.71,234.96l3.04,66.8c1.67,35.13,3.36,68.34,4.88,97.32l3.62,66.72
				c1.34,24.01,2.19,38.25,2.19,38.25l32.7,247.09c0,0,33.9,1.21,56.61-5.61c20.44-93.09,53.73-250.57,37.84-382.26
				c-6.81-143.04,56.76-322.42,56.76-322.42s54.49,181.64,93.09,272.46c38.6,90.82,112.09,375.34,118.9,395.77
				c45.17,4.1,64.46-7.85,64.46-7.85S2880.99,2797.27,2853.74,2681.48z"/>
			<linearGradient id="SVGID_28_" gradientUnits="userSpaceOnUse" x1="2443.7822" y1="2834.6475" x2="2447.4023" y2="2834.6475">
				<stop  offset="0" style="stop-color:#311944"/>
				<stop  offset="1" style="stop-color:#893976"/>
			</linearGradient>
			<path fill="url(#SVGID_28_)" d="M2447.4,2868.01l-3.62-66.72C2445.17,2827.61,2446.42,2850.43,2447.4,2868.01z"/>
			<linearGradient id="SVGID_29_" gradientUnits="userSpaceOnUse" x1="2435.8613" y1="2670.564" x2="2438.8984" y2="2670.564">
				<stop  offset="0" style="stop-color:#311944"/>
				<stop  offset="1" style="stop-color:#893976"/>
			</linearGradient>
			<path fill="url(#SVGID_29_)" d="M2435.86,2637.16c0.98,22.63,2,45.08,3.04,66.8l0,0L2435.86,2637.16z"/>
			<linearGradient id="SVGID_30_" gradientUnits="userSpaceOnUse" x1="2413.8728" y1="2312.3899" x2="2760.2598" y2="2894.186">
				<stop  offset="0" style="stop-color:#311944"/>
				<stop  offset="1" style="stop-color:#893976"/>
			</linearGradient>
			<path fill="url(#SVGID_30_)" d="M2853.74,2681.48c-27.25-115.8-24.98-395.07-70.39-474.54c-102.17-40.87-311.06-2.27-311.06-2.27
				s-43.14,38.6-43.14,197.54c0,60.93,3,149.24,6.71,234.96l3.04,66.8c1.67,35.13,3.36,68.34,4.88,97.32l3.62,66.72
				c1.34,24.01,2.19,38.25,2.19,38.25l32.7,247.09c0,0,33.9,1.21,56.61-5.61c20.44-93.09,53.73-250.57,37.84-382.26
				c-6.81-143.04,56.76-322.42,56.76-322.42s54.49,181.64,93.09,272.46c38.6,90.82,112.09,375.34,118.9,395.77
				c45.17,4.1,64.46-7.85,64.46-7.85S2880.99,2797.27,2853.74,2681.48z"/>
			<linearGradient id="SVGID_31_" gradientUnits="userSpaceOnUse" x1="2432.3586" y1="2812.4202" x2="2452.938" y2="2846.9856">
				<stop  offset="0" style="stop-color:#311944"/>
				<stop  offset="1" style="stop-color:#893976"/>
			</linearGradient>
			<path fill="url(#SVGID_31_)" d="M2447.4,2868.01l-3.62-66.72C2445.17,2827.61,2446.42,2850.43,2447.4,2868.01z"/>
			<linearGradient id="SVGID_32_" gradientUnits="userSpaceOnUse" x1="2424.1985" y1="2648.4243" x2="2444.6968" y2="2682.8533">
				<stop  offset="0" style="stop-color:#311944"/>
				<stop  offset="1" style="stop-color:#893976"/>
			</linearGradient>
			<path fill="url(#SVGID_32_)" d="M2435.86,2637.16c0.98,22.63,2,45.08,3.04,66.8l0,0L2435.86,2637.16z"/>
			<linearGradient id="SVGID_33_" gradientUnits="userSpaceOnUse" x1="2550.2354" y1="2231.2031" x2="2896.6221" y2="2812.9993">
				<stop  offset="0" style="stop-color:#311944"/>
				<stop  offset="1" style="stop-color:#893976"/>
			</linearGradient>
			<path opacity="0.25" fill="url(#SVGID_33_)" d="M2853.74,2681.48c-27.25-115.8-24.98-395.07-70.39-474.54
				c-102.17-40.87-311.06-2.27-311.06-2.27s-43.14,38.6-43.14,197.54c0,12.9,0.14,27.03,0.38,42.1
				c44.79,39.63,136.38,48.44,192.88,4.5c3.41-2.56,7.04-4.13,10.79-4.89c0.17-0.5,0.29-0.84,0.29-0.84s0.09,0.31,0.24,0.79
				c25.71-4.69,56.83,28.7,62.66,52.03c13.45,87.44,40.36,134.52,107.62,195.05c53.81,40.36,13.45,127.79,33.63,195.05
				c6.73,20.18,26.9,40.36,33.63,60.53c25.03,50.06,1.65,111.29,13,164.29c17.66-2.44,25.67-7.35,25.67-7.35
				S2880.99,2797.27,2853.74,2681.48z"/>
			<g>
				<path fill="#26264F" d="M2862.31,3223.04c0,0-6.64,0-6.08,8.57c0.55,8.57-2.99,38.05,30.74,39.44
					c33.73,1.38,38.93-2.39,40.04-2.39c1.11,0-8.85-28.2-8.85-28.2l-10.78-13.82l-29.03-3.04L2862.31,3223.04z"/>
				<path fill="#444B8C" d="M2937.1,3252.64c-0.72-7.12-4.7-18.33-8.71-27.35c-5.96-13.4-1.07-18.41-6.76-30.62
					c-1.97-4.22-3.88-8.22-8.04-12.18c-0.96-0.91-10.27-9.51-23.82-9.08c-2.67,0.09-6.77,0.26-11.21,2.63
					c-5.23,2.79-7.85,6.97-10.09,10.65c-3.52,5.78-2.71,7.55-8.13,24.1c-0.44,1.33-1.39,4.22-2.12,8.2
					c-0.56,3.05-0.79,5.61-0.89,7.36c8.85,0,42.85,1.38,50.04,6.64c7.19,5.25,10.78,14.1,10.78,22.95c0,8.85,4.42,12.99,8.85,12.72
					C2930.96,3268.42,2938.81,3261.1,2937.1,3252.64z"/>
			</g>
			<path fill="#444B8C" d="M2528.53,3216.68c7.6,0.12,13.17,6.17,17.38,20.74c4.2,14.57,24.38,27.46,0.84,24.38
				c-23.54-3.08-40.64,30.27-49.04,42.6c-8.41,12.33-30.98,23.29-30.42,11.24c0.56-12.05,10.52-17.68,13.32-30.01
				C2483.41,3273.29,2511.2,3216.41,2528.53,3216.68z"/>
			<linearGradient id="SVGID_34_" gradientUnits="userSpaceOnUse" x1="2276.1587" y1="1403.3781" x2="2845.9004" y2="2308.9431">
				<stop  offset="0" style="stop-color:#FF9085"/>
				<stop  offset="1" style="stop-color:#FB6FBB"/>
			</linearGradient>
			<path fill="url(#SVGID_34_)" d="M2688.55,1661.87c-38.11-1.12-135.11-11.71-180.48,33.63c-46.39,46.36,0.59,102.02-7.77,178.43
				c-5.67,51.8-3.63,82.33-13.47,167.02c-2.01,17.28-5.26,36.63-10.75,60.03c-12.95,55.21-35.48,163.77-47.6,190.89
				c38.83,19.95,138.87,55.63,258.08,37.9c54.44-8.1,98.01-26.21,128.66-42.38c-30.93-93.66-25.15-221.95-13.71-268.14
				c22.61-91.2,27.72-127.01,91.61-258.17c17.62-36.16-24.21-15.91-51.01-47.64C2801.04,1664.76,2727,1663,2688.55,1661.87z"/>
			<linearGradient id="SVGID_35_" gradientUnits="userSpaceOnUse" x1="2052.1353" y1="1348.6279" x2="2713.0313" y2="2399.0764">
				<stop  offset="0" style="stop-color:#FF9085"/>
				<stop  offset="1" style="stop-color:#FB6FBB"/>
			</linearGradient>
			<path opacity="0.25" fill="url(#SVGID_35_)" d="M2796.29,2195.23c-43.84-0.19-107.62-7.1-173.88-40.69
				c-36.94-18.73-55.41-28.09-66.42-48.76c-21.14-39.69,4.54-76.64,19.34-205.14c1.94-16.84,5.1-47.62-10.09-79.87
				c-2.51-5.34-11.05-22.43-26.9-36.99c-33.81-31.04-77.43-28.99-127.22-32.56c-36.44-2.61-88.63-9.13-152.96-27.03
				c37.05,23.24,73.12,40.25,106.79,55.69c9.1,1.03,17.31,4.96,23.67,10.84c43.59,20.07,82.27,39.28,112.63,68.88
				c-0.12,4.7-0.43,9.48-0.96,14.34c-5.67,51.8-3.63,82.33-13.47,167.02c-2.01,17.28-5.26,36.63-10.75,60.03
				c-12.95,55.21-35.48,163.77-47.6,190.89c38.83,19.95,138.87,55.63,258.08,37.9c54.44-8.1,98.01-26.21,128.66-42.38
				C2805.78,2258.78,2799.77,2226.96,2796.29,2195.23z"/>
			<linearGradient id="SVGID_36_" gradientUnits="userSpaceOnUse" x1="2364.5781" y1="1765.8849" x2="2383.1875" y2="1795.463">
				<stop  offset="0" style="stop-color:#FF9085"/>
				<stop  offset="1" style="stop-color:#FB6FBB"/>
			</linearGradient>
			<path opacity="0.25" fill="url(#SVGID_36_)" d="M2388.62,1790.71c-6.36-5.88-14.56-9.81-23.67-10.84
				C2372.99,1783.55,2380.88,1787.15,2388.62,1790.71z"/>
			<g>
				<linearGradient id="SVGID_37_" gradientUnits="userSpaceOnUse" x1="2744.2141" y1="1562.5631" x2="2649.5903" y2="1715.631">
					<stop  offset="0" style="stop-color:#FFC444"/>
					<stop  offset="0.9964" style="stop-color:#F36F56"/>
				</linearGradient>
				<path fill="url(#SVGID_37_)" d="M2656.3,1583.79c3.77-29.09,26.76-47.72,31.78-51.71c21.01-16.7,25.28-18.38,32.5-19.75
					l9.85-1.49c0,0,0.53,0.01,1.08,0.04c5.77,0.35,23.06,7.1,26.2,9.31c10.04,7.06,2.65,57.06-27.79,119.25
					c-1.2,5.27-2.39,10.53-3.59,15.8c26.53,4.66,33.1,9.45,33.31,13.27c0.45,8.28-28.59,18.84-55.52,19.53
					c-33.76,0.86-69.6-13.66-68.92-24.5c0.28-4.39,6.65-9.8,31.16-15.11c3.83-5.39,7.66-10.77,11.49-16.16
					C2674.37,1628.05,2653.53,1605.21,2656.3,1583.79z"/>
				<linearGradient id="SVGID_38_" gradientUnits="userSpaceOnUse" x1="2684.0078" y1="1566.7319" x2="2825.8701" y2="1566.7319">
					<stop  offset="0" style="stop-color:#311944"/>
					<stop  offset="1" style="stop-color:#6B3976"/>
				</linearGradient>
				<path fill="url(#SVGID_38_)" d="M2720.58,1491.86c-10.59,10.34-13.19,28.33-10.05,41.29c1.87,7.75,4.29,8.57,3.95,13.65
					c-0.97,14.26-26.94,20.47-25.49,27.65c1.03,5.13,14.55,3.25,16.88,9.69c2.55,7.06-12.29,13.13-18.67,30.88
					c-0.99,2.77-7.03,19.56,0.72,29.45c7.23,9.22,23.41,7.04,41.65,4.67c20.12-2.61,34.55-8.56,38.78-10.41
					c13.32-5.85,27.63-12.13,39.5-26.57c2.81-3.42,19.34-24.16,17.95-53.14c-1.82-38.08-33.66-70.6-66.43-75.77
					C2754.05,1482.41,2733.57,1479.18,2720.58,1491.86z"/>
				
					<linearGradient id="SVGID_39_" gradientUnits="userSpaceOnUse" x1="2143.7756" y1="1448.5002" x2="2052.2095" y2="1596.6223" gradientTransform="matrix(0.9717 -0.2361 0.2361 0.9717 285.212 640.4756)">
					<stop  offset="0" style="stop-color:#FFC444"/>
					<stop  offset="0.9964" style="stop-color:#F36F56"/>
				</linearGradient>
				<path fill="url(#SVGID_39_)" d="M2698.04,1572.84c7.66-4.58,13.49,5.27,9.88,13.88c-3.61,8.61-15.73,13.99-23.08,8.86
					C2677.49,1590.45,2687.73,1579,2698.04,1572.84z"/>
			</g>
			<linearGradient id="SVGID_40_" gradientUnits="userSpaceOnUse" x1="2644.9038" y1="1584.4475" x2="2726.5613" y2="1714.2363">
				<stop  offset="3.597120e-03" style="stop-color:#E38DDD"/>
				<stop  offset="1" style="stop-color:#9571F6"/>
			</linearGradient>
			<path fill="url(#SVGID_40_)" d="M2620.84,1662l18.66-5.74c0,0,4.88,25.27,64.9,28.43c33.31,0,54.85-18.67,54.85-18.67l14.36,6.6
				c0,0-29.59,37.65-74.09,36.76C2642.09,1708.24,2620.84,1662,2620.84,1662z"/>
		</g>
	</g>
	<path opacity="0.69" fill="#FFFFFF" d="M1510.7,1160.16c26.12-21.83,51.82-42.24,77.08-61.32l-30.12-0.53
		C1526.95,1135.6,1510.7,1160.16,1510.7,1160.16z"/>
	<path opacity="0.69" fill="#FFFFFF" d="M2623.25,923.7l-195.81-247.1l20.15,97.01c-382.12-127.08-679.98,100.77-829.97,257.3
		l64.64,1.25c448.64-294.36,738.16-166.29,738.16-166.29l-56.12,64.5L2623.25,923.7z"/>
	<path opacity="0.69" fill="#FFFFFF" d="M1557.67,1098.31l30.12,0.53c32.21-24.33,63.72-46.5,94.47-66.68l-64.64-1.25
		C1593.83,1055.74,1573.76,1078.77,1557.67,1098.31z"/>
</g>
</svg>
